<svg xmlns="http://www.w3.org/2000/svg" viewBox="-4418 -7445.277 81 64.895"><defs><style>.a{fill:#0d2240;}</style></defs><path class="a" d="M48.323,18.427a1.4,1.4,0,0,1,1.453,1.451c0,1.7-2.664,1.938-8.716,7.99C35.489,33.44,32.327,39.011,32.1,49.422c1.7-.242,3.386-.727,4.844-.969a36.062,36.062,0,0,1,5.084-.484c9.688,0,17.188,5.328,17.188,17.188,0,11.138-7.032,18.162-17.678,18.162C30.4,83.32,20.47,73.877,20.47,57.652,20.475,33.925,43.721,18.427,48.323,18.427Zm42.254,0a1.4,1.4,0,0,1,1.453,1.451c0,1.7-2.664,1.938-8.716,7.99-5.571,5.571-8.719,11.138-8.959,21.553,1.7-.242,3.386-.727,4.844-.969a36.062,36.062,0,0,1,5.084-.484c9.688,0,17.188,5.328,17.188,17.188,0,11.138-7.032,18.162-17.678,18.162-11.138,0-21.069-9.443-21.069-25.668.005-23.725,23.251-39.223,27.853-39.223Z" transform="translate(-4438.47 -7463.703)"/></svg>