<svg xmlns="http://www.w3.org/2000/svg" viewBox="9 -9186.326 754.211 146.872"><defs><style>.a,.b{fill:#0d2240;}.b,.c,.d{fill-rule:evenodd;}.c{fill:#7e4082;}.d,.e{fill:#e2231a;}</style></defs><g transform="translate(9 -9186.326)"><path class="a" d="M0,39.288C0,18.355,15.084.5,40.635.5A39.052,39.052,0,0,1,62.492,6.657c2.155,1.539,2.463,3.078,1.231,5.233L62.8,13.737c-1.231,2.155-3.078,2.463-5.233,1.231a38.3,38.3,0,0,0-16.931-4.31c-18.47,0-29.245,13.237-29.245,28.629S22.165,67.917,40.635,67.917a39.4,39.4,0,0,0,16.931-4.31c2.463-1.231,4.31-.924,5.233,1.231l.924,1.847c1.231,2.155.924,3.694-.616,4.925-5.849,4-12.929,6.465-22.472,6.465C15.084,78.076,0,60.221,0,39.288Z" transform="translate(0 1.039)"/><path class="a" d="M21.6,35.514C21.6,20.121,32.374,7.5,48.382,7.5c7.08,0,14.161,2.463,19.394,9.543V12.425a3.719,3.719,0,0,1,4-4h3.078a3.719,3.719,0,0,1,4,4V58.6a3.719,3.719,0,0,1-4,4H71.778a3.719,3.719,0,0,1-4-4V53.984c-4.925,7.08-12.006,9.543-19.394,9.543C32.374,63.527,21.6,50.906,21.6,35.514Zm46.176,0c0-10.774-7.388-18.47-17.855-18.47-10.774,0-17.239,8.62-17.239,18.47,0,10.159,6.157,18.47,17.239,18.47C60.388,53.984,67.468,45.98,67.776,35.514Z" transform="translate(44.894 15.588)"/><path class="a" d="M43.1,82.613V12.425a3.719,3.719,0,0,1,4-4H50.18a3.719,3.719,0,0,1,4,4v4.618C59.108,9.963,66.188,7.5,73.576,7.5c16.008,0,26.782,12.621,26.782,28.014S89.584,63.527,73.576,63.527c-7.08,0-14.161-2.463-19.394-9.543V82.613a3.719,3.719,0,0,1-4,4H47.1C44.639,86.307,43.1,85.076,43.1,82.613Zm45.868-47.1c0-9.851-6.157-18.47-17.239-18.47-10.467,0-17.855,7.7-17.855,18.47s7.388,18.47,17.855,18.47C82.812,53.984,88.968,45.364,88.968,35.514Z" transform="translate(89.58 15.588)"/><path class="a" d="M75.09,10.343V34.663H103.1a3.719,3.719,0,0,1,4,4V40.2a3.719,3.719,0,0,1-4,4H75.09v22.78h32.939a3.719,3.719,0,0,1,4,4v1.539a3.719,3.719,0,0,1-4,4H67.7a3.719,3.719,0,0,1-4-4V4.8a3.719,3.719,0,0,1,4-4h40.327a3.719,3.719,0,0,1,4,4V6.341a3.719,3.719,0,0,1-4,4Z" transform="translate(132.395 1.663)"/><path class="a" d="M80.1,51.1c0-15.392,10.774-28.014,26.782-28.014,7.08,0,14.161,2.463,19.394,9.543V4a3.719,3.719,0,0,1,4-4h3.078a3.719,3.719,0,0,1,4,4v69.88a3.719,3.719,0,0,1-4,4h-3.078a3.719,3.719,0,0,1-4-4V69.264c-4.925,7.08-12.006,9.543-19.394,9.543C90.874,79.115,80.1,66.494,80.1,51.1Zm46.176,0c0-10.774-7.388-18.47-17.855-18.47-10.774,0-17.239,8.62-17.239,18.47,0,10.159,6.157,18.47,17.239,18.47C118.888,69.572,126.276,61.568,126.276,51.1Z" transform="translate(166.481)"/><path class="b" d="M48,25.7c80.962,76.96,121.905,78.5,139.144,52.949C154.205,83.574,107.413,70.645,48,25.7Z" transform="translate(99.764 53.415)"/><path class="c" d="M81.353,40.321C61.959,33.857,51.8,27.7,51.8,27.7S73.041,40.937,82.276,45.555h0c72.958,39.1,118.519,26.167,128.37-.616C182.632,57.561,139.843,59.1,81.353,40.321Z" transform="translate(107.662 57.572)"/><path class="d" d="M96.243,50.014A194.505,194.505,0,0,1,55.3,42.933s22.472,7.7,33.863,10.159h0C176.589,74.949,224,50.629,227.691,22,202.756,40.778,159.966,53.092,96.243,50.014Z" transform="translate(114.936 45.725)"/><g transform="translate(305.686 0)"><path class="a" d="M107.92.716h0c0,.616-.308.616-.616.616h-2.771V9.643a.662.662,0,0,1-.616.616H103.3a.662.662,0,0,1-.616-.616V1.331H99.916A.662.662,0,0,1,99.3.716h0A.662.662,0,0,1,99.916.1H107C107.92.1,107.92.408,107.92.716Z" transform="translate(-99.3 0.208)"/><path class="a" d="M102.5,9.851l.924-9.235A.662.662,0,0,1,104.039,0h.924c.308,0,.616,0,.616.308L108.657,8l3.078-7.7c0-.308.308-.308.616-.308h.616a.662.662,0,0,1,.616.616l.924,9.235a.662.662,0,0,1-.616.616h-.616a.662.662,0,0,1-.616-.616l-.616-7.388-3.078,7.388c0,.308-.308.308-.616.308h-.308c-.308,0-.616,0-.616-.308l-3.078-7.388-.308,7.7a.662.662,0,0,1-.616.616h-.616C102.5,10.467,102.5,10.467,102.5,9.851Z" transform="translate(-92.649 0)"/></g><g transform="translate(342.627)"><g transform="translate(389.111)"><path class="e" d="M246.012.616h0c0,.616-.308.616-.616.616h-2.771v8.62a.662.662,0,0,1-.616.616H241.7a.662.662,0,0,1-.616-.616V1.231h-2.771A.662.662,0,0,1,237.7.616h0A.662.662,0,0,1,238.316,0H245.7C246.012,0,246.012.308,246.012.616Z" transform="translate(-237.7)"/><path class="e" d="M240.8,9.851l.924-9.235A.662.662,0,0,1,242.339,0h.924c.308,0,.616,0,.616.308L247.265,8l3.386-7.7c0-.308.308-.308.616-.308h.924a.662.662,0,0,1,.616.616l.924,9.235a.662.662,0,0,1-.616.616H252.5a.662.662,0,0,1-.616-.616l-1.231-7.388-3.078,7.388c0,.308-.308.308-.616.308h-.308c-.308,0-.616,0-.616-.308l-3.078-7.388-.616,7.388a.662.662,0,0,1-.616.616h-.308A.662.662,0,0,1,240.8,9.851Z" transform="translate(-231.257 0)"/></g><path class="e" d="M111.3,39.711C111.3,18.47,126.692,0,152.859,0a41.223,41.223,0,0,1,22.472,6.157c2.155,1.539,2.463,3.078,1.231,5.541l-.924,1.847c-1.231,2.155-3.078,2.771-5.541,1.231a35.787,35.787,0,0,0-17.239-4.31c-18.778,0-29.553,13.237-29.553,29.245s10.774,29.245,29.553,29.245a39.639,39.639,0,0,0,17.239-4.31c2.463-1.231,4.31-.924,5.541,1.231l.924,1.847c1.231,2.155.924,3.694-.616,4.925a39.521,39.521,0,0,1-23.088,6.773C126.692,79.115,111.3,60.953,111.3,39.711Z" transform="translate(-111.3)"/><path class="e" d="M134.2,35.729A28.839,28.839,0,0,1,163.137,7.1c16.008,0,29.245,12.929,29.245,28.629,0,16.008-12.929,28.629-29.245,28.629A28.643,28.643,0,0,1,134.2,35.729Zm46.792,0c0-10.467-8-18.778-17.855-18.778s-17.855,8.312-17.855,18.778,8,18.778,17.855,18.778S180.992,46.2,180.992,35.729Z" transform="translate(-63.704 14.757)"/><path class="e" d="M155.4,59.125V12.333a3.719,3.719,0,0,1,4-4h3.386a3.719,3.719,0,0,1,4,4v6.773c2.463-7.7,9.543-12.006,18.163-12.006,12.314,0,20.933,8,20.933,25.243V59.125a3.719,3.719,0,0,1-4,4H198.5a3.719,3.719,0,0,1-4-4V32.035c0-11.39-5.233-15.392-11.082-15.392s-17.239,3.694-17.239,20.625V59.125a3.719,3.719,0,0,1-4,4h-3.386C156.939,63.127,155.4,61.9,155.4,59.125Z" transform="translate(-19.642 14.757)"/><path class="e" d="M174.3,59.125V12.333a3.719,3.719,0,0,1,4-4h3.386a3.719,3.719,0,0,1,4,4v6.773c2.463-7.7,9.543-12.006,18.163-12.006,12.314,0,20.933,8,20.933,25.243V59.125a3.719,3.719,0,0,1-4,4H217.4a3.719,3.719,0,0,1-4-4V32.035c0-11.39-5.233-15.392-11.082-15.392s-17.239,3.694-17.239,20.625V59.125a3.719,3.719,0,0,1-4,4h-3.386C175.839,63.127,174.3,61.9,174.3,59.125Z" transform="translate(19.64 14.757)"/><path class="e" d="M192.8,35.937C192.8,19.929,205.422,7,222.353,7c13.853,0,26.474,8.312,28.014,25.859.308,2.771-1.231,4-3.694,4H204.19c-.308,10.159,8,17.547,20.01,17.547a26.168,26.168,0,0,0,14.776-4.618c2.155-1.231,3.694-1.231,5.541.616l.616.924c1.847,1.847,1.847,4.31-.616,6.157-6.465,5.233-13.853,6.773-20.625,6.773C204.806,64.566,192.8,51.637,192.8,35.937Zm46.484-7.08c-2.771-9.851-10.467-11.7-16.623-11.7-6.465,0-14.161,2.463-17.547,11.7Z" transform="translate(58.09 14.549)"/><path class="e" d="M213.2,36.345C213.2,20.337,224.282,7.1,243.984,7.1a33.255,33.255,0,0,1,16.623,4.618,3.535,3.535,0,0,1,1.231,5.541l-.924,1.231c-1.539,2.155-3.078,2.155-5.541,1.231A28.543,28.543,0,0,0,244.6,17.259c-11.7,0-20.318,7.7-20.318,18.778S232.9,54.815,244.6,54.815a24.108,24.108,0,0,0,10.774-2.463c2.463-1.231,4.31-.924,5.541,1.231l.616,1.231c1.539,2.155.616,4.618-2.771,6.465a29.734,29.734,0,0,1-14.776,3.694C224.9,64.358,213.2,52.045,213.2,36.345Z" transform="translate(100.49 14.757)"/><path class="e" d="M239.427,60.437V31.808h-6.773a1.945,1.945,0,0,1-2.155-2.155V25.035c0-1.539.616-2.155,2.155-2.155h6.773V3.178C239.735,1.024,240.967.1,242.814.1h4.31a3.08,3.08,0,0,1,3.386,3.386v19.7h15.084c1.539,0,2.155.616,2.155,2.155v4.31c0,1.539-.616,2.155-2.155,2.155H250.51V61.053c0,5.849,2.771,8.312,6.465,8.312,3.386,0,6.465-1.847,6.465-5.849a6.933,6.933,0,0,0-.308-2.155c-.308-1.539.308-2.463,1.847-2.463H269.9a2.341,2.341,0,0,1,2.463,1.847,28.583,28.583,0,0,1,.308,4c0,8.312-5.849,14.161-16.316,14.161C248.047,78.907,239.427,74.29,239.427,60.437Z" transform="translate(136.447 0.208)"/></g></g></svg>