<svg xmlns="http://www.w3.org/2000/svg" viewBox="-10117 -9421 124.268 53.121">
  <defs>
    <style>
      .cls-1, .cls-2 {
        fill: #0d2240;
      }

      .cls-2, .cls-3, .cls-4 {
        fill-rule: evenodd;
      }

      .cls-3 {
        fill: #7e4082;
      }

      .cls-4 {
        fill: #e2231a;
      }
    </style>
  </defs>
  <g id="Group_92" data-name="Group 92" transform="translate(-10117 -9421)">
    <path id="Path_1" data-name="Path 1" class="cls-1" d="M0,15.752C0,8.162,5.5,1.7,14.757,1.7a13.835,13.835,0,0,1,7.957,2.229,1.344,1.344,0,0,1,.48,1.947l-.339.621a1.27,1.27,0,0,1-1.947.48,13.4,13.4,0,0,0-6.123-1.552C8.1,5.425,4.233,10.165,4.233,15.78S8.1,26.136,14.786,26.136a13.4,13.4,0,0,0,6.123-1.552,1.254,1.254,0,0,1,1.947.48l.339.621c.423.818.339,1.354-.226,1.778a13.873,13.873,0,0,1-8.183,2.37C5.5,29.8,0,23.342,0,15.752Z" transform="translate(0 -1.22)"/>
    <path id="Path_2" data-name="Path 2" class="cls-1" d="M85.4,39.358c0-5.615,3.866-10.158,9.65-10.158a8.1,8.1,0,0,1,6.97,3.5V31.034a1.3,1.3,0,0,1,1.439-1.411h1.157a1.279,1.279,0,0,1,1.411,1.411v16.7a1.279,1.279,0,0,1-1.411,1.411h-1.157a1.3,1.3,0,0,1-1.439-1.411V46.074a8.1,8.1,0,0,1-6.97,3.5C89.266,49.544,85.4,44.945,85.4,39.358Zm16.7,0a6.358,6.358,0,0,0-6.518-6.687c-3.922,0-6.18,3.076-6.18,6.687,0,3.668,2.257,6.687,6.18,6.687A6.374,6.374,0,0,0,102.1,39.358Z" transform="translate(-61.303 -20.961)"/>
    <path id="Path_3" data-name="Path 3" class="cls-1" d="M170.3,56.358V30.934a1.3,1.3,0,0,1,1.439-1.411H172.9a1.279,1.279,0,0,1,1.411,1.411V32.6a8.148,8.148,0,0,1,7-3.5c5.813,0,9.65,4.571,9.65,10.158s-3.866,10.215-9.65,10.215a8.116,8.116,0,0,1-7-3.5V56.386A1.279,1.279,0,0,1,172.9,57.8h-1.157A1.334,1.334,0,0,1,170.3,56.358Zm16.648-17.071c0-3.612-2.257-6.687-6.236-6.687a6.423,6.423,0,0,0-6.518,6.687,6.374,6.374,0,0,0,6.518,6.687C184.691,45.974,186.948,42.926,186.948,39.286Z" transform="translate(-122.247 -20.889)"/>
    <path id="Path_4" data-name="Path 4" class="cls-1" d="M256.12,6.514v8.832h10.215a1.279,1.279,0,0,1,1.411,1.411v.508a1.3,1.3,0,0,1-1.411,1.439H256.12V27h11.908a1.3,1.3,0,0,1,1.411,1.411V29a1.291,1.291,0,0,1-1.411,1.411H253.411A1.279,1.279,0,0,1,252,29V4.511A1.279,1.279,0,0,1,253.411,3.1h14.645a1.3,1.3,0,0,1,1.411,1.411V5.1a1.291,1.291,0,0,1-1.411,1.411H256.12Z" transform="translate(-180.893 -2.225)"/>
    <path id="Path_5" data-name="Path 5" class="cls-1" d="M316.8,18.4c0-5.615,3.866-10.158,9.65-10.158a8.1,8.1,0,0,1,6.97,3.5V1.411A1.3,1.3,0,0,1,334.859,0h1.157a1.279,1.279,0,0,1,1.411,1.411V26.778a1.279,1.279,0,0,1-1.411,1.411h-1.157a1.3,1.3,0,0,1-1.439-1.411V25.113a8.1,8.1,0,0,1-6.97,3.5C320.637,28.584,316.8,23.984,316.8,18.4Zm16.7,0a6.358,6.358,0,0,0-6.518-6.687c-3.922-.028-6.179,3.047-6.179,6.687,0,3.668,2.257,6.687,6.179,6.687C330.852,25.085,333.448,22.235,333.5,18.4Z" transform="translate(-227.409)"/>
    <path id="Path_6" data-name="Path 6" class="cls-2" d="M189.6,101.3c29.374,27.85,44.159,28.414,50.424,19.216C228.116,122.322,211.129,117.553,189.6,101.3Z" transform="translate(-136.101 -72.716)"/>
    <path id="Path_7" data-name="Path 7" class="cls-3" d="M215.351,113.728A57.89,57.89,0,0,1,204.6,109.1s7.647,4.8,11.033,6.49h.028c26.467,14.165,42.89,9.424,46.53-.169C252.061,119.964,236.6,120.556,215.351,113.728Z" transform="translate(-146.868 -78.315)"/>
    <path id="Path_8" data-name="Path 8" class="cls-4" d="M233.686,96.786a68.727,68.727,0,0,1-14.786-2.6s8.155,2.793,12.3,3.7h0c31.688,7.929,48.9-.875,50.2-11.287C272.258,93.428,256.767,97.859,233.686,96.786Z" transform="translate(-157.133 -62.164)"/>
    <g id="Group_1" data-name="Group 1" transform="translate(110.864 0.028)">
      <path id="Path_9" data-name="Path 9" class="cls-1" d="M395.947.3V.354a.178.178,0,0,1-.2.2h-1.044V3.6a.178.178,0,0,1-.2.2h-.169a.178.178,0,0,1-.2-.2V.551H393.1a.178.178,0,0,1-.2-.2V.3a.193.193,0,0,1,.2-.2h2.624C395.863.1,395.947.156,395.947.3Z" transform="translate(-392.9 -0.1)"/>
      <path id="Path_10" data-name="Path 10" class="cls-1" d="M405.1,3.6l.31-3.33c0-.113.085-.169.2-.169h.282a.251.251,0,0,1,.226.141l1.157,2.765L408.43.241A.211.211,0,0,1,408.655.1h.282c.113,0,.2.056.2.169l.31,3.33c0,.141-.056.2-.2.2h-.169c-.113,0-.2-.056-.2-.169L408.655.947l-1.1,2.652c-.028.113-.113.141-.226.141h-.085a.251.251,0,0,1-.226-.141l-1.1-2.652-.226,2.681c0,.113-.085.169-.2.169h-.169C405.156,3.8,405.1,3.74,405.1,3.6Z" transform="translate(-401.658 -0.1)"/>
    </g>
  </g>
</svg>
