<svg xmlns="http://www.w3.org/2000/svg" viewBox="-1258 -9201.932 417 178.257"><defs><style>.a,.b{fill:#0d2240;}.b,.c,.d{fill-rule:evenodd;}.c{fill:#7e4082;}.d{fill:#e2231a;}</style></defs><g transform="translate(-1258 -9201.932)"><path class="a" d="M0,48.854C0,23.383,18.464,1.7,49.521,1.7c11.362,0,19.6,2.841,26.7,7.48,2.462,1.7,3.03,3.787,1.61,6.533L76.7,17.8c-1.42,2.651-3.693,3.125-6.533,1.61A44.951,44.951,0,0,0,49.616,14.2C27.175,14.2,14.2,30.106,14.2,48.949S27.175,83.7,49.616,83.7a44.951,44.951,0,0,0,20.547-5.208C73,76.881,75.276,77.449,76.7,80.1l1.136,2.083c1.42,2.746,1.136,4.545-.758,5.965-7.2,4.829-15.529,7.954-27.459,7.954C18.464,96.008,0,74.325,0,48.854Z" transform="translate(0 -0.09)"/><path class="a" d="M85.4,63.287C85.4,44.445,98.372,29.2,117.783,29.2c8.711,0,17.233,3.03,23.388,11.741V35.355c0-3.03,1.8-4.734,4.829-4.734h3.882c3.03,0,4.734,1.7,4.734,4.734V91.409c0,3.03-1.7,4.734-4.734,4.734H146c-3.03,0-4.829-1.7-4.829-4.734V85.823c-6.155,8.711-14.676,11.741-23.388,11.741C98.372,97.469,85.4,82.035,85.4,63.287Zm56.054,0c-.095-12.972-8.9-22.441-21.873-22.441-13.161,0-20.736,10.321-20.736,22.441,0,12.309,7.575,22.441,20.736,22.441C132.554,85.728,141.36,76.165,141.454,63.287Z" transform="translate(-4.538 -1.552)"/><path class="a" d="M170.3,120.567V35.255c0-3.03,1.8-4.734,4.829-4.734h3.882c3.03,0,4.734,1.7,4.734,4.734v5.587C189.9,32.13,198.517,29.1,207.228,29.1c19.505,0,32.383,15.339,32.383,34.087s-12.972,34.277-32.383,34.277c-8.711,0-17.422-3.03-23.482-11.741v34.939c0,3.03-1.7,4.734-4.734,4.734h-3.882C172.1,125.3,170.3,123.6,170.3,120.567Zm55.865-57.285c0-12.12-7.575-22.441-20.926-22.441-12.783,0-21.683,9.563-21.873,22.441.095,12.972,9,22.441,21.873,22.441C218.59,85.723,226.165,75.5,226.165,63.282Z" transform="translate(-9.049 -1.546)"/><path class="a" d="M265.824,14.557V44.194H300.1c3.03,0,4.734,1.7,4.734,4.734v1.7c0,3.03-1.7,4.829-4.734,4.829H265.824V83.3h39.958a4.378,4.378,0,0,1,4.734,4.734v1.988c0,3.03-1.8,4.734-4.734,4.734H256.734c-3.03,0-4.734-1.7-4.734-4.734V7.834c0-3.03,1.7-4.734,4.734-4.734h49.142a4.377,4.377,0,0,1,4.734,4.734V9.823c0,3.03-1.8,4.734-4.734,4.734Z" transform="translate(-13.39 -0.165)"/><path class="a" d="M316.8,61.736c0-18.843,12.972-34.087,32.383-34.087,8.711,0,17.233,3.03,23.387,11.741V4.734C372.57,1.7,374.369,0,377.4,0h3.882c3.03,0,4.734,1.7,4.734,4.734V89.858c0,3.03-1.7,4.734-4.734,4.734H377.4c-3.03,0-4.829-1.7-4.829-4.734V84.271c-6.154,8.711-14.676,11.741-23.387,11.741C329.677,95.918,316.8,80.484,316.8,61.736Zm56.054,0c-.095-12.972-8.9-22.441-21.873-22.441-13.161-.095-20.736,10.226-20.736,22.441,0,12.309,7.575,22.441,20.736,22.441C363.954,84.176,372.665,74.613,372.855,61.736Z" transform="translate(-16.833 0)"/><path class="b" d="M189.6,101.3c98.569,93.456,148.185,95.349,169.205,64.482C318.847,171.842,261.846,155.84,189.6,101.3Z" transform="translate(-10.074 -5.382)"/><path class="c" d="M240.676,124.629C217.193,116.77,204.6,109.1,204.6,109.1s25.66,16.1,37.022,21.778h.095c88.816,47.533,143.924,31.625,156.138-.568C363.863,145.554,311.975,147.543,240.676,124.629Z" transform="translate(-10.871 -5.797)"/><path class="d" d="M268.516,120.782a230.626,230.626,0,0,1-49.616-8.711s27.364,9.374,41.283,12.4h0c106.333,26.607,164.092-2.935,168.448-37.875C397.953,109.514,345.97,124.38,268.516,120.782Z" transform="translate(-11.631 -4.601)"/><g transform="translate(372.024 0.095)"><path class="a" d="M403.126.763V.952a.6.6,0,0,1-.663.663h-3.5V11.841a.6.6,0,0,1-.663.663h-.568a.6.6,0,0,1-.663-.663V1.615h-3.5A.6.6,0,0,1,392.9.952V.763A.647.647,0,0,1,393.563.1h8.806C402.842.1,403.126.289,403.126.763Z" transform="translate(-392.9 -0.1)"/><path class="a" d="M405.1,11.841,406.142.668c0-.379.284-.568.663-.568h.947a.843.843,0,0,1,.757.473l3.882,9.279L416.273.573A.709.709,0,0,1,417.031.1h.947c.379,0,.663.189.663.568l1.042,11.173c0,.473-.189.663-.663.663h-.568c-.379,0-.663-.189-.663-.568l-.758-9-3.693,8.9c-.095.379-.379.473-.757.473H412.3a.843.843,0,0,1-.757-.473l-3.693-8.9-.758,9c0,.379-.284.568-.663.568h-.568C405.289,12.5,405.1,12.315,405.1,11.841Z" transform="translate(-393.548 -0.1)"/></g></g></svg>