<svg xmlns="http://www.w3.org/2000/svg" viewBox="-13477 -8610 382 382"><defs><style>.a{fill:#fff;}.b{fill:#e2231a;}</style></defs><g transform="translate(-13580 -9444)"><circle class="a" cx="191" cy="191" r="191" transform="translate(103 834)"/><g transform="translate(105.977 847.905)"><g transform="translate(49.318 38.039)"><circle class="b" cx="139.032" cy="139.032" r="139.032"/></g><g transform="translate(0.012 49.928)"><path class="b" d="M188.351,360.25a187.985,187.985,0,0,1-133.23-55.122c-69.963-69.963-73.31-181.657-10.042-255.637a13.677,13.677,0,0,1,20.085-.669h0a13.634,13.634,0,0,1,.669,18.634c-54.006,63.156-51.105,158.559,8.592,218.368,59.7,59.7,155.212,62.6,218.368,8.592a13.634,13.634,0,0,1,18.634.669h0a13.772,13.772,0,0,1-.669,20.085A188.189,188.189,0,0,1,188.351,360.25Z" transform="translate(-0.012 -44.755)"/></g><g transform="translate(9.148 0.095)"><path class="b" d="M183.5,358.17a3.574,3.574,0,0,1-3.459-3.571h0a3.574,3.574,0,0,1,3.571-3.459h0a3.408,3.408,0,0,1,3.347,3.571h0a3.406,3.406,0,0,1-3.459,3.459Zm9.373-3.459a3.576,3.576,0,0,1,3.347-3.682h0a3.5,3.5,0,0,1,3.682,3.348h0a3.576,3.576,0,0,1-3.347,3.682h-.112A3.48,3.48,0,0,1,192.87,354.711Zm-22.428,2.79a3.488,3.488,0,0,1-3.124-3.794h0a3.488,3.488,0,0,1,3.794-3.124h0a3.488,3.488,0,0,1,3.124,3.794h0a3.5,3.5,0,0,1-3.459,3.124h-.335Zm35.149-3.571a3.509,3.509,0,0,1,3.013-3.905h0a3.509,3.509,0,0,1,3.905,3.013h0a3.509,3.509,0,0,1-3.013,3.905h-.446A3.582,3.582,0,0,1,205.59,353.93ZM157.5,355.716a3.515,3.515,0,0,1-2.9-4.017h0a3.515,3.515,0,0,1,4.017-2.9h0a3.515,3.515,0,0,1,2.9,4.017h0a3.572,3.572,0,0,1-3.459,2.9h0A.507.507,0,0,1,157.5,355.716Zm60.813-3.571a3.609,3.609,0,0,1,2.79-4.129h0a3.549,3.549,0,0,1,4.129,2.79h0a3.521,3.521,0,0,1-2.79,4.129h0c-.223,0-.446.112-.67.112h0A3.688,3.688,0,0,1,218.311,352.145Zm-73.533,1a3.488,3.488,0,0,1-2.566-4.24h0a3.488,3.488,0,0,1,4.24-2.566h0a3.488,3.488,0,0,1,2.566,4.24h0a3.554,3.554,0,0,1-3.347,2.678h0C145.224,353.261,145,353.149,144.778,353.149Zm86.03-3.682a3.5,3.5,0,0,1,2.455-4.352h0a3.386,3.386,0,0,1,4.24,2.455h0a3.341,3.341,0,0,1-2.455,4.24h0a2.773,2.773,0,0,1-.893.112h0A3.235,3.235,0,0,1,230.808,349.467Zm-98.639.112a3.51,3.51,0,0,1-2.232-4.352h0A3.51,3.51,0,0,1,134.289,343h0a3.51,3.51,0,0,1,2.232,4.352h0a3.482,3.482,0,0,1-3.348,2.455h0C132.838,349.69,132.5,349.69,132.169,349.579Zm110.913-3.794a3.524,3.524,0,0,1,2.12-4.463h0a3.524,3.524,0,0,1,4.463,2.12h0a3.524,3.524,0,0,1-2.12,4.463h0a4.911,4.911,0,0,1-1.116.223h0A3.591,3.591,0,0,1,243.082,345.785Zm-123.188-.669h0a3.447,3.447,0,0,1-1.9-4.575h0a3.447,3.447,0,0,1,4.575-1.9h0a3.484,3.484,0,0,1,1.9,4.575h0a3.512,3.512,0,0,1-3.236,2.12h0A5.6,5.6,0,0,1,119.895,345.115Zm135.127-3.794a3.434,3.434,0,0,1,1.785-4.575h0a3.434,3.434,0,0,1,4.575,1.785h0a3.434,3.434,0,0,1-1.785,4.575h0a3.089,3.089,0,0,1-1.451.335h0A3.476,3.476,0,0,1,255.022,341.321Zm-147.066-1.674a3.5,3.5,0,0,1-1.562-4.686h0a3.5,3.5,0,0,1,4.686-1.562h0a3.5,3.5,0,0,1,1.562,4.686h0a3.334,3.334,0,0,1-3.124,1.9h0A2.12,2.12,0,0,1,107.955,339.648Zm158.783-3.682a3.493,3.493,0,0,1,1.451-4.686h0a3.493,3.493,0,0,1,4.686,1.451h0a3.494,3.494,0,0,1-1.451,4.686h0a3.149,3.149,0,0,1-1.674.446h0A3.288,3.288,0,0,1,266.738,335.965ZM96.462,333.511a3.479,3.479,0,0,1-1.227-4.8h0a3.48,3.48,0,0,1,4.8-1.227h0a3.479,3.479,0,0,1,1.227,4.8h0a3.41,3.41,0,0,1-3.013,1.674h0A3.533,3.533,0,0,1,96.462,333.511ZM277.9,329.828a3.448,3.448,0,0,1,1.116-4.8h0a3.448,3.448,0,0,1,4.8,1.116h0a3.448,3.448,0,0,1-1.116,4.8h0a3.7,3.7,0,0,1-1.785.558h0A3.963,3.963,0,0,1,277.9,329.828ZM85.527,326.369a3.548,3.548,0,0,1-.893-4.91h0a3.548,3.548,0,0,1,4.91-.893h0a3.434,3.434,0,0,1,.893,4.8h0a3.507,3.507,0,0,1-2.9,1.562h0A2.659,2.659,0,0,1,85.527,326.369ZM288.608,322.8a3.543,3.543,0,0,1,.781-4.91h0a3.543,3.543,0,0,1,4.91.781h0a3.544,3.544,0,0,1-.781,4.91h0a3.674,3.674,0,0,1-2.12.669h0A3.344,3.344,0,0,1,288.608,322.8Zm-213.57-4.24h0a3.533,3.533,0,0,1-.558-4.91h0a3.643,3.643,0,0,1,4.91-.558h0a3.434,3.434,0,0,1,.558,4.91h0a3.328,3.328,0,0,1-2.678,1.339h0A3.411,3.411,0,0,1,75.038,318.558ZM298.762,315.1a3.42,3.42,0,0,1,.446-4.91h0a3.42,3.42,0,0,1,4.91.446h0a3.42,3.42,0,0,1-.446,4.91h0a3.544,3.544,0,0,1-2.232.893h0A4.132,4.132,0,0,1,298.762,315.1ZM65.219,310.078a3.507,3.507,0,0,1-.223-4.91h0a3.405,3.405,0,0,1,4.91-.112h0a3.511,3.511,0,0,1,.223,4.91h0a3.39,3.39,0,0,1-2.566,1.116h0A4.442,4.442,0,0,1,65.219,310.078Zm243.139-3.459a3.5,3.5,0,0,1,0-4.91h0a3.5,3.5,0,0,1,4.91,0h0a3.5,3.5,0,0,1,0,4.91h0a3.461,3.461,0,0,1-2.455,1h0A3.66,3.66,0,0,1,308.358,306.619Zm-252.4-5.8a3.4,3.4,0,0,1,.223-4.91h0a3.4,3.4,0,0,1,4.91.223h0a3.4,3.4,0,0,1-.223,4.91h0a3.27,3.27,0,0,1-2.343.893h0A4.081,4.081,0,0,1,55.958,300.817ZM317.4,297.469a3.508,3.508,0,0,1-.335-4.91h0a3.508,3.508,0,0,1,4.91-.335h0a3.508,3.508,0,0,1,.335,4.91h0a3.564,3.564,0,0,1-2.678,1.227h0A3.544,3.544,0,0,1,317.4,297.469ZM47.477,290.886a3.424,3.424,0,0,1,.558-4.91h0a3.424,3.424,0,0,1,4.91.558h0a3.434,3.434,0,0,1-.558,4.91h0a3.336,3.336,0,0,1-2.12.781h0A3.385,3.385,0,0,1,47.477,290.886Zm278.176-3.124a3.524,3.524,0,0,1-.67-4.91h0a3.524,3.524,0,0,1,4.91-.67h0a3.524,3.524,0,0,1,.67,4.91h0a3.489,3.489,0,0,1-2.79,1.451h0A4.418,4.418,0,0,1,325.654,287.762ZM39.666,280.4a3.567,3.567,0,0,1,.893-4.91h0a3.567,3.567,0,0,1,4.91.893h0a3.567,3.567,0,0,1-.893,4.91h0a3.046,3.046,0,0,1-2.008.558h0A3.265,3.265,0,0,1,39.666,280.4Zm293.463-3.013a3.441,3.441,0,0,1-1-4.8h0a3.349,3.349,0,0,1,4.8-1h0a3.367,3.367,0,0,1,1,4.8h0a3.507,3.507,0,0,1-2.9,1.562h0A4.527,4.527,0,0,1,333.13,277.384ZM32.748,269.35a3.479,3.479,0,0,1,1.227-4.8h0a3.479,3.479,0,0,1,4.8,1.227h0a3.479,3.479,0,0,1-1.227,4.8h0a3.274,3.274,0,0,1-1.785.446h0A3.2,3.2,0,0,1,32.748,269.35Zm307.188-2.79a3.625,3.625,0,0,1-1.451-4.8h0a3.462,3.462,0,0,1,4.8-1.339h0a3.362,3.362,0,0,1,1.339,4.686h0a3.517,3.517,0,0,1-3.013,1.785h0A4.477,4.477,0,0,1,339.936,266.561ZM26.5,257.857a3.536,3.536,0,0,1,1.562-4.687h0a3.536,3.536,0,0,1,4.686,1.562h0a3.536,3.536,0,0,1-1.562,4.687h0a3.564,3.564,0,0,1-1.562.335h0A3.369,3.369,0,0,1,26.5,257.857Zm319.462-2.678a3.423,3.423,0,0,1-1.674-4.686h0a3.423,3.423,0,0,1,4.686-1.674h0a3.423,3.423,0,0,1,1.674,4.686h0a3.434,3.434,0,0,1-3.124,2.008h0A3.564,3.564,0,0,1,345.962,255.179ZM21.255,246.03h0a3.58,3.58,0,0,1,1.9-4.575h0a3.58,3.58,0,0,1,4.575,1.9h0a3.58,3.58,0,0,1-1.9,4.575h0a5.6,5.6,0,0,1-1.339.223h0A3.512,3.512,0,0,1,21.255,246.03Zm329.839-2.566a3.524,3.524,0,0,1-2.12-4.463h0a3.524,3.524,0,0,1,4.463-2.12h0a3.467,3.467,0,0,1,2.008,4.463h0a3.346,3.346,0,0,1-3.236,2.232h0A1.929,1.929,0,0,1,351.095,243.463Zm-334.3-9.708a3.51,3.51,0,0,1,2.232-4.352h0a3.51,3.51,0,0,1,4.352,2.232h0a3.51,3.51,0,0,1-2.232,4.352h0a3.257,3.257,0,0,1-1,.223h0A3.587,3.587,0,0,1,16.792,233.755Zm338.543-2.343a3.524,3.524,0,0,1-2.343-4.352h0a3.436,3.436,0,0,1,4.352-2.343h0a3.524,3.524,0,0,1,2.343,4.352h0a3.451,3.451,0,0,1-3.348,2.566h0A3.258,3.258,0,0,0,355.335,231.412Zm-342-10.266a3.488,3.488,0,0,1,2.566-4.24h0a3.488,3.488,0,0,1,4.24,2.566h0a3.488,3.488,0,0,1-2.566,4.24h0a2.179,2.179,0,0,1-.781.112h0A3.489,3.489,0,0,1,13.333,221.147Zm345.349-2.12A3.446,3.446,0,0,1,356,214.9h0a3.446,3.446,0,0,1,4.129-2.678h0a3.446,3.446,0,0,1,2.678,4.129h0a3.473,3.473,0,0,1-3.459,2.79h0A1.415,1.415,0,0,0,358.682,219.026ZM10.766,208.314a3.515,3.515,0,0,1,2.9-4.017h0a3.515,3.515,0,0,1,4.017,2.9h0a3.515,3.515,0,0,1-2.9,4.017h-.558A3.226,3.226,0,0,1,10.766,208.314Zm350.371-1.9a3.509,3.509,0,0,1-3.013-3.905h0a3.574,3.574,0,0,1,3.905-3.013h0a3.509,3.509,0,0,1,3.013,3.905h0a3.482,3.482,0,0,1-3.459,3.013h0C361.472,206.529,361.249,206.418,361.137,206.418ZM9.093,195.371a3.425,3.425,0,0,1,3.124-3.794h0a3.488,3.488,0,0,1,3.794,3.124h0a3.5,3.5,0,0,1-3.124,3.794h-.335A3.262,3.262,0,0,1,9.093,195.371ZM362.588,193.7a3.485,3.485,0,0,1-3.236-3.682h0a3.485,3.485,0,0,1,3.682-3.236h0a3.485,3.485,0,0,1,3.236,3.682h0a3.431,3.431,0,0,1-3.459,3.236h-.223ZM8.312,182.427h0a4.477,4.477,0,0,1,.335-1.674h0A3.7,3.7,0,0,1,8.2,179.08h0a3.476,3.476,0,0,1,3.459-3.459h0a3.476,3.476,0,0,1,3.459,3.459h0a3.564,3.564,0,0,1-.335,1.562h0a3.632,3.632,0,0,1,.446,1.562h0a3.5,3.5,0,0,1-3.459,3.571h-.112A3.51,3.51,0,0,1,8.312,182.427Zm351.375-4.91a3.574,3.574,0,0,1,3.459-3.571h0a3.476,3.476,0,0,1,3.459,3.459h0a3.574,3.574,0,0,1-3.459,3.571h0A3.476,3.476,0,0,1,359.686,177.518Zm7.03-.112ZM11.994,169.818a3.485,3.485,0,0,1-3.236-3.682h0a3.52,3.52,0,0,1,3.794-3.236h0a3.52,3.52,0,0,1,3.236,3.794h0a3.515,3.515,0,0,1-3.459,3.236h0A.41.41,0,0,0,11.994,169.818Zm347.135-4.91a3.576,3.576,0,0,1,3.236-3.794h0a3.576,3.576,0,0,1,3.794,3.236h0a3.576,3.576,0,0,1-3.236,3.794h-.335A3.431,3.431,0,0,1,359.129,164.909ZM13.11,156.986a3.408,3.408,0,0,1-2.9-3.905h0a3.408,3.408,0,0,1,3.905-2.9h0a3.408,3.408,0,0,1,2.9,3.905h0a3.482,3.482,0,0,1-3.459,3.013h0A.843.843,0,0,1,13.11,156.986Zm344.568-4.463a3.515,3.515,0,0,1,2.9-4.017h0a3.515,3.515,0,0,1,4.017,2.9h0a3.515,3.515,0,0,1-2.9,4.017h-.558A3.483,3.483,0,0,1,357.678,152.523ZM15.23,144.377a3.446,3.446,0,0,1-2.678-4.129h0a3.446,3.446,0,0,1,4.129-2.678h0a3.446,3.446,0,0,1,2.678,4.129h0a3.473,3.473,0,0,1-3.459,2.79h0A1.415,1.415,0,0,1,15.23,144.377Zm340.1-4.24a3.576,3.576,0,0,1,2.566-4.24h0a3.559,3.559,0,0,1,4.24,2.678h0a3.488,3.488,0,0,1-2.566,4.24h0c-.335,0-.558.112-.781.112h0A3.473,3.473,0,0,1,355.335,140.137Zm-337.2-8.146a3.436,3.436,0,0,1-2.343-4.352h0a3.436,3.436,0,0,1,4.352-2.343h0a3.524,3.524,0,0,1,2.343,4.352h0a3.352,3.352,0,0,1-3.347,2.455h0A3.089,3.089,0,0,1,18.131,131.992Zm333.856-3.905a3.51,3.51,0,0,1,2.232-4.352h0a3.436,3.436,0,0,1,4.352,2.343h0a3.482,3.482,0,0,1-2.343,4.352h0a3.089,3.089,0,0,1-1,.112h0A3.677,3.677,0,0,1,351.987,128.086ZM22.036,119.718a3.467,3.467,0,0,1-2.008-4.463h0a3.467,3.467,0,0,1,4.463-2.008h0a3.467,3.467,0,0,1,2.008,4.463h0a3.449,3.449,0,0,1-3.236,2.232h0A2.616,2.616,0,0,1,22.036,119.718Zm325.822-3.459a3.635,3.635,0,0,1,2.009-4.575h0a3.635,3.635,0,0,1,4.575,2.008h0a3.635,3.635,0,0,1-2.008,4.575h0a5.757,5.757,0,0,1-1.227.223h0A3.654,3.654,0,0,1,347.859,116.258ZM26.834,107.89a3.423,3.423,0,0,1-1.674-4.686h0a3.513,3.513,0,0,1,4.686-1.674h0a3.513,3.513,0,0,1,1.674,4.686h0a3.434,3.434,0,0,1-3.124,2.008h0A3.564,3.564,0,0,1,26.834,107.89Zm316-3.124h0a3.485,3.485,0,0,1,1.674-4.686h0a3.454,3.454,0,0,1,4.687,1.674h0a3.485,3.485,0,0,1-1.674,4.686h0a3.564,3.564,0,0,1-1.562.335h0A3.692,3.692,0,0,1,342.837,104.765ZM32.414,96.4a3.587,3.587,0,0,1-1.339-4.8h0a3.587,3.587,0,0,1,4.8-1.339h0a3.616,3.616,0,0,1,1.339,4.8h0A3.517,3.517,0,0,1,34.2,96.843h0A8.359,8.359,0,0,1,32.414,96.4Zm304.622-2.678a3.479,3.479,0,0,1,1.227-4.8h0a3.515,3.515,0,0,1,4.8,1.339h0a3.515,3.515,0,0,1-1.339,4.8h0a3.149,3.149,0,0,1-1.674.446h0A3.948,3.948,0,0,1,337.035,93.719Zm-298.15-8.48a3.564,3.564,0,0,1-1-4.8h0a3.542,3.542,0,0,1,4.8-1h0a3.564,3.564,0,0,1,1,4.8h0a3.507,3.507,0,0,1-2.9,1.562h0A2.921,2.921,0,0,1,38.885,85.238Zm291.566-2.232a3.349,3.349,0,0,1,1-4.8h0a3.349,3.349,0,0,1,4.8,1h0a3.349,3.349,0,0,1-1,4.8h0a2.921,2.921,0,0,1-1.9.558h0A3.507,3.507,0,0,1,330.452,83.007ZM46.138,74.75a3.539,3.539,0,0,1-.669-4.91h0a3.524,3.524,0,0,1,4.91-.669h0a3.539,3.539,0,0,1,.669,4.91h0a3.385,3.385,0,0,1-2.79,1.339h0A3.434,3.434,0,0,1,46.138,74.75Zm276.949-1.9a3.522,3.522,0,0,1,.558-4.91h0a3.522,3.522,0,0,1,4.91.558h0a3.522,3.522,0,0,1-.558,4.91h0a3.336,3.336,0,0,1-2.12.781h0A3.385,3.385,0,0,1,323.087,72.853ZM54.061,64.707a3.508,3.508,0,0,1-.335-4.91h0a3.4,3.4,0,0,1,4.91-.223h0a3.508,3.508,0,0,1,.335,4.91h0A3.39,3.39,0,0,1,56.4,65.6h0A3.838,3.838,0,0,1,54.061,64.707Zm260.881-1.451a3.4,3.4,0,0,1,.223-4.91h0a3.5,3.5,0,0,1,4.91.223h0a3.4,3.4,0,0,1-.223,4.91h0a3.1,3.1,0,0,1-2.343.893h0A3.39,3.39,0,0,1,314.942,63.257ZM62.764,55.334a3.4,3.4,0,0,1,.112-4.91h0a3.4,3.4,0,0,1,4.91.112h0a3.405,3.405,0,0,1-.112,4.91h0a3.462,3.462,0,0,1-2.455,1h0A4.15,4.15,0,0,1,62.764,55.334Zm243.474-1a3.405,3.405,0,0,1-.112-4.91h0a3.405,3.405,0,0,1,4.91-.112h0a3.405,3.405,0,0,1,.112,4.91h0a3.632,3.632,0,0,1-2.566,1.116h0A3.212,3.212,0,0,1,306.238,54.33Zm-234.1-7.811a3.519,3.519,0,0,1,.446-4.91h0a3.519,3.519,0,0,1,4.91.446h0a3.519,3.519,0,0,1-.446,4.91h0a3.411,3.411,0,0,1-2.232.781h0A3.219,3.219,0,0,1,72.137,46.519Zm224.617-.558a3.519,3.519,0,0,1-.446-4.91h0a3.519,3.519,0,0,1,4.91-.446h0a3.519,3.519,0,0,1,.446,4.91h0a3.219,3.219,0,0,1-2.678,1.227h0A2.908,2.908,0,0,1,296.754,45.961ZM82.068,38.485a3.544,3.544,0,0,1,.781-4.91h0a3.544,3.544,0,0,1,4.91.781h0a3.544,3.544,0,0,1-.781,4.91h0a3.6,3.6,0,0,1-2.008.669h0A3.7,3.7,0,0,1,82.068,38.485Zm204.755-.112h0a3.567,3.567,0,0,1-.893-4.91h0a3.548,3.548,0,0,1,4.91-.893h0a3.548,3.548,0,0,1,.893,4.91h0a3.4,3.4,0,0,1-2.9,1.451h0A2.659,2.659,0,0,1,286.823,38.374ZM92.557,31.232a3.548,3.548,0,0,1,1.116-4.8h0a3.448,3.448,0,0,1,4.8,1.116h0a3.548,3.548,0,0,1-1.116,4.8h0a3.7,3.7,0,0,1-1.785.558h0A3.963,3.963,0,0,1,92.557,31.232Zm183.777.335h0a3.58,3.58,0,0,1-1.227-4.8h0a3.48,3.48,0,0,1,4.8-1.227h0a3.48,3.48,0,0,1,1.227,4.8h0a3.41,3.41,0,0,1-3.013,1.674h0A3.274,3.274,0,0,1,276.334,31.567ZM103.6,24.649a3.494,3.494,0,0,1,1.451-4.686h0a3.44,3.44,0,0,1,4.686,1.562h0a3.494,3.494,0,0,1-1.451,4.686h0a4.137,4.137,0,0,1-1.562.446h0A3.634,3.634,0,0,1,103.6,24.649Zm161.684.781a3.641,3.641,0,0,1-1.562-4.686h0a3.641,3.641,0,0,1,4.686-1.562h0a3.641,3.641,0,0,1,1.562,4.686h0a3.574,3.574,0,0,1-3.124,1.9h0A4.38,4.38,0,0,1,265.287,25.43Zm-150.3-6.472a3.434,3.434,0,0,1,1.785-4.575h0a3.434,3.434,0,0,1,4.575,1.785h0a3.434,3.434,0,0,1-1.785,4.575h0a2.971,2.971,0,0,1-1.339.335h0A3.512,3.512,0,0,1,114.985,18.958Zm138.921,1.227a3.484,3.484,0,0,1-1.9-4.575h0a3.484,3.484,0,0,1,4.575-1.9h0a3.484,3.484,0,0,1,1.9,4.575h0a3.512,3.512,0,0,1-3.236,2.12h0A2.83,2.83,0,0,1,253.906,20.186ZM126.813,14.048a3.524,3.524,0,0,1,2.12-4.463h0a3.524,3.524,0,0,1,4.463,2.12h0a3.623,3.623,0,0,1-2.12,4.463h0a4.911,4.911,0,0,1-1.116.223h0A3.44,3.44,0,0,1,126.813,14.048ZM242.19,15.722a3.584,3.584,0,0,1-2.232-4.463h0a3.584,3.584,0,0,1,4.463-2.232h0a3.634,3.634,0,0,1,2.232,4.463h0a3.485,3.485,0,0,1-3.347,2.343h0A1.929,1.929,0,0,1,242.19,15.722ZM138.975,10.143A3.508,3.508,0,0,1,141.43,5.9h0a3.508,3.508,0,0,1,4.24,2.455h0a3.341,3.341,0,0,1-2.455,4.24h0a2.457,2.457,0,0,1-.893.112h0A3.55,3.55,0,0,1,138.975,10.143Zm91.163,2.12a3.488,3.488,0,0,1-2.566-4.24h0a3.488,3.488,0,0,1,4.24-2.566h0a3.488,3.488,0,0,1,2.566,4.24h0a3.554,3.554,0,0,1-3.347,2.678h0C230.7,12.375,230.473,12.263,230.139,12.263ZM151.473,7.019a3.609,3.609,0,0,1,2.79-4.129h0a3.609,3.609,0,0,1,4.129,2.79h0a3.609,3.609,0,0,1-2.79,4.129h0c-.223,0-.446.112-.669.112h0A3.572,3.572,0,0,1,151.473,7.019Zm66.392,2.566h0a3.438,3.438,0,0,1-2.79-4.017h0a3.437,3.437,0,0,1,4.017-2.79h0a3.438,3.438,0,0,1,2.79,4.017h0a3.572,3.572,0,0,1-3.459,2.9h0A.836.836,0,0,0,217.864,9.585ZM164.081,4.9A3.513,3.513,0,0,1,167.206.993h0a3.513,3.513,0,0,1,3.905,3.124h0a3.513,3.513,0,0,1-3.124,3.905h-.446A3.5,3.5,0,0,1,164.081,4.9Zm41.4,2.9a3.488,3.488,0,0,1-3.124-3.794h0A3.488,3.488,0,0,1,206.148.882h0a3.488,3.488,0,0,1,3.124,3.794h0A3.5,3.5,0,0,1,205.813,7.8h-.335ZM176.8,3.671A3.408,3.408,0,0,1,180.149.1h0a3.576,3.576,0,0,1,3.682,3.347h0a3.576,3.576,0,0,1-3.347,3.682h-.112A3.575,3.575,0,0,1,176.8,3.671Zm16.18,3.347a3.476,3.476,0,0,1-3.347-3.571h0A3.476,3.476,0,0,1,193.2.1h0a3.476,3.476,0,0,1,3.347,3.571h0a3.454,3.454,0,0,1-3.459,3.347h-.112Z" transform="translate(-8.2 -0.095)"/></g><g transform="translate(107.676 93.384)"><g transform="translate(1.339 56.684)"><g transform="translate(2.79 2.678)"><path class="b" d="M151.64,189.344c7.03-6.583,11.828-17.742,11.828-28.231,0-16.068-11.158-24.214-24.771-24.214s-24.771,8.146-24.771,24.214c0,10.489,4.686,21.647,11.828,28.231.335.335.781.67,1.116,1l-26.668,18.3v11.6c0,7.03,4.686,12.72,10.489,12.72H166.7c5.8,0,10.489-5.691,10.489-12.72v-11.6l-26.668-18.3C150.859,190.014,151.305,189.679,151.64,189.344Z" transform="translate(-100.2 -136.9)"/></g><path class="a" d="M166.881,235.929H110.867c-7.253,0-13.167-6.918-13.167-15.4v-11.6a2.913,2.913,0,0,1,1.116-2.232l23.879-16.4a43.392,43.392,0,0,1-11.381-28.9c0-16.291,10.824-26.891,27.449-26.891s27.449,10.489,27.449,26.891c0,10.6-4.352,21.647-11.381,28.9l23.879,16.4a2.747,2.747,0,0,1,1.116,2.232v11.6C180.16,229.011,174.246,235.929,166.881,235.929Zm-63.825-25.553v10.154c0,5.579,3.571,10.042,7.922,10.042h56.015c4.352,0,7.922-4.463,7.922-10.042V210.376l-25.552-17.519a2.539,2.539,0,0,1-1.116-2.12,2.451,2.451,0,0,1,1-2.12,7.218,7.218,0,0,0,1-.893c6.583-6.025,10.935-16.626,10.935-26.222,0-15.845-11.493-21.536-22.093-21.536-10.712,0-22.093,5.691-22.093,21.536,0,9.6,4.352,20.2,10.935,26.222.335.335.669.558,1,.893a2.748,2.748,0,0,1,1,2.12,2.7,2.7,0,0,1-1.116,2.12Z" transform="translate(-97.7 -134.5)"/></g><g transform="translate(79.001 0.446)"><g transform="translate(2.79 2.678)"><path class="b" d="M220.124,139.948c.335-.335.781-.669,1.116-1,7.03-6.583,11.828-17.742,11.828-28.231,0-16.068-11.158-24.214-24.771-24.214-13.725,0-24.771,8.146-24.771,24.214,0,10.489,4.686,21.647,11.828,28.231.335.335.781.669,1.116,1l-26.668,18.3v11.6c0,7.03,4.686,12.72,10.489,12.72H236.3c5.8,0,10.489-5.691,10.489-12.72v-11.6Z" transform="translate(-169.8 -86.5)"/></g><path class="a" d="M236.481,185.529H180.467c-7.253,0-13.167-6.918-13.167-15.4v-11.6a2.913,2.913,0,0,1,1.116-2.232l23.879-16.4a43.392,43.392,0,0,1-11.381-28.9c0-16.291,10.824-26.892,27.449-26.892s27.449,10.489,27.449,26.892c0,10.6-4.352,21.647-11.381,28.9l23.879,16.4a2.747,2.747,0,0,1,1.116,2.232v11.6C249.76,178.611,243.846,185.529,236.481,185.529Zm-63.825-25.664v10.154c0,5.579,3.571,10.042,7.922,10.042h56.015c4.352,0,7.922-4.463,7.922-10.042V159.865l-25.553-17.519a2.539,2.539,0,0,1-1.116-2.12,2.592,2.592,0,0,1,1-2.12,7.219,7.219,0,0,0,1-.893c6.583-6.025,10.935-16.626,10.935-26.222,0-15.845-11.493-21.536-22.093-21.536S186.6,95.147,186.6,110.992c0,9.6,4.352,20.2,10.935,26.222.335.335.67.558,1,.893a2.748,2.748,0,0,1,1,2.12,2.875,2.875,0,0,1-1.116,2.12Z" transform="translate(-167.3 -84.1)"/></g><g transform="translate(0 56.349)"><g transform="translate(13.948)"><path class="a" d="M136.784,198.36A22.025,22.025,0,0,1,122.948,193a11.113,11.113,0,0,1-1.227-1.116C113.91,184.747,109,172.808,109,161.426c0-16.291,11.158-27.226,27.784-27.226s27.784,10.935,27.784,27.226c0,11.27-5.021,23.209-12.72,30.462A11.821,11.821,0,0,1,150.509,193,21.974,21.974,0,0,1,136.784,198.36Zm0-58.135c-10.489,0-21.759,5.579-21.759,21.2,0,9.6,4.352,19.973,10.824,26,.335.335.669.558,1,.893,6.472,5.356,13.5,5.356,19.973,0,.335-.335.669-.558,1-.893,6.472-6.025,10.824-16.4,10.824-26C158.543,145.8,147.273,140.226,136.784,140.226Z" transform="translate(-109 -134.2)"/></g><g transform="translate(0 53.434)"><path class="a" d="M166.128,230.752H110.113c-7.476,0-13.613-7.03-13.613-15.733v-11.6a2.8,2.8,0,0,1,1.339-2.455l26.668-18.3a3.19,3.19,0,0,1,3.682.112c6.36,5.244,13.5,5.244,19.862,0a3.013,3.013,0,0,1,3.682-.112l26.668,18.3a3.066,3.066,0,0,1,1.339,2.455v11.6C179.741,223.722,173.6,230.752,166.128,230.752Zm-63.491-25.776v10.042c0,5.356,3.347,9.708,7.476,9.708h56.015c4.129,0,7.476-4.352,7.476-9.708V204.976L150.06,188.8a20.087,20.087,0,0,1-23.879,0Z" transform="translate(-96.5 -182.087)"/></g></g><g transform="translate(77.662)"><g transform="translate(13.948)"><path class="a" d="M206.384,147.86a22.025,22.025,0,0,1-13.836-5.356,11.111,11.111,0,0,1-1.227-1.116c-7.811-7.141-12.72-19.081-12.72-30.462,0-16.291,11.158-27.226,27.784-27.226s27.784,10.935,27.784,27.226c0,11.27-5.021,23.209-12.72,30.462-.446.446-.893.781-1.227,1.116A21.635,21.635,0,0,1,206.384,147.86Zm0-58.023c-10.489,0-21.759,5.579-21.759,21.2,0,9.6,4.352,19.973,10.824,26,.335.335.67.558,1,.893,6.472,5.356,13.5,5.356,19.862,0,.335-.335.669-.558,1-.893,6.472-6.025,10.824-16.4,10.824-26C228.143,95.416,216.873,89.837,206.384,89.837Z" transform="translate(-178.6 -83.7)"/></g><g transform="translate(0 53.545)"><path class="a" d="M235.728,180.352H179.713c-7.476,0-13.613-7.03-13.613-15.733v-11.6a2.8,2.8,0,0,1,1.339-2.455l26.668-18.3a3.19,3.19,0,0,1,3.682.112c6.36,5.244,13.5,5.244,19.862,0a3.013,3.013,0,0,1,3.682-.112L248,150.559a3.066,3.066,0,0,1,1.339,2.455v11.6C249.341,173.21,243.315,180.352,235.728,180.352Zm-63.379-25.776v10.042c0,5.356,3.347,9.708,7.476,9.708h56.015c4.129,0,7.476-4.352,7.476-9.708V154.576L219.771,138.4a20.087,20.087,0,0,1-23.879,0Z" transform="translate(-166.1 -131.687)"/></g></g><g transform="translate(19.081 5.663)"><g transform="translate(0 11.744)"><path class="a" d="M116.613,123.96a3,3,0,0,1-3.013-3.013A21.668,21.668,0,0,1,135.247,99.3h30.908a3.013,3.013,0,1,1,0,6.025H135.247a15.668,15.668,0,0,0-15.622,15.622A3.073,3.073,0,0,1,116.613,123.96Z" transform="translate(-113.6 -99.3)"/></g><g transform="translate(37.799)"><path class="a" d="M150.516,118.261a3.048,3.048,0,0,1-2.12-.893,2.9,2.9,0,0,1,0-4.24l9.6-9.6-9.6-9.6a3,3,0,1,1,4.24-4.24l11.828,11.828a2.9,2.9,0,0,1,0,4.24l-11.828,11.828A4.33,4.33,0,0,1,150.516,118.261Z" transform="translate(-147.475 -88.775)"/></g></g><g transform="translate(98.388 116.604)"><g transform="translate(0.139)"><path class="a" d="M218.721,212.86H187.813a3.013,3.013,0,1,1,0-6.025h30.908a15.668,15.668,0,0,0,15.622-15.622,3.013,3.013,0,0,1,6.025,0A21.74,21.74,0,0,1,218.721,212.86Z" transform="translate(-184.8 -188.2)"/></g><g transform="translate(0 6.667)"><path class="a" d="M199.543,223.884a3.049,3.049,0,0,1-2.12-.893L185.6,211.164a2.9,2.9,0,0,1,0-4.24L197.423,195.1a3,3,0,1,1,4.24,4.24l-9.6,9.6,9.6,9.6a2.9,2.9,0,0,1,0,4.24A2.3,2.3,0,0,1,199.543,223.884Z" transform="translate(-184.675 -194.175)"/></g></g></g></g></g></svg>