<svg xmlns="http://www.w3.org/2000/svg" viewBox="-4141 -7854 285.616 257.4"><defs><style>.a,.f{fill:#eaedf3;}.b,.c{fill:none;}.b,.e,.f{stroke:#0d2240;}.b,.c,.e,.f{stroke-linecap:round;stroke-linejoin:round;stroke-miterlimit:10;stroke-width:7px;}.c{stroke:#7e4082;}.d{fill:#7e4082;}.e{fill:#fff;}</style></defs><g transform="translate(-4141 -7854)"><circle class="a" cx="128.7" cy="128.7" r="128.7" transform="translate(0 0)"/><path class="a" d="M65.3,145.1l-6.2,3.3a1.6,1.6,0,0,1-2.3-1.7l1.2-7a1.553,1.553,0,0,0-.5-1.4l-5.1-4.9a1.6,1.6,0,0,1,.9-2.7l7-1a1.594,1.594,0,0,0,1.2-.9l3.1-6.3a1.618,1.618,0,0,1,2.9,0l3.1,6.3a1.594,1.594,0,0,0,1.2.9l7,1a1.6,1.6,0,0,1,.9,2.7l-5.1,4.9a1.872,1.872,0,0,0-.5,1.4l1.2,7a1.6,1.6,0,0,1-2.3,1.7l-6.2-3.3A1.362,1.362,0,0,0,65.3,145.1Z"/><path class="b" d="M27.1,47.9H68.3a28.55,28.55,0,1,1-.1,57.1h0a28.6,28.6,0,1,0,28.7,28.6v-.7a28.6,28.6,0,1,1,28.6,28.7h-.1a28.6,28.6,0,1,0,28.7,28.6v-.1a28.552,28.552,0,0,1,28.6-28.4h27"/><path class="c" d="M241.2,79.3c-61.7,0-47,73.8,0,120.8C288.2,153.1,302.8,79.3,241.2,79.3Z"/><circle class="d" cx="21.8" cy="21.8" r="21.8" transform="translate(219.4 98.3)"/><path class="a" d="M240.5,129.2l-5.6,3a1.416,1.416,0,0,1-2.1-1.5l1.1-6.3a1.575,1.575,0,0,0-.4-1.3l-4.6-4.4a1.461,1.461,0,0,1,.8-2.5l6.3-.9a1.548,1.548,0,0,0,1.1-.8l2.8-5.7a1.437,1.437,0,0,1,2.6,0l2.8,5.7a1.548,1.548,0,0,0,1.1.8l6.3.9a1.453,1.453,0,0,1,.8,2.5l-4.6,4.4a1.479,1.479,0,0,0-.4,1.3l1.1,6.3a1.416,1.416,0,0,1-2.1,1.5l-5.6-3A1.2,1.2,0,0,0,240.5,129.2Z"/><circle class="e" cx="7.9" cy="7.9" r="7.9" transform="translate(19.2 40)"/><circle class="f" cx="7.9" cy="7.9" r="7.9" transform="translate(88.2 68)"/><circle class="f" cx="7.9" cy="7.9" r="7.9" transform="translate(146 127)"/><circle class="f" cx="7.9" cy="7.9" r="7.9" transform="translate(31.7 127)"/><circle class="f" cx="7.9" cy="7.9" r="7.9" transform="translate(88.2 184.9)"/></g></svg>