<svg xmlns="http://www.w3.org/2000/svg" viewBox="2047.985 -8989 318.456 258.72"><defs><style>.a{fill:#eaedf3;}.b,.c{fill:none;stroke-miterlimit:10;stroke-width:6px;}.b{stroke:#0d2240;}.c{stroke:#7e4082;stroke-linecap:round;}</style></defs><g transform="translate(2031.22 -9002.153)"><circle class="a" cx="128.71" cy="128.71" r="128.71" transform="translate(46.629 270.57) rotate(-89.71)"/><path class="b" d="M301.57,206.61,179.83,206h0a30.13,30.13,0,0,1-30-30.28L150.2,109a30.13,30.13,0,0,1,30.28-30l121.74.63a30.13,30.13,0,0,1,30,30.28l-.34,66.68a30.13,30.13,0,0,1-30.31,30.02Z"/><path class="b" d="M150.12,113.31,237,153.75a10.46,10.46,0,0,0,8.75,0l86.43-39.39"/><line class="c" x2="112.63" y2="0.58" transform="translate(19.78 119.86)"/><line class="c" x2="62.66" y2="0.33" transform="translate(69.64 141.95)"/><line class="c" x2="92.67" y2="0.48" transform="translate(39.52 163.63)"/></g></svg>