<svg xmlns="http://www.w3.org/2000/svg" viewBox="-5685 -7911.5 257.4 274.5"><defs><style>.a,.b,.c,.e{fill:#eaedf3;}.b{stroke:#7e4082;}.b,.d,.e{stroke-linecap:round;stroke-linejoin:round;stroke-width:7px;}.b,.c,.d,.e{stroke-miterlimit:10;}.c,.d,.e{stroke:#0d2240;}.d{fill:none;}</style></defs><g transform="translate(-5685 -7911.5)"><circle class="a" cx="128.7" cy="128.7" r="128.7" transform="translate(0 17.1)"/><path class="b" d="M114.5,42.7v91.4H143V42.7h21.3L128.7,3.5,93.1,42.7Z"/><path class="c" d="M68.2,164.6v33.9l60.5,33.7,64.1-33.7V164.6Z"/><path class="d" d="M192.8,164.6v33.9l-64.1,33.7L68.2,198.5V164.6"/><path class="e" d="M36.1,157.5l60.6,32,32-21.4v-3.5L68.2,132.5,36.1,153.9Z"/><path class="e" d="M221.3,157.5l-60.5,32-32.1-21.4v-3.5l60.5-32.1,32.1,21.4Z"/><path class="d" d="M160.7,117.5l28.5,15,32.1-21.3v-3.6L161.6,76.2"/><line class="d" y2="64.1" transform="translate(128.7 168.1)"/><path class="d" d="M96.7,117.5l-28.5,15L36.1,111.2v-3.6L95.8,76.2"/></g></svg>