<svg xmlns="http://www.w3.org/2000/svg" viewBox="-4165 -7892 257.4 257.4"><defs><style>.a{fill:#eaedf3;}.b,.c{fill:none;stroke-linecap:round;stroke-linejoin:round;stroke-miterlimit:10;stroke-width:7px;}.b{stroke:#0d2240;}.c{stroke:#7e4082;}</style></defs><g transform="translate(-4165 -7892)"><circle class="a" cx="128.7" cy="128.7" r="128.7" transform="translate(0 0)"/><path class="b" d="M205.4,124.3c0-.5-.1-1.3-.2-2.2s-.2-2-.3-3.1c-.1-.6-.1-1.2-.2-1.8l-.3-1.8c-.2-1.2-.4-2.4-.6-3.5a19.056,19.056,0,0,0-.7-3c-.5-1.8-.8-2.9-.8-2.9a1.484,1.484,0,0,0-1.3-1.2,9.733,9.733,0,0,0-3.1-.1,21.31,21.31,0,0,0-2.5-.3c-1.5-.2-3.6-.3-5.6-.4-4-.2-7.9-.1-7.9-.1l-.2-.4c-.1-.3-.3-.6-.5-1.1-.5-.9-1.1-2.1-1.7-3.3a9.5,9.5,0,0,0-1-1.7c-.3-.5-.7-1-.9-1.4-.5-.8-.9-1.4-.9-1.4a1.727,1.727,0,0,0-.3-.4,5.939,5.939,0,0,0-.8-1.1c-.7-.9-1.6-2-2.5-3.2s-2-2.2-2.7-3l-1.3-1.3s.4-.9,1-2.3,1.2-3.2,1.9-5.1c1.2-3.8,2.2-7.8,2.2-7.8,1.1-2.4,1.5-3.8.4-4.6,0,0-1-.7-2.5-1.7a52.162,52.162,0,0,0-5.7-3.6c-1.1-.6-2.1-1.2-3.2-1.7-.5-.3-1-.5-1.5-.8-.5-.2-.9-.4-1.4-.6-1.7-.7-2.8-1.2-2.8-1.2-.1,0-.2-.1-.3-.1-1.2-.3-1.9.6-3.5,2.7l-1.8,1.8c-1.1,1.1-2.5,2.6-3.8,4.1-2.7,3-5,6.2-5,6.2a.31.31,0,0,1-.2-.1c-.1,0-.1,0-.2-.1-.3-.1-.7-.1-1.2-.2-1-.2-2.3-.5-3.6-.7a26.316,26.316,0,0,0-3.6-.4c-1-.1-1.7-.2-1.7-.2a1.75,1.75,0,0,1-.5-.1,4.888,4.888,0,0,0-1.3-.1h-4.1c-1.5,0-2.9.2-4,.3s-1.8.2-1.8.2-.5-.9-1.2-2.2a51.871,51.871,0,0,0-2.8-4.6c-2.2-3.3-4.7-6.6-4.7-6.6-.9-1.8-1.6-2.9-2.5-3.1a1.388,1.388,0,0,0-.9,0s-1.2.3-2.9.8c-.9.3-1.9.5-3,.9s-2.2.9-3.3,1.3c-1.1.5-2.3.9-3.3,1.4l-2.8,1.4c-1.6.8-2.7,1.4-2.7,1.4-1.3.6-1.1,1.9-.3,4.6,0,0,.3,4.1,1,8.1a44.193,44.193,0,0,0,1.1,5.3c.4,1.5.6,2.4.6,2.4s-.5.4-1.3,1a25.95,25.95,0,0,0-2.8,2.3c-1.9,1.9-3.8,3.7-3.8,3.7s-1.9,2.3-3.8,4.5c-1.7,2.4-3.3,4.9-3.3,4.9s-1-.2-2.4-.4-3.4-.5-5.4-.7c-4-.4-8.1-.4-8.1-.4-2.6-.6-3.9-.6-4.5.7,0,0-.5,1.1-1.2,2.8-.3.9-.8,1.8-1.1,2.9s-.7,2.3-1.1,3.4c-.3,1.2-.7,2.3-1,3.4-.2,1.1-.5,2.2-.6,3.1-.4,1.8-.6,3-.6,3-.3,1.4.8,2,3.4,3.1,0,0,3.4,2.3,6.9,4.2,1.7,1,3.5,1.8,4.9,2.5,1.4.6,2.3,1,2.3,1v1.7a24.02,24.02,0,0,0,.1,3.7c.1,1.3.2,2.7.3,3.6,0,.5.1.9.1,1.2a1.75,1.75,0,0,1,.1.5s.1.7.3,1.8c.1.5.2,1.2.3,1.9.1.3.1.7.2,1s.2.7.3,1.1c.4,1.4.8,2.8,1.1,3.9a3.922,3.922,0,0,0,.5,1.3,4.2,4.2,0,0,0,.2.5,72.6,72.6,0,0,0-5.8,5.5,71.922,71.922,0,0,0-5.3,6c-2,1.7-2.9,2.7-2.3,4,0,0,.6,1.1,1.4,2.7,1,1.6,2.3,3.6,3.6,5.7a30.626,30.626,0,0,0,2.1,2.9c.7.9,1.4,1.7,1.9,2.4.6.7,1,1.3,1.4,1.7l.6.6a1.769,1.769,0,0,0,.8.5c.8.2,1.9-.3,3.8-1.3,0,0,3.9-1.2,7.6-2.8,1.8-.8,3.7-1.7,5-2.3,1.3-.7,2.2-1.1,2.2-1.1s.5.4,1.3,1.1c.4.3.8.7,1.3,1.1s1.1.7,1.6,1.1c1.1.8,2.2,1.5,3,2.1a6.417,6.417,0,0,0,1,.6,1.1,1.1,0,0,1,.4.2,16.346,16.346,0,0,0,1.6.9,30.086,30.086,0,0,0,3.6,1.8c1.4.6,2.7,1.1,3.7,1.6.5.2,1,.3,1.3.4a4.206,4.206,0,0,1,.5.2s.2,3.9.7,7.9c.5,4.1,1.4,7.9,1.4,7.9,0,2.5.3,3.9,1.6,4.2h.1s1.2.2,3,.6c1.8.2,4.2.5,6.7.7,2.4.1,4.9.1,6.7.1a13.468,13.468,0,0,0,2.2-.1,2.767,2.767,0,0,0,.8-.1c1.5-.1,1.8-1.2,2.3-4,0,0,.4-1,.9-2.4s1.1-3.3,1.7-5.3c1.1-3.9,1.8-7.8,1.8-7.8s.7-.1,1.6-.3c1-.2,2.2-.6,3.5-1s2.6-.7,3.5-1.1,1.5-.6,1.5-.6.7-.3,1.7-.7a37.334,37.334,0,0,0,3.7-1.7,27.217,27.217,0,0,0,3.5-2c.9-.6,1.6-1,1.6-1s3.2,2.4,6.6,4.4,7.1,3.8,7.1,3.8a10.277,10.277,0,0,0,2.8,1.7,1.566,1.566,0,0,0,1.6-.3,19.308,19.308,0,0,0,2.3-2c1.3-1.3,3.1-2.9,4.7-4.7s3.1-3.7,4.3-5.1c.6-.7,1-1.4,1.3-1.8s.5-.7.5-.7c.8-1.2.2-2.1-1.7-4.3,0,0-.5-.9-1.3-2.2s-1.9-3-3.1-4.6c-2.4-3.3-5-6.3-5-6.3s.3-.6.8-1.5c.4-.9.9-2.1,1.5-3.4a21.115,21.115,0,0,0,1.3-3.4c.3-1,.5-1.6.5-1.6s.2-.7.5-1.8a28.4,28.4,0,0,0,.9-3.9c.1-.7.3-1.4.4-2.1a6.478,6.478,0,0,0,.2-1.9c.1-1.1.2-1.8.2-1.8s1-.3,2.4-.7,3.4-1,5.2-1.7c3.7-1.4,7.4-3.1,7.4-3.1,2.6-.6,3.8-1.2,3.8-2.6C205.4,125.1,205.5,124.8,205.4,124.3Zm-37.5,9.6c-.4,1.6-.6,3-.9,4l-.5,1.5a9.476,9.476,0,0,0-.4,1.5c-.3.9-.9,2.2-1.5,3.8a43.691,43.691,0,0,1-6.9,10.2,44.552,44.552,0,0,1-9.7,7.6c-1.5.7-2.7,1.5-3.6,1.8a7.712,7.712,0,0,0-1.4.6s-.5.2-1.4.6c-.9.3-2.3.6-3.9,1.2a42.825,42.825,0,0,1-12.3.9,37.815,37.815,0,0,1-12-2.8,22.024,22.024,0,0,1-2.1-.9c-.6-.3-1.1-.6-1.6-.8a13.839,13.839,0,0,0-1.4-.7,1.094,1.094,0,0,0-.4-.2c-.1-.1-.3-.1-.4-.2a1.756,1.756,0,0,1-.5-.4c-.4-.3-.9-.6-1.5-1a11.545,11.545,0,0,1-1.9-1.4,46.359,46.359,0,0,1-8.5-9,41.089,41.089,0,0,1-5.3-11.1c-.2-.8-.5-1.6-.6-2.2q-.15-1.05-.3-1.8l-.3-1.5a4.422,4.422,0,0,1-.2-1.5c0-.5-.1-1.1-.1-1.8,0-.3-.1-.7-.1-1.1v-3.9l.3-3a2.2,2.2,0,0,1,.1-.8l.2-.8c.1-.5.2-1.1.3-1.6s.2-1.1.3-1.6l.5-1.6a35.9,35.9,0,0,1,5.4-11.1,27.769,27.769,0,0,1,2.5-3.2,12.244,12.244,0,0,1,1-1.2l1.1-1.1a16.8,16.8,0,0,1,3-2.7,38,38,0,0,1,10.6-6.2l1.6-.6c.5-.2,1.1-.3,1.6-.5s1.1-.3,1.6-.5l.8-.2c.3,0,.5-.1.8-.1l3-.6c1-.1,1.9-.1,2.7-.2.4,0,.8-.1,1.2-.1h2.9a10.758,10.758,0,0,1,1.6.1s.6.1,1.5.2c.5.1,1.1.1,1.8.2s1.4.3,2.3.5c.6.1,1.2.3,1.8.4a33.866,33.866,0,0,1,9.6,4,39.149,39.149,0,0,1,9.6,7.8c.6.6,1,1.2,1.5,1.8.4.5.8,1,1.1,1.4.2.2.3.4.4.5a1.38,1.38,0,0,0,.3.4,1.238,1.238,0,0,0,.2.3s.3.5.8,1.3c.3.4.6.9,1,1.5a20.918,20.918,0,0,1,1,2.1,39.04,39.04,0,0,1,3.7,11.8A40.127,40.127,0,0,1,167.9,133.9Z"/><path class="c" d="M22.5,126.1v-3.8c.4-3.5.8-6.9,1.1-10.2v-.2l.3-1.6,1-4.6c.3-1.2.5-2.5.7-3.7l1.3-4.2.1-.2.1-.2C31,85,36.3,74.8,39.8,70.2L42,67.4,43.4,65c.4-.5,1.1-1.3,1.6-1.9,1.3-1.5,2.8-3.2,4.5-5.4l1.2-1.5,1.4-1.4c2-1.8,3.6-3.5,5-4.8l1.7-1.7,2.3-1.6,2.7-2.4c4.3-3.9,14.1-9.9,26.2-14.7l.2-.1.2-.1,4-1.6c1.2-.3,2.4-.7,3.6-1l4.3-1.2,1.8-.5.3-.1c3.4-.6,6.8-1.2,10.1-1.8,3-.2,5.9-.5,8.6-.7a8.807,8.807,0,0,0,1.7-.2h1.9l6.8.1h1.6l5.8.7c1.1.1,2.5.3,4,.4h.5l2.9.6,3.5.8c1.4.3,3.1.7,4.9,1.2,9.4,2.5,17.6,5.8,23.8,9.6l.4.2.4.2A117.105,117.105,0,0,1,207,56.6l2.2,2.5c.6.8,1.4,1.8,2.3,2.9l2.9,3.6,1,1.3.1.1,3.3,5.3c.7,1.1,1.5,2.3,2.3,3.5l1.7,3.4,1.2,2.5a117.356,117.356,0,0,1,8.1,21.8"/><path class="c" d="M234.7,121.4a141.03,141.03,0,0,1-.8,23.2c-.7,3.2-1.2,5.9-1.7,8.1-.2.9-.3,1.7-.5,2.5l-1.4,4.5-.1.5-.1.5-1.4,4.5c-.3.7-.6,1.4-1,2.2-.9,2-2,4.6-3.2,7.5a129.19,129.19,0,0,1-17.8,26.2,130.242,130.242,0,0,1-24.9,19.7c-2.8,1.4-5.3,2.7-7.2,3.7-.8.4-1.5.8-2.2,1.1-3,1.2-4.7,1.8-4.7,1.8l-.3.1-.4.1-4.3,1.7c-.8.2-1.6.4-2.5.7-2.1.6-4.9,1.3-7.9,2.2a121.411,121.411,0,0,1-31.6,2.3l-.8-.1h-.8a81.548,81.548,0,0,1-16.2-2.7,115.156,115.156,0,0,1-14-4.7l-3.3-1.4-2.7-1.1c-1.3-.7-2.5-1.4-3.6-2-3.6-1.9-5.6-3-5.6-3h0l-1.1-.8-4.1-2.8c-1.1-.8-2.2-1.5-3.1-2.1l-2.6-2a120.575,120.575,0,0,1-22.3-24.1l-.3-.4-.3-.4c-5-7-9.6-16.9-12.9-27.9l-1.2-4.1-.6-2a4.331,4.331,0,0,0-.1-.5c-.3-1.5-.5-3-.7-4.3-.4-2-.7-3.6-.9-4.5"/><path class="b" d="M131.3,112.6l.4.1.5.1a1.854,1.854,0,0,1,.7.2,13.449,13.449,0,0,1,3.6,1.5h.2a21.731,21.731,0,0,1,3.9,3.1l.3.4c.1.1.2.3.4.4l.4.6.2.2h0l.5.8a1,1,0,0,0,.4.5l.3.5.2.4a15.812,15.812,0,0,1,1.5,4.5v.2a20.009,20.009,0,0,1,0,4.9,10.378,10.378,0,0,1-.3,1.2.6.6,0,0,1-.1.4l-.2.7v.2l-.2.7c0,.1-.1.2-.1.3a9.746,9.746,0,0,1-.5,1.1,21.576,21.576,0,0,1-2.7,4,17.535,17.535,0,0,1-3.8,3,10.906,10.906,0,0,0-1.1.6c-.1.1-.2.1-.3.2-.5.2-.7.3-.7.3h-.2l-.7.3c-.1,0-.2.1-.4.1a10.378,10.378,0,0,1-1.2.3,16.1,16.1,0,0,1-4.8.3h-.2a12.852,12.852,0,0,1-2.5-.4,17.232,17.232,0,0,1-2.1-.7l-.5-.2-.4-.2-.6-.3c-.5-.3-.9-.5-.9-.5h0l-.2-.1-.6-.4c-.2-.1-.3-.2-.5-.3l-.4-.3a18.316,18.316,0,0,1-3.4-3.7v-.2a14.315,14.315,0,0,1-2-4.3l-.2-.6-.1-.3v-.1c0-.2-.1-.5-.1-.7-.1-.4-.1-.7-.2-.8v-.1l-.1-1.1v-1.9c.1-.5.1-1.1.2-1.6h0l.1-.2.1-.7c0-.2.1-.4.1-.6l.2-.6h0a17.038,17.038,0,0,1,1.9-4.2l.3-.4.2-.4c.1-.1.2-.2.2-.3.2-.2.4-.5.7-.8l.2-.2.2-.2c.3-.3.6-.5.8-.7l.3-.3.4-.2.4-.4a15.353,15.353,0,0,1,4-2.2h0l.6-.2a1.421,1.421,0,0,0,.6-.2l.7-.2.3-.1h0l1.5-.3c.5,0,.9-.1,1.3-.1h1.9l.9.1a1.483,1.483,0,0,0,.7.1Z"/><path class="c" d="M243,90.7,232.8,107,216.1,96.6"/><path class="c" d="M12,155.6l11.4-15.5,15.9,11.6"/></g></svg>