<svg id="Layer_1" data-name="Layer 1" xmlns="http://www.w3.org/2000/svg" viewBox="0 0 353.05 659.16"><defs><style>.cls-1{fill:#0d2240;}.cls-2,.cls-3{fill:#fff;}.cls-3{stroke:#fff;stroke-miterlimit:10;stroke-width:2.41px;}</style></defs><title>infographic</title><path class="cls-1" d="M299,659.16a30,30,0,0,0,30-30V337.93a8,8,0,0,0-13.22-6.05,205.33,205.33,0,0,1-278.18-8.83,8,8,0,0,0-13.6,5.7v300.4a30.09,30.09,0,0,0,30,30Z"/><circle class="cls-1" cx="176.95" cy="176.62" r="124.51"/><path class="cls-1" d="M174.49,338.75a3.11,3.11,0,0,1-3-3.19h0a3.11,3.11,0,0,1,3.19-3.06h0a3.12,3.12,0,0,1,3,3.19h0a3.1,3.1,0,0,1-3.11,3.06h-.08Zm8.4-3.13a3.12,3.12,0,0,1,3-3.27h0a3.11,3.11,0,0,1,3.27,3h0a3.15,3.15,0,0,1-3,3.29H186A3.15,3.15,0,0,1,182.89,335.62Zm-20,2.46a3.15,3.15,0,0,1-2.83-3.42h0a3.13,3.13,0,0,1,3.42-2.81h0a3.13,3.13,0,0,1,2.81,3.4h0a3.12,3.12,0,0,1-3.1,2.84h-.29Zm31.49-3.21a3.12,3.12,0,0,1,2.73-3.48h0a3.12,3.12,0,0,1,3.48,2.71h0a3.14,3.14,0,0,1-2.73,3.5h0l-.37,0h0A3.13,3.13,0,0,1,194.33,334.87Zm-43.08,1.69a3.13,3.13,0,0,1-2.56-3.61h0a3.12,3.12,0,0,1,3.61-2.56h0a3.13,3.13,0,0,1,2.56,3.61h0a3.14,3.14,0,0,1-3.08,2.61h0A4.49,4.49,0,0,1,151.25,336.56Zm54.44-3.27a3.1,3.1,0,0,1,2.46-3.67h0a3.13,3.13,0,0,1,3.67,2.46h0a3.13,3.13,0,0,1-2.46,3.67h0a3.13,3.13,0,0,1-.6.06h0A3.12,3.12,0,0,1,205.69,333.29Zm-65.88.9a3.1,3.1,0,0,1-2.29-3.77h0a3.1,3.1,0,0,1,3.77-2.29h0a3.11,3.11,0,0,1,2.29,3.77h0a3.13,3.13,0,0,1-3,2.4h0A3.13,3.13,0,0,1,139.81,334.18Zm77.07-3.29a3.14,3.14,0,0,1,2.19-3.86h0a3.12,3.12,0,0,1,3.83,2.19h0a3.11,3.11,0,0,1-2.19,3.83h0a3,3,0,0,1-.83.13h0A3.14,3.14,0,0,1,216.88,330.89Zm-88.3.1a3.14,3.14,0,0,1-2-3.94h0a3.11,3.11,0,0,1,3.94-2v0a3.15,3.15,0,0,1,2,3.94h0a3.14,3.14,0,0,1-3,2.17h0A3.07,3.07,0,0,1,128.57,331Zm99.31-3.33a3.1,3.1,0,0,1,1.9-4v0a3.11,3.11,0,0,1,4,1.92h0a3.11,3.11,0,0,1-1.9,4h0a3,3,0,0,1-1,.19h0A3.13,3.13,0,0,1,227.88,327.66ZM117.57,327a3.13,3.13,0,0,1-1.71-4.06h0a3.13,3.13,0,0,1,4.06-1.73h0a3.15,3.15,0,0,1,1.73,4.09h0a3.13,3.13,0,0,1-2.9,1.94h0A3,3,0,0,1,117.57,327Zm121-3.31a3.13,3.13,0,0,1,1.6-4.13h0a3.13,3.13,0,0,1,4.13,1.58h0a3.13,3.13,0,0,1-1.6,4.13h0a3.11,3.11,0,0,1-1.27.27h0A3.13,3.13,0,0,1,238.59,323.66Zm-131.67-1.5A3.12,3.12,0,0,1,105.5,318h0a3.12,3.12,0,0,1,4.19-1.4h0a3.12,3.12,0,0,1,1.42,4.19h0a3.19,3.19,0,0,1-2.81,1.73h0A3,3,0,0,1,106.92,322.16ZM249,318.86a3.13,3.13,0,0,1,1.29-4.23h0a3.13,3.13,0,0,1,4.23,1.29h0a3.13,3.13,0,0,1-1.29,4.23h0a3.13,3.13,0,0,1-1.46.35h0A3.15,3.15,0,0,1,249,318.86ZM96.62,316.59a3.12,3.12,0,0,1-1.08-4.29h0a3.1,3.1,0,0,1,4.27-1.08h0a3.13,3.13,0,0,1,1.11,4.27h0A3.15,3.15,0,0,1,98.23,317h0A3.2,3.2,0,0,1,96.62,316.59ZM259,313.32a3.13,3.13,0,0,1,1-4.31h0a3.13,3.13,0,0,1,4.31,1h0a3.13,3.13,0,0,1-1,4.31h0a3.08,3.08,0,0,1-1.67.48h0A3.12,3.12,0,0,1,259,313.32Zm-172.23-3h0a3.14,3.14,0,0,1-.79-4.36h0a3.12,3.12,0,0,1,4.36-.77h0a3.11,3.11,0,0,1,.79,4.34h0a3.13,3.13,0,0,1-2.56,1.35h0A3.14,3.14,0,0,1,86.79,310.28Zm181.84-3.21a3.11,3.11,0,0,1,.67-4.38h0a3.11,3.11,0,0,1,4.36.67h0a3.13,3.13,0,0,1-.67,4.38h0a3,3,0,0,1-1.83.6h0A3.11,3.11,0,0,1,268.62,307.07ZM77.43,303.27a3.14,3.14,0,0,1-.46-4.4h0a3.14,3.14,0,0,1,4.4-.46h0a3.11,3.11,0,0,1,.46,4.38h0A3.09,3.09,0,0,1,79.39,304h0A3.16,3.16,0,0,1,77.43,303.27Zm200.3-3.15a3.11,3.11,0,0,1,.35-4.4h0a3.09,3.09,0,0,1,4.4.36h0a3.11,3.11,0,0,1-.33,4.4h0a3.08,3.08,0,0,1-2,.75h0A3.13,3.13,0,0,1,277.73,300.13ZM68.61,295.6a3.11,3.11,0,0,1-.15-4.42h0a3.15,3.15,0,0,1,4.42-.15h0a3.15,3.15,0,0,1,.15,4.42h0a3.13,3.13,0,0,1-2.29,1h0A3.14,3.14,0,0,1,68.61,295.6Zm217.72-3a3.13,3.13,0,0,1,0-4.44h0a3.13,3.13,0,0,1,4.42,0h0a3.13,3.13,0,0,1,0,4.42h0a3.16,3.16,0,0,1-2.21.9h0A3.11,3.11,0,0,1,286.34,292.56Zm-226-5.23a3.13,3.13,0,0,1,.19-4.42h0a3.13,3.13,0,0,1,4.42.17h0a3.13,3.13,0,0,1-.19,4.42h0a3.08,3.08,0,0,1-2.12.83h0A3.13,3.13,0,0,1,60.36,287.33Zm234-3a3.11,3.11,0,0,1-.29-4.42h0a3.13,3.13,0,0,1,4.4-.29h0a3.11,3.11,0,0,1,.29,4.42h0a3.08,3.08,0,0,1-2.35,1.06h0A3,3,0,0,1,294.36,284.37Zm-241.61-5.9h0a3.14,3.14,0,0,1,.48-4.4h0a3.14,3.14,0,0,1,4.4.5h0a3.14,3.14,0,0,1-.48,4.4h0a3.14,3.14,0,0,1-2,.67h0A3.09,3.09,0,0,1,52.75,278.47Zm249-2.83a3.15,3.15,0,0,1-.6-4.4h0a3.12,3.12,0,0,1,4.38-.6h0a3.15,3.15,0,0,1,.63,4.38h0a3.17,3.17,0,0,1-2.5,1.25h0A3.18,3.18,0,0,1,301.76,275.64Zm-256-6.54h0a3.12,3.12,0,0,1,.81-4.36h0a3.12,3.12,0,0,1,4.34.81h0a3.13,3.13,0,0,1-.81,4.36h0a3,3,0,0,1-1.75.54h0A3.14,3.14,0,0,1,45.79,269.1Zm262.74-2.73a3.11,3.11,0,0,1-.94-4.31h0a3.13,3.13,0,0,1,4.34-.94h0a3.15,3.15,0,0,1,.92,4.34h0a3.14,3.14,0,0,1-2.63,1.42h0A3,3,0,0,1,308.54,266.37Zm-269-7.13A3.12,3.12,0,0,1,40.65,255h0a3.12,3.12,0,0,1,4.27,1.11h0a3.15,3.15,0,0,1-1.1,4.29h0a3.33,3.33,0,0,1-1.58.42h0A3.1,3.1,0,0,1,39.54,259.24Zm275.06-2.58a3.13,3.13,0,0,1-1.23-4.25h0a3.12,3.12,0,0,1,4.23-1.25h0a3.13,3.13,0,0,1,1.25,4.25h0A3.14,3.14,0,0,1,316.1,257h0A3.26,3.26,0,0,1,314.6,256.65ZM34,248.94a3.13,3.13,0,0,1,1.42-4.19h0a3.15,3.15,0,0,1,4.19,1.44h0a3.14,3.14,0,0,1-1.44,4.19h0a3.23,3.23,0,0,1-1.38.31h0A3.12,3.12,0,0,1,34,248.94ZM320,246.5a3.14,3.14,0,0,1-1.56-4.15h0a3.13,3.13,0,0,1,4.15-1.54h0a3.1,3.1,0,0,1,1.54,4.15h0a3.1,3.1,0,0,1-2.84,1.81h0A3.13,3.13,0,0,1,320,246.5ZM29.25,238.29A3.13,3.13,0,0,1,31,234.21h0a3.14,3.14,0,0,1,4.06,1.73h0A3.16,3.16,0,0,1,33.33,240h0a3.4,3.4,0,0,1-1.17.23h0A3.16,3.16,0,0,1,29.25,238.29ZM324.54,236a3.12,3.12,0,0,1-1.86-4h0a3.13,3.13,0,0,1,4-1.86h0a3.13,3.13,0,0,1,1.86,4h0a3.16,3.16,0,0,1-2.94,2h0A2.85,2.85,0,0,1,324.54,236ZM25.29,227.29a3.11,3.11,0,0,1,2-3.92h0a3.12,3.12,0,0,1,3.94,2h0a3.13,3.13,0,0,1-2,3.92h0a3.21,3.21,0,0,1-1,.17h0A3.12,3.12,0,0,1,25.29,227.29Zm303.07-2.1a3.13,3.13,0,0,1-2.15-3.88h0a3.12,3.12,0,0,1,3.88-2.13h0a3.12,3.12,0,0,1,2.13,3.86h0a3.13,3.13,0,0,1-3,2.27h0A3,3,0,0,1,328.36,225.18ZM22.14,216a3.14,3.14,0,0,1,2.31-3.77h0a3.14,3.14,0,0,1,3.77,2.31h0a3.15,3.15,0,0,1-2.31,3.77h0a3,3,0,0,1-.73.08h0A3.13,3.13,0,0,1,22.14,216Zm309.2-1.92a3.11,3.11,0,0,1-2.4-3.71h0a3.09,3.09,0,0,1,3.69-2.4h0A3.1,3.1,0,0,1,335,211.7h0a3.12,3.12,0,0,1-3.06,2.48h0A3.55,3.55,0,0,1,331.34,214.12ZM19.83,204.59A3.14,3.14,0,0,1,22.41,201h0A3.14,3.14,0,0,1,26,203.57h0a3.12,3.12,0,0,1-2.58,3.58h0a2,2,0,0,1-.5,0h0A3.13,3.13,0,0,1,19.83,204.59Zm313.7-1.73a3.11,3.11,0,0,1-2.67-3.52h0a3.11,3.11,0,0,1,3.52-2.67h0A3.13,3.13,0,0,1,337,200.2h0A3.14,3.14,0,0,1,334,202.9h0A3,3,0,0,1,333.52,202.86ZM18.35,193a3.13,3.13,0,0,1,2.83-3.4h0a3.11,3.11,0,0,1,3.4,2.83h0a3.14,3.14,0,0,1-2.84,3.4h-.29A3.12,3.12,0,0,1,18.35,193Zm316.53-1.52a3.11,3.11,0,0,1-2.92-3.31v0a3.13,3.13,0,0,1,3.31-2.94h0a3.11,3.11,0,0,1,2.92,3.31h0a3.12,3.12,0,0,1-3.11,2.94h0A.7.7,0,0,1,334.88,191.48ZM17.72,181.33a2.92,2.92,0,0,1,.33-1.48h0a3.17,3.17,0,0,1-.35-1.48h0a3.12,3.12,0,0,1,3.13-3.13h0A3.14,3.14,0,0,1,24,178.37h0a3.07,3.07,0,0,1-.35,1.44h0a3.19,3.19,0,0,1,.38,1.42h0a3.13,3.13,0,0,1-3.06,3.17h-.06A3.11,3.11,0,0,1,17.72,181.33ZM332.25,177a3.15,3.15,0,0,1,3.1-3.17h0a3.11,3.11,0,0,1,3.15,3.1h0a3.11,3.11,0,0,1-3.08,3.15h0A3.13,3.13,0,0,1,332.25,177ZM21,170a3.11,3.11,0,0,1-2.9-3.33h0a3.11,3.11,0,0,1,3.33-2.9h0a3.13,3.13,0,0,1,2.9,3.36h0a3.14,3.14,0,0,1-3.13,2.9h0A.7.7,0,0,1,21,170Zm310.74-4.31a3.11,3.11,0,0,1,2.86-3.36h0a3.12,3.12,0,0,1,3.38,2.86h0a3.13,3.13,0,0,1-2.86,3.38h-.27A3.11,3.11,0,0,1,331.75,165.72ZM22,158.64a3.13,3.13,0,0,1-2.65-3.54h0a3.13,3.13,0,0,1,3.54-2.65h0A3.13,3.13,0,0,1,25.56,156h0a3.11,3.11,0,0,1-3.08,2.67h0A3.45,3.45,0,0,1,22,158.64Zm308.42-4.06h0A3.11,3.11,0,0,1,333,151h0a3.14,3.14,0,0,1,3.59,2.61h0A3.17,3.17,0,0,1,334,157.2h0a3.78,3.78,0,0,1-.48,0h0A3.11,3.11,0,0,1,330.44,154.57ZM23.85,147.32a3.12,3.12,0,0,1-2.38-3.73h0a3.12,3.12,0,0,1,3.73-2.38h0a3.13,3.13,0,0,1,2.38,3.73h0a3.13,3.13,0,0,1-3,2.46h0A2.56,2.56,0,0,1,23.85,147.32Zm304.47-3.77a3.14,3.14,0,0,1,2.35-3.75h0a3.15,3.15,0,0,1,3.75,2.35h0a3.14,3.14,0,0,1-2.36,3.75h0a4.1,4.1,0,0,1-.71.08h0A3.13,3.13,0,0,1,328.31,143.55Zm-301.8-7.38a3.1,3.1,0,0,1-2.1-3.88h0a3.12,3.12,0,0,1,3.9-2.1h0a3.12,3.12,0,0,1,2.08,3.9h0a3.11,3.11,0,0,1-3,2.23h0A2.68,2.68,0,0,1,26.52,136.17Zm298.88-3.46h0a3.1,3.1,0,0,1,2.06-3.9h0a3.09,3.09,0,0,1,3.9,2.06h0v0h0a3.1,3.1,0,0,1-2,3.92h0a2.92,2.92,0,0,1-.94.15h0A3.11,3.11,0,0,1,325.4,132.71ZM30,125.25a3.1,3.1,0,0,1-1.79-4h0a3.11,3.11,0,0,1,4-1.81h0a3.14,3.14,0,0,1,1.81,4h0a3.12,3.12,0,0,1-2.92,2h0A3.08,3.08,0,0,1,30,125.25Zm291.71-3.13a3.12,3.12,0,0,1,1.77-4.06h0a3.12,3.12,0,0,1,4,1.77h0a3.14,3.14,0,0,1-1.77,4.06h0a3.11,3.11,0,0,1-1.15.21h0A3.1,3.1,0,0,1,321.69,122.13ZM34.25,114.6a3.1,3.1,0,0,1-1.5-4.15h0a3.11,3.11,0,0,1,4.15-1.5h0a3.1,3.1,0,0,1,1.5,4.15h0a3.1,3.1,0,0,1-2.83,1.81h0A3,3,0,0,1,34.25,114.6Zm283-2.77h0a3.13,3.13,0,0,1,1.46-4.17h0a3.14,3.14,0,0,1,4.19,1.48h0a3.12,3.12,0,0,1-1.46,4.17h0a3.11,3.11,0,0,1-1.33.31h0A3.16,3.16,0,0,1,317.21,111.83ZM39.29,104.31a3.1,3.1,0,0,1-1.21-4.25h0a3.14,3.14,0,0,1,4.25-1.21h0a3.16,3.16,0,0,1,1.21,4.27h0a3.14,3.14,0,0,1-2.73,1.58h0A3.07,3.07,0,0,1,39.29,104.31Zm272.7-2.4a3.14,3.14,0,0,1,1.17-4.27h0a3.12,3.12,0,0,1,4.25,1.17h0a3.12,3.12,0,0,1-1.15,4.25h0a3.1,3.1,0,0,1-1.56.42h0A3.11,3.11,0,0,1,312,101.91ZM45.06,94.41a3.11,3.11,0,0,1-.9-4.34h0a3.15,3.15,0,0,1,4.34-.9h0a3.13,3.13,0,0,1,.88,4.34h0a3.09,3.09,0,0,1-2.61,1.4h0A3.2,3.2,0,0,1,45.06,94.41Zm261-2a3.12,3.12,0,0,1,.85-4.34h0a3.12,3.12,0,0,1,4.34.85h0a3.14,3.14,0,0,1-.83,4.34h0a3.21,3.21,0,0,1-1.75.54h0A3.16,3.16,0,0,1,306.05,92.36ZM51.52,84.95a3.15,3.15,0,0,1-.56-4.4h0A3.14,3.14,0,0,1,55.34,80h0a3.15,3.15,0,0,1,.58,4.4h0a3.19,3.19,0,0,1-2.5,1.21h0A3.12,3.12,0,0,1,51.52,84.95ZM299.45,83.3a3.15,3.15,0,0,1,.54-4.4h0a3.1,3.1,0,0,1,4.38.54h0a3.1,3.1,0,0,1-.52,4.38h0a3,3,0,0,1-1.92.67h0A3.19,3.19,0,0,1,299.45,83.3ZM58.67,76a3.13,3.13,0,0,1-.25-4.42h0a3.13,3.13,0,0,1,4.42-.25h0a3.13,3.13,0,0,1,.25,4.42h0a3.15,3.15,0,0,1-2.33,1h0A3.18,3.18,0,0,1,58.67,76Zm233.54-1.27a3.11,3.11,0,0,1,.21-4.42h0a3.15,3.15,0,0,1,4.42.21h0a3.15,3.15,0,0,1-.21,4.42h0a3.14,3.14,0,0,1-2.1.81h0A3.05,3.05,0,0,1,292.22,74.71ZM66.45,67.56a3.15,3.15,0,0,1,.06-4.44h0v0h0a3.13,3.13,0,0,1,4.42.06h0a3.11,3.11,0,0,1-.06,4.42h0a3.13,3.13,0,0,1-2.17.88h0A3.14,3.14,0,0,1,66.45,67.56Zm217.91-.88h0a3.13,3.13,0,0,1-.1-4.42h0a3.13,3.13,0,0,1,4.42-.12h0a3.15,3.15,0,0,1,.1,4.44h0a3.09,3.09,0,0,1-2.27,1h0A3.15,3.15,0,0,1,284.36,66.69Zm-209.56-7a3.14,3.14,0,0,1,.4-4.42h0a3.13,3.13,0,0,1,4.4.4h0a3.13,3.13,0,0,1-.38,4.4h0a3.13,3.13,0,0,1-2,.73h0A3.17,3.17,0,0,1,74.8,59.73Zm201.14-.48a3.11,3.11,0,0,1-.42-4.4h0a3.1,3.1,0,0,1,4.4-.44h0a3.12,3.12,0,0,1,.42,4.4h0a3.08,3.08,0,0,1-2.4,1.15h0A3.13,3.13,0,0,1,275.94,59.25ZM83.7,52.52a3.14,3.14,0,0,1,.73-4.38h0a3.13,3.13,0,0,1,4.36.71h0a3.15,3.15,0,0,1-.71,4.38h0a3.14,3.14,0,0,1-1.83.58h0A3.2,3.2,0,0,1,83.7,52.52ZM267,52.43a3.12,3.12,0,0,1-.75-4.36h0a3.11,3.11,0,0,1,4.36-.75h0a3.12,3.12,0,0,1,.75,4.36h0A3.14,3.14,0,0,1,268.81,53h0A3.15,3.15,0,0,1,267,52.43ZM93.12,46a3.09,3.09,0,0,1,1-4.29h0a3.1,3.1,0,0,1,4.29,1h0a3.1,3.1,0,0,1-1,4.29h0a3.1,3.1,0,0,1-1.63.46h0A3.1,3.1,0,0,1,93.12,46Zm164.5.29A3.1,3.1,0,0,1,256.56,42h0a3.12,3.12,0,0,1,4.29-1.06h0a3.14,3.14,0,0,1,1.06,4.29h0a3.18,3.18,0,0,1-2.69,1.5h0A3,3,0,0,1,257.62,46.26ZM103,40.14a3.16,3.16,0,0,1,1.33-4.23h0a3.15,3.15,0,0,1,4.23,1.35h0a3.13,3.13,0,0,1-1.35,4.21h0a3.16,3.16,0,0,1-1.42.36h0A3.16,3.16,0,0,1,103,40.14Zm144.82.69a3.14,3.14,0,0,1-1.37-4.21h0a3.14,3.14,0,0,1,4.21-1.36h0A3.12,3.12,0,0,1,252,39.45h0a3.14,3.14,0,0,1-2.79,1.71h0A3.14,3.14,0,0,1,247.78,40.82ZM113.21,35a3.11,3.11,0,0,1,1.65-4.11h0A3.12,3.12,0,0,1,119,32.55h0a3.14,3.14,0,0,1-1.65,4.11h0a2.85,2.85,0,0,1-1.23.27h0A3.12,3.12,0,0,1,113.21,35Zm124.38,1.08A3.12,3.12,0,0,1,235.9,32h0A3.13,3.13,0,0,1,240,30.34h0a3.13,3.13,0,0,1,1.67,4.08h0a3.11,3.11,0,0,1-2.88,1.92h0A3,3,0,0,1,237.59,36.11ZM123.8,30.68a3.12,3.12,0,0,1,1.94-4h0a3.13,3.13,0,0,1,4,1.92h0a3.13,3.13,0,0,1-1.94,4h0a2.91,2.91,0,0,1-1,.17h0A3.15,3.15,0,0,1,123.8,30.68Zm103.27,1.48a3.12,3.12,0,0,1-2-4h0a3.14,3.14,0,0,1,4-2h0a3.14,3.14,0,0,1,2,4h0a3.15,3.15,0,0,1-3,2.15h0A3.35,3.35,0,0,1,227.07,32.15Zm-92.37-5a3.13,3.13,0,0,1,2.21-3.83h0a3.15,3.15,0,0,1,3.83,2.23h0a3.13,3.13,0,0,1-2.23,3.81h0a2.68,2.68,0,0,1-.79.1h0A3.12,3.12,0,0,1,134.7,27.13ZM216.29,29h0A3.13,3.13,0,0,1,214,25.17h0a3.13,3.13,0,0,1,3.79-2.25h0a3.16,3.16,0,0,1,2.27,3.81h0a3.18,3.18,0,0,1-3,2.35h0A3.44,3.44,0,0,1,216.29,29Zm-70.48-4.61a3.13,3.13,0,0,1,2.5-3.65h0A3.1,3.1,0,0,1,152,23.21h0a3.1,3.1,0,0,1-2.48,3.65v0a5.75,5.75,0,0,1-.58,0h0A3.14,3.14,0,0,1,145.81,24.38Zm59.52,2.23h0A3.14,3.14,0,0,1,202.79,23h0a3.12,3.12,0,0,1,3.63-2.52h0A3.13,3.13,0,0,1,209,24.09h0a3.14,3.14,0,0,1-3.08,2.56h0A2.28,2.28,0,0,1,205.33,26.61Zm-48.23-4.17A3.15,3.15,0,0,1,159.88,19h0a3.12,3.12,0,0,1,3.46,2.75h0a3.09,3.09,0,0,1-2.75,3.46h0a2,2,0,0,1-.36,0h0A3.13,3.13,0,0,1,157.11,22.44ZM194.2,25h0a3.15,3.15,0,0,1-2.79-3.44h0a3.16,3.16,0,0,1,3.44-2.79h0v0h0a3.11,3.11,0,0,1,2.79,3.42h0a3.13,3.13,0,0,1-3.1,2.81h0Zm-25.7-3.71a3.13,3.13,0,0,1,3-3.23h0a3.11,3.11,0,0,1,3.25,3h0a3.11,3.11,0,0,1-3,3.25h-.15A3.14,3.14,0,0,1,168.5,21.34Zm14.51,3a3.16,3.16,0,0,1-3-3.23h0a3.12,3.12,0,0,1,3.23-3h0a3.12,3.12,0,0,1,3,3.21h0a3.12,3.12,0,0,1-3.13,3H183Z"/><path class="cls-2" d="M157.08,221.8a2.38,2.38,0,0,1-1-.22l-39.42-18.39a2.37,2.37,0,0,1-1.37-2.15V198.4a2.38,2.38,0,0,1,1.12-2l21-13.14a2.37,2.37,0,0,1,2.26-.14l39.42,18.39a2.37,2.37,0,0,1,1.37,2.15v2.63a2.38,2.38,0,0,1-1.12,2l-21,13.14A2.38,2.38,0,0,1,157.08,221.8Zm-36.86-22.2,36.7,17.13,18.63-11.64L138.85,188Z"/><path class="cls-2" d="M199.13,221.8a2.38,2.38,0,0,1-1.26-.36l-21-13.14a2.38,2.38,0,0,1-1.12-2v-2.63a2.37,2.37,0,0,1,1.37-2.15l39.42-18.39a2.38,2.38,0,0,1,2.26.14l21,13.14a2.38,2.38,0,0,1,1.12,2V201a2.37,2.37,0,0,1-1.37,2.15l-39.42,18.39A2.38,2.38,0,0,1,199.13,221.8Zm-18.47-16.71,18.63,11.64L236,199.61,217.36,188ZM238.54,201h0Z"/><path class="cls-2" d="M138.69,187.64a2.38,2.38,0,0,1-1.06-.25l-21-10.51a2.37,2.37,0,0,1-1.31-2.12v-2.63a2.37,2.37,0,0,1,1.37-2.15l39.42-18.39a2.37,2.37,0,0,1,2,4.3L120.4,173.47l18.24,9.12L163.52,169a2.37,2.37,0,0,1,2.27,4.17l-26,14.17A2.38,2.38,0,0,1,138.69,187.64Z"/><path class="cls-2" d="M217.52,187.64a2.38,2.38,0,0,1-1.14-.29l-28.91-15.77a2.37,2.37,0,1,1,2.27-4.17l27.82,15.17,18.24-9.12-36.64-17.1-9.49,4.74a2.37,2.37,0,1,1-2.12-4.25l10.51-5.26a2.38,2.38,0,0,1,2.07,0L239.55,170a2.37,2.37,0,0,1,1.37,2.15v2.63a2.37,2.37,0,0,1-1.31,2.12l-21,10.51A2.38,2.38,0,0,1,217.52,187.64Z"/><path class="cls-2" d="M178.11,245.45a2.37,2.37,0,0,1-2.37-2.37V206.29a2.37,2.37,0,0,1,4.75,0v36.79A2.37,2.37,0,0,1,178.11,245.45Z"/><path class="cls-2" d="M178.11,245.45a2.37,2.37,0,0,1-1-.22l-39.42-18.39a2.37,2.37,0,0,1-1.37-2.15V211.54a2.37,2.37,0,0,1,4.75,0v11.63l37,17.29,37-17.29V211.54a2.37,2.37,0,1,1,4.75,0v13.14a2.37,2.37,0,0,1-1.37,2.15l-39.42,18.39A2.37,2.37,0,0,1,178.11,245.45Z"/><path class="cls-2" d="M190.59,113a9,9,0,1,1,9-9A9,9,0,0,1,190.59,113Zm0-13.26a4.25,4.25,0,1,0,4.26,4.25A4.26,4.26,0,0,0,190.59,99.7Z"/><path class="cls-2" d="M153.94,114.27a9,9,0,1,1,9-9A9,9,0,0,1,153.94,114.27Zm0-13.26a4.25,4.25,0,1,0,4.25,4.26A4.26,4.26,0,0,0,153.94,101Z"/><path class="cls-2" d="M168.67,131.5a9,9,0,1,1,9-9A9,9,0,0,1,168.67,131.5Zm0-13.26a4.25,4.25,0,1,0,4.26,4.26A4.26,4.26,0,0,0,168.67,118.24Z"/><path class="cls-2" d="M168.67,152.41a2.37,2.37,0,0,1-1.68-.7L152.26,137a2.37,2.37,0,0,1-.7-1.68V112.88a2.37,2.37,0,1,1,4.75,0v21.44l14,14a2.37,2.37,0,0,1-1.68,4.05Z"/><path class="cls-2" d="M178.22,171a2.37,2.37,0,0,1-1.68-.7L167,160.75a2.37,2.37,0,0,1-.7-1.68V129.31a2.37,2.37,0,0,1,4.75,0v28.78l8.84,8.84a2.37,2.37,0,0,1-1.68,4.05Z"/><path class="cls-2" d="M178.22,193.76a2.37,2.37,0,0,1-2.37-2.37V146.61a2.37,2.37,0,0,1,.7-1.68l11.68-11.68V110.58a2.37,2.37,0,1,1,4.75,0v23.66a2.37,2.37,0,0,1-.7,1.68L180.59,147.6v43.79A2.37,2.37,0,0,1,178.22,193.76Z"/><path class="cls-1" d="M296.16,295.83a168.14,168.14,0,0,1-119.21,49.46c-88.57,0-161.42-68.63-168.16-155.51A12.26,12.26,0,0,1,21,176.62h0A12.28,12.28,0,0,1,33.26,188c5.82,74.18,68,132.76,143.69,132.76S314.82,262.18,320.64,188a12.28,12.28,0,0,1,12.22-11.38h0a12.26,12.26,0,0,1,12.25,13.16A168.2,168.2,0,0,1,296.16,295.83Z"/><path class="cls-2" d="M110.24,440.52l4.07-20.83h-2.41l.44-2.29h10.18c6.88,0,11.14,3.63,11.14,10.4A15.39,15.39,0,0,1,118,443.4h-6c-1.37,0-2-.59-2-1.55A7.45,7.45,0,0,1,110.24,440.52Zm3.29.59h4.37c8.14,0,13.06-6.4,13.06-13.17,0-5.55-3.33-8.25-8.88-8.25H116.9l-3.92,20a4.76,4.76,0,0,0-.11.89C112.87,441,113.05,441.11,113.53,441.11Z"/><path class="cls-2" d="M146.43,424.35c4.59,0,6.7,2.85,6.7,6.73a11.67,11.67,0,0,1-.55,3.11H138.32a8,8,0,0,0-.18,1.63c0,3.26,2,5.77,6,5.77a10.6,10.6,0,0,0,6.07-2.26l.81,2.07a12.52,12.52,0,0,1-7,2.44c-5.07,0-8.4-3.14-8.4-7.84C135.55,429.94,140.14,424.35,146.43,424.35Zm4,7.84a8.44,8.44,0,0,0,.11-1.29c0-3-1.78-4.44-4.22-4.44a8.13,8.13,0,0,0-7.47,5.74Z"/><path class="cls-2" d="M156,440.92l3.85-20a3.81,3.81,0,0,0,.11-.81q0-.56-.67-.56h-1.55l.44-2.18h2.55c1.33,0,2,.48,2,1.55a6.68,6.68,0,0,1-.15,1.07l-3.88,20a5.68,5.68,0,0,0-.11.63c0,.37.26.55.7.55h1.55l-.41,2.18h-2.59c-1.29,0-1.92-.52-1.92-1.63A3.88,3.88,0,0,1,156,440.92Z"/><path class="cls-2" d="M165.07,440.78l2.44-12.43a3.81,3.81,0,0,0,.11-.81q0-.56-.67-.56h-1.55l.44-2.18h2.52c1.33,0,2,.48,2,1.55a7,7,0,0,1-.15,1.15L167.74,440a5.64,5.64,0,0,0-.11.63c0,.37.26.55.7.55h1.55l-.41,2.18h-2.59c-1.29,0-1.92-.52-1.92-1.63A7.13,7.13,0,0,1,165.07,440.78Zm4.48-23.39H172l-.63,3.18h-2.44Z"/><path class="cls-2" d="M175.18,428c-.15-.67-.41-1-1-1h-.48l.41-2.18h1.22c1.29,0,1.92.59,2.22,2.07l2.18,11.58c.11.78.26,2.18.26,2.18h.07a14.54,14.54,0,0,1,1-2.18l6.7-11.62c1-1.7,1.41-2,3.15-2h1.33l-.44,2.18h-.48a1.32,1.32,0,0,0-1.33.85l-9.07,15.58h-2.74Z"/><path class="cls-2" d="M203.18,424.35c4.59,0,6.7,2.85,6.7,6.73a11.67,11.67,0,0,1-.55,3.11H195.08a8,8,0,0,0-.18,1.63c0,3.26,2,5.77,6,5.77a10.6,10.6,0,0,0,6.07-2.26l.81,2.07a12.52,12.52,0,0,1-7,2.44c-5.07,0-8.4-3.14-8.4-7.84C192.31,429.94,196.89,424.35,203.18,424.35Zm4,7.84a8.44,8.44,0,0,0,.11-1.29c0-3-1.78-4.44-4.22-4.44a8.13,8.13,0,0,0-7.47,5.74Z"/><path class="cls-2" d="M215.28,427.79c.07-.44,0-.81-.67-.81h-1.55l.44-2.18h2.59c1.41,0,1.89.52,1.89,1.52a16.29,16.29,0,0,1-.74,3.4h.07c1.29-2.63,3.77-5.11,6.88-5.11a4.43,4.43,0,0,1,1,.11l-.48,2.48a6.22,6.22,0,0,0-.92-.07c-4,0-6.85,4.88-7.66,9.18l-1.37,7.1h-2.52Z"/><path class="cls-2" d="M221.5,449.4l1.18-1.85a3.58,3.58,0,0,0,2.66,1.41c1.63,0,2.92-1.37,4-3.07l1.67-2.63-3.51-15.43c-.15-.67-.48-.85-1.15-.85h-.37l.44-2.18H228c1.26,0,1.55.67,1.85,2l2.52,11.62a18.52,18.52,0,0,1,.26,2h.07a22.18,22.18,0,0,1,1-2l6.85-11.62c1-1.67,1.59-2,3.29-2h1.26L244.7,427h-.37a1.51,1.51,0,0,0-1.48.85l-11.77,19.5c-1.48,2.41-3.48,3.85-5.85,3.85A5,5,0,0,1,221.5,449.4Z"/><path class="cls-2" d="M88.1,494.28h2.46l2,9.09,4.67-9.09h2.31l-6.56,12H91.13Z"/><path class="cls-2" d="M100.3,498.15h2l-1.15,8.16h-2Zm1.57-4a1.07,1.07,0,0,1,1.15,1.22,1.49,1.49,0,0,1-1.5,1.22,1.07,1.07,0,0,1-1.12-1.22A1.49,1.49,0,0,1,101.86,494.16Z"/><path class="cls-2" d="M104.69,498.15h2l-.18,1.29h0a3.07,3.07,0,0,1,2.63-1.5,2.45,2.45,0,0,1,.71.12l-.28,2a3.84,3.84,0,0,0-1-.15,2.43,2.43,0,0,0-2.48,2.06l-.62,4.37h-2Z"/><path class="cls-2" d="M110.1,499.89l.24-1.73H112l.33-2.36h2l-.33,2.36h2.24l-.24,1.73h-2.24l-.5,3.57c-.12.82.05,1.33,1,1.33a2.32,2.32,0,0,0,1.14-.25l-.24,1.72a4.6,4.6,0,0,1-1.65.27c-2.16,0-2.53-1-2.26-2.89l.53-3.74Z"/><path class="cls-2" d="M124.21,506.31h-1.94l.18-1.31h0a3,3,0,0,1-2.71,1.51c-2.19,0-2.76-1.55-2.52-3.21l.73-5.15h2l-.58,4.13c-.13.9-.27,2.4,1.16,2.4a2.16,2.16,0,0,0,2.16-2.07l.63-4.45h2Z"/><path class="cls-2" d="M131.78,505.19h-.05a3.42,3.42,0,0,1-2.8,1.33c-1.51,0-2.86-.83-2.63-2.45.37-2.65,3.49-2.84,5.53-2.84h.51l0-.22c.14-1-.57-1.53-1.65-1.53a3.68,3.68,0,0,0-2.3.85l-.92-1.07a5.45,5.45,0,0,1,3.65-1.31c3.48,0,3.13,2.52,3,3.67l-.66,4.69h-1.84Zm.24-2.53h-.42c-1.12,0-3.07.08-3.24,1.26-.11.75.61,1.07,1.28,1.07a2.09,2.09,0,0,0,2.32-1.87Z"/><path class="cls-2" d="M137.49,493.46h2l-1.81,12.85h-2Z"/><path class="cls-2" d="M154.85,497.1a2.82,2.82,0,0,0-2.37-1.19,4.85,4.85,0,0,0-4.74,4.3c-.36,2.57,1,4.47,3.5,4.47a4,4,0,0,0,2.91-1.46l1.59,1.26a6.18,6.18,0,0,1-4.79,2.14c-3.71,0-6-2.52-5.47-6.27a7.17,7.17,0,0,1,7.26-6.37,4.51,4.51,0,0,1,3.95,1.9Z"/><path class="cls-2" d="M162,505.19H162a3.42,3.42,0,0,1-2.8,1.33c-1.51,0-2.86-.83-2.63-2.45.37-2.65,3.49-2.84,5.53-2.84h.51l0-.22c.14-1-.57-1.53-1.65-1.53a3.68,3.68,0,0,0-2.3.85l-.92-1.07a5.45,5.45,0,0,1,3.65-1.31c3.48,0,3.13,2.52,3,3.67l-.66,4.69h-1.83Zm.24-2.53h-.42c-1.12,0-3.07.08-3.24,1.26-.11.75.61,1.07,1.28,1.07a2.09,2.09,0,0,0,2.32-1.87Z"/><path class="cls-2" d="M166.94,498.15h1.94l-.18,1.27h0a3.06,3.06,0,0,1,2.71-1.48,2.12,2.12,0,0,1,2.34,1.51,3.33,3.33,0,0,1,2.9-1.51c2.18,0,2.72,1.55,2.45,3.5l-.68,4.86h-2l.65-4.62c.14-1,0-1.9-1.24-1.9a2.16,2.16,0,0,0-2,2.11l-.62,4.42h-2l.69-4.86c.14-1-.17-1.67-1.16-1.67a2.16,2.16,0,0,0-2.16,2.07l-.63,4.45h-2Z"/><path class="cls-2" d="M181.81,498.15h1.94l-.17,1.22h0a3.66,3.66,0,0,1,3-1.43c2.52,0,3.76,1.87,3.42,4.28a4.75,4.75,0,0,1-4.55,4.28,2.87,2.87,0,0,1-2.6-1.24h-.05l-.69,4.91h-2Zm4.14,1.63a2.81,2.81,0,0,0-2.74,2.45,2,2,0,0,0,2.05,2.45,2.81,2.81,0,0,0,2.74-2.45A2,2,0,0,0,186,499.79Z"/><path class="cls-2" d="M198.82,506.31h-1.94l.18-1.31h0a3,3,0,0,1-2.71,1.51c-2.19,0-2.76-1.55-2.52-3.21l.73-5.15h2l-.58,4.13c-.13.9-.27,2.4,1.16,2.4a2.16,2.16,0,0,0,2.16-2.07l.63-4.45h2Z"/><path class="cls-2" d="M206.31,500.41a1.58,1.58,0,0,0-1.48-.83c-.54,0-1.23.25-1.31.87-.21,1.46,4.36.27,3.92,3.45-.27,1.94-2.22,2.62-3.89,2.62a3.48,3.48,0,0,1-3-1.26l1.54-1.28a2.12,2.12,0,0,0,1.8,1c.6,0,1.4-.29,1.49-.93.24-1.68-4.35-.36-3.91-3.47.26-1.82,2-2.63,3.65-2.63a3.05,3.05,0,0,1,2.73,1.24Z"/><path class="cls-2" d="M213.86,504.15l5.31-4.52a3.78,3.78,0,0,0,1.53-2,1.38,1.38,0,0,0-1.53-1.58,2.13,2.13,0,0,0-2.08,1.63l-2.12-.17a4.31,4.31,0,0,1,4.47-3.4c2.16,0,3.74,1.11,3.41,3.42a5.57,5.57,0,0,1-2.35,3.54l-4.21,3.45h5.58l-.26,1.84h-8.06Z"/><path class="cls-2" d="M225.49,503.8a1.13,1.13,0,0,1,1.18,1.29,1.6,1.6,0,0,1-1.55,1.33,1.13,1.13,0,0,1-1.18-1.29A1.6,1.6,0,0,1,225.49,503.8Z"/><path class="cls-2" d="M234.41,494.07c1.34,0,4.28.53,3.47,6.22s-3.89,6.22-5.23,6.22-4.28-.53-3.47-6.22S233.06,494.07,234.41,494.07Zm-1.48,10.5c2,0,2.71-2.79,2.92-4.28s.33-4.28-1.71-4.28-2.71,2.79-2.92,4.28S230.89,504.58,232.93,504.58Z"/><path class="cls-2" d="M245.78,494.28h2.14l-1.42,10.1h5.12l-.27,1.94h-7.26Z"/><path class="cls-2" d="M254.66,494.28h3.26l2,8.43,4.43-8.43h3.23l-1.7,12h-2l1.41-10h0l-5.06,10h-1.5l-2.25-10h0l-1.41,10h-2Z"/><path class="cls-2" d="M275.88,496.86a2.18,2.18,0,0,0-2-1,2,2,0,0,0-2.19,1.55c-.34,2.41,5.56,1,5,5.32-.36,2.58-2.58,3.84-4.94,3.84A4.33,4.33,0,0,1,268,505l1.83-1.56a2.41,2.41,0,0,0,2.2,1.26A2.24,2.24,0,0,0,274.4,503c.37-2.63-5.55-1.12-4.95-5.42.35-2.48,2.72-3.64,4.95-3.64a4.33,4.33,0,0,1,3.28,1.24Z"/><path class="cls-2" d="M65.39,505.6a6.43,6.43,0,1,1,6.43-6.43A6.44,6.44,0,0,1,65.39,505.6Zm4.18-6.81-.76-.76-3-3a.55.55,0,0,0-.75,0l-.76.76a.55.55,0,0,0,0,.75l1.58,1.58H61.63a.54.54,0,0,0-.54.54v1.07a.54.54,0,0,0,.54.54h4.21l-1.58,1.58a.53.53,0,0,0,0,.75l.76.76a.55.55,0,0,0,.75,0l3-3,.76-.76a.55.55,0,0,0,0-.75Z"/><path class="cls-2" d="M89.49,530.54h7.77L97,532.47H91.36l-.45,3.16h5.3l-.27,1.94h-5.3l-.7,5H87.8Z"/><path class="cls-2" d="M102.63,541.45h-.05a3.42,3.42,0,0,1-2.8,1.33c-1.51,0-2.86-.83-2.63-2.45.37-2.65,3.49-2.84,5.53-2.84h.51l0-.22c.14-1-.57-1.53-1.65-1.53a3.68,3.68,0,0,0-2.3.85l-.92-1.07a5.45,5.45,0,0,1,3.65-1.31c3.48,0,3.13,2.52,3,3.67l-.66,4.69h-1.84Zm.24-2.53h-.42c-1.12,0-3.07.08-3.24,1.26-.11.75.61,1.07,1.28,1.07a2.09,2.09,0,0,0,2.32-1.87Z"/><path class="cls-2" d="M112.88,536.86a1.91,1.91,0,0,0-1.43-.82,2.81,2.81,0,0,0-2.74,2.45,2,2,0,0,0,2.05,2.45,2.28,2.28,0,0,0,1.69-.77l1.15,1.46a5.26,5.26,0,0,1-3.1,1.14,3.6,3.6,0,0,1-3.83-4.28,5,5,0,0,1,5-4.28,3.45,3.45,0,0,1,2.78,1.24Z"/><path class="cls-2" d="M122.14,542.57H120.2l.18-1.31h0a3,3,0,0,1-2.71,1.51c-2.19,0-2.76-1.55-2.52-3.21l.73-5.15h2l-.58,4.13c-.13.9-.27,2.4,1.16,2.4a2.16,2.16,0,0,0,2.16-2.07l.63-4.45h2Z"/><path class="cls-2" d="M126.29,529.72h2l-1.81,12.85h-2Z"/><path class="cls-2" d="M128.82,536.14l.24-1.73h1.68l.33-2.36h2l-.33,2.36H135l-.24,1.73h-2.24l-.5,3.57c-.12.82.05,1.33,1,1.33a2.32,2.32,0,0,0,1.14-.25l-.24,1.72a4.6,4.6,0,0,1-1.65.27c-2.16,0-2.53-1-2.26-2.89l.53-3.74Z"/><path class="cls-2" d="M135.53,534.41h2.24l1.48,5.66h0l2.84-5.66h2.13L139,544.32c-.81,1.53-1.64,2.33-3.44,2.33a5.73,5.73,0,0,1-1.54-.2l.51-1.83a2.83,2.83,0,0,0,1,.2c1,0,1.33-.36,1.79-1.21l.53-1Z"/><path class="cls-2" d="M151.22,530.54H156c3.16,0,5.85,1.94,5.27,6a7.2,7.2,0,0,1-7.22,6h-4.49Zm2.32,10.1c2.69,0,5-1.16,5.45-4.08s-1.33-4.08-3.95-4.08h-2l-1.15,8.16Z"/><path class="cls-2" d="M164.35,539.2a1.79,1.79,0,0,0,1.92,1.94,3.14,3.14,0,0,0,2.35-1.11l1.31,1.11a4.93,4.93,0,0,1-3.68,1.63,3.6,3.6,0,0,1-3.83-4.28,5,5,0,0,1,5-4.28c2.28,0,3.6,1.6,3.2,4.44l-.08.56Zm4.4-1.53a1.61,1.61,0,0,0-1.8-1.94,2.41,2.41,0,0,0-2.38,1.94Z"/><path class="cls-2" d="M172,534.41h2.23l1.37,5.71h0l3-5.71h2.09l-4.36,8.16h-2.18Z"/><path class="cls-2" d="M182.93,539.2a1.79,1.79,0,0,0,1.92,1.94,3.14,3.14,0,0,0,2.35-1.11l1.31,1.11a4.93,4.93,0,0,1-3.68,1.63,3.6,3.6,0,0,1-3.83-4.28,5,5,0,0,1,5-4.28c2.28,0,3.6,1.6,3.2,4.44l-.08.56Zm4.4-1.53a1.61,1.61,0,0,0-1.8-1.94,2.41,2.41,0,0,0-2.38,1.94Z"/><path class="cls-2" d="M192.42,529.72h2l-1.81,12.85h-2Z"/><path class="cls-2" d="M200.21,534.21a3.6,3.6,0,0,1,3.83,4.28,5,5,0,0,1-5,4.28,3.6,3.6,0,0,1-3.83-4.28A5,5,0,0,1,200.21,534.21Zm-.95,6.73a2.81,2.81,0,0,0,2.74-2.45,2,2,0,0,0-2.05-2.45,2.81,2.81,0,0,0-2.74,2.45A2,2,0,0,0,199.26,540.94Z"/><path class="cls-2" d="M206.52,534.41h1.94l-.17,1.22h0a3.67,3.67,0,0,1,3-1.43c2.52,0,3.76,1.87,3.42,4.28a4.75,4.75,0,0,1-4.55,4.28,2.87,2.87,0,0,1-2.6-1.24h-.05l-.69,4.91h-2Zm4.14,1.63a2.8,2.8,0,0,0-2.74,2.45,2,2,0,0,0,2.05,2.45,2.81,2.81,0,0,0,2.74-2.45A2,2,0,0,0,210.66,536Z"/><path class="cls-2" d="M217.14,534.41h1.94l-.18,1.27h0a3.06,3.06,0,0,1,2.71-1.48,2.12,2.12,0,0,1,2.34,1.51,3.33,3.33,0,0,1,2.9-1.51c2.18,0,2.72,1.55,2.45,3.5l-.68,4.86h-2l.65-4.62c.14-1,0-1.9-1.24-1.9a2.16,2.16,0,0,0-2,2.11l-.62,4.42h-2l.69-4.86c.14-1-.17-1.67-1.16-1.67a2.16,2.16,0,0,0-2.16,2.07l-.63,4.45h-2Z"/><path class="cls-2" d="M233,539.2a1.79,1.79,0,0,0,1.92,1.94,3.14,3.14,0,0,0,2.35-1.11l1.31,1.11a4.93,4.93,0,0,1-3.68,1.63,3.6,3.6,0,0,1-3.83-4.28,5,5,0,0,1,5-4.28c2.28,0,3.6,1.6,3.2,4.44l-.08.56Zm4.4-1.53a1.61,1.61,0,0,0-1.8-1.94,2.41,2.41,0,0,0-2.38,1.94Z"/><path class="cls-2" d="M241.77,534.41h1.94l-.18,1.31h0a3,3,0,0,1,2.71-1.51c2.19,0,2.76,1.55,2.52,3.21l-.73,5.15h-2l.58-4.13c.13-.9.27-2.4-1.16-2.4a2.16,2.16,0,0,0-2.16,2.07l-.63,4.45h-2Z"/><path class="cls-2" d="M250.34,536.14l.24-1.73h1.68l.33-2.36h2l-.33,2.36h2.24l-.24,1.73h-2.24l-.5,3.57c-.12.82.05,1.33,1,1.33a2.32,2.32,0,0,0,1.14-.25l-.24,1.72a4.6,4.6,0,0,1-1.65.27c-2.16,0-2.53-1-2.26-2.89l.53-3.74Z"/><path class="cls-2" d="M96.61,561.73l2.2,2.84H96.18l-1.08-1.38a5,5,0,0,1-3.79,1.68c-2.12,0-3.91-1.24-3.58-3.54A4.49,4.49,0,0,1,90.8,558a3.44,3.44,0,0,1-1-2.77,3.63,3.63,0,0,1,3.87-3c1.8,0,3.28.88,3,2.86-.21,1.48-1.56,2.5-2.83,3.11l1.64,2.09,1.63-2h2.4Zm-4.69-2.57c-.87.48-1.79,1-1.94,2.06A1.57,1.57,0,0,0,91.63,563,3.81,3.81,0,0,0,94,561.85Zm-.08-3.89c-.09.63.43,1.26.89,1.75.75-.37,1.77-1,1.89-1.83.09-.65-.44-1.12-1.17-1.12A1.56,1.56,0,0,0,91.84,555.27Z"/><path class="cls-2" d="M107.12,552.54h7.77l-.27,1.94H109l-.45,3.16h5.3l-.27,1.94h-5.3l-.7,5h-2.14Z"/><path class="cls-2" d="M120.25,563.45h-.05a3.42,3.42,0,0,1-2.8,1.33c-1.51,0-2.86-.83-2.63-2.45.37-2.65,3.49-2.84,5.53-2.84h.51l0-.22c.14-1-.57-1.53-1.65-1.53a3.68,3.68,0,0,0-2.3.85l-.92-1.07a5.45,5.45,0,0,1,3.65-1.31c3.48,0,3.13,2.52,3,3.67l-.66,4.69H120.1Zm.24-2.53h-.42c-1.12,0-3.07.08-3.24,1.26-.11.75.61,1.07,1.28,1.07a2.09,2.09,0,0,0,2.32-1.87Z"/><path class="cls-2" d="M130.51,558.86a1.91,1.91,0,0,0-1.43-.82,2.81,2.81,0,0,0-2.74,2.45,2,2,0,0,0,2.05,2.45,2.28,2.28,0,0,0,1.69-.77l1.15,1.46a5.26,5.26,0,0,1-3.1,1.14,3.6,3.6,0,0,1-3.83-4.28,5,5,0,0,1,5-4.28,3.45,3.45,0,0,1,2.78,1.24Z"/><path class="cls-2" d="M133.5,556.41h2l-1.15,8.16h-2Zm1.57-4a1.07,1.07,0,0,1,1.15,1.22,1.49,1.49,0,0,1-1.5,1.22,1.07,1.07,0,0,1-1.12-1.22A1.49,1.49,0,0,1,135.07,552.42Z"/><path class="cls-2" d="M138.58,551.72h2l-1.81,12.85h-2Z"/><path class="cls-2" d="M142.34,556.41h2l-1.15,8.16h-2Zm1.57-4a1.07,1.07,0,0,1,1.15,1.22,1.49,1.49,0,0,1-1.5,1.22,1.07,1.07,0,0,1-1.12-1.22A1.49,1.49,0,0,1,143.91,552.42Z"/><path class="cls-2" d="M145.53,558.14l.24-1.73h1.68l.33-2.36h2l-.33,2.36h2.24l-.24,1.73h-2.24l-.5,3.57c-.12.82.05,1.33,1,1.33a2.32,2.32,0,0,0,1.14-.25l-.24,1.72a4.6,4.6,0,0,1-1.65.27c-2.16,0-2.53-1-2.26-2.89l.53-3.74Z"/><path class="cls-2" d="M157.45,563.45h-.05a3.42,3.42,0,0,1-2.8,1.33c-1.51,0-2.86-.83-2.63-2.45.37-2.65,3.49-2.84,5.53-2.84H158l0-.22c.14-1-.57-1.53-1.65-1.53a3.68,3.68,0,0,0-2.3.85l-.92-1.07a5.45,5.45,0,0,1,3.65-1.31c3.48,0,3.13,2.52,3,3.67l-.66,4.69h-1.84Zm.24-2.53h-.42c-1.12,0-3.07.08-3.24,1.26-.11.75.61,1.07,1.28,1.07a2.09,2.09,0,0,0,2.32-1.87Z"/><path class="cls-2" d="M161.27,558.14l.24-1.73h1.68l.33-2.36h2l-.33,2.36h2.24l-.24,1.73H165l-.5,3.57c-.12.82.05,1.33,1,1.33a2.32,2.32,0,0,0,1.14-.25l-.24,1.72a4.6,4.6,0,0,1-1.65.27c-2.16,0-2.53-1-2.26-2.89l.53-3.74Z"/><path class="cls-2" d="M169.12,556.41h2L170,564.57h-2Zm1.57-4a1.07,1.07,0,0,1,1.15,1.22,1.49,1.49,0,0,1-1.5,1.22,1.07,1.07,0,0,1-1.12-1.22A1.49,1.49,0,0,1,170.68,552.42Z"/><path class="cls-2" d="M177.56,556.21a3.6,3.6,0,0,1,3.83,4.28,5,5,0,0,1-5,4.28,3.6,3.6,0,0,1-3.83-4.28A5,5,0,0,1,177.56,556.21Zm-.95,6.73a2.81,2.81,0,0,0,2.74-2.45A2,2,0,0,0,177.3,558a2.81,2.81,0,0,0-2.74,2.45A2,2,0,0,0,176.61,562.94Z"/><path class="cls-2" d="M183.87,556.41h1.94l-.18,1.31h0a3,3,0,0,1,2.71-1.51c2.19,0,2.76,1.55,2.52,3.21l-.73,5.15h-2l.58-4.13c.13-.9.27-2.4-1.16-2.4a2.16,2.16,0,0,0-2.16,2.07l-.63,4.45h-2Z"/><path class="cls-2" d="M204.93,555.12a2.18,2.18,0,0,0-2-1,2,2,0,0,0-2.19,1.55c-.34,2.41,5.56,1,5,5.32-.36,2.58-2.58,3.84-4.94,3.84a4.33,4.33,0,0,1-3.71-1.63l1.83-1.56a2.41,2.41,0,0,0,2.2,1.26,2.24,2.24,0,0,0,2.34-1.65c.37-2.63-5.55-1.12-4.95-5.42.35-2.48,2.72-3.64,4.95-3.64a4.33,4.33,0,0,1,3.28,1.24Z"/><path class="cls-2" d="M214.72,564.57h-1.94l.18-1.31h0a3,3,0,0,1-2.71,1.51c-2.19,0-2.76-1.55-2.52-3.21l.73-5.15h2l-.58,4.13c-.13.9-.27,2.4,1.16,2.4a2.16,2.16,0,0,0,2.16-2.07l.63-4.45h2Z"/><path class="cls-2" d="M218.18,556.41h1.94l-.17,1.22h0a3.67,3.67,0,0,1,3-1.43c2.52,0,3.76,1.87,3.42,4.28a4.75,4.75,0,0,1-4.55,4.28,2.87,2.87,0,0,1-2.6-1.24h-.05l-.69,4.91h-2Zm4.14,1.63a2.8,2.8,0,0,0-2.74,2.45,2,2,0,0,0,2.05,2.45,2.81,2.81,0,0,0,2.74-2.45A2,2,0,0,0,222.32,558Z"/><path class="cls-2" d="M228.89,556.41h1.94l-.17,1.22h0a3.67,3.67,0,0,1,3-1.43c2.52,0,3.76,1.87,3.42,4.28a4.75,4.75,0,0,1-4.55,4.28,2.87,2.87,0,0,1-2.6-1.24h-.05l-.69,4.91h-2ZM233,558a2.8,2.8,0,0,0-2.74,2.45,2,2,0,0,0,2.05,2.45,2.81,2.81,0,0,0,2.74-2.45A2,2,0,0,0,233,558Z"/><path class="cls-2" d="M243.66,556.21a3.6,3.6,0,0,1,3.83,4.28,5,5,0,0,1-5,4.28,3.6,3.6,0,0,1-3.83-4.28A5,5,0,0,1,243.66,556.21Zm-.95,6.73a2.81,2.81,0,0,0,2.74-2.45A2,2,0,0,0,243.4,558a2.81,2.81,0,0,0-2.74,2.45A2,2,0,0,0,242.71,562.94Z"/><path class="cls-2" d="M250,556.41h2l-.18,1.29h0a3.07,3.07,0,0,1,2.63-1.5,2.45,2.45,0,0,1,.71.12l-.28,2a3.84,3.84,0,0,0-1-.15,2.43,2.43,0,0,0-2.48,2.06l-.62,4.37h-2Z"/><path class="cls-2" d="M255.38,558.14l.24-1.73h1.68l.33-2.36h2l-.33,2.36h2.24l-.24,1.73h-2.24l-.5,3.57c-.12.82.05,1.33,1,1.33a2.32,2.32,0,0,0,1.14-.25l-.24,1.72a4.6,4.6,0,0,1-1.65.27c-2.16,0-2.53-1-2.26-2.89l.53-3.74Z"/><path class="cls-2" d="M65.39,541.86a6.43,6.43,0,1,1,6.43-6.43A6.44,6.44,0,0,1,65.39,541.86ZM69.57,535l-.76-.76-3-3a.55.55,0,0,0-.75,0l-.76.76a.55.55,0,0,0,0,.75l1.58,1.58H61.63a.54.54,0,0,0-.54.54V536a.54.54,0,0,0,.54.54h4.21l-1.58,1.58a.53.53,0,0,0,0,.75l.76.76a.55.55,0,0,0,.75,0l3-3,.76-.76a.55.55,0,0,0,0-.75Z"/><path class="cls-2" d="M89.49,588.79h7.77L97,590.73H91.36l-.45,3.16h5.3l-.27,1.94h-5.3l-.7,5H87.8Z"/><path class="cls-2" d="M102.63,599.71h-.05a3.42,3.42,0,0,1-2.8,1.33c-1.51,0-2.86-.83-2.63-2.45.37-2.65,3.49-2.84,5.53-2.84h.51l0-.22c.14-1-.57-1.53-1.65-1.53a3.68,3.68,0,0,0-2.3.85l-.92-1.07a5.45,5.45,0,0,1,3.65-1.31c3.48,0,3.13,2.52,3,3.67l-.66,4.69h-1.84Zm.24-2.53h-.42c-1.12,0-3.07.08-3.24,1.26-.11.75.61,1.07,1.28,1.07a2.09,2.09,0,0,0,2.32-1.87Z"/><path class="cls-2" d="M112.88,595.12a1.91,1.91,0,0,0-1.43-.82,2.81,2.81,0,0,0-2.74,2.45,2,2,0,0,0,2.05,2.45,2.28,2.28,0,0,0,1.69-.77l1.15,1.46a5.26,5.26,0,0,1-3.1,1.14,3.6,3.6,0,0,1-3.83-4.28,5,5,0,0,1,5-4.28,3.45,3.45,0,0,1,2.78,1.24Z"/><path class="cls-2" d="M122.14,600.83H120.2l.18-1.31h0a3,3,0,0,1-2.71,1.51c-2.19,0-2.76-1.55-2.52-3.21l.73-5.15h2l-.58,4.13c-.13.9-.27,2.4,1.16,2.4a2.16,2.16,0,0,0,2.16-2.07l.63-4.45h2Z"/><path class="cls-2" d="M126.29,588h2l-1.81,12.85h-2Z"/><path class="cls-2" d="M128.82,594.4l.24-1.73h1.68l.33-2.36h2l-.33,2.36H135l-.24,1.73h-2.24L132,598c-.12.82.05,1.33,1,1.33a2.32,2.32,0,0,0,1.14-.25l-.24,1.72a4.6,4.6,0,0,1-1.65.27c-2.16,0-2.53-1-2.26-2.89l.53-3.74Z"/><path class="cls-2" d="M135.53,592.67h2.24l1.48,5.66h0l2.84-5.66h2.13L139,602.58c-.81,1.53-1.64,2.33-3.44,2.33a5.73,5.73,0,0,1-1.54-.2l.51-1.83a2.83,2.83,0,0,0,1,.2c1,0,1.33-.36,1.79-1.21l.53-1Z"/><path class="cls-2" d="M151.22,588.79h4.18c2.31,0,4.38.75,4,3.45a3.68,3.68,0,0,1-3.25,3.26l2.45,5.32H156l-2.07-5.1h-1.56l-.72,5.1h-2.14Zm3.09,5.1c1.21,0,2.63-.1,2.85-1.67s-1.1-1.6-2.21-1.6H153.1l-.46,3.26Z"/><path class="cls-2" d="M162.15,597.46a1.79,1.79,0,0,0,1.92,1.94,3.14,3.14,0,0,0,2.35-1.11l1.31,1.11A4.93,4.93,0,0,1,164,601a3.6,3.6,0,0,1-3.83-4.28,5,5,0,0,1,5-4.28c2.28,0,3.6,1.6,3.2,4.44l-.08.56Zm4.4-1.53a1.61,1.61,0,0,0-1.8-1.94,2.41,2.41,0,0,0-2.38,1.94Z"/><path class="cls-2" d="M176.18,595.12a1.91,1.91,0,0,0-1.43-.82,2.81,2.81,0,0,0-2.74,2.45,2,2,0,0,0,2.05,2.45,2.28,2.28,0,0,0,1.69-.77l1.15,1.46a5.26,5.26,0,0,1-3.1,1.14,3.6,3.6,0,0,1-3.83-4.28,5,5,0,0,1,5-4.28,3.45,3.45,0,0,1,2.78,1.24Z"/><path class="cls-2" d="M179.15,592.67h2L181,594h0a3.07,3.07,0,0,1,2.63-1.5,2.45,2.45,0,0,1,.71.12l-.28,2a3.84,3.84,0,0,0-1-.15,2.43,2.43,0,0,0-2.48,2.06l-.62,4.37h-2Z"/><path class="cls-2" d="M192.06,600.83h-1.94l.18-1.31h0a3,3,0,0,1-2.71,1.51c-2.19,0-2.76-1.55-2.52-3.21l.73-5.15h2l-.58,4.13c-.13.9-.27,2.4,1.16,2.4a2.16,2.16,0,0,0,2.16-2.07l.63-4.45h2Z"/><path class="cls-2" d="M195.55,592.67h2l-1.15,8.16h-2Zm1.57-4a1.07,1.07,0,0,1,1.15,1.22,1.49,1.49,0,0,1-1.5,1.22,1.07,1.07,0,0,1-1.12-1.22A1.49,1.49,0,0,1,197.12,588.67Z"/><path class="cls-2" d="M198.74,594.4l.24-1.73h1.68l.33-2.36h2l-.33,2.36H205l-.24,1.73h-2.24L202,598c-.12.82.05,1.33,1,1.33a2.32,2.32,0,0,0,1.14-.25l-.24,1.72a4.6,4.6,0,0,1-1.65.27c-2.16,0-2.53-1-2.26-2.89l.53-3.74Z"/><path class="cls-2" d="M206.47,592.67h1.94l-.18,1.27h0a3.06,3.06,0,0,1,2.71-1.48A2.12,2.12,0,0,1,213.3,594a3.33,3.33,0,0,1,2.9-1.51c2.18,0,2.72,1.55,2.45,3.5l-.68,4.86h-2l.65-4.62c.14-1,0-1.9-1.24-1.9a2.16,2.16,0,0,0-2,2.11l-.62,4.42h-2l.69-4.86c.14-1-.17-1.67-1.16-1.67a2.16,2.16,0,0,0-2.16,2.07l-.63,4.45h-2Z"/><path class="cls-2" d="M222.3,597.46a1.79,1.79,0,0,0,1.92,1.94,3.14,3.14,0,0,0,2.35-1.11l1.31,1.11a4.93,4.93,0,0,1-3.68,1.63,3.6,3.6,0,0,1-3.83-4.28,5,5,0,0,1,5-4.28c2.28,0,3.6,1.6,3.2,4.44l-.08.56Zm4.4-1.53a1.61,1.61,0,0,0-1.8-1.94,2.41,2.41,0,0,0-2.38,1.94Z"/><path class="cls-2" d="M231.1,592.67H233l-.18,1.31h0a3,3,0,0,1,2.71-1.51c2.19,0,2.76,1.55,2.52,3.21l-.73,5.15h-2l.58-4.13c.13-.9.27-2.4-1.16-2.4a2.16,2.16,0,0,0-2.16,2.07l-.63,4.45h-2Z"/><path class="cls-2" d="M239.66,594.4l.24-1.73h1.68l.33-2.36h2l-.33,2.36h2.24l-.24,1.73h-2.24l-.5,3.57c-.12.82.05,1.33,1,1.33A2.32,2.32,0,0,0,245,599l-.24,1.72a4.6,4.6,0,0,1-1.65.27c-2.16,0-2.53-1-2.26-2.89l.53-3.74Z"/><path class="cls-2" d="M96.61,620l2.2,2.84H96.18l-1.08-1.38a5,5,0,0,1-3.79,1.68c-2.12,0-3.91-1.24-3.58-3.54a4.49,4.49,0,0,1,3.08-3.38,3.44,3.44,0,0,1-1-2.77,3.63,3.63,0,0,1,3.87-3c1.8,0,3.28.88,3,2.86-.21,1.48-1.56,2.5-2.83,3.11l1.64,2.09,1.63-2h2.4Zm-4.69-2.57c-.87.48-1.79,1-1.94,2.06a1.57,1.57,0,0,0,1.65,1.82A3.81,3.81,0,0,0,94,620.11Zm-.08-3.89c-.09.63.43,1.26.89,1.75.75-.37,1.77-1,1.89-1.83.09-.65-.44-1.12-1.17-1.12A1.56,1.56,0,0,0,91.84,613.53Z"/><path class="cls-2" d="M109.31,612.73h-3.69l.27-1.94h9.52l-.27,1.94h-3.69L110,622.83h-2.14Z"/><path class="cls-2" d="M114.59,614.67h2l-.18,1.29h0a3.07,3.07,0,0,1,2.63-1.5,2.45,2.45,0,0,1,.71.12l-.28,2a3.84,3.84,0,0,0-1-.15,2.43,2.43,0,0,0-2.48,2.06l-.62,4.37h-2Z"/><path class="cls-2" d="M125.31,621.71h-.05a3.42,3.42,0,0,1-2.8,1.33c-1.51,0-2.86-.83-2.63-2.45.37-2.65,3.49-2.84,5.53-2.84h.51l0-.22c.14-1-.57-1.53-1.65-1.53a3.68,3.68,0,0,0-2.3.85l-.92-1.07a5.45,5.45,0,0,1,3.65-1.31c3.48,0,3.13,2.52,3,3.67l-.66,4.69h-1.83Zm.24-2.53h-.42c-1.12,0-3.07.08-3.24,1.26-.11.75.61,1.07,1.28,1.07a2.09,2.09,0,0,0,2.32-1.87Z"/><path class="cls-2" d="M130.36,614.67h2l-1.15,8.16h-2Zm1.57-4a1.07,1.07,0,0,1,1.15,1.22,1.49,1.49,0,0,1-1.5,1.22,1.07,1.07,0,0,1-1.12-1.22A1.49,1.49,0,0,1,131.93,610.67Z"/><path class="cls-2" d="M134.75,614.67h1.94L136.5,616h0a3,3,0,0,1,2.71-1.51c2.19,0,2.76,1.55,2.52,3.21l-.73,5.15h-2l.58-4.13c.13-.9.27-2.4-1.16-2.4a2.16,2.16,0,0,0-2.16,2.07l-.63,4.45h-2Z"/><path class="cls-2" d="M144.54,614.67h2l-1.15,8.16h-2Zm1.57-4a1.07,1.07,0,0,1,1.15,1.22,1.49,1.49,0,0,1-1.5,1.22,1.07,1.07,0,0,1-1.12-1.22A1.49,1.49,0,0,1,146.1,610.67Z"/><path class="cls-2" d="M148.93,614.67h1.94l-.18,1.31h0a3,3,0,0,1,2.71-1.51c2.19,0,2.76,1.55,2.52,3.21l-.73,5.15h-2l.58-4.13c.13-.9.27-2.4-1.16-2.4a2.16,2.16,0,0,0-2.16,2.07l-.63,4.45h-2Z"/><path class="cls-2" d="M167.08,614.67l-1,7.43c-.42,2.94-2.11,4.81-5.29,4.81a5.13,5.13,0,0,1-3.86-1.34l1.46-1.67a3.4,3.4,0,0,0,2.64,1.17c2,0,2.74-1.12,3-2.74l.08-.59h0a3.84,3.84,0,0,1-2.84,1.19,3.4,3.4,0,0,1-3.47-4.18,4.69,4.69,0,0,1,4.63-4.28,2.69,2.69,0,0,1,2.6,1.43h0l.17-1.22Zm-7.34,4.06a2,2,0,0,0,2.06,2.36,2.71,2.71,0,0,0,2.77-2.4,1.94,1.94,0,0,0-2.08-2.4A2.73,2.73,0,0,0,159.74,618.73Z"/><path class="cls-2" d="M65.39,600.12a6.43,6.43,0,1,1,6.43-6.43A6.44,6.44,0,0,1,65.39,600.12Zm4.18-6.81-.76-.76-3-3a.55.55,0,0,0-.75,0l-.76.76a.55.55,0,0,0,0,.75l1.58,1.58H61.63a.54.54,0,0,0-.54.54v1.07a.54.54,0,0,0,.54.54h4.21l-1.58,1.58a.53.53,0,0,0,0,.75l.76.76a.55.55,0,0,0,.75,0l3-3,.76-.76a.55.55,0,0,0,0-.75Z"/><line class="cls-3" x1="59.59" y1="463.24" x2="293.46" y2="463.24"/></svg>