<svg id="Layer_1" data-name="Layer 1" xmlns="http://www.w3.org/2000/svg" viewBox="0 0 353.05 659.16"><defs><style>.cls-1{fill:#7e4082;}.cls-2{fill:#f0f3f5;}.cls-3,.cls-4{fill:#fff;}.cls-4{stroke:#fff;stroke-miterlimit:10;stroke-width:2.41px;}</style></defs><title>infographic_Academic</title><path class="cls-1" d="M299,659.16a30,30,0,0,0,30-30V337.93a8,8,0,0,0-13.22-6.05,205.33,205.33,0,0,1-278.18-8.83,8,8,0,0,0-13.6,5.7v300.4a30.09,30.09,0,0,0,30,30Z"/><path class="cls-1" d="M174.74,338.82a3.13,3.13,0,0,1-3.06-3.19h0a3.14,3.14,0,0,1,3.21-3.06h0a3.12,3.12,0,0,1,3,3.19h0a3.1,3.1,0,0,1-3.1,3.06h-.08Zm8.39-3.12a3.12,3.12,0,0,1,3-3.27h0a3.11,3.11,0,0,1,3.27,3h0a3.15,3.15,0,0,1-3,3.29h-.17A3.15,3.15,0,0,1,183.14,335.69Zm-20,2.46a3.15,3.15,0,0,1-2.83-3.42h0a3.13,3.13,0,0,1,3.42-2.81h0a3.12,3.12,0,0,1,2.81,3.39h0a3.12,3.12,0,0,1-3.1,2.83h-.29Zm31.47-3.21a3.12,3.12,0,0,1,2.73-3.48h0a3.12,3.12,0,0,1,3.48,2.71h0a3.14,3.14,0,0,1-2.73,3.5h0l-.37,0h0A3.13,3.13,0,0,1,194.57,334.94Zm-43.05,1.69A3.13,3.13,0,0,1,149,333h0a3.12,3.12,0,0,1,3.6-2.56h0a3.15,3.15,0,0,1,2.56,3.6h0a3.14,3.14,0,0,1-3.08,2.6h0A4.49,4.49,0,0,1,151.52,336.63Zm54.38-3.27a3.12,3.12,0,0,1,2.48-3.67h0a3.13,3.13,0,0,1,3.67,2.46h0a3.13,3.13,0,0,1-2.46,3.67h0a3.12,3.12,0,0,1-.6.06h0A3.14,3.14,0,0,1,205.9,333.36Zm-65.82.9a3.11,3.11,0,0,1-2.29-3.77h0a3.1,3.1,0,0,1,3.77-2.29h0a3.11,3.11,0,0,1,2.29,3.77h0a3.12,3.12,0,0,1-3,2.4h0A3.11,3.11,0,0,1,140.08,334.26Zm77-3.29a3.14,3.14,0,0,1,2.19-3.85h0a3.11,3.11,0,0,1,3.83,2.19h0a3.1,3.1,0,0,1-2.19,3.83h0a2.78,2.78,0,0,1-.83.13h0A3.13,3.13,0,0,1,217.11,331Zm-88.25.1a3.12,3.12,0,0,1-2-3.94h0a3.11,3.11,0,0,1,3.94-2h0a3.12,3.12,0,0,1,2,3.92h0a3.14,3.14,0,0,1-3,2.17h0A3,3,0,0,1,128.86,331.07Zm99.24-3.33a3.1,3.1,0,0,1,1.9-4v0a3.11,3.11,0,0,1,4,1.92h0a3.11,3.11,0,0,1-1.89,4h0a3,3,0,0,1-1,.19h0A3.11,3.11,0,0,1,228.1,327.74Zm-110.24-.69h0a3.13,3.13,0,0,1-1.71-4.06h0a3.12,3.12,0,0,1,4.06-1.73h0a3.15,3.15,0,0,1,1.73,4.08h0a3.14,3.14,0,0,1-2.9,1.94h0A3,3,0,0,1,117.86,327.05Zm120.95-3.31a3.13,3.13,0,0,1,1.6-4.12h0a3.13,3.13,0,0,1,4.12,1.58h0a3.15,3.15,0,0,1-1.6,4.12h0a3.11,3.11,0,0,1-1.27.27h0A3.13,3.13,0,0,1,238.81,323.74Zm-131.59-1.5a3.12,3.12,0,0,1-1.42-4.19h0a3.12,3.12,0,0,1,4.19-1.4h0a3.14,3.14,0,0,1,1.42,4.19h0a3.19,3.19,0,0,1-2.81,1.73h0A3,3,0,0,1,107.22,322.24Zm142-3.29a3.12,3.12,0,0,1,1.29-4.23h0a3.13,3.13,0,0,1,4.23,1.29h0a3.13,3.13,0,0,1-1.29,4.23h0a3.13,3.13,0,0,1-1.46.35h0A3.15,3.15,0,0,1,249.2,318.95ZM96.93,316.68a3.12,3.12,0,0,1-1.08-4.29h0a3.1,3.1,0,0,1,4.27-1.08h0a3.12,3.12,0,0,1,1.1,4.27h0a3.14,3.14,0,0,1-2.69,1.54h0A3.21,3.21,0,0,1,96.93,316.68Zm162.29-3.27a3.13,3.13,0,0,1,1-4.31h0a3.13,3.13,0,0,1,4.31,1h0a3.13,3.13,0,0,1-1,4.31h0a3.08,3.08,0,0,1-1.67.48h0A3.11,3.11,0,0,1,259.22,313.41Zm-172.12-3a3.14,3.14,0,0,1-.79-4.35h0a3.12,3.12,0,0,1,4.35-.77h0a3.11,3.11,0,0,1,.79,4.33h0a3.14,3.14,0,0,1-2.58,1.35h0A3.13,3.13,0,0,1,87.1,310.37Zm181.7-3.21a3.13,3.13,0,0,1,.69-4.37h0a3.12,3.12,0,0,1,4.35.67h0a3.13,3.13,0,0,1-.67,4.37h0a3.09,3.09,0,0,1-1.85.6h0A3.13,3.13,0,0,1,268.8,307.16ZM77.75,303.37h0a3.13,3.13,0,0,1-.46-4.39h0a3.13,3.13,0,0,1,4.4-.46v0a3.14,3.14,0,0,1,.46,4.39h0a3.09,3.09,0,0,1-2.44,1.17h0A3.16,3.16,0,0,1,77.75,303.37Zm200.18-3.14a3.11,3.11,0,0,1,.35-4.4h0a3.11,3.11,0,0,1,4.4.35h0a3.11,3.11,0,0,1-.35,4.39h0a3.17,3.17,0,0,1-2,.75h0A3.13,3.13,0,0,1,277.92,300.22Zm-209-4.52a3.1,3.1,0,0,1-.15-4.41h0a3.14,3.14,0,0,1,4.41-.15h0a3.15,3.15,0,0,1,.15,4.42h0a3.13,3.13,0,0,1-2.29,1h0A3.14,3.14,0,0,1,68.94,295.7Zm217.59-3a3.13,3.13,0,0,1,0-4.44h0a3.12,3.12,0,0,1,4.42,0h0a3.12,3.12,0,0,1,0,4.42h0a3.15,3.15,0,0,1-2.21.9h0A3.14,3.14,0,0,1,286.52,292.66ZM60.69,287.44a3.13,3.13,0,0,1,.19-4.42h0a3.13,3.13,0,0,1,4.42.17h0a3.13,3.13,0,0,1-.19,4.42h0a3.08,3.08,0,0,1-2.12.83h0A3.13,3.13,0,0,1,60.69,287.44Zm233.86-3a3.11,3.11,0,0,1-.29-4.42h0a3.12,3.12,0,0,1,4.39-.29h0a3.11,3.11,0,0,1,.29,4.42h0a3.08,3.08,0,0,1-2.35,1.06h0A3,3,0,0,1,294.54,284.48ZM53.09,278.58a3.13,3.13,0,0,1,.48-4.39h0a3.14,3.14,0,0,1,4.39.5h0a3.12,3.12,0,0,1-.5,4.39h0a3,3,0,0,1-1.94.67h0A3.09,3.09,0,0,1,53.09,278.58Zm248.85-2.83a3.14,3.14,0,0,1-.6-4.4h0a3.12,3.12,0,0,1,4.37-.6h0a3.12,3.12,0,0,1,.6,4.37h0a3.09,3.09,0,0,1-2.48,1.25h0A3.18,3.18,0,0,1,301.94,275.75ZM46.13,269.21a3.12,3.12,0,0,1,.81-4.35h0a3.12,3.12,0,0,1,4.33.81h0a3.12,3.12,0,0,1-.81,4.35h0a3.2,3.2,0,0,1-1.75.54h0A3.14,3.14,0,0,1,46.13,269.21Zm262.58-2.73a3.11,3.11,0,0,1-.94-4.31h0a3.13,3.13,0,0,1,4.33-.94h0a3.15,3.15,0,0,1,.92,4.33h0a3.14,3.14,0,0,1-2.62,1.42h0A3,3,0,0,1,308.71,266.48ZM39.86,259.36A3.14,3.14,0,0,1,41,255.09h0a3.11,3.11,0,0,1,4.27,1.1h0a3.14,3.14,0,0,1-1.1,4.29h0a3.33,3.33,0,0,1-1.58.42h0A3.13,3.13,0,0,1,39.86,259.36Zm274.91-2.58a3.12,3.12,0,0,1-1.23-4.25h0a3.1,3.1,0,0,1,4.23-1.23h0a3.1,3.1,0,0,1,1.25,4.23h0a3.14,3.14,0,0,1-2.75,1.62h0A3.26,3.26,0,0,1,314.77,256.78ZM34.36,249.07a3.13,3.13,0,0,1,1.42-4.19h0A3.15,3.15,0,0,1,40,246.32h0a3.14,3.14,0,0,1-1.44,4.19h0a3.16,3.16,0,0,1-1.37.31h0A3.12,3.12,0,0,1,34.36,249.07Zm285.76-2.44a3.14,3.14,0,0,1-1.56-4.15h0a3.15,3.15,0,0,1,4.14-1.54h0a3.1,3.1,0,0,1,1.54,4.14h0a3.15,3.15,0,0,1-2.85,1.81h0A3.13,3.13,0,0,1,320.12,246.63ZM29.59,238.43a3.15,3.15,0,0,1,1.75-4.08h0a3.14,3.14,0,0,1,4.06,1.73h0a3.15,3.15,0,0,1-1.73,4.08h0a3.39,3.39,0,0,1-1.17.23h0A3.16,3.16,0,0,1,29.59,238.43Zm295.11-2.31a3.12,3.12,0,0,1-1.85-4h0a3.13,3.13,0,0,1,4-1.85h0a3.12,3.12,0,0,1,1.85,4h0a3.16,3.16,0,0,1-2.94,2h0A2.85,2.85,0,0,1,324.7,236.12ZM25.63,227.43a3.11,3.11,0,0,1,2-3.92h0a3.11,3.11,0,0,1,3.94,2h0a3.13,3.13,0,0,1-2,3.92h0a3.21,3.21,0,0,1-1,.17h0A3.12,3.12,0,0,1,25.63,227.43Zm302.88-2.1a3.13,3.13,0,0,1-2.14-3.87h0a3.11,3.11,0,0,1,3.87-2.12h0a3.12,3.12,0,0,1,2.12,3.85h0a3.13,3.13,0,0,1-3,2.27h0A3,3,0,0,1,328.51,225.33Zm-306-9.14h0a3.14,3.14,0,0,1,2.31-3.77h0a3.14,3.14,0,0,1,3.77,2.31h0a3.15,3.15,0,0,1-2.31,3.77h0a3,3,0,0,1-.73.08h0A3.13,3.13,0,0,1,22.49,216.18Zm309-1.92a3.11,3.11,0,0,1-2.4-3.71h0a3.08,3.08,0,0,1,3.69-2.4h0a3.11,3.11,0,0,1,2.42,3.69h0a3.11,3.11,0,0,1-3,2.48h0A3.6,3.6,0,0,1,331.49,214.27ZM20.18,204.75a3.13,3.13,0,0,1,2.58-3.6h0a3.13,3.13,0,0,1,3.58,2.58h0a3.12,3.12,0,0,1-2.58,3.58h0a2,2,0,0,1-.5,0h0A3.13,3.13,0,0,1,20.18,204.75ZM333.68,203a3.1,3.1,0,0,1-2.67-3.5h0a3.13,3.13,0,0,1,3.52-2.69h0a3.12,3.12,0,0,1,2.67,3.52h0a3.13,3.13,0,0,1-3.08,2.71h0A3,3,0,0,1,333.68,203Zm-315-9.85a3.13,3.13,0,0,1,2.83-3.39h0a3.1,3.1,0,0,1,3.4,2.83v0A3.12,3.12,0,0,1,22.09,196h0a1.25,1.25,0,0,1-.29,0h0A3.12,3.12,0,0,1,18.7,193.17ZM335,191.67a3.13,3.13,0,0,1-2.92-3.31h0a3.13,3.13,0,0,1,3.31-2.94h0a3.11,3.11,0,0,1,2.92,3.31h0a3.13,3.13,0,0,1-3.12,2.94H335Zm-317-10.16h0a2.92,2.92,0,0,1,.33-1.48h0a3.17,3.17,0,0,1-.35-1.48h0a3.12,3.12,0,0,1,3.12-3.12h0a3.13,3.13,0,0,1,3.12,3.12h0a3.06,3.06,0,0,1-.35,1.44h0a3.17,3.17,0,0,1,.38,1.4v0a3.13,3.13,0,0,1-3.06,3.17H21.2A3.11,3.11,0,0,1,18.07,181.51Zm314.33-4.37a3.15,3.15,0,0,1,3.1-3.17h0a3.13,3.13,0,0,1,3.15,3.1h0a3.09,3.09,0,0,1-3.08,3.15h0A3.13,3.13,0,0,1,332.41,177.13Zm6.25-.06ZM21.36,170.22a3.11,3.11,0,0,1-2.9-3.33h0A3.11,3.11,0,0,1,21.8,164h0a3.13,3.13,0,0,1,2.89,3.35h0a3.13,3.13,0,0,1-3.12,2.9h0A.69.69,0,0,1,21.36,170.22Zm310.54-4.31a3.11,3.11,0,0,1,2.85-3.35h0a3.11,3.11,0,0,1,3.37,2.85h0a3.13,3.13,0,0,1-2.85,3.37H335A3.11,3.11,0,0,1,331.91,165.9ZM22.36,158.82a3.12,3.12,0,0,1-2.65-3.54h0a3.13,3.13,0,0,1,3.54-2.65h0a3.13,3.13,0,0,1,2.65,3.54h0a3.11,3.11,0,0,1-3.08,2.67h0A3.45,3.45,0,0,1,22.36,158.82Zm308.23-4.06a3.11,3.11,0,0,1,2.6-3.56h0a3.13,3.13,0,0,1,3.58,2.6h0a3.16,3.16,0,0,1-2.62,3.58h0a3.77,3.77,0,0,1-.48,0h0A3.11,3.11,0,0,1,330.6,154.76ZM24.2,147.51a3.12,3.12,0,0,1-2.37-3.73h0a3.12,3.12,0,0,1,3.73-2.37h0a3.12,3.12,0,0,1,2.37,3.73h0a3.13,3.13,0,0,1-3,2.46h0A2.56,2.56,0,0,1,24.2,147.51Zm304.27-3.77a3.14,3.14,0,0,1,2.35-3.75h0a3.15,3.15,0,0,1,3.75,2.35h0a3.14,3.14,0,0,1-2.35,3.75h0a4.11,4.11,0,0,1-.71.08h0A3.13,3.13,0,0,1,328.47,143.74ZM26.86,136.37a3.09,3.09,0,0,1-2.1-3.87h0a3.12,3.12,0,0,1,3.9-2.1h0a3.12,3.12,0,0,1,2.08,3.89h0a3.11,3.11,0,0,1-3,2.23h0A2.68,2.68,0,0,1,26.86,136.37Zm298.69-3.46h0a3.1,3.1,0,0,1,2.06-3.9h0a3.08,3.08,0,0,1,3.89,2.06h0a3.09,3.09,0,0,1-2,3.89h0a2.91,2.91,0,0,1-.94.15h0A3.11,3.11,0,0,1,325.56,132.91ZM30.32,125.46a3.1,3.1,0,0,1-1.79-4h0a3.11,3.11,0,0,1,4-1.81h0a3.13,3.13,0,0,1,1.81,4h0a3.12,3.12,0,0,1-2.92,2h0A3.08,3.08,0,0,1,30.32,125.46Zm291.53-3.12a3.12,3.12,0,0,1,1.77-4.06h0a3.12,3.12,0,0,1,4,1.77h0a3.14,3.14,0,0,1-1.77,4.06h0a3.11,3.11,0,0,1-1.15.21h0A3.12,3.12,0,0,1,321.85,122.33ZM34.59,114.81a3.11,3.11,0,0,1-1.5-4.15h0a3.11,3.11,0,0,1,4.14-1.5h0a3.1,3.1,0,0,1,1.5,4.14h0a3.09,3.09,0,0,1-2.83,1.81h0A3,3,0,0,1,34.59,114.81ZM317.37,112h0a3.12,3.12,0,0,1,1.48-4.17h0a3.12,3.12,0,0,1,4.17,1.48h0a3.14,3.14,0,0,1-1.48,4.17h0a3.13,3.13,0,0,1-1.35.31h0A3.13,3.13,0,0,1,317.37,112ZM39.63,104.53a3.1,3.1,0,0,1-1.21-4.25h0a3.14,3.14,0,0,1,4.25-1.21h0a3.14,3.14,0,0,1,1.21,4.27h0a3.13,3.13,0,0,1-2.73,1.58h0A3.07,3.07,0,0,1,39.63,104.53Zm272.53-2.4a3.15,3.15,0,0,1,1.15-4.27h0A3.13,3.13,0,0,1,317.58,99h0a3.12,3.12,0,0,1-1.15,4.25h0a3.09,3.09,0,0,1-1.56.42h0A3.1,3.1,0,0,1,312.16,102.13ZM45.4,94.63a3.11,3.11,0,0,1-.9-4.33h0a3.15,3.15,0,0,1,4.33-.9h0a3.12,3.12,0,0,1,.87,4.33h0a3.08,3.08,0,0,1-2.6,1.4h0A3.19,3.19,0,0,1,45.4,94.63Zm260.83-2a3.12,3.12,0,0,1,.85-4.33h0a3.12,3.12,0,0,1,4.33.85h0a3.13,3.13,0,0,1-.83,4.33h0a3.2,3.2,0,0,1-1.75.54h0A3.16,3.16,0,0,1,306.23,92.59ZM51.86,85.18a3.14,3.14,0,0,1-.56-4.4h0a3.14,3.14,0,0,1,4.37-.56h0a3.15,3.15,0,0,1,.58,4.4h0a3.15,3.15,0,0,1-2.48,1.21h0A3.13,3.13,0,0,1,51.86,85.18Zm247.79-1.65a3.12,3.12,0,0,1,.52-4.4h0a3.1,3.1,0,0,1,4.37.54h0a3.1,3.1,0,0,1-.52,4.37h0a3,3,0,0,1-1.92.67h0A3.06,3.06,0,0,1,299.65,83.53ZM59,76.22a3.13,3.13,0,0,1-.25-4.42h0a3.13,3.13,0,0,1,4.42-.25h0A3.13,3.13,0,0,1,63.42,76h0a3.15,3.15,0,0,1-2.33,1h0A3.17,3.17,0,0,1,59,76.22Zm233.4-1.27a3.11,3.11,0,0,1,.21-4.42h0a3.15,3.15,0,0,1,4.41.21h0a3.14,3.14,0,0,1-.21,4.42h0a3,3,0,0,1-2.1.81h0A3.05,3.05,0,0,1,292.4,74.95ZM66.77,67.81a3.15,3.15,0,0,1,.06-4.44h0v0h0a3.15,3.15,0,0,1,4.44.06h0a3.13,3.13,0,0,1-.08,4.42h0a3.13,3.13,0,0,1-2.17.87h0A3.13,3.13,0,0,1,66.77,67.81Zm217.78-.87a3.13,3.13,0,0,1-.1-4.42h0a3.13,3.13,0,0,1,4.42-.12h0v0h0a3.13,3.13,0,0,1,.1,4.42h0a3.09,3.09,0,0,1-2.27,1h0A3.15,3.15,0,0,1,284.55,66.93ZM75.12,60a3.14,3.14,0,0,1,.4-4.42h0a3.13,3.13,0,0,1,4.39.4h0a3.13,3.13,0,0,1-.38,4.39h0a3.09,3.09,0,0,1-2,.73h0A3.17,3.17,0,0,1,75.12,60Zm201-.48a3.14,3.14,0,0,1-.42-4.42h0a3.11,3.11,0,0,1,4.4-.42h0a3.11,3.11,0,0,1,.42,4.4h0a3.08,3.08,0,0,1-2.4,1.15h0A3.13,3.13,0,0,1,276.13,59.5ZM84,52.77a3.12,3.12,0,0,1,.71-4.37h0a3.13,3.13,0,0,1,4.35.71h0a3.15,3.15,0,0,1-.71,4.37h0a3.14,3.14,0,0,1-1.83.58h0A3.13,3.13,0,0,1,84,52.77Zm183.18-.08h0a3.12,3.12,0,0,1-.75-4.35h0a3.11,3.11,0,0,1,4.35-.75h0a3.11,3.11,0,0,1,.75,4.35h0A3.14,3.14,0,0,1,269,53.25h0A3.14,3.14,0,0,1,267.22,52.68ZM93.43,46.23a3.09,3.09,0,0,1,1-4.29h0a3.1,3.1,0,0,1,4.29,1h0a3.12,3.12,0,0,1-1,4.29h0a3.1,3.1,0,0,1-1.62.46h0A3.1,3.1,0,0,1,93.43,46.23Zm164.4.29v0a3.12,3.12,0,0,1-1.06-4.29h0a3.12,3.12,0,0,1,4.29-1.06h0a3.14,3.14,0,0,1,1.06,4.29h0a3.18,3.18,0,0,1-2.69,1.5h0A3,3,0,0,1,257.82,46.52ZM103.26,40.4a3.16,3.16,0,0,1,1.33-4.23h0a3.15,3.15,0,0,1,4.23,1.35h0a3.13,3.13,0,0,1-1.33,4.21h0a3.24,3.24,0,0,1-1.44.35h0A3.16,3.16,0,0,1,103.26,40.4ZM248,41.08a3.14,3.14,0,0,1-1.37-4.21h0a3.13,3.13,0,0,1,4.21-1.35h0a3.12,3.12,0,0,1,1.37,4.19h0a3.13,3.13,0,0,1-2.79,1.71h0A3.13,3.13,0,0,1,248,41.08ZM113.51,35.29a3.1,3.1,0,0,1,1.65-4.1h0a3.12,3.12,0,0,1,4.1,1.63h0a3.14,3.14,0,0,1-1.65,4.1h0a2.84,2.84,0,0,1-1.23.27h0A3.12,3.12,0,0,1,113.51,35.29Zm124.3,1.08a3.12,3.12,0,0,1-1.69-4.08h0a3.13,3.13,0,0,1,4.1-1.69h0a3.12,3.12,0,0,1,1.67,4.08h0A3.11,3.11,0,0,1,239,36.6h0A3,3,0,0,1,237.81,36.38ZM124.09,30.94A3.12,3.12,0,0,1,126,27h0a3.13,3.13,0,0,1,4,1.92h0a3.13,3.13,0,0,1-1.94,4h0a2.91,2.91,0,0,1-1,.17h0A3.15,3.15,0,0,1,124.09,30.94Zm103.2,1.48a3.12,3.12,0,0,1-2-4h0a3.14,3.14,0,0,1,4-2h0a3.14,3.14,0,0,1,2,4h0a3.14,3.14,0,0,1-3,2.15h0A3.37,3.37,0,0,1,227.29,32.42ZM135,27.4a3.13,3.13,0,0,1,2.21-3.83h0A3.15,3.15,0,0,1,141,25.8h0a3.12,3.12,0,0,1-2.23,3.81h0a2.67,2.67,0,0,1-.79.1h0A3.11,3.11,0,0,1,135,27.4Zm81.54,1.85a3.13,3.13,0,0,1-2.25-3.81h0a3.12,3.12,0,0,1,3.79-2.25h0A3.16,3.16,0,0,1,220.33,27h0a3.18,3.18,0,0,1-3,2.35h0A3.44,3.44,0,0,1,216.52,29.25Zm-70.44-4.6a3.13,3.13,0,0,1,2.5-3.64h0a3.1,3.1,0,0,1,3.64,2.48h0a3.1,3.1,0,0,1-2.48,3.64h0a2.92,2.92,0,0,1-.58.06h0A3.14,3.14,0,0,1,146.08,24.65Zm59.48,2.23h0A3.14,3.14,0,0,1,203,23.25h0a3.12,3.12,0,0,1,3.62-2.52h0a3.12,3.12,0,0,1,2.54,3.62h0a3.14,3.14,0,0,1-3.08,2.56h0A2.28,2.28,0,0,1,205.57,26.88Zm-48.2-4.17a3.15,3.15,0,0,1,2.77-3.46h0A3.11,3.11,0,0,1,163.58,22h0a3.09,3.09,0,0,1-2.75,3.46h0a1.87,1.87,0,0,1-.35,0h0A3.13,3.13,0,0,1,157.37,22.71Zm37.07,2.6a3.15,3.15,0,0,1-2.79-3.44h0a3.16,3.16,0,0,1,3.44-2.79h0a3.14,3.14,0,0,1,2.79,3.44h0a3.13,3.13,0,0,1-3.1,2.81h0A1.76,1.76,0,0,1,194.44,25.32Zm-25.66-3.71a3.1,3.1,0,0,1,3-3.23h0a3.11,3.11,0,0,1,3.25,3h0a3.11,3.11,0,0,1-3,3.25h-.12A3.1,3.1,0,0,1,168.78,21.61Zm14.48,3a3.15,3.15,0,0,1-3-3.23h0a3.12,3.12,0,0,1,3.23-3h0a3.12,3.12,0,0,1,3,3.21h0a3.12,3.12,0,0,1-3.12,3h-.08Z"/><circle class="cls-1" cx="177.08" cy="176.8" r="124.43"/><path class="cls-1" d="M59.22,57.66A168,168,0,0,1,178.36,8.24c88.52,0,161.32,68.59,168.05,155.41a12.25,12.25,0,0,1-12.24,13.15h0A12.28,12.28,0,0,1,322,165.43c-5.82-74.13-68-132.68-143.6-132.68S40.57,91.3,34.76,165.43A12.28,12.28,0,0,1,22.55,176.8h0a12.25,12.25,0,0,1-12.24-13.15A168.1,168.1,0,0,1,59.22,57.66Z"/><path class="cls-1" d="M156,194.89h0a2.8,2.8,0,0,1-2.24-1.13L150,188.68a2.8,2.8,0,1,1,4.49-3.35l1.55,2.08,8.16-10.93a2.8,2.8,0,0,1,4.49,3.35l-10.4,13.94A2.8,2.8,0,0,1,156,194.89Z"/><path class="cls-1" d="M156,224.77h0a2.8,2.8,0,0,1-2.24-1.13L150,218.56a2.8,2.8,0,1,1,4.49-3.35l1.55,2.08,8.16-10.93a2.8,2.8,0,0,1,4.49,3.35l-10.4,13.94A2.8,2.8,0,0,1,156,224.77Z"/><path class="cls-2" d="M175.7,187.08a2.54,2.54,0,0,1-.91-.17L95.64,156.66a2.55,2.55,0,0,1,.15-4.81l79.67-24.94a2.56,2.56,0,0,1,1.53,0l78.45,24.94a2.55,2.55,0,0,1,.14,4.81l-79,30.25A2.56,2.56,0,0,1,175.7,187.08Zm-71.39-32.55L175.7,181.8,247,154.51,176.21,132Z"/><path class="cls-2" d="M175.91,217.76c-29.61,0-50.29-8.49-50.29-20.64,0-.59-.4-19.89-.6-30a2.55,2.55,0,0,1,5.1-.1c.1,4.95.6,29.65.6,30.11,0,7.64,16.9,15.54,45.19,15.54s45.19-7.9,45.19-15.54c0-.52-.26-19.28-.4-29.13a2.55,2.55,0,1,1,5.1-.07c0,2.94.4,28.73.4,29.2C226.2,209.27,205.52,217.76,175.91,217.76Z"/><path class="cls-2" d="M238.5,221.13a2.55,2.55,0,0,1-2.55-2.55V163l-58.05-5.53a2.55,2.55,0,0,1,.48-5.07l60.36,5.75a2.55,2.55,0,0,1,2.31,2.54v57.88A2.55,2.55,0,0,1,238.5,221.13Z"/><ellipse class="cls-2" cx="175.61" cy="154.94" rx="7.47" ry="2.95"/><ellipse class="cls-2" cx="175.61" cy="154.91" rx="7.49" ry="2.95"/><ellipse class="cls-2" cx="175.61" cy="154.87" rx="7.5" ry="2.96"/><ellipse class="cls-2" cx="175.61" cy="154.83" rx="7.52" ry="2.97"/><ellipse class="cls-2" cx="175.61" cy="154.79" rx="7.53" ry="2.97"/><ellipse class="cls-2" cx="175.61" cy="154.76" rx="7.54" ry="2.98"/><ellipse class="cls-2" cx="175.61" cy="154.72" rx="7.56" ry="2.98"/><ellipse class="cls-2" cx="175.61" cy="154.68" rx="7.57" ry="2.99"/><ellipse class="cls-2" cx="175.61" cy="154.65" rx="7.59" ry="2.99"/><ellipse class="cls-2" cx="175.61" cy="154.61" rx="7.6" ry="3"/><ellipse class="cls-2" cx="175.61" cy="154.57" rx="7.62" ry="3"/><ellipse class="cls-2" cx="175.61" cy="154.53" rx="7.63" ry="3.01"/><ellipse class="cls-2" cx="175.61" cy="154.5" rx="7.64" ry="3.02"/><ellipse class="cls-2" cx="175.61" cy="154.46" rx="7.66" ry="3.02"/><ellipse class="cls-2" cx="175.61" cy="154.42" rx="7.67" ry="3.03"/><ellipse class="cls-2" cx="175.61" cy="154.38" rx="7.69" ry="3.03"/><ellipse class="cls-2" cx="175.61" cy="154.35" rx="7.7" ry="3.04"/><ellipse class="cls-2" cx="175.61" cy="154.31" rx="7.72" ry="3.04"/><ellipse class="cls-2" cx="175.61" cy="154.27" rx="7.73" ry="3.05"/><ellipse class="cls-2" cx="175.61" cy="154.23" rx="7.75" ry="3.06"/><ellipse class="cls-2" cx="175.61" cy="154.2" rx="7.76" ry="3.06"/><ellipse class="cls-2" cx="175.61" cy="154.16" rx="7.77" ry="3.07"/><ellipse class="cls-2" cx="175.61" cy="154.12" rx="7.79" ry="3.07"/><ellipse class="cls-2" cx="175.61" cy="154.09" rx="7.8" ry="3.08"/><ellipse class="cls-2" cx="175.61" cy="154.05" rx="7.82" ry="3.08"/><ellipse class="cls-2" cx="175.61" cy="154.01" rx="7.83" ry="3.09"/><ellipse class="cls-2" cx="175.61" cy="153.97" rx="7.85" ry="3.1"/><ellipse class="cls-2" cx="175.61" cy="153.94" rx="7.86" ry="3.1"/><ellipse class="cls-2" cx="175.61" cy="153.9" rx="7.87" ry="3.11"/><ellipse class="cls-2" cx="175.61" cy="153.86" rx="7.89" ry="3.11"/><ellipse class="cls-2" cx="175.61" cy="153.82" rx="7.9" ry="3.12"/><ellipse class="cls-2" cx="175.61" cy="153.79" rx="7.92" ry="3.12"/><ellipse class="cls-2" cx="175.61" cy="153.75" rx="7.93" ry="3.13"/><ellipse class="cls-2" cx="175.61" cy="153.71" rx="7.95" ry="3.14"/><ellipse class="cls-2" cx="175.61" cy="153.67" rx="7.96" ry="3.14"/><ellipse class="cls-2" cx="175.61" cy="153.64" rx="7.98" ry="3.15"/><ellipse class="cls-2" cx="175.61" cy="153.6" rx="7.99" ry="3.15"/><ellipse class="cls-2" cx="175.61" cy="153.56" rx="8" ry="3.16"/><ellipse class="cls-2" cx="175.61" cy="153.53" rx="8.02" ry="3.16"/><ellipse class="cls-2" cx="175.61" cy="153.49" rx="8.03" ry="3.17"/><ellipse class="cls-2" cx="175.61" cy="153.45" rx="8.05" ry="3.17"/><ellipse class="cls-2" cx="175.61" cy="153.41" rx="8.06" ry="3.18"/><ellipse class="cls-2" cx="175.61" cy="153.38" rx="8.08" ry="3.19"/><ellipse class="cls-2" cx="175.61" cy="153.34" rx="8.09" ry="3.19"/><ellipse class="cls-2" cx="175.61" cy="153.3" rx="8.1" ry="3.2"/><ellipse class="cls-2" cx="175.61" cy="153.26" rx="8.12" ry="3.2"/><ellipse class="cls-2" cx="175.61" cy="153.23" rx="8.13" ry="3.21"/><ellipse class="cls-2" cx="175.61" cy="153.19" rx="8.15" ry="3.21"/><ellipse class="cls-2" cx="175.61" cy="153.15" rx="8.16" ry="3.22"/><ellipse class="cls-2" cx="175.61" cy="153.11" rx="8.18" ry="3.23"/><ellipse class="cls-2" cx="175.61" cy="153.08" rx="8.19" ry="3.23"/><ellipse class="cls-2" cx="175.61" cy="153.04" rx="8.2" ry="3.24"/><path class="cls-2" d="M230.12,217.76a2.55,2.55,0,0,1-2.16-3.9l8.36-13.45a2.55,2.55,0,0,1,2.1-1.2,2.5,2.5,0,0,1,2.16,1.1l9.07,13.09a2.55,2.55,0,0,1-4.19,2.9l-6.86-9.9-6.31,10.15A2.55,2.55,0,0,1,230.12,217.76Z"/><path class="cls-3" d="M89.49,494.28h4c2.33,0,4.32.82,3.95,3.48-.43,3-2.76,3.57-5.31,3.57H90.64l-.7,5H87.8Zm2.7,5.22c1.22,0,2.81-.07,3-1.7.21-1.48-1.17-1.68-2.33-1.68H91.38l-.48,3.38Z"/><path class="cls-3" d="M99.15,498.15h2l-.18,1.29h0a3.07,3.07,0,0,1,2.63-1.5,2.45,2.45,0,0,1,.71.12l-.28,2a3.84,3.84,0,0,0-1-.15,2.43,2.43,0,0,0-2.48,2.06l-.62,4.37H98Z"/><path class="cls-3" d="M109.51,497.95a3.6,3.6,0,0,1,3.83,4.28,5,5,0,0,1-5,4.28,3.6,3.6,0,0,1-3.83-4.28A5,5,0,0,1,109.51,497.95Zm-.95,6.73a2.81,2.81,0,0,0,2.74-2.45,2,2,0,0,0-2.05-2.45,2.81,2.81,0,0,0-2.74,2.45A2,2,0,0,0,108.56,504.68Z"/><path class="cls-3" d="M124.22,498.15l-1,7.43c-.42,2.94-2.11,4.81-5.29,4.81A5.13,5.13,0,0,1,114,509l1.46-1.67a3.4,3.4,0,0,0,2.64,1.17c2,0,2.74-1.12,3-2.74l.08-.59h0a3.84,3.84,0,0,1-2.84,1.19,3.4,3.4,0,0,1-3.47-4.18,4.69,4.69,0,0,1,4.63-4.28,2.69,2.69,0,0,1,2.6,1.43h0l.17-1.22Zm-7.34,4.06a2,2,0,0,0,2.06,2.36,2.71,2.71,0,0,0,2.77-2.4,1.94,1.94,0,0,0-2.08-2.4A2.73,2.73,0,0,0,116.89,502.22Z"/><path class="cls-3" d="M126.54,498.15h2l-.18,1.29h0a3.07,3.07,0,0,1,2.63-1.5,2.45,2.45,0,0,1,.71.12l-.28,2a3.84,3.84,0,0,0-1-.15,2.43,2.43,0,0,0-2.48,2.06l-.62,4.37h-2Z"/><path class="cls-3" d="M137.26,505.19h-.05a3.42,3.42,0,0,1-2.8,1.33c-1.51,0-2.86-.83-2.63-2.45.37-2.65,3.49-2.84,5.53-2.84h.51l0-.22c.14-1-.57-1.53-1.65-1.53a3.68,3.68,0,0,0-2.3.85l-.92-1.07a5.45,5.45,0,0,1,3.65-1.31c3.48,0,3.13,2.52,3,3.67l-.66,4.69H137.1Zm.24-2.53h-.42c-1.12,0-3.07.08-3.24,1.26-.11.75.61,1.07,1.28,1.07a2.09,2.09,0,0,0,2.32-1.87Z"/><path class="cls-3" d="M142.19,498.15h1.94l-.18,1.27h0a3.06,3.06,0,0,1,2.71-1.48,2.12,2.12,0,0,1,2.34,1.51,3.33,3.33,0,0,1,2.9-1.51c2.18,0,2.72,1.55,2.45,3.5l-.68,4.86h-2l.65-4.62c.14-1,0-1.9-1.24-1.9a2.16,2.16,0,0,0-2,2.11l-.62,4.42h-2l.69-4.86c.14-1-.17-1.67-1.16-1.67a2.16,2.16,0,0,0-2.16,2.07l-.63,4.45h-2Z"/><path class="cls-3" d="M162.83,494.28h4.74c3.16,0,5.85,1.94,5.27,6a7.2,7.2,0,0,1-7.22,6h-4.49Zm2.32,10.1c2.69,0,5-1.16,5.45-4.08s-1.33-4.08-3.95-4.08h-2l-1.15,8.16Z"/><path class="cls-3" d="M176,502.95a1.79,1.79,0,0,0,1.92,1.94,3.14,3.14,0,0,0,2.35-1.11l1.31,1.11a4.93,4.93,0,0,1-3.68,1.63,3.6,3.6,0,0,1-3.83-4.28,5,5,0,0,1,5-4.28c2.28,0,3.6,1.6,3.2,4.44l-.08.56Zm4.4-1.53a1.61,1.61,0,0,0-1.8-1.94,2.41,2.41,0,0,0-2.38,1.94Z"/><path class="cls-3" d="M188.79,500.41a1.58,1.58,0,0,0-1.48-.83c-.54,0-1.23.25-1.31.87-.21,1.46,4.36.27,3.92,3.45-.27,1.94-2.22,2.62-3.89,2.62a3.48,3.48,0,0,1-3-1.26l1.54-1.28a2.12,2.12,0,0,0,1.8,1c.6,0,1.4-.29,1.49-.93.24-1.68-4.35-.36-3.91-3.47.26-1.82,2-2.63,3.65-2.63a3.05,3.05,0,0,1,2.73,1.24Z"/><path class="cls-3" d="M192.34,498.15h2l-1.15,8.16h-2Zm1.57-4a1.07,1.07,0,0,1,1.15,1.22,1.49,1.49,0,0,1-1.5,1.22,1.07,1.07,0,0,1-1.12-1.22A1.49,1.49,0,0,1,193.91,494.16Z"/><path class="cls-3" d="M205.13,498.15l-1,7.43c-.42,2.94-2.11,4.81-5.29,4.81a5.13,5.13,0,0,1-3.86-1.34l1.46-1.67a3.4,3.4,0,0,0,2.64,1.17c2,0,2.74-1.12,3-2.74l.08-.59h0a3.84,3.84,0,0,1-2.84,1.19,3.4,3.4,0,0,1-3.47-4.18,4.69,4.69,0,0,1,4.63-4.28,2.69,2.69,0,0,1,2.6,1.43h0l.17-1.22Zm-7.34,4.06a2,2,0,0,0,2.06,2.36,2.71,2.71,0,0,0,2.77-2.4,1.94,1.94,0,0,0-2.08-2.4A2.73,2.73,0,0,0,197.79,502.22Z"/><path class="cls-3" d="M207.44,498.15h1.94l-.18,1.31h0a3,3,0,0,1,2.71-1.51c2.19,0,2.76,1.55,2.52,3.21l-.73,5.15h-2l.58-4.13c.13-.9.27-2.4-1.16-2.4a2.16,2.16,0,0,0-2.16,2.07l-.63,4.45h-2Z"/><path class="cls-3" d="M65.39,505.6a6.43,6.43,0,1,1,6.43-6.43A6.44,6.44,0,0,1,65.39,505.6Zm4.18-6.81L68.8,498l-3-3a.55.55,0,0,0-.75,0l-.76.76a.55.55,0,0,0,0,.75l1.58,1.58H61.63a.54.54,0,0,0-.54.54v1.07a.54.54,0,0,0,.54.54h4.21l-1.58,1.58a.53.53,0,0,0,0,.75l.76.76a.55.55,0,0,0,.75,0l3-3,.76-.76a.55.55,0,0,0,0-.75Z"/><path class="cls-3" d="M97.36,533.36A2.82,2.82,0,0,0,95,532.17a4.85,4.85,0,0,0-4.74,4.3c-.36,2.57,1,4.47,3.5,4.47a4,4,0,0,0,2.91-1.46l1.59,1.26a6.18,6.18,0,0,1-4.79,2.14c-3.71,0-6-2.52-5.47-6.27a7.17,7.17,0,0,1,7.26-6.37,4.51,4.51,0,0,1,3.95,1.9Z"/><path class="cls-3" d="M106.7,542.57h-1.94l.18-1.31h0a3,3,0,0,1-2.71,1.51c-2.19,0-2.76-1.55-2.52-3.21l.73-5.15h2l-.58,4.13c-.13.9-.27,2.4,1.16,2.4a2.16,2.16,0,0,0,2.16-2.07l.63-4.45h2Z"/><path class="cls-3" d="M110.16,534.41h2L112,535.7h0a3.07,3.07,0,0,1,2.63-1.5,2.45,2.45,0,0,1,.71.12l-.28,2a3.84,3.84,0,0,0-1-.15,2.43,2.43,0,0,0-2.48,2.06l-.62,4.37h-2Z"/><path class="cls-3" d="M116.78,534.41h2l-.18,1.29h0a3.07,3.07,0,0,1,2.63-1.5,2.45,2.45,0,0,1,.71.12l-.28,2a3.84,3.84,0,0,0-1-.15,2.43,2.43,0,0,0-2.48,2.06l-.62,4.37h-2Z"/><path class="cls-3" d="M123.42,534.41h2l-1.15,8.16h-2Zm1.57-4a1.07,1.07,0,0,1,1.15,1.22,1.49,1.49,0,0,1-1.5,1.22,1.07,1.07,0,0,1-1.12-1.22A1.49,1.49,0,0,1,125,530.42Z"/><path class="cls-3" d="M133,536.86a1.91,1.91,0,0,0-1.43-.82,2.81,2.81,0,0,0-2.74,2.45,2,2,0,0,0,2.05,2.45,2.28,2.28,0,0,0,1.69-.77l1.15,1.46a5.26,5.26,0,0,1-3.1,1.14,3.6,3.6,0,0,1-3.83-4.28,5,5,0,0,1,5-4.28,3.45,3.45,0,0,1,2.78,1.24Z"/><path class="cls-3" d="M142.3,542.57h-1.94l.18-1.31h0a3,3,0,0,1-2.71,1.51c-2.19,0-2.76-1.55-2.52-3.21l.73-5.15h2l-.58,4.13c-.13.9-.27,2.4,1.16,2.4a2.16,2.16,0,0,0,2.16-2.07l.63-4.45h2Z"/><path class="cls-3" d="M146.46,529.72h2l-1.81,12.85h-2Z"/><path class="cls-3" d="M156.48,542.57h-1.94l.18-1.31h0a3,3,0,0,1-2.71,1.51c-2.19,0-2.76-1.55-2.52-3.21l.73-5.15h2l-.58,4.13c-.13.9-.27,2.4,1.16,2.4a2.16,2.16,0,0,0,2.16-2.07l.63-4.45h2Z"/><path class="cls-3" d="M159.85,534.41h1.94l-.18,1.27h0a3.06,3.06,0,0,1,2.71-1.48,2.12,2.12,0,0,1,2.34,1.51,3.33,3.33,0,0,1,2.9-1.51c2.18,0,2.72,1.55,2.45,3.5l-.68,4.86h-2l.65-4.62c.14-1,0-1.9-1.24-1.9a2.16,2.16,0,0,0-2,2.11l-.62,4.42h-2l.69-4.86c.14-1-.17-1.67-1.16-1.67a2.16,2.16,0,0,0-2.16,2.07l-.63,4.45h-2Z"/><path class="cls-3" d="M175.32,543.39l-1.34-.51,7.16-13.19,1.33.54Z"/><path class="cls-3" d="M191.7,533.36a2.82,2.82,0,0,0-2.37-1.19,4.85,4.85,0,0,0-4.74,4.3c-.36,2.57,1,4.47,3.5,4.47a4,4,0,0,0,2.91-1.46l1.59,1.26a6.18,6.18,0,0,1-4.79,2.14c-3.71,0-6-2.52-5.47-6.27a7.17,7.17,0,0,1,7.26-6.37,4.51,4.51,0,0,1,3.95,1.9Z"/><path class="cls-3" d="M198.8,534.21a3.6,3.6,0,0,1,3.83,4.28,5,5,0,0,1-5,4.28,3.6,3.6,0,0,1-3.83-4.28A5,5,0,0,1,198.8,534.21Zm-.95,6.73a2.81,2.81,0,0,0,2.74-2.45,2,2,0,0,0-2.05-2.45,2.81,2.81,0,0,0-2.74,2.45A2,2,0,0,0,197.85,540.94Z"/><path class="cls-3" d="M211.41,542.57h-1.94l.18-1.31h0a3,3,0,0,1-2.71,1.51c-2.19,0-2.76-1.55-2.52-3.21l.73-5.15h2l-.58,4.13c-.13.9-.27,2.4,1.16,2.4a2.16,2.16,0,0,0,2.16-2.07l.63-4.45h2Z"/><path class="cls-3" d="M214.87,534.41h2l-.18,1.29h0a3.07,3.07,0,0,1,2.63-1.5,2.45,2.45,0,0,1,.71.12l-.28,2a3.84,3.84,0,0,0-1-.15,2.43,2.43,0,0,0-2.48,2.06l-.62,4.37h-2Z"/><path class="cls-3" d="M225.52,536.67a1.58,1.58,0,0,0-1.48-.83c-.54,0-1.23.25-1.31.87-.21,1.46,4.36.27,3.92,3.45-.27,1.94-2.22,2.62-3.89,2.62a3.48,3.48,0,0,1-3-1.26l1.54-1.28a2.12,2.12,0,0,0,1.8,1c.6,0,1.4-.29,1.49-.93.24-1.68-4.35-.36-3.91-3.47.26-1.82,2-2.63,3.65-2.63a3.05,3.05,0,0,1,2.73,1.24Z"/><path class="cls-3" d="M230,539.2a1.79,1.79,0,0,0,1.92,1.94,3.14,3.14,0,0,0,2.35-1.11l1.31,1.11a4.93,4.93,0,0,1-3.68,1.63,3.6,3.6,0,0,1-3.83-4.28,5,5,0,0,1,5-4.28c2.28,0,3.6,1.6,3.2,4.44l-.08.56Zm4.4-1.53a1.61,1.61,0,0,0-1.8-1.94,2.41,2.41,0,0,0-2.38,1.94Z"/><path class="cls-3" d="M89.49,552.54h4.74c3.16,0,5.85,1.94,5.27,6a7.2,7.2,0,0,1-7.22,6H87.8Zm2.32,10.1c2.69,0,5-1.16,5.45-4.08s-1.33-4.08-3.95-4.08h-2l-1.15,8.16Z"/><path class="cls-3" d="M102.62,561.2a1.79,1.79,0,0,0,1.92,1.94,3.14,3.14,0,0,0,2.35-1.11l1.31,1.11a4.93,4.93,0,0,1-3.68,1.63,3.6,3.6,0,0,1-3.83-4.28,5,5,0,0,1,5-4.28c2.28,0,3.6,1.6,3.2,4.44l-.08.56Zm4.4-1.53a1.61,1.61,0,0,0-1.8-1.94,2.41,2.41,0,0,0-2.38,1.94Z"/><path class="cls-3" d="M110.32,556.41h2.23l1.37,5.71h0l3-5.71H119l-4.36,8.16H112.5Z"/><path class="cls-3" d="M121.2,561.2a1.79,1.79,0,0,0,1.92,1.94,3.14,3.14,0,0,0,2.35-1.11l1.31,1.11a4.93,4.93,0,0,1-3.68,1.63,3.6,3.6,0,0,1-3.83-4.28,5,5,0,0,1,5-4.28c2.28,0,3.6,1.6,3.2,4.44l-.08.56Zm4.4-1.53a1.61,1.61,0,0,0-1.8-1.94,2.41,2.41,0,0,0-2.38,1.94Z"/><path class="cls-3" d="M130.7,551.72h2l-1.81,12.85h-2Z"/><path class="cls-3" d="M138.48,556.21a3.6,3.6,0,0,1,3.83,4.28,5,5,0,0,1-5,4.28,3.6,3.6,0,0,1-3.83-4.28A5,5,0,0,1,138.48,556.21Zm-.95,6.73a2.81,2.81,0,0,0,2.74-2.45,2,2,0,0,0-2.05-2.45,2.81,2.81,0,0,0-2.74,2.45A2,2,0,0,0,137.53,562.94Z"/><path class="cls-3" d="M144.79,556.41h1.94l-.17,1.22h0a3.66,3.66,0,0,1,3-1.43c2.52,0,3.76,1.87,3.42,4.28a4.75,4.75,0,0,1-4.55,4.28,2.87,2.87,0,0,1-2.6-1.24h-.05l-.69,4.91h-2Zm4.14,1.63a2.81,2.81,0,0,0-2.74,2.45,2,2,0,0,0,2.05,2.45,2.81,2.81,0,0,0,2.74-2.45A2,2,0,0,0,148.93,558Z"/><path class="cls-3" d="M155.42,556.41h1.94l-.18,1.27h0a3.06,3.06,0,0,1,2.71-1.48,2.12,2.12,0,0,1,2.34,1.51,3.33,3.33,0,0,1,2.9-1.51c2.18,0,2.72,1.55,2.45,3.5l-.68,4.86h-2l.65-4.62c.14-1,0-1.9-1.24-1.9a2.16,2.16,0,0,0-2,2.11l-.62,4.42h-2l.69-4.86c.14-1-.17-1.67-1.16-1.67a2.16,2.16,0,0,0-2.16,2.07l-.63,4.45h-2Z"/><path class="cls-3" d="M171.25,561.2a1.79,1.79,0,0,0,1.92,1.94,3.14,3.14,0,0,0,2.35-1.11l1.31,1.11a4.93,4.93,0,0,1-3.68,1.63,3.6,3.6,0,0,1-3.83-4.28,5,5,0,0,1,5-4.28c2.28,0,3.6,1.6,3.2,4.44l-.08.56Zm4.4-1.53a1.61,1.61,0,0,0-1.8-1.94,2.41,2.41,0,0,0-2.38,1.94Z"/><path class="cls-3" d="M180,556.41H182l-.18,1.31h0a3,3,0,0,1,2.71-1.51c2.19,0,2.76,1.55,2.52,3.21l-.73,5.15h-2l.58-4.13c.13-.9.27-2.4-1.16-2.4a2.16,2.16,0,0,0-2.16,2.07l-.63,4.45h-2Z"/><path class="cls-3" d="M188.61,558.14l.24-1.73h1.68l.33-2.36h2l-.33,2.36h2.24l-.24,1.73h-2.24l-.5,3.57c-.12.82.05,1.33,1,1.33a2.32,2.32,0,0,0,1.14-.25l-.24,1.72a4.6,4.6,0,0,1-1.65.27c-2.16,0-2.53-1-2.26-2.89l.53-3.74Z"/><path class="cls-3" d="M207.72,555.12a2.18,2.18,0,0,0-2-1,2,2,0,0,0-2.19,1.55c-.34,2.41,5.57,1,5,5.32-.36,2.58-2.58,3.84-4.94,3.84a4.33,4.33,0,0,1-3.71-1.63l1.83-1.56a2.41,2.41,0,0,0,2.2,1.26,2.24,2.24,0,0,0,2.34-1.65c.37-2.63-5.55-1.12-4.95-5.42.35-2.48,2.72-3.64,4.95-3.64a4.33,4.33,0,0,1,3.28,1.24Z"/><path class="cls-3" d="M217.5,564.57h-1.94l.18-1.31h0a3,3,0,0,1-2.71,1.51c-2.19,0-2.76-1.55-2.52-3.21l.73-5.15h2l-.58,4.13c-.13.9-.27,2.4,1.16,2.4a2.16,2.16,0,0,0,2.16-2.07l.63-4.45h2Z"/><path class="cls-3" d="M221,556.41h1.94l-.17,1.22h0a3.66,3.66,0,0,1,3-1.43c2.52,0,3.76,1.87,3.42,4.28a4.75,4.75,0,0,1-4.55,4.28,2.87,2.87,0,0,1-2.6-1.24H222l-.69,4.91h-2Zm4.14,1.63a2.81,2.81,0,0,0-2.74,2.45,2,2,0,0,0,2.05,2.45,2.81,2.81,0,0,0,2.74-2.45A2,2,0,0,0,225.11,558Z"/><path class="cls-3" d="M231.68,556.41h1.94l-.17,1.22h0a3.67,3.67,0,0,1,3-1.43c2.52,0,3.76,1.87,3.42,4.28a4.75,4.75,0,0,1-4.55,4.28,2.87,2.87,0,0,1-2.6-1.24h-.05l-.69,4.91h-2Zm4.14,1.63a2.8,2.8,0,0,0-2.74,2.45,2,2,0,0,0,2.05,2.45,2.81,2.81,0,0,0,2.74-2.45A2,2,0,0,0,235.82,558Z"/><path class="cls-3" d="M246.44,556.21a3.6,3.6,0,0,1,3.83,4.28,5,5,0,0,1-5,4.28,3.6,3.6,0,0,1-3.83-4.28A5,5,0,0,1,246.44,556.21Zm-.95,6.73a2.81,2.81,0,0,0,2.74-2.45,2,2,0,0,0-2.05-2.45,2.81,2.81,0,0,0-2.74,2.45A2,2,0,0,0,245.49,562.94Z"/><path class="cls-3" d="M252.76,556.41h2l-.18,1.29h0a3.07,3.07,0,0,1,2.63-1.5,2.45,2.45,0,0,1,.71.12l-.28,2a3.84,3.84,0,0,0-1-.15,2.43,2.43,0,0,0-2.48,2.06l-.62,4.37h-2Z"/><path class="cls-3" d="M258.17,558.14l.24-1.73h1.68l.33-2.36h2l-.33,2.36h2.24l-.24,1.73H261.9l-.5,3.57c-.12.82.05,1.33,1,1.33a2.32,2.32,0,0,0,1.14-.25l-.24,1.72a4.6,4.6,0,0,1-1.65.27c-2.16,0-2.53-1-2.26-2.89l.53-3.74Z"/><path class="cls-3" d="M65.39,541.86a6.43,6.43,0,1,1,6.43-6.43A6.44,6.44,0,0,1,65.39,541.86ZM69.57,535l-.76-.76-3-3a.55.55,0,0,0-.75,0l-.76.76a.55.55,0,0,0,0,.75l1.58,1.58H61.63a.54.54,0,0,0-.54.54V536a.54.54,0,0,0,.54.54h4.21l-1.58,1.58a.53.53,0,0,0,0,.75l.76.76a.55.55,0,0,0,.75,0l3-3,.76-.76a.55.55,0,0,0,0-.75Z"/><path class="cls-3" d="M89.49,588.79h4c2.33,0,4.32.82,3.95,3.48-.43,3-2.76,3.57-5.31,3.57H90.64l-.7,5H87.8Zm2.7,5.22c1.22,0,2.81-.07,3-1.7.21-1.48-1.17-1.68-2.33-1.68H91.38L90.9,594Z"/><path class="cls-3" d="M103.2,592.46a3.6,3.6,0,0,1,3.83,4.28,5,5,0,0,1-5,4.28,3.6,3.6,0,0,1-3.83-4.28A5,5,0,0,1,103.2,592.46Zm-.95,6.73a2.81,2.81,0,0,0,2.74-2.45,2,2,0,0,0-2.05-2.45,2.81,2.81,0,0,0-2.74,2.45A2,2,0,0,0,102.25,599.2Z"/><path class="cls-3" d="M110.21,588h2l-1.81,12.85h-2Z"/><path class="cls-3" d="M114,592.67h2l-1.15,8.16h-2Zm1.57-4a1.07,1.07,0,0,1,1.15,1.22,1.49,1.49,0,0,1-1.5,1.22,1.07,1.07,0,0,1-1.12-1.22A1.49,1.49,0,0,1,115.54,588.67Z"/><path class="cls-3" d="M123.59,595.12a1.91,1.91,0,0,0-1.43-.82,2.81,2.81,0,0,0-2.74,2.45,2,2,0,0,0,2.05,2.45,2.28,2.28,0,0,0,1.69-.77l1.15,1.46a5.26,5.26,0,0,1-3.1,1.14,3.6,3.6,0,0,1-3.83-4.28,5,5,0,0,1,5-4.28,3.45,3.45,0,0,1,2.78,1.24Z"/><path class="cls-3" d="M125.45,592.67h2.24l1.48,5.66h0l2.84-5.66h2.13l-5.25,9.91c-.81,1.53-1.64,2.33-3.44,2.33a5.73,5.73,0,0,1-1.54-.2l.51-1.83a2.83,2.83,0,0,0,1,.2c1,0,1.33-.36,1.79-1.21l.53-1Z"/><path class="cls-3" d="M141.09,588.79h2.14l-1.7,12h-2.14Z"/><path class="cls-3" d="M145.13,592.67h1.94l-.18,1.31h0a3,3,0,0,1,2.71-1.51c2.19,0,2.76,1.55,2.52,3.21l-.73,5.15h-2l.58-4.13c.13-.9.27-2.4-1.16-2.4a2.16,2.16,0,0,0-2.16,2.07l-.63,4.45h-2Z"/><path class="cls-3" d="M155.38,594.4h-1.68l.24-1.73h1.68l.16-1.16c.32-2.26,1-3.74,3.57-3.74a6.29,6.29,0,0,1,1.28.12l-.38,1.73a3.43,3.43,0,0,0-.83-.12c-1.14,0-1.42.78-1.55,1.68l-.21,1.48h1.89l-.24,1.73h-1.89l-.91,6.43h-2Z"/><path class="cls-3" d="M160.87,592.67h2l-.18,1.29h0a3.07,3.07,0,0,1,2.63-1.5,2.45,2.45,0,0,1,.71.12l-.28,2a3.84,3.84,0,0,0-1-.15,2.43,2.43,0,0,0-2.48,2.06l-.62,4.37h-2Z"/><path class="cls-3" d="M171.59,599.71h-.05a3.42,3.42,0,0,1-2.8,1.33c-1.51,0-2.86-.83-2.63-2.45.37-2.65,3.49-2.84,5.53-2.84h.51l0-.22c.14-1-.57-1.53-1.65-1.53a3.68,3.68,0,0,0-2.3.85l-.92-1.07a5.45,5.45,0,0,1,3.65-1.31c3.48,0,3.13,2.52,3,3.67l-.66,4.69h-1.83Zm.24-2.53h-.42c-1.12,0-3.07.08-3.24,1.26-.11.75.61,1.07,1.28,1.07a2.09,2.09,0,0,0,2.32-1.87Z"/><path class="cls-3" d="M180.65,594.93a1.58,1.58,0,0,0-1.48-.83c-.54,0-1.23.25-1.31.87-.21,1.46,4.36.27,3.92,3.45-.27,1.94-2.22,2.62-3.89,2.62a3.48,3.48,0,0,1-3-1.26l1.54-1.28a2.12,2.12,0,0,0,1.8,1c.6,0,1.4-.29,1.49-.93.24-1.68-4.35-.36-3.91-3.47.26-1.82,2-2.63,3.65-2.63a3.05,3.05,0,0,1,2.73,1.24Z"/><path class="cls-3" d="M183,594.4l.24-1.73h1.68l.33-2.36h2l-.33,2.36h2.24l-.24,1.73h-2.24l-.5,3.57c-.12.82.05,1.33,1,1.33a2.32,2.32,0,0,0,1.14-.25l-.24,1.72a4.6,4.6,0,0,1-1.65.27c-2.16,0-2.53-1-2.26-2.89l.53-3.74Z"/><path class="cls-3" d="M190.77,592.67h2l-.18,1.29h0a3.07,3.07,0,0,1,2.63-1.5,2.45,2.45,0,0,1,.71.12l-.28,2a3.84,3.84,0,0,0-1-.15,2.43,2.43,0,0,0-2.48,2.06l-.62,4.37h-2Z"/><path class="cls-3" d="M203.68,600.83h-1.94l.18-1.31h0a3,3,0,0,1-2.71,1.51c-2.19,0-2.76-1.55-2.52-3.21l.73-5.15h2l-.58,4.13c-.13.9-.27,2.4,1.16,2.4a2.16,2.16,0,0,0,2.16-2.07l.63-4.45h2Z"/><path class="cls-3" d="M212.38,595.12a1.91,1.91,0,0,0-1.43-.82,2.81,2.81,0,0,0-2.74,2.45,2,2,0,0,0,2.05,2.45,2.28,2.28,0,0,0,1.69-.77l1.15,1.46A5.26,5.26,0,0,1,210,601a3.6,3.6,0,0,1-3.83-4.28,5,5,0,0,1,5-4.28,3.45,3.45,0,0,1,2.78,1.24Z"/><path class="cls-3" d="M214.14,594.4l.24-1.73h1.68l.33-2.36h2l-.33,2.36h2.24l-.24,1.73h-2.24l-.5,3.57c-.12.82.05,1.33,1,1.33a2.32,2.32,0,0,0,1.14-.25l-.24,1.72a4.6,4.6,0,0,1-1.65.27c-2.16,0-2.53-1-2.26-2.89l.53-3.74Z"/><path class="cls-3" d="M228.25,600.83h-1.94l.18-1.31h0a3,3,0,0,1-2.71,1.51c-2.19,0-2.76-1.55-2.52-3.21l.73-5.15h2l-.58,4.13c-.13.9-.27,2.4,1.16,2.4a2.16,2.16,0,0,0,2.16-2.07l.63-4.45h2Z"/><path class="cls-3" d="M231.71,592.67h2l-.18,1.29h0a3.07,3.07,0,0,1,2.63-1.5,2.45,2.45,0,0,1,.71.12l-.28,2a3.84,3.84,0,0,0-1-.15,2.43,2.43,0,0,0-2.48,2.06l-.62,4.37h-2Z"/><path class="cls-3" d="M239,597.46a1.79,1.79,0,0,0,1.92,1.94,3.14,3.14,0,0,0,2.35-1.11l1.31,1.11a4.93,4.93,0,0,1-3.68,1.63,3.6,3.6,0,0,1-3.83-4.28,5,5,0,0,1,5-4.28c2.28,0,3.6,1.6,3.2,4.44l-.08.56Zm4.4-1.53a1.61,1.61,0,0,0-1.8-1.94,2.41,2.41,0,0,0-2.38,1.94Z"/><path class="cls-3" d="M97.36,613.62A2.82,2.82,0,0,0,95,612.42a4.85,4.85,0,0,0-4.74,4.3c-.36,2.57,1,4.47,3.5,4.47a4,4,0,0,0,2.91-1.46L98.25,621a6.18,6.18,0,0,1-4.79,2.14c-3.71,0-6-2.52-5.47-6.27a7.17,7.17,0,0,1,7.26-6.37,4.51,4.51,0,0,1,3.95,1.9Z"/><path class="cls-3" d="M104.46,614.46a3.6,3.6,0,0,1,3.83,4.28,5,5,0,0,1-5,4.28,3.6,3.6,0,0,1-3.83-4.28A5,5,0,0,1,104.46,614.46Zm-.95,6.73a2.81,2.81,0,0,0,2.74-2.45,2,2,0,0,0-2.05-2.45,2.81,2.81,0,0,0-2.74,2.45A2,2,0,0,0,103.51,621.2Z"/><path class="cls-3" d="M110.77,614.67h1.94l-.18,1.31h0a3,3,0,0,1,2.71-1.51c2.19,0,2.76,1.55,2.52,3.21l-.73,5.15h-2l.58-4.13c.13-.9.27-2.4-1.16-2.4a2.16,2.16,0,0,0-2.16,2.07l-.63,4.45h-2Z"/><path class="cls-3" d="M124.57,616.93a1.58,1.58,0,0,0-1.48-.83c-.54,0-1.23.25-1.31.87-.21,1.46,4.36.27,3.92,3.45-.27,1.94-2.22,2.62-3.89,2.62a3.48,3.48,0,0,1-3-1.26l1.54-1.28a2.12,2.12,0,0,0,1.8,1c.6,0,1.4-.29,1.49-.93.24-1.68-4.35-.36-3.91-3.47.26-1.82,2-2.63,3.65-2.63a3.05,3.05,0,0,1,2.73,1.24Z"/><path class="cls-3" d="M134.38,622.83h-1.94l.18-1.31h0a3,3,0,0,1-2.71,1.51c-2.19,0-2.76-1.55-2.52-3.21l.73-5.15h2l-.58,4.13c-.13.9-.27,2.4,1.16,2.4a2.16,2.16,0,0,0,2.16-2.07l.63-4.45h2Z"/><path class="cls-3" d="M138.53,610h2l-1.81,12.85h-2Z"/><path class="cls-3" d="M141.06,616.4l.24-1.73H143l.33-2.36h2l-.33,2.36h2.24L147,616.4h-2.24l-.5,3.57c-.12.82.05,1.33,1,1.33a2.32,2.32,0,0,0,1.14-.25l-.24,1.72a4.6,4.6,0,0,1-1.65.27c-2.16,0-2.53-1-2.26-2.89l.53-3.74Z"/><path class="cls-3" d="M148.91,614.67h2l-1.15,8.16h-2Zm1.57-4a1.07,1.07,0,0,1,1.15,1.22,1.49,1.49,0,0,1-1.5,1.22A1.07,1.07,0,0,1,149,611.9,1.49,1.49,0,0,1,150.47,610.67Z"/><path class="cls-3" d="M153.29,614.67h1.94L155,616h0a3,3,0,0,1,2.71-1.51c2.19,0,2.76,1.55,2.52,3.21l-.73,5.15h-2l.58-4.13c.13-.9.27-2.4-1.16-2.4a2.16,2.16,0,0,0-2.16,2.07l-.63,4.45h-2Z"/><path class="cls-3" d="M171.45,614.67l-1,7.43c-.42,2.94-2.11,4.81-5.29,4.81a5.13,5.13,0,0,1-3.86-1.34l1.46-1.67a3.4,3.4,0,0,0,2.64,1.17c2,0,2.74-1.12,3-2.74l.08-.59h0a3.84,3.84,0,0,1-2.84,1.19,3.4,3.4,0,0,1-3.47-4.18,4.69,4.69,0,0,1,4.63-4.28,2.69,2.69,0,0,1,2.6,1.43h0l.17-1.22Zm-7.34,4.06a2,2,0,0,0,2.06,2.36,2.71,2.71,0,0,0,2.77-2.4,1.94,1.94,0,0,0-2.08-2.4A2.73,2.73,0,0,0,164.11,618.73Z"/><path class="cls-3" d="M65.39,600.12a6.43,6.43,0,1,1,6.43-6.43A6.44,6.44,0,0,1,65.39,600.12Zm4.18-6.81-.76-.76-3-3a.55.55,0,0,0-.75,0l-.76.76a.55.55,0,0,0,0,.75l1.58,1.58H61.63a.54.54,0,0,0-.54.54v1.07a.54.54,0,0,0,.54.54h4.21l-1.58,1.58a.53.53,0,0,0,0,.75l.76.76a.55.55,0,0,0,.75,0l3-3,.76-.76a.55.55,0,0,0,0-.75Z"/><line class="cls-4" x1="59.59" y1="463.24" x2="293.46" y2="463.24"/><path class="cls-3" d="M85.17,441.19h.67c.59,0,.89-.11,1.26-.82l13-23h2.78L107,440.48c.11.59.33.71.93.71h.67l-.45,2.3h-1.6c-1.48,0-1.82-.37-2.15-2.15l-1.08-6.16H93l-3.49,6.16c-1,1.78-1.48,2.15-3,2.15H84.72Zm17.89-8.28-1.67-9.32c-.19-1.22-.33-3.38-.33-3.38H101s-1,2.15-1.67,3.38l-5.2,9.32Z"/><path class="cls-3" d="M122.29,424.37c2.52,0,7.05,1,6.46,4.12l-.3,1.52h-2.34l.19-.93c.3-1.78-2.41-2.45-4.19-2.45-4.23,0-8.39,3.86-8.39,8.95,0,3.64,2.08,6.05,5.94,6.05a9.11,9.11,0,0,0,6.24-2.34l.82,2.08a10.5,10.5,0,0,1-7.28,2.56c-5.16,0-8.31-3.19-8.31-8.13A11.46,11.46,0,0,1,122.29,424.37Z"/><path class="cls-3" d="M142.19,432h1.19l.07-.48a10,10,0,0,0,.19-1.78c0-2.19-1.26-3.23-3.82-3.23-1.26,0-3.9.3-4.16,1.63l-.19,1.19H133l.33-1.78c.48-2.41,4.23-3.16,6.79-3.16,4.19,0,6,2.12,6,5.16a12.3,12.3,0,0,1-.22,2.26l-1.6,8.09c0,.26-.15.67-.15.85s.19.56.67.56h1.56l-.41,2.19h-2.38c-1.41,0-2-.56-2-1.48a9.62,9.62,0,0,1,.45-2.3H142a8.38,8.38,0,0,1-7,4.23c-2.82,0-5.42-1.48-5.42-4.86C129.57,433.43,136.47,432,142.19,432Zm-6.64,9.87c3.86,0,6.76-4.38,7.28-7L143,434h-1c-3.16,0-9.76.45-9.76,4.71A3,3,0,0,0,135.55,441.85Z"/><path class="cls-3" d="M160,424.37c2.67,0,5,1.26,5.79,3.79h.07a12.75,12.75,0,0,1,.19-1.56l1.08-5.64a3.56,3.56,0,0,0,.11-.82q0-.56-.67-.56H165l.45-2.19H168c1.34,0,2,.48,2,1.52a6.59,6.59,0,0,1-.15,1.11l-3.9,19.9a3.83,3.83,0,0,0-.11.82c0,.3.15.56.63.56h1.56l-.41,2.19h-2.38c-1.41,0-2-.56-2-1.48a6.56,6.56,0,0,1,.45-2h-.07a8.25,8.25,0,0,1-6.9,4c-4.45,0-6.94-2.9-6.94-7.5C149.84,429.31,154.78,424.37,160,424.37Zm-2.86,17.3c4.68,0,7.68-5.2,7.68-9.69,0-2.9-1.41-5.31-4.64-5.31-3.67,0-7.76,3.64-7.76,9.58C152.44,439.63,154.22,441.67,157.15,441.67Z"/><path class="cls-3" d="M182.4,424.37c4.6,0,6.72,2.86,6.72,6.76a11.7,11.7,0,0,1-.56,3.12H174.27a8,8,0,0,0-.19,1.63c0,3.27,2,5.79,6,5.79a10.63,10.63,0,0,0,6.09-2.26l.82,2.08a12.56,12.56,0,0,1-7.05,2.45c-5.09,0-8.43-3.16-8.43-7.87C171.49,430,176.09,424.37,182.4,424.37Zm4,7.87a8.49,8.49,0,0,0,.11-1.3c0-3-1.78-4.45-4.23-4.45a8.15,8.15,0,0,0-7.5,5.75Z"/><path class="cls-3" d="M194.43,428.45a4.14,4.14,0,0,0,.11-.85c0-.37-.22-.59-.71-.59h-1.48l.41-2.19h2.52c1.34,0,1.93.59,1.93,1.6a12.76,12.76,0,0,1-.48,2.67h.07c1-1.63,3.75-4.71,7.76-4.71,3.3,0,4.75,1.78,4.83,4.71h.07c1-1.74,3.9-4.71,7.87-4.71,3.45,0,4.9,1.89,4.9,4.9a14.05,14.05,0,0,1-.26,2.34l-1.63,8.5a5.74,5.74,0,0,0-.11.63q0,.56.67.56h1.56l-.41,2.19h-2.6c-1.34,0-1.93-.52-1.93-1.63a3.85,3.85,0,0,1,.11-.85l1.71-8.76a12.85,12.85,0,0,0,.26-2.26c0-1.86-.71-3.23-3-3.23-3.9,0-7.31,4.19-8.06,7.94l-1.71,8.8h-2.52l2.19-11.25a10.1,10.1,0,0,0,.26-2.26c0-1.86-.71-3.23-2.93-3.23-4.08,0-7.39,4.19-8.09,8l-1.71,8.76h-2.52Z"/><path class="cls-3" d="M226.44,440.85l2.45-12.47a3.83,3.83,0,0,0,.11-.82q0-.56-.67-.56h-1.56l.45-2.19h2.52c1.34,0,2,.48,2,1.56a7,7,0,0,1-.15,1.15l-2.45,12.58a5.74,5.74,0,0,0-.11.63c0,.37.26.56.71.56h1.56l-.41,2.19h-2.6c-1.3,0-1.93-.52-1.93-1.63A7.23,7.23,0,0,1,226.44,440.85Zm4.49-23.46h2.45l-.63,3.19H230.3Z"/><path class="cls-3" d="M245.89,424.37c2.52,0,7.05,1,6.46,4.12l-.3,1.52h-2.34l.19-.93c.3-1.78-2.41-2.45-4.19-2.45-4.23,0-8.39,3.86-8.39,8.95,0,3.64,2.08,6.05,5.94,6.05a9.11,9.11,0,0,0,6.24-2.34l.82,2.08a10.5,10.5,0,0,1-7.28,2.56c-5.16,0-8.31-3.19-8.31-8.13A11.46,11.46,0,0,1,245.89,424.37Z"/><path class="cls-3" d="M254.28,439.07a6.89,6.89,0,0,0,5.61,2.67c2.52,0,4.49-1.22,4.49-3.23s-1.74-2.6-3.64-3.38c-2.41-1-5.16-2.19-5.16-5.35,0-3.45,3.16-5.42,6.87-5.42,2.64,0,6.38,1.11,5.83,3.79l-.22,1.19h-2.34l.15-.78c.19-1.08-1-2-3.45-2-2.6,0-4.27,1.22-4.27,3,0,2,1.93,2.78,3.9,3.6,2.45,1,4.94,2.08,4.94,5.12s-2.71,5.64-7.09,5.64c-5,0-7-3.12-7-3.12Z"/></svg>