<svg id="Layer_1" data-name="Layer 1" xmlns="http://www.w3.org/2000/svg" viewBox="0 0 353.05 659.16"><defs><style>.cls-1{fill:#e2231a;}.cls-2,.cls-3{fill:#fff;}.cls-3{stroke:#fff;stroke-miterlimit:10;stroke-width:2.41px;}</style></defs><title>infographic</title><path class="cls-1" d="M299,659.16a30,30,0,0,0,30-30V337.93a8,8,0,0,0-13.22-6.05,205.33,205.33,0,0,1-278.18-8.83,8,8,0,0,0-13.6,5.7v300.4a30.09,30.09,0,0,0,30,30Z"/><circle class="cls-1" cx="176.53" cy="176.53" r="124.64"/><path class="cls-1" d="M176.53,345.29A168.31,168.31,0,0,1,57.14,295.92c-62.7-62.7-65.68-162.84-9-229.11a12.27,12.27,0,0,1,18-.64h0a12.3,12.3,0,0,1,.6,16.7C18.37,139.5,21,225,74.5,278.55s139.06,56.12,195.68,7.74a12.3,12.3,0,0,1,16.7.59h0a12.27,12.27,0,0,1-.64,18A168.38,168.38,0,0,1,176.53,345.29Z"/><path class="cls-1" d="M173,338.82a3.13,3.13,0,0,1-3.07-3.19h0a3.14,3.14,0,0,1,3.21-3.07h0a3.14,3.14,0,0,1,3,3.19h0a3.12,3.12,0,0,1-3.11,3.07H173Zm8.41-3.13a3.13,3.13,0,0,1,3-3.28h0a3.12,3.12,0,0,1,3.28,3h0a3.16,3.16,0,0,1-3,3.3h-.15A3.14,3.14,0,0,1,181.45,335.69Zm-20.09,2.46a3.14,3.14,0,0,1-2.82-3.42h0a3.14,3.14,0,0,1,3.42-2.82h0a3.13,3.13,0,0,1,2.82,3.4h0a3.14,3.14,0,0,1-3.13,2.84h-.29Zm31.54-3.21a3.12,3.12,0,0,1,2.71-3.48h0a3.12,3.12,0,0,1,3.48,2.71h0a3.13,3.13,0,0,1-2.71,3.51h0l-.38,0h0A3.13,3.13,0,0,1,192.9,334.94Zm-43.12,1.69a3.14,3.14,0,0,1-2.57-3.61h0a3.1,3.1,0,0,1,3.59-2.57h0a3.12,3.12,0,0,1,2.57,3.61h0a3.11,3.11,0,0,1-3.07,2.61h0A4.16,4.16,0,0,1,149.78,336.63Zm54.47-3.28a3.13,3.13,0,0,1,2.46-3.67h0a3.11,3.11,0,0,1,3.67,2.46h0a3.1,3.1,0,0,1-2.46,3.67h0a2.83,2.83,0,0,1-.61.06h0A3.14,3.14,0,0,1,204.25,333.35Zm-65.93.9a3.12,3.12,0,0,1-2.3-3.78h0a3.1,3.1,0,0,1,3.78-2.3h0a3.13,3.13,0,0,1,2.3,3.78h0a3.14,3.14,0,0,1-3,2.4h0A3,3,0,0,1,138.32,334.25Zm77.15-3.3a3.14,3.14,0,0,1,2.19-3.86h0a3.13,3.13,0,0,1,3.84,2.19h0a3.11,3.11,0,0,1-2.19,3.84h0a2.89,2.89,0,0,1-.83.13h0A3.12,3.12,0,0,1,215.47,331Zm-88.42.1a3.12,3.12,0,0,1-2-3.94h0a3.11,3.11,0,0,1,3.94-2h0a3.09,3.09,0,0,1,2,3.92h0a3.1,3.1,0,0,1-3,2.17h0A3.07,3.07,0,0,1,127.06,331.06Zm99.41-3.34a3.12,3.12,0,0,1,1.9-4v0a3.14,3.14,0,0,1,4,1.92h0a3.11,3.11,0,0,1-1.9,4h0a3.15,3.15,0,0,1-1,.19h0A3.16,3.16,0,0,1,226.47,327.72ZM116.06,327h0a3.1,3.1,0,0,1-1.71-4.07h0a3.12,3.12,0,0,1,4.07-1.73h0a3.15,3.15,0,0,1,1.73,4.09h0a3.15,3.15,0,0,1-2.92,1.94h0A2.91,2.91,0,0,1,116.06,327Zm121.15-3.32a3.13,3.13,0,0,1,1.59-4.13h0a3.11,3.11,0,0,1,4.11,1.59h0a3.14,3.14,0,0,1-1.61,4.13h0a3,3,0,0,1-1.25.27h0A3.09,3.09,0,0,1,237.21,323.71Zm-131.83-1.5A3.11,3.11,0,0,1,104,318h0a3.12,3.12,0,0,1,4.19-1.4h0a3.11,3.11,0,0,1,1.4,4.19h0a3.14,3.14,0,0,1-2.8,1.73h0A3.12,3.12,0,0,1,105.38,322.21Zm142.24-3.3a3.13,3.13,0,0,1,1.29-4.23h0a3.13,3.13,0,0,1,4.24,1.29h0a3.14,3.14,0,0,1-1.32,4.24h0a3,3,0,0,1-1.46.35h0A3.15,3.15,0,0,1,247.62,318.92ZM95.09,316.64a3.15,3.15,0,0,1-1.11-4.3h0a3.12,3.12,0,0,1,4.3-1.08h0a3.13,3.13,0,0,1,1.11,4.28h0a3.16,3.16,0,0,1-2.71,1.54h0A3.14,3.14,0,0,1,95.09,316.64Zm162.56-3.28a3.12,3.12,0,0,1,1-4.32h0a3.14,3.14,0,0,1,4.32,1h0a3.14,3.14,0,0,1-1,4.32h0a3,3,0,0,1-1.65.48h0A3.12,3.12,0,0,1,257.66,313.37Zm-172.41-3a3.14,3.14,0,0,1-.79-4.36h0a3.12,3.12,0,0,1,4.36-.77h0a3.12,3.12,0,0,1,.79,4.34h0A3.17,3.17,0,0,1,87,310.88h0A3.13,3.13,0,0,1,85.25,310.32Zm182-3.21a3.15,3.15,0,0,1,.67-4.38h0a3.15,3.15,0,0,1,4.38.67h0a3.13,3.13,0,0,1-.67,4.38h0a3.09,3.09,0,0,1-1.86.61h0A3.14,3.14,0,0,1,267.25,307.11Zm-191.37-3.8h0a3.14,3.14,0,0,1-.48-4.4h0a3.14,3.14,0,0,1,4.4-.46v0a3.12,3.12,0,0,1,.48,4.4h0A3.12,3.12,0,0,1,77.84,304h0A3.16,3.16,0,0,1,75.88,303.31Zm200.51-3.15a3.1,3.1,0,0,1,.36-4.4h0a3.11,3.11,0,0,1,4.4.36h0a3.11,3.11,0,0,1-.35,4.4h0a3.13,3.13,0,0,1-2,.75h0A3.1,3.1,0,0,1,276.39,300.16ZM67.06,295.63a3.13,3.13,0,0,1-.17-4.42h0a3.15,3.15,0,0,1,4.42-.15h0a3.13,3.13,0,0,1,.17,4.42h0a3.14,3.14,0,0,1-2.3,1h0A3.11,3.11,0,0,1,67.06,295.63Zm217.93-3a3.15,3.15,0,0,1,0-4.44h0a3.13,3.13,0,0,1,4.42,0h0a3.13,3.13,0,0,1,0,4.42h0a3.08,3.08,0,0,1-2.19.9h0A3.2,3.2,0,0,1,285,292.59ZM58.79,287.35a3.13,3.13,0,0,1,.17-4.42h0a3.13,3.13,0,0,1,4.42.17h0a3.13,3.13,0,0,1-.17,4.42h0a3.08,3.08,0,0,1-2.13.83h0A3.14,3.14,0,0,1,58.79,287.35Zm234.23-3a3.15,3.15,0,0,1-.29-4.42h0a3.16,3.16,0,0,1,4.42-.29h0a3.14,3.14,0,0,1,.29,4.42h0a3.12,3.12,0,0,1-2.36,1.06h0A3.14,3.14,0,0,1,293,284.39Zm-241.86-5.9a3.14,3.14,0,0,1,.5-4.4h0a3.14,3.14,0,0,1,4.4.5h0a3.14,3.14,0,0,1-.5,4.4h0a3,3,0,0,1-1.94.67h0A3.16,3.16,0,0,1,51.16,278.48Zm249.29-2.84a3.15,3.15,0,0,1-.61-4.4h0a3.13,3.13,0,0,1,4.38-.61h0a3.13,3.13,0,0,1,.61,4.38h0a3.11,3.11,0,0,1-2.5,1.25h0A3.17,3.17,0,0,1,300.45,275.65ZM44.21,269.1a3.14,3.14,0,0,1,.79-4.36h0a3.15,3.15,0,0,1,4.36.81h0a3.15,3.15,0,0,1-.81,4.36h0a3.22,3.22,0,0,1-1.77.54h0A3.13,3.13,0,0,1,44.21,269.1Zm263-2.73a3.13,3.13,0,0,1-.92-4.32h0a3.12,3.12,0,0,1,4.32-.94h0a3.14,3.14,0,0,1,.94,4.34h0a3.14,3.14,0,0,1-2.63,1.42h0A3.08,3.08,0,0,1,307.21,266.36ZM37.93,259.23a3.13,3.13,0,0,1,1.13-4.28h0a3.13,3.13,0,0,1,4.28,1.11h0a3.14,3.14,0,0,1-1.13,4.3h0a3.19,3.19,0,0,1-1.56.42h0A3.11,3.11,0,0,1,37.93,259.23Zm275.37-2.59a3.14,3.14,0,0,1-1.25-4.26h0a3.12,3.12,0,0,1,4.26-1.23h0a3.1,3.1,0,0,1,1.23,4.24h0A3.09,3.09,0,0,1,314.8,257h0A3.2,3.2,0,0,1,313.3,256.64ZM32.4,248.92a3.16,3.16,0,0,1,1.44-4.19h0A3.16,3.16,0,0,1,38,246.17h0a3.16,3.16,0,0,1-1.44,4.19h0a3.23,3.23,0,0,1-1.38.31h0A3.15,3.15,0,0,1,32.4,248.92Zm286.24-2.44a3.15,3.15,0,0,1-1.54-4.15h0a3.15,3.15,0,0,1,4.15-1.54h0a3.14,3.14,0,0,1,1.54,4.15h0a3.1,3.1,0,0,1-2.84,1.82h0A3.31,3.31,0,0,1,318.64,246.48Zm-291-8.22h0a3.14,3.14,0,0,1,1.73-4.09h0a3.14,3.14,0,0,1,4.07,1.73h0A3.14,3.14,0,0,1,31.71,240h0a3.22,3.22,0,0,1-1.17.23h0A3.16,3.16,0,0,1,27.65,238.26Zm295.6-2.32a3.11,3.11,0,0,1-1.86-4h0a3.13,3.13,0,0,1,4-1.86h0a3.12,3.12,0,0,1,1.84,4h0a3.12,3.12,0,0,1-2.92,2h0A2.78,2.78,0,0,1,323.25,235.94Zm-299.57-8.7a3.1,3.1,0,0,1,2-3.92h0a3.13,3.13,0,0,1,3.94,2h0a3.13,3.13,0,0,1-2,3.92h0a3,3,0,0,1-.94.17h0A3.12,3.12,0,0,1,23.68,227.24ZM327,225.14a3.14,3.14,0,0,1-2.13-3.88h0a3.12,3.12,0,0,1,3.88-2.13h0a3.12,3.12,0,0,1,2.13,3.86h0a3.14,3.14,0,0,1-3,2.27h0A3.21,3.21,0,0,1,327,225.14ZM20.53,216a3.13,3.13,0,0,1,2.29-3.78h0a3.12,3.12,0,0,1,3.78,2.32h0a3.15,3.15,0,0,1-2.32,3.78h0a3,3,0,0,1-.73.08h0A3.12,3.12,0,0,1,20.53,216Zm309.52-1.92a3.14,3.14,0,0,1-2.42-3.71h0a3.12,3.12,0,0,1,3.71-2.4h0a3.12,3.12,0,0,1,2.42,3.69h0a3.12,3.12,0,0,1-3.07,2.48h0A3.56,3.56,0,0,1,330.05,214.06ZM18.22,204.52a3.14,3.14,0,0,1,2.57-3.61h0a3.15,3.15,0,0,1,3.61,2.59h0a3.12,3.12,0,0,1-2.59,3.59h0a2.12,2.12,0,0,1-.52,0h0A3.11,3.11,0,0,1,18.22,204.52Zm314-1.73a3.12,3.12,0,0,1-2.69-3.5h0a3.16,3.16,0,0,1,3.53-2.69h0a3.14,3.14,0,0,1,2.69,3.53h0a3.14,3.14,0,0,1-3.11,2.71h0A2.78,2.78,0,0,1,332.24,202.79ZM16.73,192.92a3.11,3.11,0,0,1,2.84-3.4h0a3.13,3.13,0,0,1,3.4,2.84v0a3.14,3.14,0,0,1-2.84,3.4h0a1.45,1.45,0,0,1-.29,0h0A3.13,3.13,0,0,1,16.73,192.92Zm316.86-1.5a3.13,3.13,0,0,1-2.92-3.32h0a3.13,3.13,0,0,1,3.32-2.94h0a3.14,3.14,0,0,1,2.92,3.32h0a3.13,3.13,0,0,1-3.13,2.94h-.19ZM16.11,181.24h0a2.91,2.91,0,0,1,.33-1.48h0a3.18,3.18,0,0,1-.38-1.48h0a3.13,3.13,0,0,1,3.13-3.13h0a3.13,3.13,0,0,1,3.13,3.13h0A3.16,3.16,0,0,1,22,179.7h0a3.34,3.34,0,0,1,.38,1.42l0,0a3.11,3.11,0,0,1-3.07,3.17h-.06A3.11,3.11,0,0,1,16.11,181.24ZM331,176.86a3.14,3.14,0,0,1,3.11-3.17h0a3.15,3.15,0,0,1,3.15,3.11h0a3.11,3.11,0,0,1-3.11,3.15h0A3.13,3.13,0,0,1,331,176.86Zm6.26-.06ZM19.38,169.93a3.13,3.13,0,0,1-2.9-3.34h0a3.13,3.13,0,0,1,3.36-2.9h0a3.15,3.15,0,0,1,2.9,3.36h0a3.14,3.14,0,0,1-3.13,2.9h0A.84.84,0,0,1,19.38,169.93Zm311.09-4.32a3.11,3.11,0,0,1,2.86-3.36h0a3.12,3.12,0,0,1,3.38,2.86h0a3.15,3.15,0,0,1-2.88,3.38h-.25A3.11,3.11,0,0,1,330.47,165.62ZM20.41,158.52A3.13,3.13,0,0,1,17.76,155h0a3.13,3.13,0,0,1,3.55-2.65h0A3.13,3.13,0,0,1,24,155.87h0a3.12,3.12,0,0,1-3.09,2.67h0A3.3,3.3,0,0,1,20.41,158.52Zm308.75-4.07a3.12,3.12,0,0,1,2.61-3.57h0a3.11,3.11,0,0,1,3.57,2.61h0a3.14,3.14,0,0,1-2.61,3.59h0a3.94,3.94,0,0,1-.48,0h0A3.12,3.12,0,0,1,329.15,154.45ZM22.24,147.19a3.13,3.13,0,0,1-2.38-3.73h0a3.13,3.13,0,0,1,3.73-2.38h0A3.14,3.14,0,0,1,26,144.82h0a3.16,3.16,0,0,1-3.07,2.46h0A2.52,2.52,0,0,1,22.24,147.19ZM327,143.42a3.14,3.14,0,0,1,2.34-3.75h0a3.14,3.14,0,0,1,3.76,2.36h0a3.12,3.12,0,0,1-2.34,3.76h0a4.36,4.36,0,0,1-.71.08h0A3.14,3.14,0,0,1,327,143.42ZM24.91,136a3.1,3.1,0,0,1-2.11-3.88h0a3.12,3.12,0,0,1,3.9-2.11h0a3.13,3.13,0,0,1,2.09,3.9h0a3.12,3.12,0,0,1-3,2.23h0A2.6,2.6,0,0,1,24.91,136Zm299.19-3.46a3.1,3.1,0,0,1,2-3.9h0a3.1,3.1,0,0,1,3.92,2.07h0a3.11,3.11,0,0,1-2.06,3.9h0a2.88,2.88,0,0,1-.92.15h0A3.12,3.12,0,0,1,324.11,132.57ZM28.38,125.1a3.12,3.12,0,0,1-1.82-4h0a3.15,3.15,0,0,1,4-1.81h0a3.16,3.16,0,0,1,1.81,4h0a3.13,3.13,0,0,1-2.94,2h0A3.05,3.05,0,0,1,28.38,125.1Zm292-3.13a3.16,3.16,0,0,1,1.77-4.07h0a3.15,3.15,0,0,1,4.07,1.77h0a3.14,3.14,0,0,1-1.77,4.07h0a3.19,3.19,0,0,1-1.15.21h0A3.15,3.15,0,0,1,320.37,122ZM32.65,114.44a3.13,3.13,0,0,1-1.52-4.15h0a3.12,3.12,0,0,1,4.15-1.5h0a3.12,3.12,0,0,1,1.5,4.15h0A3.1,3.1,0,0,1,34,114.75h0A3,3,0,0,1,32.65,114.44Zm283.25-2.77h0a3.12,3.12,0,0,1,1.46-4.17h0a3.12,3.12,0,0,1,4.17,1.48h0a3.12,3.12,0,0,1-1.46,4.17h0a3.14,3.14,0,0,1-1.36.31h0A3.11,3.11,0,0,1,315.91,111.66ZM37.68,104.13a3.12,3.12,0,0,1-1.19-4.26h0a3.14,3.14,0,0,1,4.26-1.21h0a3.14,3.14,0,0,1,1.19,4.28h0a3.09,3.09,0,0,1-2.73,1.59h0A3.14,3.14,0,0,1,37.68,104.13Zm273-2.4a3.11,3.11,0,0,1,1.15-4.28h0a3.14,3.14,0,0,1,4.28,1.17h0a3.11,3.11,0,0,1-1.17,4.26h0a3,3,0,0,1-1.54.42h0A3.11,3.11,0,0,1,310.69,101.73ZM43.46,94.22a3.13,3.13,0,0,1-.88-4.34h0a3.14,3.14,0,0,1,4.34-.9h0a3.13,3.13,0,0,1,.88,4.34h0a3.11,3.11,0,0,1-2.61,1.4h0A3.27,3.27,0,0,1,43.46,94.22Zm261.29-2a3.13,3.13,0,0,1,.85-4.34h0a3.13,3.13,0,0,1,4.34.85h0a3.12,3.12,0,0,1-.85,4.34h0a3.14,3.14,0,0,1-1.73.54h0A3.14,3.14,0,0,1,304.75,92.18ZM49.95,84.75a3.13,3.13,0,0,1-.56-4.4h0a3.14,3.14,0,0,1,4.38-.56h0a3.13,3.13,0,0,1,.56,4.4h0a3.12,3.12,0,0,1-2.48,1.21h0A3.08,3.08,0,0,1,49.95,84.75ZM298.13,83.1a3.13,3.13,0,0,1,.54-4.4h0a3.1,3.1,0,0,1,4.38.54h0a3.12,3.12,0,0,1-.52,4.38h0a3.09,3.09,0,0,1-1.94.67h0A3.12,3.12,0,0,1,298.13,83.1Zm-241-7.32a3.13,3.13,0,0,1-.25-4.42h0a3.13,3.13,0,0,1,4.42-.25h0a3.15,3.15,0,0,1,.25,4.42h0a3.16,3.16,0,0,1-2.34,1h0A3.14,3.14,0,0,1,57.1,75.78Zm233.79-1.27a3.13,3.13,0,0,1,.19-4.42h0a3.15,3.15,0,0,1,4.42.21h0a3.11,3.11,0,0,1-.21,4.42h0a3,3,0,0,1-2.09.81h0A3.06,3.06,0,0,1,290.89,74.51Zm-226-7.16a3.15,3.15,0,0,1,.06-4.44h0v0h0a3.13,3.13,0,0,1,4.42.06h0a3.13,3.13,0,0,1-.06,4.42h0a3.13,3.13,0,0,1-2.17.88h0A3.11,3.11,0,0,1,64.89,67.35ZM283,66.48a3.13,3.13,0,0,1-.13-4.42h0a3.13,3.13,0,0,1,4.42-.12h0l0,0h0a3.13,3.13,0,0,1,.1,4.42h0a3.13,3.13,0,0,1-2.27,1h0A3.16,3.16,0,0,1,283,66.48Zm-209.77-7a3.14,3.14,0,0,1,.4-4.42h0a3.14,3.14,0,0,1,4.4.4h0a3.12,3.12,0,0,1-.4,4.4h0a3,3,0,0,1-2,.73h0A3.14,3.14,0,0,1,73.25,59.51ZM274.6,59a3.14,3.14,0,0,1-.42-4.42h0a3.12,3.12,0,0,1,4.4-.42h0a3.12,3.12,0,0,1,.42,4.4h0a3.09,3.09,0,0,1-2.42,1.15h0A3.13,3.13,0,0,1,274.6,59ZM82.16,52.29a3.16,3.16,0,0,1,.71-4.38h0a3.16,3.16,0,0,1,4.38.71h0A3.16,3.16,0,0,1,86.54,53h0a3.19,3.19,0,0,1-1.84.58h0A3.14,3.14,0,0,1,82.16,52.29Zm183.51-.08h0a3.12,3.12,0,0,1-.75-4.36h0a3.12,3.12,0,0,1,4.36-.75h0a3.13,3.13,0,0,1,.75,4.36h0a3.17,3.17,0,0,1-2.57,1.31h0A3.15,3.15,0,0,1,265.67,52.21ZM91.57,45.74a3.13,3.13,0,0,1,1-4.3h0a3.13,3.13,0,0,1,4.32,1h0a3.14,3.14,0,0,1-1,4.3h0a3.18,3.18,0,0,1-1.65.46h0A3.15,3.15,0,0,1,91.57,45.74ZM256.24,46v0a3.15,3.15,0,0,1-1.06-4.3h0a3.13,3.13,0,0,1,4.3-1.06h0a3.13,3.13,0,0,1,1.06,4.3h0a3.12,3.12,0,0,1-2.67,1.5h0A3.11,3.11,0,0,1,256.24,46ZM101.44,39.9a3.16,3.16,0,0,1,1.34-4.24h0A3.12,3.12,0,0,1,107,37h0a3.12,3.12,0,0,1-1.34,4.21h0a3.18,3.18,0,0,1-1.44.36h0A3.15,3.15,0,0,1,101.44,39.9Zm145,.69A3.14,3.14,0,0,1,245,36.37h0A3.14,3.14,0,0,1,249.25,35h0a3.13,3.13,0,0,1,1.38,4.19h0a3.16,3.16,0,0,1-2.8,1.71h0A3.13,3.13,0,0,1,246.41,40.58ZM111.7,34.79a3.12,3.12,0,0,1,1.63-4.11h0a3.11,3.11,0,0,1,4.11,1.63h0a3.12,3.12,0,0,1-1.63,4.11h0a2.91,2.91,0,0,1-1.23.27h0A3.11,3.11,0,0,1,111.7,34.79Zm124.51,1.08a3.12,3.12,0,0,1-1.69-4.09h0a3.12,3.12,0,0,1,4.09-1.69h0a3.12,3.12,0,0,1,1.69,4.09h0a3.12,3.12,0,0,1-2.9,1.92h0A2.94,2.94,0,0,1,236.21,35.87ZM122.3,30.43a3.1,3.1,0,0,1,1.94-4h0a3.14,3.14,0,0,1,4,1.92h0a3.15,3.15,0,0,1-1.94,4h0a3,3,0,0,1-1,.17h0A3.11,3.11,0,0,1,122.3,30.43Zm103.38,1.48a3.13,3.13,0,0,1-2-4h0a3.13,3.13,0,0,1,4-2h0a3.16,3.16,0,0,1,2,4h0a3.15,3.15,0,0,1-3,2.15h0A3.13,3.13,0,0,1,225.68,31.91Zm-92.48-5A3.15,3.15,0,0,1,135.42,23h0a3.13,3.13,0,0,1,3.82,2.23h0A3.1,3.1,0,0,1,137,29.09h0a2.72,2.72,0,0,1-.81.1h0A3.14,3.14,0,0,1,133.19,26.88Zm81.7,1.86a3.12,3.12,0,0,1-2.25-3.82h0a3.13,3.13,0,0,1,3.8-2.25h0a3.13,3.13,0,0,1,2.25,3.82h0a3.14,3.14,0,0,1-3,2.36h0A3.3,3.3,0,0,1,214.89,28.74Zm-70.56-4.61a3.12,3.12,0,0,1,2.5-3.65h0A3.11,3.11,0,0,1,150.49,23h0a3.12,3.12,0,0,1-2.5,3.65h0a2.59,2.59,0,0,1-.56.06h0A3.15,3.15,0,0,1,144.33,24.12Zm59.56,2.23h0a3.13,3.13,0,0,1-2.52-3.63h0A3.11,3.11,0,0,1,205,20.2h0a3.1,3.1,0,0,1,2.52,3.63h0a3.13,3.13,0,0,1-3.07,2.57h0A2.57,2.57,0,0,1,203.89,26.36Zm-48.26-4.17a3.15,3.15,0,0,1,2.75-3.46h0a3.13,3.13,0,0,1,3.46,2.75h0a3.11,3.11,0,0,1-2.75,3.46h0a2,2,0,0,1-.35,0h0A3.13,3.13,0,0,1,155.64,22.18Zm37.14,2.61a3.14,3.14,0,0,1-2.8-3.44h0a3.15,3.15,0,0,1,3.44-2.8h0a3.16,3.16,0,0,1,2.8,3.44h0a3.15,3.15,0,0,1-3.11,2.82h0A1.64,1.64,0,0,1,192.78,24.79Zm-25.72-3.71a3.12,3.12,0,0,1,3-3.23h0a3.11,3.11,0,0,1,3.25,3h0a3.13,3.13,0,0,1-3,3.25h-.13A3.13,3.13,0,0,1,167.05,21.08Zm14.5,3a3.13,3.13,0,0,1-3-3.23h0a3.13,3.13,0,0,1,3.23-3h0a3.14,3.14,0,0,1,3,3.21h0a3.14,3.14,0,0,1-3.13,3h-.1Z"/><path class="cls-1" d="M154.07,201.69c6.34-5.86,10.57-15.92,10.57-25.28,0-14.37-10-21.68-22.23-21.68s-22.23,7.31-22.23,21.68c0,9.36,4.23,19.41,10.57,25.28.33.31.67.6,1,.88L107.89,219v10.4c0,6.29,4.23,11.4,9.45,11.4H167.5c5.22,0,9.45-5.1,9.45-11.4V219l-23.89-16.42C153.41,202.29,153.74,202,154.07,201.69Z"/><path class="cls-2" d="M167.5,243.17H117.33c-6.52,0-11.83-6.18-11.83-13.78V219a2.38,2.38,0,0,1,1-2L128,202.29a38.7,38.7,0,0,1-10.17-25.88c0-14.61,9.66-24.06,24.61-24.06S167,161.8,167,176.41a38.7,38.7,0,0,1-10.17,25.88L178.3,217a2.38,2.38,0,0,1,1,2v10.4C179.33,237,174,243.17,167.5,243.17Zm-57.23-22.92v9.14c0,5,3.17,9,7.07,9H167.5c3.9,0,7.07-4,7.07-9v-9.14l-22.86-15.71a2.38,2.38,0,0,1-.15-3.81c.31-.25.6-.51.89-.78,5.86-5.43,9.8-14.88,9.8-23.53,0-14.23-10.25-19.3-19.85-19.3s-19.85,5.07-19.85,19.3c0,8.65,3.94,18.1,9.8,23.53.29.27.59.53.89.78a2.38,2.38,0,0,1-.15,3.81Z"/><path class="cls-1" d="M222.67,152.15c.35-.28.68-.58,1-.88,6.34-5.86,10.57-15.92,10.57-25.28,0-14.37-10-21.68-22.23-21.68S189.8,111.62,189.8,126c0,9.36,4.23,19.41,10.57,25.28.33.31.67.6,1,.88L177.5,168.57V179c0,6.29,4.23,11.4,9.45,11.4h50.16c5.22,0,9.45-5.1,9.45-11.4v-10.4Z"/><path class="cls-2" d="M237.11,192.74H186.94c-6.52,0-11.83-6.18-11.83-13.78v-10.4a2.38,2.38,0,0,1,1-2l21.44-14.74A38.7,38.7,0,0,1,187.42,126c0-14.61,9.66-24.06,24.61-24.06s24.6,9.44,24.6,24.06a38.7,38.7,0,0,1-10.17,25.88l21.44,14.74a2.38,2.38,0,0,1,1,2V179C248.94,186.56,243.63,192.74,237.11,192.74Zm-57.23-22.92V179c0,5,3.17,9,7.07,9h50.16c3.9,0,7.07-4,7.07-9v-9.14l-22.85-15.71a2.38,2.38,0,0,1-.15-3.81c.31-.25.61-.51.9-.79,5.86-5.42,9.8-14.88,9.8-23.53,0-14.23-10.25-19.3-19.85-19.3s-19.85,5.07-19.85,19.3c0,8.65,3.94,18.1,9.8,23.53.29.27.59.53.9.78a2.38,2.38,0,0,1-.15,3.81Z"/><path class="cls-2" d="M141.62,209.45a19.44,19.44,0,0,1-12.38-4.82c-.36-.29-.74-.63-1.12-1-7-6.44-11.45-17.14-11.45-27.28,0-14.59,10-24.39,24.94-24.39s24.94,9.8,24.94,24.39c0,10.13-4.49,20.84-11.44,27.27-.38.35-.76.69-1.15,1A19.41,19.41,0,0,1,141.62,209.45Zm0-52c-9.43,0-19.51,5-19.51,19,0,8.56,3.9,17.92,9.7,23.29.28.26.57.52.88.76,5.77,4.78,12.13,4.76,17.85,0,.33-.27.62-.52.91-.79,5.79-5.36,9.69-14.72,9.69-23.28C161.13,162.4,151.05,157.42,141.62,157.42Z"/><path class="cls-2" d="M166.7,243.48H116.54c-6.71,0-12.17-6.33-12.17-14.11V219a2.71,2.71,0,0,1,1.18-2.24l23.89-16.42a2.71,2.71,0,0,1,3.27.15c5.72,4.74,12.1,4.74,17.82,0a2.72,2.72,0,0,1,3.27-.15l23.89,16.42a2.71,2.71,0,0,1,1.18,2.24v10.4C178.87,237.14,173.41,243.48,166.7,243.48ZM109.8,220.4v9c0,4.79,3,8.68,6.73,8.68H166.7c3.71,0,6.73-3.89,6.73-8.68v-9l-21.1-14.5a18.15,18.15,0,0,1-21.44,0Z"/><path class="cls-2" d="M211.23,159a19.45,19.45,0,0,1-12.38-4.82c-.37-.3-.74-.63-1.12-1-7-6.44-11.45-17.14-11.45-27.28,0-14.59,10-24.39,24.94-24.39s24.94,9.8,24.94,24.39c0,10.14-4.49,20.84-11.44,27.27-.38.35-.76.68-1.15,1A19.42,19.42,0,0,1,211.23,159Zm0-52c-9.43,0-19.51,5-19.51,19,0,8.56,3.9,17.92,9.7,23.29.29.26.58.52.88.77,5.76,4.77,12.13,4.75,17.85,0,.32-.26.62-.52.91-.79,5.79-5.36,9.69-14.72,9.69-23.28C230.74,112,220.66,107,211.23,107Z"/><path class="cls-2" d="M236.31,193H186.15c-6.71,0-12.16-6.33-12.16-14.11v-10.4a2.71,2.71,0,0,1,1.18-2.24L199,149.88a2.71,2.71,0,0,1,3.27.15c5.72,4.74,12.11,4.74,17.83,0a2.72,2.72,0,0,1,3.27-.15L247.3,166.3a2.71,2.71,0,0,1,1.18,2.24v10.4C248.48,186.72,243,193,236.31,193ZM179.41,170v9c0,4.79,3,8.68,6.73,8.68h50.16c3.71,0,6.73-3.89,6.73-8.68v-9L222,155.47a18.15,18.15,0,0,1-21.44,0Z"/><path class="cls-2" d="M124.08,139.14a2.72,2.72,0,0,1-2.72-2.72A19.45,19.45,0,0,1,140.8,117h27.68a2.72,2.72,0,1,1,0,5.43H140.8a14,14,0,0,0-14,14A2.72,2.72,0,0,1,124.08,139.14Z"/><path class="cls-2" d="M157.93,133a2.72,2.72,0,0,1-1.92-4.64l8.63-8.63L156,111.08a2.72,2.72,0,1,1,3.84-3.84l10.55,10.55a2.71,2.71,0,0,1,0,3.84l-10.55,10.55A2.71,2.71,0,0,1,157.93,133Z"/><path class="cls-2" d="M222.91,228H195.23a2.72,2.72,0,1,1,0-5.43h27.68a14,14,0,0,0,14-14,2.72,2.72,0,0,1,5.43,0A19.45,19.45,0,0,1,222.91,228Z"/><path class="cls-2" d="M205.79,238.6a2.71,2.71,0,0,1-1.92-.8l-10.55-10.55a2.71,2.71,0,0,1,0-3.84l10.55-10.55a2.72,2.72,0,1,1,3.84,3.84l-8.63,8.63,8.63,8.63a2.72,2.72,0,0,1-1.92,4.64Z"/><path class="cls-2" d="M80.55,416.95c3.85,0,8.88,1.55,8.88,5a6.27,6.27,0,0,1-.19,1.37L89,424.61H86.58l.26-1.44c.56-2.78-4-3.77-6.29-3.77-6.66,0-12.66,6-12.66,13.14,0,5.11,3.15,8.88,8.62,8.88a13.44,13.44,0,0,0,9-3.29l1.22,2c-2.41,2.29-6.51,3.74-10.44,3.74-6.77,0-11-4.88-11-11.21C65.23,424.68,71.89,416.95,80.55,416.95Z"/><path class="cls-2" d="M101.6,424.35c5,0,8.33,3.33,8.33,8,0,6.44-5.7,11.47-11.66,11.47-4.92,0-8.33-3.37-8.33-8.14C89.95,429.34,95.57,424.35,101.6,424.35ZM98.5,441.59a9.27,9.27,0,0,0,8.84-9.1,5.67,5.67,0,0,0-6-5.88,9.18,9.18,0,0,0-8.84,9A5.71,5.71,0,0,0,98.5,441.59Z"/><path class="cls-2" d="M113.07,440.92l3.85-20a3.81,3.81,0,0,0,.11-.81q0-.56-.67-.56h-1.55l.44-2.18h2.55c1.33,0,2,.48,2,1.55a6.68,6.68,0,0,1-.15,1.07l-3.88,20a5.68,5.68,0,0,0-.11.63c0,.37.26.55.7.55h1.55l-.41,2.18h-2.59c-1.29,0-1.92-.52-1.92-1.63A3.88,3.88,0,0,1,113.07,440.92Z"/><path class="cls-2" d="M122.1,440.92l3.85-20a3.81,3.81,0,0,0,.11-.81q0-.56-.67-.56h-1.55l.44-2.18h2.55c1.33,0,2,.48,2,1.55a6.68,6.68,0,0,1-.15,1.07l-3.88,20a5.68,5.68,0,0,0-.11.63c0,.37.26.55.7.55h1.55l-.41,2.18h-2.59c-1.29,0-1.92-.52-1.92-1.63A3.88,3.88,0,0,1,122.1,440.92Z"/><path class="cls-2" d="M142.12,431.93h1.18l.07-.48a10,10,0,0,0,.19-1.78c0-2.18-1.26-3.22-3.81-3.22-1.26,0-3.89.3-4.14,1.63l-.18,1.18H133l.33-1.78c.48-2.41,4.22-3.15,6.77-3.15,4.18,0,6,2.11,6,5.14a12.3,12.3,0,0,1-.22,2.26l-1.59,8.07c0,.26-.15.67-.15.85s.18.55.67.55h1.55l-.41,2.18h-2.37c-1.41,0-2-.56-2-1.48a9.6,9.6,0,0,1,.44-2.29h-.07a8.35,8.35,0,0,1-7,4.22c-2.81,0-5.4-1.48-5.4-4.85C129.54,433.38,136.42,431.93,142.12,431.93Zm-6.62,9.84c3.85,0,6.73-4.37,7.25-7l.15-.85h-1c-3.15,0-9.73.44-9.73,4.7A3,3,0,0,0,135.49,441.78Z"/><path class="cls-2" d="M153.77,420.94a3.29,3.29,0,0,0,.11-.81q0-.56-.67-.56h-1.55l.44-2.18h2.52c1.37,0,2,.48,2,1.55a6.68,6.68,0,0,1-.15,1.07l-1.22,6.36a14.12,14.12,0,0,1-.48,1.7h.07a8,8,0,0,1,6.7-3.74c4.4,0,6.88,2.89,6.88,7.47,0,7.1-5,12-10.14,12-2.74,0-5-1.33-5.85-3.85h-.07a9.16,9.16,0,0,1-.18,1.67l-.33,1.74h-2.41Zm4.33,20.65c3.63,0,7.73-3.59,7.73-9.58,0-3.33-1.78-5.37-4.7-5.37-4.59,0-7.7,4.92-7.7,9.7C153.44,439.22,154.85,441.59,158.1,441.59Z"/><path class="cls-2" d="M182.63,424.35c5,0,8.33,3.33,8.33,8,0,6.44-5.7,11.47-11.66,11.47-4.92,0-8.33-3.37-8.33-8.14C171,429.34,176.6,424.35,182.63,424.35Zm-3.11,17.24a9.27,9.27,0,0,0,8.84-9.1,5.67,5.67,0,0,0-6-5.88,9.18,9.18,0,0,0-8.84,9A5.71,5.71,0,0,0,179.52,441.59Z"/><path class="cls-2" d="M196.51,427.79c.07-.44,0-.81-.67-.81h-1.55l.44-2.18h2.59c1.41,0,1.89.52,1.89,1.52a16.29,16.29,0,0,1-.74,3.4h.07c1.29-2.63,3.77-5.11,6.88-5.11a4.43,4.43,0,0,1,1,.11L206,427.2a6.21,6.21,0,0,0-.92-.07c-4,0-6.85,4.88-7.66,9.18L196,443.4h-2.52Z"/><path class="cls-2" d="M217.82,431.93H219l.07-.48a10,10,0,0,0,.19-1.78c0-2.18-1.26-3.22-3.81-3.22-1.26,0-3.89.3-4.14,1.63l-.18,1.18h-2.44l.33-1.78c.48-2.41,4.22-3.15,6.77-3.15,4.18,0,6,2.11,6,5.14a12.3,12.3,0,0,1-.22,2.26L220,439.81c0,.26-.15.67-.15.85s.18.55.67.55H222l-.41,2.18h-2.37c-1.41,0-2-.56-2-1.48a9.6,9.6,0,0,1,.44-2.29h-.07a8.35,8.35,0,0,1-7,4.22c-2.81,0-5.4-1.48-5.4-4.85C205.24,433.38,212.12,431.93,217.82,431.93Zm-6.62,9.84c3.85,0,6.73-4.37,7.25-7l.15-.85h-1c-3.15,0-9.73.44-9.73,4.7A3,3,0,0,0,211.2,441.78Z"/><path class="cls-2" d="M226.66,436.56l1.89-9.66h-2.44l.41-2.11H229l1-5.14h2.48l-1,5.14h4.66l-.41,2.11h-4.66l-1.81,9.4a7.72,7.72,0,0,0-.19,1.74c0,3,2.15,3.26,3.37,3.26a4.5,4.5,0,0,0,.89-.07l-.44,2.26a7.3,7.3,0,0,1-1.07.07c-1.89,0-5.37-.78-5.37-5A10,10,0,0,1,226.66,436.56Z"/><path class="cls-2" d="M237.39,440.78l2.44-12.43a3.81,3.81,0,0,0,.11-.81q0-.56-.67-.56h-1.55l.44-2.18h2.52c1.33,0,2,.48,2,1.55a7,7,0,0,1-.15,1.15L240.06,440a5.64,5.64,0,0,0-.11.63c0,.37.26.55.7.55h1.55l-.41,2.18H239.2c-1.29,0-1.92-.52-1.92-1.63A7.13,7.13,0,0,1,237.39,440.78Zm4.48-23.39h2.44l-.63,3.18h-2.44Z"/><path class="cls-2" d="M257.26,424.35c5,0,8.33,3.33,8.33,8,0,6.44-5.7,11.47-11.66,11.47-4.92,0-8.33-3.37-8.33-8.14C245.6,429.34,251.23,424.35,257.26,424.35Zm-3.11,17.24a9.27,9.27,0,0,0,8.84-9.1,5.67,5.67,0,0,0-6-5.88,9.18,9.18,0,0,0-8.84,9A5.71,5.71,0,0,0,254.15,441.59Z"/><path class="cls-2" d="M271,428.42a4.11,4.11,0,0,0,.11-.85c0-.37-.22-.59-.7-.59H269l.41-2.18h2.52c1.33,0,1.92.59,1.92,1.55a13.92,13.92,0,0,1-.52,2.78h.07a9.93,9.93,0,0,1,8.18-4.77c3.66,0,5.25,1.92,5.25,5a13.58,13.58,0,0,1-.26,2.29L284.9,440a4.69,4.69,0,0,0-.07.63q0,.56.67.55H287l-.41,2.18H284c-1.33,0-1.92-.52-1.92-1.63a7.93,7.93,0,0,1,.07-.85l1.7-8.73a11.29,11.29,0,0,0,.26-2.18c0-1.85-.74-3.29-3.33-3.29-4.22,0-7.73,4.11-8.47,7.84l-1.7,8.84h-2.52Z"/><path class="cls-2" d="M95,496.86a2.18,2.18,0,0,0-2-1,2,2,0,0,0-2.19,1.55c-.34,2.41,5.57,1,5,5.32-.36,2.58-2.58,3.84-4.94,3.84A4.33,4.33,0,0,1,87.17,505L89,503.42a2.41,2.41,0,0,0,2.2,1.26A2.24,2.24,0,0,0,93.55,503c.37-2.63-5.55-1.12-4.95-5.42.35-2.48,2.72-3.64,4.95-3.64a4.33,4.33,0,0,1,3.28,1.24Z"/><path class="cls-2" d="M97.32,499.89l.24-1.73h1.68l.33-2.36h2l-.33,2.36h2.24l-.24,1.73H101l-.5,3.57c-.12.82.05,1.33,1,1.33a2.32,2.32,0,0,0,1.14-.25l-.24,1.72a4.6,4.6,0,0,1-1.65.27c-2.16,0-2.53-1-2.26-2.89l.53-3.74Z"/><path class="cls-2" d="M105.13,498.15h2l-.18,1.29h0a3.07,3.07,0,0,1,2.63-1.5,2.45,2.45,0,0,1,.71.12l-.28,2a3.84,3.84,0,0,0-1-.15,2.43,2.43,0,0,0-2.48,2.06l-.62,4.37h-2Z"/><path class="cls-2" d="M115.85,505.19h-.05a3.42,3.42,0,0,1-2.8,1.33c-1.51,0-2.86-.83-2.63-2.45.37-2.65,3.49-2.84,5.53-2.84h.51l0-.22c.14-1-.57-1.53-1.65-1.53a3.68,3.68,0,0,0-2.3.85l-.92-1.07a5.45,5.45,0,0,1,3.65-1.31c3.48,0,3.13,2.52,3,3.67l-.66,4.69h-1.83Zm.24-2.53h-.42c-1.12,0-3.07.08-3.24,1.26-.11.75.61,1.07,1.28,1.07a2.09,2.09,0,0,0,2.32-1.87Z"/><path class="cls-2" d="M119.68,499.89l.24-1.73h1.68l.33-2.36h2l-.33,2.36h2.24l-.24,1.73H123.4l-.5,3.57c-.12.82.05,1.33,1,1.33a2.32,2.32,0,0,0,1.14-.25l-.24,1.72a4.6,4.6,0,0,1-1.65.27c-2.16,0-2.53-1-2.26-2.89l.53-3.74Z"/><path class="cls-2" d="M128.44,502.95a1.79,1.79,0,0,0,1.92,1.94,3.14,3.14,0,0,0,2.35-1.11l1.31,1.11a4.93,4.93,0,0,1-3.68,1.63,3.6,3.6,0,0,1-3.83-4.28,5,5,0,0,1,5-4.28c2.28,0,3.6,1.6,3.2,4.44l-.08.56Zm4.4-1.53a1.61,1.61,0,0,0-1.8-1.94,2.41,2.41,0,0,0-2.38,1.94Z"/><path class="cls-2" d="M145.64,498.15l-1,7.43c-.42,2.94-2.11,4.81-5.29,4.81a5.13,5.13,0,0,1-3.86-1.34l1.46-1.67a3.4,3.4,0,0,0,2.64,1.17c2,0,2.74-1.12,3-2.74l.08-.59h0a3.84,3.84,0,0,1-2.84,1.19,3.4,3.4,0,0,1-3.47-4.18,4.69,4.69,0,0,1,4.63-4.28,2.69,2.69,0,0,1,2.6,1.43h0l.17-1.22Zm-7.34,4.06a2,2,0,0,0,2.06,2.36,2.71,2.71,0,0,0,2.77-2.4,1.94,1.94,0,0,0-2.08-2.4A2.73,2.73,0,0,0,138.3,502.22Z"/><path class="cls-2" d="M146.85,498.15h2.24l1.48,5.66h0l2.84-5.66h2.13l-5.25,9.91c-.81,1.53-1.64,2.33-3.44,2.33a5.73,5.73,0,0,1-1.54-.2l.51-1.83a2.83,2.83,0,0,0,1,.2c1,0,1.33-.36,1.79-1.21l.53-1Z"/><path class="cls-2" d="M170.4,497.1a2.82,2.82,0,0,0-2.37-1.19,4.85,4.85,0,0,0-4.74,4.3c-.36,2.57,1,4.47,3.5,4.47a4,4,0,0,0,2.91-1.46l1.59,1.26a6.18,6.18,0,0,1-4.79,2.14c-3.71,0-6-2.52-5.47-6.27A7.17,7.17,0,0,1,168.3,494a4.51,4.51,0,0,1,3.95,1.9Z"/><path class="cls-2" d="M177.51,497.95a3.6,3.6,0,0,1,3.83,4.28,5,5,0,0,1-5,4.28,3.6,3.6,0,0,1-3.83-4.28A5,5,0,0,1,177.51,497.95Zm-.95,6.73a2.81,2.81,0,0,0,2.74-2.45,2,2,0,0,0-2.05-2.45,2.81,2.81,0,0,0-2.74,2.45A2,2,0,0,0,176.56,504.68Z"/><path class="cls-2" d="M183.82,498.15h1.94l-.18,1.31h0a3,3,0,0,1,2.71-1.51c2.19,0,2.76,1.55,2.52,3.21l-.73,5.15h-2l.58-4.13c.13-.9.27-2.4-1.16-2.4a2.16,2.16,0,0,0-2.16,2.07l-.63,4.45h-2Z"/><path class="cls-2" d="M197.61,500.41a1.58,1.58,0,0,0-1.48-.83c-.54,0-1.23.25-1.31.87-.21,1.46,4.36.27,3.92,3.45-.27,1.94-2.22,2.62-3.89,2.62a3.48,3.48,0,0,1-3-1.26l1.54-1.28a2.12,2.12,0,0,0,1.8,1c.6,0,1.4-.29,1.49-.93.24-1.68-4.35-.36-3.91-3.47.26-1.82,2-2.63,3.65-2.63a3.05,3.05,0,0,1,2.73,1.24Z"/><path class="cls-2" d="M207.42,506.31h-1.94l.18-1.31h0a3,3,0,0,1-2.71,1.51c-2.19,0-2.76-1.55-2.52-3.21l.73-5.15h2l-.58,4.13c-.13.9-.27,2.4,1.16,2.4a2.16,2.16,0,0,0,2.16-2.07l.63-4.45h2Z"/><path class="cls-2" d="M211.58,493.46h2l-1.81,12.85h-2Z"/><path class="cls-2" d="M214.11,499.89l.24-1.73H216l.33-2.36h2l-.33,2.36h2.24l-.24,1.73h-2.24l-.5,3.57c-.12.82.05,1.33,1,1.33a2.32,2.32,0,0,0,1.14-.25l-.24,1.72a4.6,4.6,0,0,1-1.65.27c-2.16,0-2.53-1-2.26-2.89l.53-3.74Z"/><path class="cls-2" d="M222,498.15h2l-1.15,8.16h-2Zm1.57-4a1.07,1.07,0,0,1,1.15,1.22,1.49,1.49,0,0,1-1.5,1.22,1.07,1.07,0,0,1-1.12-1.22A1.49,1.49,0,0,1,223.52,494.16Z"/><path class="cls-2" d="M226.34,498.15h1.94l-.18,1.31h0a3,3,0,0,1,2.71-1.51c2.19,0,2.76,1.55,2.52,3.21l-.73,5.15h-2l.58-4.13c.13-.9.27-2.4-1.16-2.4a2.16,2.16,0,0,0-2.16,2.07l-.63,4.45h-2Z"/><path class="cls-2" d="M244.49,498.15l-1,7.43c-.42,2.94-2.11,4.81-5.29,4.81a5.13,5.13,0,0,1-3.86-1.34l1.46-1.67a3.4,3.4,0,0,0,2.64,1.17c2,0,2.74-1.12,3-2.74l.08-.59h0a3.84,3.84,0,0,1-2.84,1.19,3.4,3.4,0,0,1-3.47-4.18,4.69,4.69,0,0,1,4.63-4.28,2.69,2.69,0,0,1,2.6,1.43h0l.17-1.22Zm-7.34,4.06a2,2,0,0,0,2.06,2.36,2.71,2.71,0,0,0,2.77-2.4,1.94,1.94,0,0,0-2.08-2.4A2.73,2.73,0,0,0,237.16,502.22Z"/><path class="cls-2" d="M65.39,505.6a6.43,6.43,0,1,1,6.43-6.43A6.44,6.44,0,0,1,65.39,505.6Zm4.18-6.81-.76-.76-3-3a.55.55,0,0,0-.75,0l-.76.76a.55.55,0,0,0,0,.75l1.58,1.58H61.63a.54.54,0,0,0-.54.54v1.07a.54.54,0,0,0,.54.54h4.21l-1.58,1.58a.53.53,0,0,0,0,.75l.76.76a.55.55,0,0,0,.75,0l3-3,.76-.76a.55.55,0,0,0,0-.75Z"/><path class="cls-2" d="M89.49,530.54h7.77L97,532.47H91.36l-.45,3.16h5.3l-.27,1.94h-5.3l-.7,5H87.8Z"/><path class="cls-2" d="M98.55,534.41h2l-1.15,8.16h-2Zm1.57-4a1.07,1.07,0,0,1,1.15,1.22,1.49,1.49,0,0,1-1.5,1.22,1.07,1.07,0,0,1-1.12-1.22A1.49,1.49,0,0,1,100.12,530.42Z"/><path class="cls-2" d="M102.94,534.41h1.94l-.18,1.31h0a3,3,0,0,1,2.71-1.51c2.19,0,2.76,1.55,2.52,3.21l-.73,5.15h-2l.58-4.13c.13-.9.27-2.4-1.16-2.4a2.16,2.16,0,0,0-2.16,2.07l-.63,4.45h-2Z"/><path class="cls-2" d="M116.8,541.45h-.05a3.42,3.42,0,0,1-2.8,1.33c-1.51,0-2.86-.83-2.63-2.45.37-2.65,3.49-2.84,5.53-2.84h.51l0-.22c.14-1-.57-1.53-1.65-1.53a3.68,3.68,0,0,0-2.3.85l-.92-1.07a5.45,5.45,0,0,1,3.65-1.31c3.48,0,3.13,2.52,3,3.67l-.66,4.69h-1.84Zm.24-2.53h-.42c-1.12,0-3.07.08-3.24,1.26-.11.75.61,1.07,1.28,1.07a2.09,2.09,0,0,0,2.32-1.87Z"/><path class="cls-2" d="M121.82,534.41h1.94l-.18,1.31h0a3,3,0,0,1,2.71-1.51c2.19,0,2.76,1.55,2.52,3.21l-.73,5.15h-2l.58-4.13c.13-.9.27-2.4-1.16-2.4a2.16,2.16,0,0,0-2.16,2.07l-.63,4.45h-2Z"/><path class="cls-2" d="M136.81,536.86a1.91,1.91,0,0,0-1.43-.82,2.81,2.81,0,0,0-2.74,2.45,2,2,0,0,0,2.05,2.45,2.28,2.28,0,0,0,1.69-.77l1.15,1.46a5.26,5.26,0,0,1-3.1,1.14,3.6,3.6,0,0,1-3.83-4.28,5,5,0,0,1,5-4.28,3.45,3.45,0,0,1,2.78,1.24Z"/><path class="cls-2" d="M139.81,534.41h2l-1.15,8.16h-2Zm1.57-4a1.07,1.07,0,0,1,1.15,1.22,1.49,1.49,0,0,1-1.5,1.22,1.07,1.07,0,0,1-1.12-1.22A1.49,1.49,0,0,1,141.38,530.42Z"/><path class="cls-2" d="M148.3,541.45h-.05a3.42,3.42,0,0,1-2.8,1.33c-1.51,0-2.86-.83-2.63-2.45.37-2.65,3.49-2.84,5.53-2.84h.51l0-.22c.14-1-.57-1.53-1.65-1.53a3.68,3.68,0,0,0-2.3.85l-.92-1.07a5.45,5.45,0,0,1,3.65-1.31c3.48,0,3.13,2.52,3,3.67l-.66,4.69h-1.84Zm.24-2.53h-.42c-1.12,0-3.07.08-3.24,1.26-.11.75.61,1.07,1.28,1.07a2.09,2.09,0,0,0,2.32-1.87Z"/><path class="cls-2" d="M154,529.72h2l-1.81,12.85h-2Z"/><path class="cls-2" d="M170.63,539.73l2.2,2.84h-2.63l-1.08-1.38a5,5,0,0,1-3.79,1.68c-2.12,0-3.91-1.24-3.58-3.54a4.49,4.49,0,0,1,3.08-3.38,3.44,3.44,0,0,1-1-2.77,3.63,3.63,0,0,1,3.87-3c1.8,0,3.28.88,3,2.86-.21,1.48-1.56,2.5-2.83,3.11l1.64,2.09,1.63-2h2.4Zm-4.69-2.57c-.87.48-1.79,1-1.94,2.06a1.57,1.57,0,0,0,1.65,1.82,3.81,3.81,0,0,0,2.38-1.19Zm-.08-3.89c-.09.63.43,1.26.89,1.75.75-.37,1.77-1,1.89-1.83.09-.65-.44-1.12-1.17-1.12A1.56,1.56,0,0,0,165.86,533.27Z"/><path class="cls-2" d="M181.14,530.54h4.69c1.82,0,3.57.83,3.26,3a3.21,3.21,0,0,1-2.46,2.63v0a2.43,2.43,0,0,1,2.19,2.91c-.37,2.62-2.76,3.43-5,3.43h-4.33Zm.7,10.2h2c1.11,0,2.66-.19,2.88-1.77.18-1.26-.58-1.7-2.31-1.7h-2.06Zm.75-5.3h2c1.43,0,2.23-.61,2.36-1.51s-.5-1.55-2.11-1.55H183Z"/><path class="cls-2" d="M197.72,542.57h-1.94l.18-1.31h0a3,3,0,0,1-2.71,1.51c-2.19,0-2.76-1.55-2.52-3.21l.73-5.15h2l-.58,4.13c-.13.9-.27,2.4,1.16,2.4a2.16,2.16,0,0,0,2.16-2.07l.63-4.45h2Z"/><path class="cls-2" d="M205.21,536.67a1.58,1.58,0,0,0-1.48-.83c-.54,0-1.23.25-1.31.87-.21,1.46,4.36.27,3.92,3.45-.27,1.94-2.22,2.62-3.89,2.62a3.48,3.48,0,0,1-3-1.26l1.54-1.28a2.12,2.12,0,0,0,1.8,1c.6,0,1.4-.29,1.49-.93.24-1.68-4.35-.36-3.91-3.47.26-1.82,2-2.63,3.65-2.63a3.05,3.05,0,0,1,2.73,1.24Z"/><path class="cls-2" d="M208.76,534.41h2l-1.15,8.16h-2Zm1.57-4a1.07,1.07,0,0,1,1.15,1.22,1.49,1.49,0,0,1-1.5,1.22,1.07,1.07,0,0,1-1.12-1.22A1.49,1.49,0,0,1,210.33,530.42Z"/><path class="cls-2" d="M213.15,534.41h1.94l-.18,1.31h0a3,3,0,0,1,2.71-1.51c2.19,0,2.76,1.55,2.52,3.21l-.73,5.15h-2l.58-4.13c.13-.9.27-2.4-1.16-2.4a2.16,2.16,0,0,0-2.16,2.07l-.63,4.45h-2Z"/><path class="cls-2" d="M223.86,539.2a1.79,1.79,0,0,0,1.92,1.94,3.14,3.14,0,0,0,2.35-1.11l1.31,1.11a4.93,4.93,0,0,1-3.68,1.63,3.6,3.6,0,0,1-3.83-4.28,5,5,0,0,1,5-4.28c2.28,0,3.6,1.6,3.2,4.44l-.08.56Zm4.4-1.53a1.61,1.61,0,0,0-1.8-1.94,2.41,2.41,0,0,0-2.38,1.94Z"/><path class="cls-2" d="M236.7,536.67a1.58,1.58,0,0,0-1.48-.83c-.54,0-1.23.25-1.31.87-.21,1.46,4.36.27,3.92,3.45-.27,1.94-2.22,2.62-3.89,2.62a3.48,3.48,0,0,1-3-1.26l1.54-1.28a2.12,2.12,0,0,0,1.8,1c.6,0,1.4-.29,1.49-.93.24-1.68-4.35-.36-3.91-3.47.26-1.82,2-2.63,3.65-2.63a3.05,3.05,0,0,1,2.73,1.24Z"/><path class="cls-2" d="M244.24,536.67a1.58,1.58,0,0,0-1.48-.83c-.54,0-1.23.25-1.31.87-.21,1.46,4.36.27,3.92,3.45-.27,1.94-2.22,2.62-3.89,2.62a3.48,3.48,0,0,1-3-1.26l1.54-1.28a2.12,2.12,0,0,0,1.8,1c.6,0,1.4-.29,1.49-.93.24-1.68-4.35-.36-3.91-3.47.26-1.82,2-2.63,3.65-2.63a3.05,3.05,0,0,1,2.73,1.24Z"/><path class="cls-2" d="M95.25,552.23c3.77-.07,6.06,2.45,5.52,6.31a7.27,7.27,0,0,1-7.3,6.34c-3.71,0-6-2.52-5.47-6.27A7.17,7.17,0,0,1,95.25,552.23Zm-1.49,10.71a4.9,4.9,0,0,0,4.78-4.47c.34-2.4-1-4.3-3.54-4.3a4.85,4.85,0,0,0-4.74,4.3C89.89,561,91.27,562.94,93.76,562.94Z"/><path class="cls-2" d="M102.92,556.41h1.94l-.17,1.22h0a3.67,3.67,0,0,1,3-1.43c2.52,0,3.76,1.87,3.42,4.28a4.75,4.75,0,0,1-4.55,4.28,2.87,2.87,0,0,1-2.6-1.24H104l-.69,4.91h-2Zm4.14,1.63a2.8,2.8,0,0,0-2.74,2.45,2,2,0,0,0,2.05,2.45,2.81,2.81,0,0,0,2.74-2.45A2,2,0,0,0,107.06,558Z"/><path class="cls-2" d="M114.59,561.2a1.79,1.79,0,0,0,1.92,1.94,3.14,3.14,0,0,0,2.35-1.11l1.31,1.11a4.93,4.93,0,0,1-3.68,1.63,3.6,3.6,0,0,1-3.83-4.28,5,5,0,0,1,5-4.28c2.28,0,3.6,1.6,3.2,4.44l-.08.56Zm4.4-1.53a1.61,1.61,0,0,0-1.8-1.94,2.41,2.41,0,0,0-2.38,1.94Z"/><path class="cls-2" d="M123.39,556.41h2l-.18,1.29h0a3.07,3.07,0,0,1,2.63-1.5,2.45,2.45,0,0,1,.71.12l-.28,2a3.84,3.84,0,0,0-1-.15,2.43,2.43,0,0,0-2.48,2.06l-.62,4.37h-2Z"/><path class="cls-2" d="M134.11,563.45h-.05a3.42,3.42,0,0,1-2.8,1.33c-1.51,0-2.86-.83-2.63-2.45.37-2.65,3.49-2.84,5.53-2.84h.51l0-.22c.14-1-.57-1.53-1.65-1.53a3.68,3.68,0,0,0-2.3.85l-.92-1.07a5.45,5.45,0,0,1,3.65-1.31c3.48,0,3.13,2.52,3,3.67l-.66,4.69H134Zm.24-2.53h-.42c-1.12,0-3.07.08-3.24,1.26-.11.75.61,1.07,1.28,1.07a2.09,2.09,0,0,0,2.32-1.87Z"/><path class="cls-2" d="M137.93,558.14l.24-1.73h1.68l.33-2.36h2l-.33,2.36h2.24l-.24,1.73h-2.24l-.5,3.57c-.12.82.05,1.33,1,1.33a2.32,2.32,0,0,0,1.14-.25L143,564.5a4.6,4.6,0,0,1-1.65.27c-2.16,0-2.53-1-2.26-2.89l.53-3.74Z"/><path class="cls-2" d="M145.78,556.41h2l-1.15,8.16h-2Zm1.57-4a1.07,1.07,0,0,1,1.15,1.22,1.49,1.49,0,0,1-1.5,1.22,1.07,1.07,0,0,1-1.12-1.22A1.49,1.49,0,0,1,147.34,552.42Z"/><path class="cls-2" d="M154.22,556.21a3.6,3.6,0,0,1,3.83,4.28,5,5,0,0,1-5,4.28,3.6,3.6,0,0,1-3.83-4.28A5,5,0,0,1,154.22,556.21Zm-.95,6.73a2.81,2.81,0,0,0,2.74-2.45A2,2,0,0,0,154,558a2.81,2.81,0,0,0-2.74,2.45A2,2,0,0,0,153.27,562.94Z"/><path class="cls-2" d="M160.53,556.41h1.94l-.18,1.31h0a3,3,0,0,1,2.71-1.51c2.19,0,2.76,1.55,2.52,3.21l-.73,5.15h-2l.58-4.13c.13-.9.27-2.4-1.16-2.4a2.16,2.16,0,0,0-2.16,2.07l-.63,4.45h-2Z"/><path class="cls-2" d="M174.32,558.67a1.58,1.58,0,0,0-1.48-.83c-.54,0-1.23.25-1.31.87-.21,1.46,4.36.27,3.92,3.45-.27,1.94-2.22,2.62-3.89,2.62a3.48,3.48,0,0,1-3-1.26l1.54-1.28a2.12,2.12,0,0,0,1.8,1c.6,0,1.4-.29,1.49-.93.24-1.68-4.35-.36-3.91-3.47.26-1.82,2-2.63,3.65-2.63a3.05,3.05,0,0,1,2.73,1.24Z"/><path class="cls-2" d="M191.47,555.36a2.82,2.82,0,0,0-2.37-1.19,4.85,4.85,0,0,0-4.74,4.3c-.36,2.57,1,4.47,3.5,4.47a4,4,0,0,0,2.91-1.46l1.59,1.26a6.18,6.18,0,0,1-4.79,2.14c-3.71,0-6-2.52-5.47-6.27a7.17,7.17,0,0,1,7.26-6.37,4.51,4.51,0,0,1,3.95,1.9Z"/><path class="cls-2" d="M198.57,556.21a3.6,3.6,0,0,1,3.83,4.28,5,5,0,0,1-5,4.28,3.6,3.6,0,0,1-3.83-4.28A5,5,0,0,1,198.57,556.21Zm-.95,6.73a2.81,2.81,0,0,0,2.74-2.45,2,2,0,0,0-2.05-2.45,2.81,2.81,0,0,0-2.74,2.45A2,2,0,0,0,197.62,562.94Z"/><path class="cls-2" d="M204.89,556.41h1.94l-.18,1.31h0a3,3,0,0,1,2.71-1.51c2.19,0,2.76,1.55,2.52,3.21l-.73,5.15h-2l.58-4.13c.13-.9.27-2.4-1.16-2.4a2.16,2.16,0,0,0-2.16,2.07l-.63,4.45h-2Z"/><path class="cls-2" d="M218.68,558.67a1.58,1.58,0,0,0-1.48-.83c-.54,0-1.23.25-1.31.87-.21,1.46,4.36.27,3.92,3.45-.27,1.94-2.22,2.62-3.89,2.62a3.48,3.48,0,0,1-3-1.26l1.54-1.28a2.12,2.12,0,0,0,1.8,1c.6,0,1.4-.29,1.49-.93.24-1.68-4.35-.36-3.91-3.47.26-1.82,2-2.63,3.65-2.63a3.05,3.05,0,0,1,2.73,1.24Z"/><path class="cls-2" d="M228.49,564.57h-1.94l.18-1.31h0a3,3,0,0,1-2.71,1.51c-2.19,0-2.76-1.55-2.52-3.21l.73-5.15h2l-.58,4.13c-.13.9-.27,2.4,1.16,2.4a2.16,2.16,0,0,0,2.16-2.07l.63-4.45h2Z"/><path class="cls-2" d="M232.64,551.72h2l-1.81,12.85h-2Z"/><path class="cls-2" d="M235.17,558.14l.24-1.73h1.68l.33-2.36h2l-.33,2.36h2.24l-.24,1.73H238.9l-.5,3.57c-.12.82.05,1.33,1,1.33a2.32,2.32,0,0,0,1.14-.25l-.24,1.72a4.6,4.6,0,0,1-1.65.27c-2.16,0-2.53-1-2.26-2.89l.53-3.74Z"/><path class="cls-2" d="M243,556.41h2l-1.15,8.16h-2Zm1.57-4a1.07,1.07,0,0,1,1.15,1.22,1.49,1.49,0,0,1-1.5,1.22,1.07,1.07,0,0,1-1.12-1.22A1.49,1.49,0,0,1,244.58,552.42Z"/><path class="cls-2" d="M247.4,556.41h1.94l-.18,1.31h0a3,3,0,0,1,2.71-1.51c2.19,0,2.76,1.55,2.52,3.21l-.73,5.15h-2l.58-4.13c.13-.9.27-2.4-1.16-2.4a2.16,2.16,0,0,0-2.16,2.07l-.63,4.45h-2Z"/><path class="cls-2" d="M265.56,556.41l-1,7.43c-.42,2.94-2.11,4.81-5.29,4.81a5.13,5.13,0,0,1-3.86-1.34l1.46-1.67a3.4,3.4,0,0,0,2.64,1.17c2,0,2.74-1.12,3-2.74l.08-.59h0a3.84,3.84,0,0,1-2.84,1.19,3.4,3.4,0,0,1-3.47-4.18,4.69,4.69,0,0,1,4.63-4.28,2.69,2.69,0,0,1,2.6,1.43h0l.17-1.22Zm-7.34,4.06a2,2,0,0,0,2.06,2.36,2.71,2.71,0,0,0,2.77-2.4A1.94,1.94,0,0,0,261,558,2.73,2.73,0,0,0,258.22,560.47Z"/><path class="cls-2" d="M65.39,541.86a6.43,6.43,0,1,1,6.43-6.43A6.44,6.44,0,0,1,65.39,541.86ZM69.57,535l-.76-.76-3-3a.55.55,0,0,0-.75,0l-.76.76a.55.55,0,0,0,0,.75l1.58,1.58H61.63a.54.54,0,0,0-.54.54V536a.54.54,0,0,0,.54.54h4.21l-1.58,1.58a.53.53,0,0,0,0,.75l.76.76a.55.55,0,0,0,.75,0l3-3,.76-.76a.55.55,0,0,0,0-.75Z"/><path class="cls-2" d="M89.54,588.79h3.26l2,8.43,4.44-8.43h3.23l-1.7,12h-2l1.41-10h0l-5.06,10h-1.5l-2.25-10h0l-1.41,10h-2Z"/><path class="cls-2" d="M108.61,599.71h-.05a3.42,3.42,0,0,1-2.8,1.33c-1.51,0-2.86-.83-2.63-2.45.37-2.65,3.49-2.84,5.53-2.84h.51l0-.22c.14-1-.57-1.53-1.65-1.53a3.68,3.68,0,0,0-2.3.85l-.92-1.07a5.45,5.45,0,0,1,3.65-1.31c3.48,0,3.13,2.52,3,3.67l-.66,4.69h-1.84Zm.24-2.53h-.42c-1.12,0-3.07.08-3.24,1.26-.11.75.61,1.07,1.28,1.07a2.09,2.09,0,0,0,2.32-1.87Z"/><path class="cls-2" d="M113.63,592.67h2l-.18,1.29h0a3.07,3.07,0,0,1,2.63-1.5,2.45,2.45,0,0,1,.71.12l-.28,2a3.84,3.84,0,0,0-1-.15,2.43,2.43,0,0,0-2.48,2.06l-.62,4.37h-2Z"/><path class="cls-2" d="M120.9,588h2l-1.14,8.07,3.62-3.38H128l-4,3.71,3.09,4.45h-2.7l-2.66-4.17h0l-.59,4.17h-2Z"/><path class="cls-2" d="M130.33,597.46a1.79,1.79,0,0,0,1.92,1.94,3.14,3.14,0,0,0,2.35-1.11l1.31,1.11a4.93,4.93,0,0,1-3.68,1.63,3.6,3.6,0,0,1-3.83-4.28,5,5,0,0,1,5-4.28c2.28,0,3.6,1.6,3.2,4.44l-.08.56Zm4.4-1.53a1.61,1.61,0,0,0-1.8-1.94,2.41,2.41,0,0,0-2.38,1.94Z"/><path class="cls-2" d="M137.93,594.4l.24-1.73h1.68l.33-2.36h2l-.33,2.36h2.24l-.24,1.73h-2.24l-.5,3.57c-.12.82.05,1.33,1,1.33a2.32,2.32,0,0,0,1.14-.25l-.24,1.72a4.6,4.6,0,0,1-1.65.27c-2.16,0-2.53-1-2.26-2.89l.53-3.74Z"/><path class="cls-2" d="M155.4,588.79h1.85l3.49,12h-2.45l-.73-2.75h-5.22l-1.48,2.75h-2.4Zm1.67,7.45-1.16-4.9-2.58,4.9Z"/><path class="cls-2" d="M167.08,594.93a1.58,1.58,0,0,0-1.48-.83c-.54,0-1.23.25-1.31.87-.21,1.46,4.36.27,3.92,3.45-.27,1.94-2.22,2.62-3.89,2.62a3.48,3.48,0,0,1-3-1.26l1.54-1.28a2.12,2.12,0,0,0,1.8,1c.6,0,1.4-.29,1.49-.93.24-1.68-4.35-.36-3.91-3.47.26-1.82,2-2.63,3.65-2.63a3.05,3.05,0,0,1,2.73,1.24Z"/><path class="cls-2" d="M174.63,594.93a1.58,1.58,0,0,0-1.48-.83c-.54,0-1.23.25-1.31.87-.21,1.46,4.36.27,3.92,3.45-.27,1.94-2.22,2.62-3.89,2.62a3.48,3.48,0,0,1-3-1.26l1.54-1.28a2.12,2.12,0,0,0,1.8,1c.6,0,1.4-.29,1.49-.93.24-1.68-4.35-.36-3.91-3.47.26-1.82,2-2.63,3.65-2.63a3.05,3.05,0,0,1,2.73,1.24Z"/><path class="cls-2" d="M179.1,597.46A1.79,1.79,0,0,0,181,599.4a3.14,3.14,0,0,0,2.35-1.11l1.31,1.11A4.93,4.93,0,0,1,181,601a3.6,3.6,0,0,1-3.83-4.28,5,5,0,0,1,5-4.28c2.28,0,3.6,1.6,3.2,4.44l-.08.56Zm4.4-1.53a1.61,1.61,0,0,0-1.8-1.94,2.41,2.41,0,0,0-2.38,1.94Z"/><path class="cls-2" d="M191.94,594.93a1.58,1.58,0,0,0-1.48-.83c-.54,0-1.23.25-1.31.87-.21,1.46,4.36.27,3.92,3.45-.27,1.94-2.22,2.62-3.89,2.62a3.48,3.48,0,0,1-3-1.26l1.54-1.28a2.12,2.12,0,0,0,1.8,1c.6,0,1.4-.29,1.49-.93.24-1.68-4.35-.36-3.91-3.47.26-1.82,2-2.63,3.65-2.63a3.05,3.05,0,0,1,2.73,1.24Z"/><path class="cls-2" d="M199.48,594.93a1.58,1.58,0,0,0-1.48-.83c-.54,0-1.23.25-1.31.87-.21,1.46,4.36.27,3.92,3.45-.27,1.94-2.22,2.62-3.89,2.62a3.48,3.48,0,0,1-3-1.26l1.54-1.28a2.12,2.12,0,0,0,1.8,1c.6,0,1.4-.29,1.49-.93.24-1.68-4.35-.36-3.91-3.47.26-1.82,2-2.63,3.65-2.63a3.05,3.05,0,0,1,2.73,1.24Z"/><path class="cls-2" d="M202.91,592.67h1.94l-.18,1.27h0a3.06,3.06,0,0,1,2.71-1.48,2.12,2.12,0,0,1,2.34,1.51,3.33,3.33,0,0,1,2.9-1.51c2.18,0,2.72,1.55,2.45,3.5l-.68,4.86h-2l.65-4.62c.14-1,0-1.9-1.24-1.9a2.16,2.16,0,0,0-2,2.11l-.62,4.42h-2l.69-4.86c.14-1-.17-1.67-1.16-1.67a2.16,2.16,0,0,0-2.16,2.07l-.63,4.45h-2Z"/><path class="cls-2" d="M218.74,597.46a1.79,1.79,0,0,0,1.92,1.94,3.14,3.14,0,0,0,2.35-1.11l1.31,1.11a4.93,4.93,0,0,1-3.68,1.63,3.6,3.6,0,0,1-3.83-4.28,5,5,0,0,1,5-4.28c2.28,0,3.6,1.6,3.2,4.44l-.08.56Zm4.4-1.53a1.61,1.61,0,0,0-1.8-1.94,2.41,2.41,0,0,0-2.38,1.94Z"/><path class="cls-2" d="M227.55,592.67h1.94L229.3,594h0a3,3,0,0,1,2.71-1.51c2.19,0,2.76,1.55,2.52,3.21l-.73,5.15h-2l.58-4.13c.13-.9.27-2.4-1.16-2.4a2.16,2.16,0,0,0-2.16,2.07l-.63,4.45h-2Z"/><path class="cls-2" d="M236.11,594.4l.24-1.73H238l.33-2.36h2l-.33,2.36h2.24l-.24,1.73h-2.24l-.5,3.57c-.12.82.05,1.33,1,1.33a2.32,2.32,0,0,0,1.14-.25l-.24,1.72a4.6,4.6,0,0,1-1.65.27c-2.16,0-2.53-1-2.26-2.89l.53-3.74Z"/><path class="cls-2" d="M242.75,601.64l-1.34-.51,7.16-13.19,1.33.54Z"/><path class="cls-2" d="M93.39,610.79h1.85l3.49,12H96.28l-.73-2.75H90.33l-1.48,2.75h-2.4Zm1.67,7.45-1.16-4.9-2.58,4.9Z"/><path class="cls-2" d="M106.26,617.12a1.91,1.91,0,0,0-1.43-.82,2.81,2.81,0,0,0-2.74,2.45,2,2,0,0,0,2.05,2.45,2.28,2.28,0,0,0,1.69-.77l1.15,1.46a5.26,5.26,0,0,1-3.1,1.14,3.6,3.6,0,0,1-3.83-4.28,5,5,0,0,1,5-4.28,3.45,3.45,0,0,1,2.78,1.24Z"/><path class="cls-2" d="M114.46,617.12a1.91,1.91,0,0,0-1.43-.82,2.81,2.81,0,0,0-2.74,2.45,2,2,0,0,0,2.05,2.45,2.28,2.28,0,0,0,1.69-.77l1.15,1.46a5.26,5.26,0,0,1-3.1,1.14,3.6,3.6,0,0,1-3.83-4.28,5,5,0,0,1,5-4.28,3.45,3.45,0,0,1,2.78,1.24Z"/><path class="cls-2" d="M117.42,614.67h2l-.18,1.29h0a3.07,3.07,0,0,1,2.63-1.5,2.45,2.45,0,0,1,.71.12l-.28,2a3.84,3.84,0,0,0-1-.15,2.43,2.43,0,0,0-2.48,2.06l-.62,4.37h-2Z"/><path class="cls-2" d="M124.69,619.46a1.79,1.79,0,0,0,1.92,1.94,3.14,3.14,0,0,0,2.35-1.11l1.31,1.11a4.93,4.93,0,0,1-3.68,1.63,3.6,3.6,0,0,1-3.83-4.28,5,5,0,0,1,5-4.28c2.28,0,3.6,1.6,3.2,4.44l-.08.56Zm4.4-1.53a1.61,1.61,0,0,0-1.8-1.94,2.41,2.41,0,0,0-2.38,1.94Z"/><path class="cls-2" d="M139,621.6h0a3.67,3.67,0,0,1-3,1.43c-2.52,0-3.77-1.87-3.42-4.28a4.75,4.75,0,0,1,4.55-4.28,2.87,2.87,0,0,1,2.6,1.24h.05l.81-5.73h2l-1.81,12.85H138.8Zm-2.37-.41a2.81,2.81,0,0,0,2.74-2.45,2,2,0,0,0-2.05-2.45,2.81,2.81,0,0,0-2.74,2.45A2,2,0,0,0,136.6,621.2Z"/><path class="cls-2" d="M144.23,614.67h2l-1.15,8.16h-2Zm1.57-4A1.07,1.07,0,0,1,147,611.9a1.49,1.49,0,0,1-1.5,1.22,1.07,1.07,0,0,1-1.12-1.22A1.49,1.49,0,0,1,145.8,610.67Z"/><path class="cls-2" d="M147.42,616.4l.24-1.73h1.68l.33-2.36h2l-.33,2.36h2.24l-.24,1.73h-2.24l-.5,3.57c-.12.82.05,1.33,1,1.33a2.32,2.32,0,0,0,1.14-.25l-.24,1.72a4.6,4.6,0,0,1-1.65.27c-2.16,0-2.53-1-2.26-2.89l.53-3.74Z"/><path class="cls-2" d="M159.34,621.71h-.05a3.42,3.42,0,0,1-2.8,1.33c-1.51,0-2.86-.83-2.63-2.45.37-2.65,3.49-2.84,5.53-2.84h.51l0-.22c.14-1-.57-1.53-1.65-1.53a3.68,3.68,0,0,0-2.3.85l-.92-1.07a5.45,5.45,0,0,1,3.65-1.31c3.48,0,3.13,2.52,3,3.67l-.66,4.69h-1.83Zm.24-2.53h-.42c-1.12,0-3.07.08-3.24,1.26-.11.75.61,1.07,1.28,1.07a2.09,2.09,0,0,0,2.32-1.87Z"/><path class="cls-2" d="M163.16,616.4l.24-1.73h1.68l.33-2.36h2l-.33,2.36h2.24l-.24,1.73h-2.24l-.5,3.57c-.12.82.05,1.33,1,1.33a2.32,2.32,0,0,0,1.14-.25l-.24,1.72a4.6,4.6,0,0,1-1.65.27c-2.16,0-2.53-1-2.26-2.89l.53-3.74Z"/><path class="cls-2" d="M171,614.67h2l-1.15,8.16h-2Zm1.57-4a1.07,1.07,0,0,1,1.15,1.22,1.49,1.49,0,0,1-1.5,1.22,1.07,1.07,0,0,1-1.12-1.22A1.49,1.49,0,0,1,172.57,610.67Z"/><path class="cls-2" d="M179.45,614.46a3.6,3.6,0,0,1,3.83,4.28,5,5,0,0,1-5,4.28,3.6,3.6,0,0,1-3.83-4.28A5,5,0,0,1,179.45,614.46Zm-.95,6.73a2.81,2.81,0,0,0,2.74-2.45,2,2,0,0,0-2.05-2.45,2.81,2.81,0,0,0-2.74,2.45A2,2,0,0,0,178.5,621.2Z"/><path class="cls-2" d="M185.76,614.67h1.94l-.18,1.31h0a3,3,0,0,1,2.71-1.51c2.19,0,2.76,1.55,2.52,3.21l-.73,5.15h-2l.58-4.13c.13-.9.27-2.4-1.16-2.4a2.16,2.16,0,0,0-2.16,2.07l-.63,4.45h-2Z"/><path class="cls-2" d="M201.29,610.79h4.18c2.31,0,4.38.75,4,3.45a3.68,3.68,0,0,1-3.25,3.26l2.45,5.32h-2.58l-2.07-5.1h-1.56l-.72,5.1h-2.14Zm3.09,5.1c1.21,0,2.63-.1,2.85-1.67s-1.1-1.6-2.21-1.6h-1.85l-.46,3.26Z"/><path class="cls-2" d="M212.22,619.46a1.79,1.79,0,0,0,1.92,1.94,3.14,3.14,0,0,0,2.35-1.11l1.31,1.11a4.93,4.93,0,0,1-3.68,1.63,3.6,3.6,0,0,1-3.83-4.28,5,5,0,0,1,5-4.28c2.28,0,3.6,1.6,3.2,4.44l-.08.56Zm4.4-1.53a1.61,1.61,0,0,0-1.8-1.94,2.41,2.41,0,0,0-2.38,1.94Z"/><path class="cls-2" d="M219.92,614.67h2.23l1.37,5.71h0l3-5.71h2.09l-4.36,8.16H222.1Z"/><path class="cls-2" d="M229.88,614.67h2l-1.15,8.16h-2Zm1.57-4a1.07,1.07,0,0,1,1.15,1.22,1.49,1.49,0,0,1-1.5,1.22A1.07,1.07,0,0,1,230,611.9,1.49,1.49,0,0,1,231.44,610.67Z"/><path class="cls-2" d="M235.22,619.46a1.79,1.79,0,0,0,1.92,1.94,3.14,3.14,0,0,0,2.35-1.11l1.31,1.11a4.93,4.93,0,0,1-3.68,1.63,3.6,3.6,0,0,1-3.83-4.28,5,5,0,0,1,5-4.28c2.28,0,3.6,1.6,3.2,4.44l-.08.56Zm4.4-1.53a1.61,1.61,0,0,0-1.8-1.94,2.41,2.41,0,0,0-2.38,1.94Z"/><path class="cls-2" d="M242.92,614.67h2.21l1,5.71h0l2.45-5.71h2.21l1,5.71h0l2.5-5.71h2.06l-3.92,8.16h-2l-1.15-5.58h0l-2.5,5.58H244.6Z"/><path class="cls-2" d="M65.39,600.12a6.43,6.43,0,1,1,6.43-6.43A6.44,6.44,0,0,1,65.39,600.12Zm4.18-6.81-.76-.76-3-3a.55.55,0,0,0-.75,0l-.76.76a.55.55,0,0,0,0,.75l1.58,1.58H61.63a.54.54,0,0,0-.54.54v1.07a.54.54,0,0,0,.54.54h4.21l-1.58,1.58a.53.53,0,0,0,0,.75l.76.76a.55.55,0,0,0,.75,0l3-3,.76-.76a.55.55,0,0,0,0-.75Z"/><line class="cls-3" x1="59.59" y1="463.24" x2="293.46" y2="463.24"/></svg>