<svg id="Layer_1" data-name="Layer 1" xmlns="http://www.w3.org/2000/svg" viewBox="0 0 353.05 659.16"><defs><style>.cls-1{fill:#1e988a;}.cls-2{fill:#f0f3f5;}.cls-3,.cls-4{fill:#fff;}.cls-4{stroke:#fff;stroke-miterlimit:10;stroke-width:2.41px;}</style></defs><title>infographic</title><path class="cls-1" d="M299,659.16a30,30,0,0,0,30-30V337.93a8,8,0,0,0-13.22-6.05,205.33,205.33,0,0,1-278.18-8.83,8,8,0,0,0-13.6,5.7v300.4a30.09,30.09,0,0,0,30,30Z"/><circle class="cls-1" cx="176.44" cy="176.37" r="124.52"/><path class="cls-1" d="M174.64,338.51a3.12,3.12,0,0,1-3.06-3.19h0a3.14,3.14,0,0,1,3.21-3.06h0a3.13,3.13,0,0,1,3,3.19h0a3.12,3.12,0,0,1-3.11,3.06h-.08Zm8.4-3.13a3.12,3.12,0,0,1,3-3.27h0a3.12,3.12,0,0,1,3.27,3h0a3.16,3.16,0,0,1-3,3.29h-.15A3.15,3.15,0,0,1,183,335.38ZM163,337.84a3.13,3.13,0,0,1-2.83-3.42h0a3.13,3.13,0,0,1,3.42-2.81h0a3.13,3.13,0,0,1,2.81,3.4h0a3.12,3.12,0,0,1-3.11,2.84H163Zm31.49-3.21a3.12,3.12,0,0,1,2.73-3.48h0a3.1,3.1,0,0,1,3.48,2.71h0a3.11,3.11,0,0,1-2.71,3.5h0l-.37,0h0A3.13,3.13,0,0,1,194.48,334.63Zm-43.08,1.69a3.13,3.13,0,0,1-2.56-3.61h0a3.12,3.12,0,0,1,3.61-2.56h0a3.15,3.15,0,0,1,2.56,3.61h0a3.14,3.14,0,0,1-3.08,2.61h0A4.49,4.49,0,0,1,151.4,336.32ZM205.82,333a3.13,3.13,0,0,1,2.46-3.67h0a3.15,3.15,0,0,1,3.69,2.46h0a3.13,3.13,0,0,1-2.48,3.67h0a2.83,2.83,0,0,1-.6.06h0A3.14,3.14,0,0,1,205.82,333Zm-65.86.9a3.1,3.1,0,0,1-2.29-3.77h0a3.1,3.1,0,0,1,3.77-2.29h0a3.13,3.13,0,0,1,2.29,3.77h0a3.13,3.13,0,0,1-3,2.4h0A3.09,3.09,0,0,1,140,333.94ZM217,330.65a3.14,3.14,0,0,1,2.19-3.86h0a3.12,3.12,0,0,1,3.83,2.19h0a3.11,3.11,0,0,1-2.19,3.83h0a2.88,2.88,0,0,1-.83.13h0A3.11,3.11,0,0,1,217,330.65Zm-88.33.1a3.13,3.13,0,0,1-2-3.94h0a3.11,3.11,0,0,1,3.94-2h0a3.09,3.09,0,0,1,2,3.92h0a3.09,3.09,0,0,1-3,2.17h0A3.21,3.21,0,0,1,128.7,330.76ZM228,327.42a3.11,3.11,0,0,1,1.92-4v0a3.14,3.14,0,0,1,4,1.9h0a3.13,3.13,0,0,1-1.9,4h0a3.15,3.15,0,0,1-1,.19h0A3.16,3.16,0,0,1,228,327.42Zm-110.3-.69a3.1,3.1,0,0,1-1.71-4.06h0a3.13,3.13,0,0,1,4.06-1.73h0A3.15,3.15,0,0,1,121.8,325h0a3.14,3.14,0,0,1-2.9,1.94h0A2.94,2.94,0,0,1,117.71,326.73Zm121-3.34a3.1,3.1,0,0,1,1.6-4.11h0a3.11,3.11,0,0,1,4.11,1.58h0a3.12,3.12,0,0,1-1.6,4.13h0a3,3,0,0,1-1.25.27h0A3.07,3.07,0,0,1,238.75,323.4ZM107,321.92a3.11,3.11,0,0,1-1.4-4.19h0a3.12,3.12,0,0,1,4.19-1.4h0a3.11,3.11,0,0,1,1.4,4.19h0a3.13,3.13,0,0,1-2.79,1.73h0A3.12,3.12,0,0,1,107,321.92Zm142.1-3.29a3.13,3.13,0,0,1,1.29-4.23h0a3.13,3.13,0,0,1,4.23,1.29h0a3.15,3.15,0,0,1-1.29,4.23h0a3.15,3.15,0,0,1-1.48.35h0A3.14,3.14,0,0,1,249.15,318.63ZM96.77,316.35h0a3.14,3.14,0,0,1-1.1-4.29h0A3.12,3.12,0,0,1,100,311h0a3.13,3.13,0,0,1,1.11,4.27h0a3.16,3.16,0,0,1-2.71,1.54h0A3.13,3.13,0,0,1,96.77,316.35Zm162.41-3.27a3.13,3.13,0,0,1,1-4.31h0a3.13,3.13,0,0,1,4.31,1h0a3.13,3.13,0,0,1-1,4.31h0a3,3,0,0,1-1.65.48h0A3.12,3.12,0,0,1,259.17,313.08ZM86.93,310a3.14,3.14,0,0,1-.79-4.36h0a3.12,3.12,0,0,1,4.36-.77h0a3.11,3.11,0,0,1,.79,4.34h0a3.14,3.14,0,0,1-2.58,1.35h0A3.13,3.13,0,0,1,86.93,310Zm181.83-3.21a3.13,3.13,0,0,1,.67-4.38h0a3.15,3.15,0,0,1,4.38.67h0a3.13,3.13,0,0,1-.67,4.38h0a3.09,3.09,0,0,1-1.86.6h0A3.14,3.14,0,0,1,268.76,306.83ZM77.57,303a3.12,3.12,0,0,1-.48-4.4h0a3.14,3.14,0,0,1,4.4-.46h0a3.1,3.1,0,0,1,.48,4.38h0a3.12,3.12,0,0,1-2.44,1.17h0A3.16,3.16,0,0,1,77.57,303Zm200.32-3.15a3.11,3.11,0,0,1,.35-4.4h0a3.11,3.11,0,0,1,4.4.36h0a3.11,3.11,0,0,1-.36,4.4h0a3.12,3.12,0,0,1-2,.75h0A3.13,3.13,0,0,1,277.89,299.89ZM68.75,295.36a3.11,3.11,0,0,1-.15-4.42h0A3.15,3.15,0,0,1,73,290.8h0a3.15,3.15,0,0,1,.15,4.42h0a3.13,3.13,0,0,1-2.29,1h0A3.1,3.1,0,0,1,68.75,295.36Zm217.72-3a3.15,3.15,0,0,1,0-4.44h0a3.13,3.13,0,0,1,4.42,0h0a3.13,3.13,0,0,1,0,4.42h0a3.07,3.07,0,0,1-2.19.9h0A3.19,3.19,0,0,1,286.48,292.32Zm-226-5.23a3.13,3.13,0,0,1,.17-4.42h0a3.13,3.13,0,0,1,4.42.17h0a3.11,3.11,0,0,1-.17,4.42h0a3.08,3.08,0,0,1-2.13.83h0A3.13,3.13,0,0,1,60.5,287.09Zm234-3a3.15,3.15,0,0,1-.29-4.42h0a3.15,3.15,0,0,1,4.42-.29h0a3.13,3.13,0,0,1,.29,4.42h0a3.11,3.11,0,0,1-2.35,1.06h0A3.14,3.14,0,0,1,294.5,284.13Zm-241.63-5.9h0a3.14,3.14,0,0,1,.5-4.4h0a3.14,3.14,0,0,1,4.4.5h0a3.12,3.12,0,0,1-.5,4.4h0a3,3,0,0,1-1.94.67h0A3.16,3.16,0,0,1,52.87,278.23Zm249-2.83a3.15,3.15,0,0,1-.6-4.4h0a3.12,3.12,0,0,1,4.38-.6h0a3.12,3.12,0,0,1,.6,4.38h0a3.1,3.1,0,0,1-2.48,1.25h0A3.18,3.18,0,0,1,301.92,275.4Zm-256-6.54a3.14,3.14,0,0,1,.79-4.36h0a3.14,3.14,0,0,1,4.36.81h0a3.14,3.14,0,0,1-.81,4.36h0a3.2,3.2,0,0,1-1.75.54h0A3.14,3.14,0,0,1,45.93,268.85Zm262.76-2.73a3.11,3.11,0,0,1-.94-4.31h0a3.13,3.13,0,0,1,4.34-.94h0a3.15,3.15,0,0,1,.92,4.34h0a3.14,3.14,0,0,1-2.63,1.42h0A3,3,0,0,1,308.7,266.12ZM39.66,259a3.12,3.12,0,0,1,1.13-4.27h0a3.12,3.12,0,0,1,4.27,1.11h0a3.15,3.15,0,0,1-1.1,4.29h0a3.33,3.33,0,0,1-1.58.42h0A3.11,3.11,0,0,1,39.66,259Zm275.1-2.58a3.15,3.15,0,0,1-1.25-4.25h0a3.15,3.15,0,0,1,4.25-1.25h0a3.15,3.15,0,0,1,1.25,4.25h0a3.14,3.14,0,0,1-2.75,1.63h0A3.26,3.26,0,0,1,314.76,256.41ZM34.14,248.7a3.16,3.16,0,0,1,1.44-4.19h0a3.16,3.16,0,0,1,4.19,1.44h0a3.14,3.14,0,0,1-1.44,4.19h0a3.23,3.23,0,0,1-1.38.31h0A3.15,3.15,0,0,1,34.14,248.7Zm286-2.44a3.15,3.15,0,0,1-1.54-4.15h0a3.15,3.15,0,0,1,4.15-1.54h0a3.12,3.12,0,0,1,1.54,4.15h0a3.1,3.1,0,0,1-2.84,1.81h0A3.3,3.3,0,0,1,320.1,246.26ZM29.38,238A3.14,3.14,0,0,1,31.11,234h0a3.14,3.14,0,0,1,4.06,1.73h0a3.14,3.14,0,0,1-1.73,4.09h0a3.22,3.22,0,0,1-1.17.23h0A3.16,3.16,0,0,1,29.38,238Zm295.32-2.31a3.12,3.12,0,0,1-1.85-4h0a3.13,3.13,0,0,1,4-1.86h0a3.12,3.12,0,0,1,1.83,4h0a3.12,3.12,0,0,1-2.92,2h0A2.78,2.78,0,0,1,324.7,235.73ZM25.42,227a3.11,3.11,0,0,1,2-3.92h0a3.12,3.12,0,0,1,3.94,2h0a3.12,3.12,0,0,1-2,3.92h0a3,3,0,0,1-.94.17h0A3.12,3.12,0,0,1,25.42,227Zm303.07-2.1a3.13,3.13,0,0,1-2.13-3.88h0a3.12,3.12,0,0,1,3.88-2.13h0a3.12,3.12,0,0,1,2.13,3.86h0a3.13,3.13,0,0,1-3,2.27h0A3.2,3.2,0,0,1,328.5,224.94ZM22.27,215.79A3.14,3.14,0,0,1,24.59,212h0a3.11,3.11,0,0,1,3.75,2.31h0A3.12,3.12,0,0,1,26,218.1h0a3,3,0,0,1-.73.08h0A3.12,3.12,0,0,1,22.27,215.79Zm309.22-1.92a3.11,3.11,0,0,1-2.4-3.71h0a3.09,3.09,0,0,1,3.69-2.4h0a3.12,3.12,0,0,1,2.42,3.69h0v0h0a3.12,3.12,0,0,1-3.06,2.46h0A3.55,3.55,0,0,1,331.5,213.87ZM20,204.34a3.14,3.14,0,0,1,2.56-3.61h0a3.15,3.15,0,0,1,3.61,2.58h0a3.12,3.12,0,0,1-2.58,3.58h0a2,2,0,0,1-.5,0h0A3.11,3.11,0,0,1,20,204.34Zm313.72-1.73a3.12,3.12,0,0,1-2.69-3.5h0a3.15,3.15,0,0,1,3.52-2.69h0a3.14,3.14,0,0,1,2.69,3.52h0a3.16,3.16,0,0,1-3.11,2.71h0A3,3,0,0,1,333.69,202.61Zm-315.2-9.86h0a3.12,3.12,0,0,1,2.83-3.4h0a3.13,3.13,0,0,1,3.4,2.83h0a3.16,3.16,0,0,1-2.84,3.4h-.29A3.11,3.11,0,0,1,18.48,192.76ZM335,191.23a3.09,3.09,0,0,1-2.92-3.29v0a3.13,3.13,0,0,1,3.31-2.92h0a3.12,3.12,0,0,1,2.92,3.31h0a3.12,3.12,0,0,1-3.11,2.94h0A.7.7,0,0,1,335,191.23ZM17.86,181.08h0a2.92,2.92,0,0,1,.33-1.48h0a3.17,3.17,0,0,1-.35-1.48h0A3.12,3.12,0,0,1,21,175h0a3.12,3.12,0,0,1,3.11,3.13h0a3.05,3.05,0,0,1-.33,1.44h0a3.19,3.19,0,0,1,.38,1.42v0A3.14,3.14,0,0,1,21,184.15h0A3.11,3.11,0,0,1,17.86,181.08Zm314.56-4.38a3.14,3.14,0,0,1,3.11-3.17h0a3.12,3.12,0,0,1,3.15,3.11h0a3.11,3.11,0,0,1-3.11,3.15h0A3.13,3.13,0,0,1,332.41,176.71ZM21.13,169.79a3.11,3.11,0,0,1-2.88-3.33h0a3.1,3.1,0,0,1,3.34-2.9h0a3.13,3.13,0,0,1,2.9,3.36h0a3.14,3.14,0,0,1-3.13,2.9h0A.91.91,0,0,1,21.13,169.79Zm310.79-4.31a3.11,3.11,0,0,1,2.86-3.36h0a3.12,3.12,0,0,1,3.38,2.86h0a3.13,3.13,0,0,1-2.86,3.38H335A3.11,3.11,0,0,1,331.91,165.47ZM22.15,158.39a3.13,3.13,0,0,1-2.65-3.54h0A3.13,3.13,0,0,1,23,152.2h0a3.13,3.13,0,0,1,2.65,3.54h0a3.11,3.11,0,0,1-3.08,2.67h0A3.29,3.29,0,0,1,22.15,158.39Zm308.45-4.06h0a3.11,3.11,0,0,1,2.61-3.56h0a3.1,3.1,0,0,1,3.56,2.61h0a3.13,3.13,0,0,1-2.61,3.59h0a3.78,3.78,0,0,1-.48,0h0A3.11,3.11,0,0,1,330.6,154.32ZM24,147.07a3.12,3.12,0,0,1-2.38-3.73h0A3.12,3.12,0,0,1,25.34,141h0a3.13,3.13,0,0,1,2.38,3.73h0a3.16,3.16,0,0,1-3.06,2.46h0A2.51,2.51,0,0,1,24,147.07Zm304.49-3.77h0a3.14,3.14,0,0,1,2.33-3.75h0a3.13,3.13,0,0,1,3.75,2.35h0a3.11,3.11,0,0,1-2.33,3.75h0a4.12,4.12,0,0,1-.71.08h0A3.13,3.13,0,0,1,328.48,143.3ZM26.65,135.92a3.1,3.1,0,0,1-2.1-3.88h0a3.12,3.12,0,0,1,3.9-2.1h0a3.12,3.12,0,0,1,2.08,3.9h0a3.11,3.11,0,0,1-3,2.23h0A2.6,2.6,0,0,1,26.65,135.92Zm298.91-3.46a3.09,3.09,0,0,1,2.06-3.9h0a3.09,3.09,0,0,1,3.9,2.06h0a3.1,3.1,0,0,1-2.06,3.9h0a2.71,2.71,0,0,1-.92.15h0A3.11,3.11,0,0,1,325.56,132.46ZM30.11,125a3.13,3.13,0,0,1-1.81-4h0a3.11,3.11,0,0,1,4-1.81h0a3.15,3.15,0,0,1,1.81,4h0a3.13,3.13,0,0,1-2.94,2h0A3.05,3.05,0,0,1,30.11,125Zm291.71-3.13a3.16,3.16,0,0,1,1.77-4.06h0a3.15,3.15,0,0,1,4.06,1.77h0a3.14,3.14,0,0,1-1.77,4.06h0a3.19,3.19,0,0,1-1.15.21h0A3.15,3.15,0,0,1,321.83,121.87ZM34.38,114.35a3.1,3.1,0,0,1-1.5-4.15h0A3.11,3.11,0,0,1,37,108.7h0a3.11,3.11,0,0,1,1.5,4.15h0a3.1,3.1,0,0,1-2.83,1.81h0A3,3,0,0,1,34.38,114.35Zm283-2.77h0a3.12,3.12,0,0,1,1.46-4.17h0a3.11,3.11,0,0,1,4.17,1.48h0a3.12,3.12,0,0,1-1.46,4.17h0a3.13,3.13,0,0,1-1.35.31h0A3.13,3.13,0,0,1,317.37,111.57Zm-278-7.52a3.11,3.11,0,0,1-1.19-4.25h0a3.14,3.14,0,0,1,4.25-1.21h0a3.16,3.16,0,0,1,1.21,4.27h0A3.14,3.14,0,0,1,41,104.45h0A3.21,3.21,0,0,1,39.41,104.05Zm272.75-2.4a3.11,3.11,0,0,1,1.15-4.27h0a3.13,3.13,0,0,1,4.27,1.17h0a3.11,3.11,0,0,1-1.17,4.25h0a3,3,0,0,1-1.54.42h0A3.11,3.11,0,0,1,312.16,101.65Zm-267-7.5a3.13,3.13,0,0,1-.88-4.34h0a3.15,3.15,0,0,1,4.34-.9h0a3.13,3.13,0,0,1,.88,4.34h0a3.11,3.11,0,0,1-2.61,1.4h0A3.27,3.27,0,0,1,45.18,94.15Zm261-2a3.12,3.12,0,0,1,.85-4.34h0a3.12,3.12,0,0,1,4.34.85h0a3.12,3.12,0,0,1-.85,4.34h0a3.09,3.09,0,0,1-1.73.54h0A3.14,3.14,0,0,1,306.21,92.11ZM51.66,84.69a3.13,3.13,0,0,1-.56-4.4h0a3.14,3.14,0,0,1,4.38-.56h0a3.13,3.13,0,0,1,.56,4.4h0a3.12,3.12,0,0,1-2.48,1.21h0A3.07,3.07,0,0,1,51.66,84.69ZM299.61,83a3.13,3.13,0,0,1,.54-4.4h0a3.1,3.1,0,0,1,4.38.54h0a3.1,3.1,0,0,1-.52,4.38h0a3.09,3.09,0,0,1-1.94.67h0A3.18,3.18,0,0,1,299.61,83ZM58.81,75.72a3.13,3.13,0,0,1-.25-4.42h0A3.13,3.13,0,0,1,63,71.06h0a3.13,3.13,0,0,1,.25,4.42h0a3.15,3.15,0,0,1-2.33,1h0A3.13,3.13,0,0,1,58.81,75.72Zm233.56-1.27a3.11,3.11,0,0,1,.21-4.42h0a3.15,3.15,0,0,1,4.42.21h0a3.15,3.15,0,0,1-.21,4.42h0a3,3,0,0,1-2.11.81h0A3.05,3.05,0,0,1,292.38,74.45ZM66.59,67.3a3.15,3.15,0,0,1,.06-4.44h0a3.13,3.13,0,0,1,4.42.08h0A3.13,3.13,0,0,1,71,67.37h0a3.13,3.13,0,0,1-2.17.88h0A3.1,3.1,0,0,1,66.59,67.3Zm217.93-.88a3.11,3.11,0,0,1-.1-4.42h0a3.13,3.13,0,0,1,4.42-.12h0v0h0a3.13,3.13,0,0,1,.1,4.42h0a3.13,3.13,0,0,1-2.27,1h0A3.15,3.15,0,0,1,284.52,66.43Zm-209.57-7a3.14,3.14,0,0,1,.4-4.42h0a3.13,3.13,0,0,1,4.4.4h0a3.11,3.11,0,0,1-.4,4.4h0a3,3,0,0,1-2,.73h0A3.14,3.14,0,0,1,74.94,59.47ZM276.1,59a3.11,3.11,0,0,1-.42-4.4h0a3.1,3.1,0,0,1,4.4-.44h0a3.12,3.12,0,0,1,.42,4.4h0a3.09,3.09,0,0,1-2.42,1.15h0A3.12,3.12,0,0,1,276.1,59ZM83.84,52.26a3.16,3.16,0,0,1,.71-4.38h0a3.15,3.15,0,0,1,4.38.71h0A3.15,3.15,0,0,1,88.22,53h0a3.14,3.14,0,0,1-1.83.58h0A3.2,3.2,0,0,1,83.84,52.26Zm183.33-.08a3.12,3.12,0,0,1-.75-4.36h0a3.11,3.11,0,0,1,4.36-.75h0a3.12,3.12,0,0,1,.75,4.36h0A3.15,3.15,0,0,1,269,52.74h0A3.15,3.15,0,0,1,267.18,52.17ZM93.24,45.71a3.12,3.12,0,0,1,1-4.29h0a3.1,3.1,0,0,1,4.29,1h0a3.14,3.14,0,0,1-1,4.29h0a3.18,3.18,0,0,1-1.65.46h0A3.15,3.15,0,0,1,93.24,45.71ZM257.76,46v0a3.12,3.12,0,0,1-1-4.29h0A3.1,3.1,0,0,1,261,40.67h0A3.12,3.12,0,0,1,262,45h0a3.12,3.12,0,0,1-2.67,1.5h0A3.11,3.11,0,0,1,257.76,46ZM103.1,39.88a3.16,3.16,0,0,1,1.33-4.23h0A3.13,3.13,0,0,1,108.65,37h0a3.14,3.14,0,0,1-1.33,4.23h0a3.18,3.18,0,0,1-1.44.36h0A3.15,3.15,0,0,1,103.1,39.88Zm144.84.69a3.14,3.14,0,0,1-1.37-4.21h0A3.14,3.14,0,0,1,250.77,35h0a3.12,3.12,0,0,1,1.37,4.19h0a3.16,3.16,0,0,1-2.79,1.71h0A3.14,3.14,0,0,1,247.94,40.56ZM113.36,34.77A3.11,3.11,0,0,1,115,30.66h0a3.11,3.11,0,0,1,4.11,1.63h0a3.12,3.12,0,0,1-1.63,4.11h0a2.91,2.91,0,0,1-1.23.27h0A3.13,3.13,0,0,1,113.36,34.77Zm124.39,1.08a3.12,3.12,0,0,1-1.69-4.09h0a3.12,3.12,0,0,1,4.09-1.69h0a3.12,3.12,0,0,1,1.69,4.09h0a3.12,3.12,0,0,1-2.9,1.92h0A3,3,0,0,1,237.75,35.85Zm-113.8-5.44a3.12,3.12,0,0,1,1.94-4h0a3.11,3.11,0,0,1,4,1.92h0a3.11,3.11,0,0,1-1.92,4h0a3,3,0,0,1-1,.19h0A3.15,3.15,0,0,1,123.95,30.41Zm103.28,1.48a3.12,3.12,0,0,1-2-4h0a3.13,3.13,0,0,1,4-2h0a3.14,3.14,0,0,1,2,4h0a3.15,3.15,0,0,1-3,2.15h0A3.35,3.35,0,0,1,227.22,31.89Zm-92.37-5A3.12,3.12,0,0,1,137.06,23h0a3.16,3.16,0,0,1,3.83,2.23h0a3.13,3.13,0,0,1-2.23,3.81h0a2.72,2.72,0,0,1-.81.1h0A3.09,3.09,0,0,1,134.85,26.87Zm81.6,1.86a3.13,3.13,0,0,1-2.25-3.81h0A3.13,3.13,0,0,1,218,22.66h0a3.13,3.13,0,0,1,2.25,3.81h0a3.13,3.13,0,0,1-3,2.35h0A3.29,3.29,0,0,1,216.45,28.72ZM146,24.12a3.13,3.13,0,0,1,2.5-3.65h0A3.11,3.11,0,0,1,152.1,23h0a3.11,3.11,0,0,1-2.5,3.65h0a2.59,2.59,0,0,1-.56.06h0A3.14,3.14,0,0,1,146,24.12Zm59.51,2.23h0a3.11,3.11,0,0,1-2.52-3.63h0a3.11,3.11,0,0,1,3.63-2.52h0a3.1,3.1,0,0,1,2.52,3.63h0A3.12,3.12,0,0,1,206,26.39h0A2.56,2.56,0,0,1,205.46,26.35Zm-48.21-4.17A3.15,3.15,0,0,1,160,18.72h0a3.12,3.12,0,0,1,3.46,2.75h0a3.11,3.11,0,0,1-2.75,3.46h0a2,2,0,0,1-.36,0h0A3.13,3.13,0,0,1,157.25,22.18Zm37.1,2.61h0a3.13,3.13,0,0,1-2.79-3.44h0A3.16,3.16,0,0,1,195,18.55h0v0h0A3.13,3.13,0,0,1,197.79,22h0a3.15,3.15,0,0,1-3.11,2.81h0Zm-25.7-3.71a3.12,3.12,0,0,1,3-3.23h0a3.11,3.11,0,0,1,3.25,3h0a3.11,3.11,0,0,1-3,3.25h-.13A3.14,3.14,0,0,1,168.65,21.08Zm14.49,3h0a3.14,3.14,0,0,1-3-3.23h0a3.12,3.12,0,0,1,3.23-3h0a3.13,3.13,0,0,1,3,3.21h0a3.13,3.13,0,0,1-3.13,3h-.1Z"/><path class="cls-2" d="M143.92,231.91a2.8,2.8,0,0,1-2.43-1.4l-6.94-12a2.8,2.8,0,0,1,1-3.83l29-16.74a2.8,2.8,0,0,1,3.83,1l6.94,12a2.8,2.8,0,0,1-1,3.83l-29,16.74A2.79,2.79,0,0,1,143.92,231.91Zm-3.12-13.79,4.14,7.16,24.15-13.94L165,204.18Z"/><path class="cls-2" d="M115.68,221a10.66,10.66,0,0,1-9.25-5.33l-8.89-15.39a10.67,10.67,0,0,1,3.9-14.56l5.21-3a2.8,2.8,0,0,1,3.82,1l16.75,29a2.8,2.8,0,0,1-1,3.83l-5.21,3A10.59,10.59,0,0,1,115.68,221ZM107,189l-2.79,1.61a5.06,5.06,0,0,0-1.85,6.91l8.89,15.39a5.06,5.06,0,0,0,6.91,1.85l2.79-1.61Z"/><path class="cls-2" d="M180.37,241a2.8,2.8,0,0,1-2.43-1.4l-6.94-12a2.8,2.8,0,0,1,1-3.82l5.8-3.35a2.8,2.8,0,0,1,3.83,1l6.94,12a2.8,2.8,0,0,1-1,3.82l-5.8,3.35A2.79,2.79,0,0,1,180.37,241Zm-3.11-13.79,4.14,7.17,1-.55-4.14-7.17Z"/><path class="cls-2" d="M170.84,257.21a10.32,10.32,0,0,1-8.91-5.08l-14.62-24.94a2.8,2.8,0,0,1,1-3.84l17.4-10a2.8,2.8,0,0,1,3.83,1l14.43,25h0a10.31,10.31,0,0,1-3.77,14.07L176,255.83A10.22,10.22,0,0,1,170.84,257.21Zm-17.27-30.43,13.19,22.51a4.71,4.71,0,0,0,6.4,1.69l4.25-2.45a4.7,4.7,0,0,0,1.72-6.42l-13-22.57Z"/><path class="cls-2" d="M173.62,198.19a2.8,2.8,0,0,1-2.42-1.4l-25.36-43.92a2.8,2.8,0,0,1,.26-3.17l34.35-41.93a2.8,2.8,0,0,1,4.59.37l44.49,77.07a2.8,2.8,0,0,1-2,4.16l-53.49,8.78A2.84,2.84,0,0,1,173.62,198.19Zm-22-46.44,23.42,40.57,47.58-7.82-40.45-70.05Z"/><path class="cls-2" d="M133.07,220.52a13.6,13.6,0,0,1-3.53-.47,13.45,13.45,0,0,1-8.22-6.31l-15.09-26.14a13.54,13.54,0,0,1,5-18.5l35.45-20.46a2.8,2.8,0,0,1,3.82,1l25.84,44.75a2.8,2.8,0,0,1-1,3.83L139.81,218.7A13.46,13.46,0,0,1,133.07,220.52ZM147,154.88l-33,19.06h0a7.94,7.94,0,0,0-2.91,10.85l15.1,26.14A7.94,7.94,0,0,0,137,213.85l33-19.06Zm-34.42,16.64h0Z"/><path class="cls-2" d="M215.34,149.13A2.8,2.8,0,0,1,214,143.9l36-20.54a2.8,2.8,0,0,1,2.78,4.86l-36,20.54A2.8,2.8,0,0,1,215.34,149.13Z"/><path class="cls-2" d="M227.33,166.35a2.8,2.8,0,0,1-.75-5.5L263,150.65a2.8,2.8,0,0,1,1.51,5.39l-36.44,10.2A2.78,2.78,0,0,1,227.33,166.35Z"/><path class="cls-2" d="M202.93,128.12a2.8,2.8,0,0,1-2-4.78l23.49-23.47a2.8,2.8,0,1,1,4,4L204.91,127.3A2.79,2.79,0,0,1,202.93,128.12Z"/><path class="cls-1" d="M346.42,176.69A168.15,168.15,0,0,1,297.09,296c-62.64,62.64-162.69,65.62-228.88,8.94a12.26,12.26,0,0,1-.64-18h0a12.28,12.28,0,0,1,16.69-.6c56.57,48.34,142,45.76,195.5-7.73s56.07-138.92,7.73-195.5a12.28,12.28,0,0,1,.59-16.69h0a12.26,12.26,0,0,1,18,.64A168.22,168.22,0,0,1,346.42,176.69Z"/><path class="cls-3" d="M93.57,419.69H91.17l.44-2.29h10.69c4.11,0,7,2.33,7,6.55a9.22,9.22,0,0,1-5.37,8.33,9.84,9.84,0,0,1-4.14.92H93.54l-2,10.21H88.91Zm6.07,11.21a6.72,6.72,0,0,0,7-6.77c0-3-1.81-4.44-4.74-4.44h-5.7L94,430.9Z"/><path class="cls-3" d="M112.85,427.79c.07-.44,0-.81-.67-.81h-1.55l.44-2.18h2.59c1.41,0,1.89.52,1.89,1.52a16.29,16.29,0,0,1-.74,3.4h.07c1.29-2.63,3.77-5.11,6.88-5.11a4.43,4.43,0,0,1,1,.11l-.48,2.48a6.21,6.21,0,0,0-.92-.07c-4,0-6.85,4.88-7.66,9.18l-1.37,7.1h-2.52Z"/><path class="cls-3" d="M134.09,424.35c5,0,8.33,3.33,8.33,8,0,6.44-5.7,11.47-11.66,11.47-4.92,0-8.33-3.37-8.33-8.14C122.43,429.34,128.06,424.35,134.09,424.35ZM131,441.59a9.27,9.27,0,0,0,8.84-9.1,5.67,5.67,0,0,0-6-5.88,9.18,9.18,0,0,0-8.84,9A5.71,5.71,0,0,0,131,441.59Z"/><path class="cls-3" d="M147.85,428.42a4.11,4.11,0,0,0,.11-.85c0-.37-.22-.59-.7-.59h-1.48l.41-2.18h2.52c1.33,0,1.92.59,1.92,1.59a12.67,12.67,0,0,1-.48,2.66h.07c1-1.63,3.74-4.7,7.73-4.7,3.29,0,4.74,1.78,4.81,4.7h.07c1-1.74,3.88-4.7,7.84-4.7,3.44,0,4.88,1.89,4.88,4.88a14,14,0,0,1-.26,2.33L173.68,440a5.68,5.68,0,0,0-.11.63q0,.56.67.55h1.55l-.41,2.18h-2.59c-1.33,0-1.92-.52-1.92-1.63a3.83,3.83,0,0,1,.11-.85l1.7-8.73a12.87,12.87,0,0,0,.26-2.26c0-1.85-.7-3.22-3-3.22-3.89,0-7.29,4.18-8,7.92l-1.7,8.77h-2.52l2.18-11.21a10.1,10.1,0,0,0,.26-2.26c0-1.85-.7-3.22-2.92-3.22-4.07,0-7.36,4.18-8.07,8l-1.7,8.73H145Z"/><path class="cls-3" d="M190.74,424.35c5,0,8.33,3.33,8.33,8,0,6.44-5.7,11.47-11.66,11.47-4.92,0-8.33-3.37-8.33-8.14C179.08,429.34,184.7,424.35,190.74,424.35Zm-3.11,17.24a9.27,9.27,0,0,0,8.84-9.1,5.67,5.67,0,0,0-6-5.88,9.18,9.18,0,0,0-8.84,9A5.71,5.71,0,0,0,187.63,441.59Z"/><path class="cls-3" d="M203,436.56l1.89-9.66h-2.44l.41-2.11h2.48l1-5.14h2.48l-1,5.14h4.66l-.41,2.11h-4.66l-1.81,9.4a7.72,7.72,0,0,0-.19,1.74c0,3,2.15,3.26,3.37,3.26a4.5,4.5,0,0,0,.89-.07l-.44,2.26a7.3,7.3,0,0,1-1.07.07c-1.89,0-5.37-.78-5.37-5A10,10,0,0,1,203,436.56Z"/><path class="cls-3" d="M213.75,440.78l2.44-12.43a3.81,3.81,0,0,0,.11-.81q0-.56-.67-.56h-1.55l.44-2.18H217c1.33,0,2,.48,2,1.55a7,7,0,0,1-.15,1.15L216.41,440a5.64,5.64,0,0,0-.11.63c0,.37.26.55.7.55h1.55l-.41,2.18h-2.59c-1.29,0-1.92-.52-1.92-1.63A7.13,7.13,0,0,1,213.75,440.78Zm4.48-23.39h2.44l-.63,3.18H217.6Z"/><path class="cls-3" d="M233.62,424.35c5,0,8.33,3.33,8.33,8,0,6.44-5.7,11.47-11.66,11.47-4.92,0-8.33-3.37-8.33-8.14C222,429.34,227.59,424.35,233.62,424.35Zm-3.11,17.24a9.27,9.27,0,0,0,8.84-9.1,5.67,5.67,0,0,0-6-5.88,9.18,9.18,0,0,0-8.84,9A5.71,5.71,0,0,0,230.51,441.59Z"/><path class="cls-3" d="M247.38,428.42a4.11,4.11,0,0,0,.11-.85c0-.37-.22-.59-.7-.59h-1.48l.41-2.18h2.52c1.33,0,1.92.59,1.92,1.55a13.92,13.92,0,0,1-.52,2.78h.07a9.93,9.93,0,0,1,8.18-4.77c3.66,0,5.25,1.92,5.25,5a13.58,13.58,0,0,1-.26,2.29l-1.63,8.4a4.69,4.69,0,0,0-.07.63q0,.56.67.55h1.55L263,443.4h-2.59c-1.33,0-1.92-.52-1.92-1.63a7.93,7.93,0,0,1,.07-.85l1.7-8.73a11.29,11.29,0,0,0,.26-2.18c0-1.85-.74-3.29-3.33-3.29-4.22,0-7.73,4.11-8.47,7.84L247,443.4h-2.52Z"/><path class="cls-3" d="M89.54,494.28h3.26l2,8.43,4.44-8.43h3.23l-1.7,12h-2l1.41-10h0l-5.06,10h-1.5l-2.25-10h0l-1.41,10h-2Z"/><path class="cls-3" d="M108.61,505.19h-.05a3.42,3.42,0,0,1-2.8,1.33c-1.51,0-2.86-.83-2.63-2.45.37-2.65,3.49-2.84,5.53-2.84h.51l0-.22c.14-1-.57-1.53-1.65-1.53a3.68,3.68,0,0,0-2.3.85l-.92-1.07a5.45,5.45,0,0,1,3.65-1.31c3.48,0,3.13,2.52,3,3.67l-.66,4.69h-1.84Zm.24-2.53h-.42c-1.12,0-3.07.08-3.24,1.26-.11.75.61,1.07,1.28,1.07a2.09,2.09,0,0,0,2.32-1.87Z"/><path class="cls-3" d="M113.63,498.15h2l-.18,1.29h0a3.07,3.07,0,0,1,2.63-1.5,2.45,2.45,0,0,1,.71.12l-.28,2a3.84,3.84,0,0,0-1-.15,2.43,2.43,0,0,0-2.48,2.06l-.62,4.37h-2Z"/><path class="cls-3" d="M120.9,493.46h2l-1.14,8.07,3.62-3.38H128l-4,3.71,3.09,4.45h-2.7l-2.66-4.17h0l-.59,4.17h-2Z"/><path class="cls-3" d="M130.33,502.95a1.79,1.79,0,0,0,1.92,1.94,3.14,3.14,0,0,0,2.35-1.11l1.31,1.11a4.93,4.93,0,0,1-3.68,1.63,3.6,3.6,0,0,1-3.83-4.28,5,5,0,0,1,5-4.28c2.28,0,3.6,1.6,3.2,4.44l-.08.56Zm4.4-1.53a1.61,1.61,0,0,0-1.8-1.94,2.41,2.41,0,0,0-2.38,1.94Z"/><path class="cls-3" d="M137.93,499.89l.24-1.73h1.68l.33-2.36h2l-.33,2.36h2.24l-.24,1.73h-2.24l-.5,3.57c-.12.82.05,1.33,1,1.33a2.32,2.32,0,0,0,1.14-.25l-.24,1.72a4.6,4.6,0,0,1-1.65.27c-2.16,0-2.53-1-2.26-2.89l.53-3.74Z"/><path class="cls-3" d="M145.78,498.15h2l-1.15,8.16h-2Zm1.57-4a1.07,1.07,0,0,1,1.15,1.22,1.49,1.49,0,0,1-1.5,1.22,1.07,1.07,0,0,1-1.12-1.22A1.49,1.49,0,0,1,147.34,494.16Z"/><path class="cls-3" d="M150.16,498.15h1.94l-.18,1.31h0a3,3,0,0,1,2.71-1.51c2.19,0,2.76,1.55,2.52,3.21l-.73,5.15h-2l.58-4.13c.13-.9.27-2.4-1.16-2.4a2.16,2.16,0,0,0-2.16,2.07l-.63,4.45h-2Z"/><path class="cls-3" d="M168.32,498.15l-1,7.43c-.42,2.94-2.11,4.81-5.29,4.81a5.13,5.13,0,0,1-3.86-1.34l1.46-1.67a3.4,3.4,0,0,0,2.64,1.17c2,0,2.74-1.12,3-2.74l.08-.59h0a3.84,3.84,0,0,1-2.84,1.19,3.4,3.4,0,0,1-3.47-4.18,4.69,4.69,0,0,1,4.63-4.28,2.69,2.69,0,0,1,2.6,1.43h0l.17-1.22ZM161,502.22a2,2,0,0,0,2.06,2.36,2.71,2.71,0,0,0,2.77-2.4,1.94,1.94,0,0,0-2.08-2.4A2.73,2.73,0,0,0,161,502.22Z"/><path class="cls-3" d="M171.19,503.8a1.13,1.13,0,0,1,1.18,1.29,1.6,1.6,0,0,1-1.55,1.33,1.13,1.13,0,0,1-1.18-1.29A1.6,1.6,0,0,1,171.19,503.8ZM172,498a1.13,1.13,0,0,1,1.18,1.29,1.6,1.6,0,0,1-1.55,1.33,1.13,1.13,0,0,1-1.18-1.29A1.6,1.6,0,0,1,172,498Z"/><path class="cls-3" d="M185.32,494.28h1.85l3.49,12h-2.45l-.73-2.75h-5.22l-1.48,2.75h-2.4Zm1.67,7.45-1.16-4.9-2.58,4.9Z"/><path class="cls-3" d="M191.56,498.15h2.21l1,5.71h0l2.45-5.71h2.21l1,5.71h0l2.5-5.71H205l-3.92,8.16h-2l-1.15-5.58h0l-2.5,5.58h-2.11Z"/><path class="cls-3" d="M210.3,505.19h-.05a3.42,3.42,0,0,1-2.8,1.33c-1.51,0-2.86-.83-2.63-2.45.37-2.65,3.49-2.84,5.53-2.84h.51l0-.22c.14-1-.57-1.53-1.65-1.53a3.68,3.68,0,0,0-2.3.85l-.92-1.07a5.45,5.45,0,0,1,3.65-1.31c3.48,0,3.13,2.52,3,3.67l-.66,4.69h-1.83Zm.24-2.53h-.42c-1.12,0-3.07.08-3.24,1.26-.11.75.61,1.07,1.28,1.07a2.09,2.09,0,0,0,2.32-1.87Z"/><path class="cls-3" d="M215.33,498.15h2l-.18,1.29h0a3.07,3.07,0,0,1,2.63-1.5,2.45,2.45,0,0,1,.71.12l-.28,2a3.84,3.84,0,0,0-1-.15,2.43,2.43,0,0,0-2.48,2.06l-.62,4.37h-2Z"/><path class="cls-3" d="M222.59,502.95a1.79,1.79,0,0,0,1.92,1.94,3.14,3.14,0,0,0,2.35-1.11l1.31,1.11a4.93,4.93,0,0,1-3.68,1.63,3.6,3.6,0,0,1-3.83-4.28,5,5,0,0,1,5-4.28c2.28,0,3.6,1.6,3.2,4.44l-.08.56Zm4.4-1.53a1.61,1.61,0,0,0-1.8-1.94,2.41,2.41,0,0,0-2.38,1.94Z"/><path class="cls-3" d="M231.39,498.15h1.94l-.18,1.31h0a3,3,0,0,1,2.71-1.51c2.19,0,2.76,1.55,2.52,3.21l-.73,5.15h-2l.58-4.13c.13-.9.27-2.4-1.16-2.4a2.16,2.16,0,0,0-2.16,2.07l-.63,4.45h-2Z"/><path class="cls-3" d="M242.11,502.95a1.79,1.79,0,0,0,1.92,1.94,3.14,3.14,0,0,0,2.35-1.11l1.31,1.11a4.93,4.93,0,0,1-3.68,1.63,3.6,3.6,0,0,1-3.83-4.28,5,5,0,0,1,5-4.28c2.28,0,3.6,1.6,3.2,4.44l-.08.56Zm4.4-1.53a1.61,1.61,0,0,0-1.8-1.94,2.41,2.41,0,0,0-2.38,1.94Z"/><path class="cls-3" d="M254.94,500.41a1.58,1.58,0,0,0-1.48-.83c-.54,0-1.23.25-1.31.87-.21,1.46,4.36.27,3.92,3.45-.27,1.94-2.22,2.62-3.89,2.62a3.48,3.48,0,0,1-3-1.26l1.54-1.28a2.12,2.12,0,0,0,1.8,1c.6,0,1.4-.29,1.49-.93.24-1.68-4.35-.36-3.91-3.47.26-1.82,2-2.63,3.65-2.63a3.05,3.05,0,0,1,2.73,1.24Z"/><path class="cls-3" d="M262.49,500.41a1.58,1.58,0,0,0-1.48-.83c-.54,0-1.23.25-1.31.87-.21,1.46,4.36.27,3.92,3.45-.27,1.94-2.22,2.62-3.89,2.62a3.48,3.48,0,0,1-3-1.26l1.54-1.28a2.12,2.12,0,0,0,1.8,1c.6,0,1.4-.29,1.49-.93.24-1.68-4.35-.36-3.91-3.47.26-1.82,2-2.63,3.65-2.63a3.05,3.05,0,0,1,2.73,1.24Z"/><path class="cls-3" d="M96.61,525.47l2.2,2.84H96.18l-1.08-1.38a5,5,0,0,1-3.79,1.68c-2.12,0-3.91-1.24-3.58-3.54a4.49,4.49,0,0,1,3.08-3.38,3.44,3.44,0,0,1-1-2.77,3.63,3.63,0,0,1,3.87-3c1.8,0,3.28.88,3,2.86-.21,1.48-1.56,2.5-2.83,3.11L95.49,524l1.63-2h2.4Zm-4.69-2.57c-.87.48-1.79,1-1.94,2.06a1.57,1.57,0,0,0,1.65,1.82A3.81,3.81,0,0,0,94,525.59ZM91.84,519c-.09.63.43,1.26.89,1.75.75-.37,1.77-1,1.89-1.83.09-.65-.44-1.12-1.17-1.12A1.56,1.56,0,0,0,91.84,519Z"/><path class="cls-3" d="M107.12,516.28h4.74c3.16,0,5.85,1.94,5.27,6a7.2,7.2,0,0,1-7.22,6h-4.49Zm2.32,10.1c2.69,0,5-1.16,5.45-4.08s-1.33-4.08-3.95-4.08h-2l-1.15,8.16Z"/><path class="cls-3" d="M119.33,520.15h2l-1.15,8.16h-2Zm1.57-4a1.07,1.07,0,0,1,1.15,1.22,1.49,1.49,0,0,1-1.5,1.22,1.07,1.07,0,0,1-1.12-1.22A1.49,1.49,0,0,1,120.89,516.16Z"/><path class="cls-3" d="M132.11,520.15l-1,7.43c-.42,2.94-2.11,4.81-5.29,4.81a5.13,5.13,0,0,1-3.86-1.34l1.46-1.67a3.4,3.4,0,0,0,2.64,1.17c2,0,2.74-1.12,3-2.74l.08-.59h0a3.84,3.84,0,0,1-2.84,1.19,3.4,3.4,0,0,1-3.47-4.18,4.69,4.69,0,0,1,4.63-4.28,2.69,2.69,0,0,1,2.6,1.43h0l.17-1.22Zm-7.34,4.06a2,2,0,0,0,2.06,2.36,2.71,2.71,0,0,0,2.77-2.4,1.94,1.94,0,0,0-2.08-2.4A2.73,2.73,0,0,0,124.77,524.22Z"/><path class="cls-3" d="M134.46,520.15h2l-1.15,8.16h-2Zm1.57-4a1.07,1.07,0,0,1,1.15,1.22,1.49,1.49,0,0,1-1.5,1.22,1.07,1.07,0,0,1-1.12-1.22A1.49,1.49,0,0,1,136,516.16Z"/><path class="cls-3" d="M137.64,521.89l.24-1.73h1.68l.33-2.36h2l-.33,2.36h2.24l-.24,1.73h-2.24l-.5,3.57c-.12.82.05,1.33,1,1.33a2.32,2.32,0,0,0,1.14-.25l-.24,1.72a4.6,4.6,0,0,1-1.65.27c-2.16,0-2.53-1-2.26-2.89l.53-3.74Z"/><path class="cls-3" d="M149.56,527.19h-.05a3.42,3.42,0,0,1-2.8,1.33c-1.51,0-2.86-.83-2.63-2.45.37-2.65,3.49-2.84,5.53-2.84h.51l0-.22c.14-1-.57-1.53-1.65-1.53a3.68,3.68,0,0,0-2.3.85l-.92-1.07a5.45,5.45,0,0,1,3.65-1.31c3.48,0,3.13,2.52,3,3.67l-.66,4.69H149.4Zm.24-2.53h-.42c-1.12,0-3.07.08-3.24,1.26-.11.75.61,1.07,1.28,1.07a2.09,2.09,0,0,0,2.32-1.87Z"/><path class="cls-3" d="M155.28,515.46h2l-1.81,12.85h-2Z"/><path class="cls-3" d="M65.39,505.6a6.43,6.43,0,1,1,6.43-6.43A6.44,6.44,0,0,1,65.39,505.6Zm4.18-6.81L68.8,498l-3-3a.55.55,0,0,0-.75,0l-.76.76a.55.55,0,0,0,0,.75l1.58,1.58H61.63a.54.54,0,0,0-.54.54v1.07a.54.54,0,0,0,.54.54h4.21l-1.58,1.58a.53.53,0,0,0,0,.75l.76.76a.55.55,0,0,0,.75,0l3-3,.76-.76a.55.55,0,0,0,0-.75Z"/><path class="cls-3" d="M89.49,546.54h4.69c1.82,0,3.57.83,3.26,3A3.21,3.21,0,0,1,95,552.2v0a2.43,2.43,0,0,1,2.19,2.91c-.37,2.62-2.76,3.43-5,3.43H87.8Zm.7,10.2h2c1.11,0,2.66-.19,2.88-1.77.18-1.26-.58-1.7-2.31-1.7H90.69Zm.75-5.3h2c1.43,0,2.23-.61,2.36-1.51s-.5-1.55-2.11-1.55H91.38Z"/><path class="cls-3" d="M106.07,558.57h-1.94l.18-1.31h0a3,3,0,0,1-2.71,1.51c-2.19,0-2.76-1.55-2.52-3.21l.73-5.15h2l-.58,4.13c-.13.9-.27,2.4,1.16,2.4a2.16,2.16,0,0,0,2.16-2.07l.63-4.45h2Z"/><path class="cls-3" d="M113.57,552.67a1.58,1.58,0,0,0-1.48-.83c-.54,0-1.23.25-1.31.87-.21,1.46,4.36.27,3.92,3.45-.27,1.94-2.22,2.62-3.89,2.62a3.48,3.48,0,0,1-3-1.26l1.54-1.28a2.12,2.12,0,0,0,1.8,1c.6,0,1.4-.29,1.49-.93.24-1.68-4.35-.36-3.91-3.47.26-1.82,2-2.63,3.65-2.63a3.05,3.05,0,0,1,2.73,1.24Z"/><path class="cls-3" d="M117.12,550.41h2L118,558.57h-2Zm1.57-4a1.07,1.07,0,0,1,1.15,1.22,1.49,1.49,0,0,1-1.5,1.22,1.07,1.07,0,0,1-1.12-1.22A1.49,1.49,0,0,1,118.68,546.42Z"/><path class="cls-3" d="M121.5,550.41h1.94l-.18,1.31h0a3,3,0,0,1,2.71-1.51c2.19,0,2.76,1.55,2.52,3.21l-.73,5.15h-2l.58-4.13c.13-.9.27-2.4-1.16-2.4a2.16,2.16,0,0,0-2.16,2.07l-.63,4.45h-2Z"/><path class="cls-3" d="M132.22,555.2a1.79,1.79,0,0,0,1.92,1.94,3.14,3.14,0,0,0,2.35-1.11l1.31,1.11a4.93,4.93,0,0,1-3.68,1.63,3.6,3.6,0,0,1-3.83-4.28,5,5,0,0,1,5-4.28c2.28,0,3.6,1.6,3.2,4.44l-.08.56Zm4.4-1.53a1.61,1.61,0,0,0-1.8-1.94,2.41,2.41,0,0,0-2.38,1.94Z"/><path class="cls-3" d="M145.05,552.67a1.58,1.58,0,0,0-1.48-.83c-.54,0-1.23.25-1.31.87-.21,1.46,4.36.27,3.92,3.45-.27,1.94-2.22,2.62-3.89,2.62a3.48,3.48,0,0,1-3-1.26l1.54-1.28a2.12,2.12,0,0,0,1.8,1c.6,0,1.4-.29,1.49-.93.24-1.68-4.35-.36-3.91-3.47.26-1.82,2-2.63,3.65-2.63a3.05,3.05,0,0,1,2.73,1.24Z"/><path class="cls-3" d="M152.6,552.67a1.58,1.58,0,0,0-1.48-.83c-.54,0-1.23.25-1.31.87-.21,1.46,4.36.27,3.92,3.45-.27,1.94-2.22,2.62-3.89,2.62a3.48,3.48,0,0,1-3-1.26l1.54-1.28a2.12,2.12,0,0,0,1.8,1c.6,0,1.4-.29,1.49-.93.24-1.68-4.35-.36-3.91-3.47.26-1.82,2-2.63,3.65-2.63a3.05,3.05,0,0,1,2.73,1.24Z"/><path class="cls-3" d="M161.88,546.54h4.74c3.16,0,5.85,1.94,5.27,6a7.2,7.2,0,0,1-7.22,6h-4.49Zm2.32,10.1c2.69,0,5-1.16,5.45-4.08s-1.33-4.08-3.95-4.08h-2l-1.15,8.16Z"/><path class="cls-3" d="M175,555.2a1.79,1.79,0,0,0,1.92,1.94,3.14,3.14,0,0,0,2.35-1.11l1.31,1.11a4.93,4.93,0,0,1-3.68,1.63,3.6,3.6,0,0,1-3.83-4.28,5,5,0,0,1,5-4.28c2.28,0,3.6,1.6,3.2,4.44l-.08.56Zm4.4-1.53a1.61,1.61,0,0,0-1.8-1.94,2.41,2.41,0,0,0-2.38,1.94Z"/><path class="cls-3" d="M182.7,550.41h2.23l1.37,5.71h0l3-5.71h2.09l-4.36,8.16h-2.18Z"/><path class="cls-3" d="M193.58,555.2a1.79,1.79,0,0,0,1.92,1.94,3.14,3.14,0,0,0,2.35-1.11l1.31,1.11a4.93,4.93,0,0,1-3.68,1.63,3.6,3.6,0,0,1-3.83-4.28,5,5,0,0,1,5-4.28c2.28,0,3.6,1.6,3.2,4.44l-.08.56Zm4.4-1.53a1.61,1.61,0,0,0-1.8-1.94,2.41,2.41,0,0,0-2.38,1.94Z"/><path class="cls-3" d="M203.08,545.72h2l-1.81,12.85h-2Z"/><path class="cls-3" d="M210.86,550.21a3.6,3.6,0,0,1,3.83,4.28,5,5,0,0,1-5,4.28,3.6,3.6,0,0,1-3.83-4.28A5,5,0,0,1,210.86,550.21Zm-.95,6.73a2.81,2.81,0,0,0,2.74-2.45A2,2,0,0,0,210.6,552a2.81,2.81,0,0,0-2.74,2.45A2,2,0,0,0,209.91,556.94Z"/><path class="cls-3" d="M217.18,550.41h1.94l-.17,1.22h0a3.67,3.67,0,0,1,3-1.43c2.52,0,3.76,1.87,3.42,4.28a4.75,4.75,0,0,1-4.55,4.28,2.87,2.87,0,0,1-2.6-1.24h-.05l-.69,4.91h-2Zm4.14,1.63a2.8,2.8,0,0,0-2.74,2.45,2,2,0,0,0,2.05,2.45,2.81,2.81,0,0,0,2.74-2.45A2,2,0,0,0,221.31,552Z"/><path class="cls-3" d="M227.8,550.41h1.94l-.18,1.27h0a3.06,3.06,0,0,1,2.71-1.48,2.12,2.12,0,0,1,2.34,1.51,3.33,3.33,0,0,1,2.9-1.51c2.18,0,2.72,1.55,2.45,3.5l-.68,4.86h-2l.65-4.62c.14-1,0-1.9-1.24-1.9a2.16,2.16,0,0,0-2,2.11l-.62,4.42h-2l.69-4.86c.14-1-.17-1.67-1.16-1.67a2.16,2.16,0,0,0-2.16,2.07l-.63,4.45h-2Z"/><path class="cls-3" d="M243.63,555.2a1.79,1.79,0,0,0,1.92,1.94A3.14,3.14,0,0,0,247.9,556l1.31,1.11a4.93,4.93,0,0,1-3.68,1.63,3.6,3.6,0,0,1-3.83-4.28,5,5,0,0,1,5-4.28c2.28,0,3.6,1.6,3.2,4.44l-.08.56Zm4.4-1.53a1.61,1.61,0,0,0-1.8-1.94,2.41,2.41,0,0,0-2.38,1.94Z"/><path class="cls-3" d="M252.43,550.41h1.94l-.18,1.31h0a3,3,0,0,1,2.71-1.51c2.19,0,2.76,1.55,2.52,3.21l-.73,5.15h-2l.58-4.13c.13-.9.27-2.4-1.16-2.4a2.16,2.16,0,0,0-2.16,2.07l-.63,4.45h-2Z"/><path class="cls-3" d="M261,552.14l.24-1.73h1.68l.33-2.36h2l-.33,2.36h2.24l-.24,1.73h-2.24l-.5,3.57c-.12.82.05,1.33,1,1.33a2.32,2.32,0,0,0,1.14-.25l-.24,1.72a4.6,4.6,0,0,1-1.65.27c-2.16,0-2.53-1-2.26-2.89l.53-3.74Z"/><path class="cls-3" d="M267.64,559.39l-1.34-.51,7.16-13.19,1.33.54Z"/><path class="cls-3" d="M89.49,568.54h4.18c2.31,0,4.38.75,4,3.45a3.68,3.68,0,0,1-3.25,3.26l2.45,5.32H94.29l-2.07-5.1H90.66l-.72,5.1H87.8Zm3.09,5.1c1.21,0,2.63-.1,2.85-1.67s-1.1-1.6-2.21-1.6H91.38l-.46,3.26Z"/><path class="cls-3" d="M100.43,577.2a1.79,1.79,0,0,0,1.92,1.94,3.14,3.14,0,0,0,2.35-1.11l1.31,1.11a4.93,4.93,0,0,1-3.68,1.63,3.6,3.6,0,0,1-3.83-4.28,5,5,0,0,1,5-4.28c2.28,0,3.6,1.6,3.2,4.44l-.08.56Zm4.4-1.53a1.61,1.61,0,0,0-1.8-1.94,2.41,2.41,0,0,0-2.38,1.94Z"/><path class="cls-3" d="M109.92,567.72h2l-1.81,12.85h-2Z"/><path class="cls-3" d="M117.76,579.45h-.05a3.42,3.42,0,0,1-2.8,1.33c-1.51,0-2.86-.83-2.63-2.45.37-2.65,3.49-2.84,5.53-2.84h.51l0-.22c.14-1-.57-1.53-1.65-1.53a3.68,3.68,0,0,0-2.3.85l-.92-1.07a5.45,5.45,0,0,1,3.65-1.31c3.48,0,3.13,2.52,3,3.67l-.66,4.69H117.6Zm.24-2.53h-.42c-1.12,0-3.07.08-3.24,1.26-.11.75.61,1.07,1.28,1.07a2.09,2.09,0,0,0,2.32-1.87Z"/><path class="cls-3" d="M121.58,574.14l.24-1.73h1.68l.33-2.36h2l-.33,2.36h2.24l-.24,1.73H125.3l-.5,3.57c-.12.82.05,1.33,1,1.33a2.32,2.32,0,0,0,1.14-.25l-.24,1.72a4.6,4.6,0,0,1-1.65.27c-2.16,0-2.53-1-2.26-2.89l.53-3.74Z"/><path class="cls-3" d="M129.42,572.41h2l-1.15,8.16h-2Zm1.57-4a1.07,1.07,0,0,1,1.15,1.22,1.49,1.49,0,0,1-1.5,1.22,1.07,1.07,0,0,1-1.12-1.22A1.49,1.49,0,0,1,131,568.42Z"/><path class="cls-3" d="M137.87,572.21a3.6,3.6,0,0,1,3.83,4.28,5,5,0,0,1-5,4.28,3.6,3.6,0,0,1-3.83-4.28A5,5,0,0,1,137.87,572.21Zm-.95,6.73a2.81,2.81,0,0,0,2.74-2.45,2,2,0,0,0-2.05-2.45,2.81,2.81,0,0,0-2.74,2.45A2,2,0,0,0,136.92,578.94Z"/><path class="cls-3" d="M144.18,572.41h1.94l-.18,1.31h0a3,3,0,0,1,2.71-1.51c2.19,0,2.76,1.55,2.52,3.21l-.73,5.15h-2l.58-4.13c.13-.9.27-2.4-1.16-2.4a2.16,2.16,0,0,0-2.16,2.07l-.63,4.45h-2Z"/><path class="cls-3" d="M158,574.67a1.58,1.58,0,0,0-1.48-.83c-.54,0-1.23.25-1.31.87-.21,1.46,4.36.27,3.92,3.45-.27,1.94-2.22,2.62-3.89,2.62a3.48,3.48,0,0,1-3-1.26l1.54-1.28a2.12,2.12,0,0,0,1.8,1c.6,0,1.4-.29,1.49-.93.24-1.68-4.35-.36-3.91-3.47.26-1.82,2-2.63,3.65-2.63a3.05,3.05,0,0,1,2.73,1.24Z"/><path class="cls-3" d="M163.36,573.55h0a3,3,0,0,1,2.59-1.34c2.19,0,2.76,1.55,2.52,3.21l-.73,5.15h-2l.58-4.13c.13-.9.27-2.4-1.16-2.4a2.16,2.16,0,0,0-2.16,2.07l-.63,4.45h-2l1.81-12.85h2Z"/><path class="cls-3" d="M171.28,572.41h2l-1.15,8.16h-2Zm1.57-4a1.07,1.07,0,0,1,1.15,1.22,1.49,1.49,0,0,1-1.5,1.22,1.07,1.07,0,0,1-1.12-1.22A1.49,1.49,0,0,1,172.84,568.42Z"/><path class="cls-3" d="M175.66,572.41h1.94l-.17,1.22h0a3.66,3.66,0,0,1,3-1.43c2.52,0,3.76,1.87,3.42,4.28a4.75,4.75,0,0,1-4.55,4.28,2.87,2.87,0,0,1-2.6-1.24h-.05l-.69,4.91h-2ZM179.8,574a2.81,2.81,0,0,0-2.74,2.45,2,2,0,0,0,2.05,2.45,2.81,2.81,0,0,0,2.74-2.45A2,2,0,0,0,179.8,574Z"/><path class="cls-3" d="M192.19,568.54h3.26l2,8.43,4.43-8.43h3.23l-1.7,12h-2l1.41-10h0l-5.06,10h-1.5l-2.25-10h0l-1.41,10h-2Z"/><path class="cls-3" d="M211.25,579.45h-.05a3.42,3.42,0,0,1-2.8,1.33c-1.51,0-2.86-.83-2.63-2.45.37-2.65,3.49-2.84,5.53-2.84h.51l0-.22c.14-1-.57-1.53-1.65-1.53a3.68,3.68,0,0,0-2.3.85l-.92-1.07a5.45,5.45,0,0,1,3.65-1.31c3.48,0,3.13,2.52,3,3.67l-.66,4.69H211.1Zm.24-2.53h-.42c-1.12,0-3.07.08-3.24,1.26-.11.75.61,1.07,1.28,1.07a2.09,2.09,0,0,0,2.32-1.87Z"/><path class="cls-3" d="M216.27,572.41h2l-.18,1.29h0a3.07,3.07,0,0,1,2.63-1.5,2.45,2.45,0,0,1,.71.12l-.28,2a3.84,3.84,0,0,0-1-.15,2.43,2.43,0,0,0-2.48,2.06l-.62,4.37h-2Z"/><path class="cls-3" d="M223.55,567.72h2l-1.14,8.07,3.62-3.38h2.62l-4,3.71,3.09,4.45h-2.7l-2.66-4.17h0l-.59,4.17h-2Z"/><path class="cls-3" d="M233,577.2a1.79,1.79,0,0,0,1.92,1.94,3.14,3.14,0,0,0,2.35-1.11l1.31,1.11a4.93,4.93,0,0,1-3.68,1.63,3.6,3.6,0,0,1-3.83-4.28,5,5,0,0,1,5-4.28c2.28,0,3.6,1.6,3.2,4.44l-.08.56Zm4.4-1.53a1.61,1.61,0,0,0-1.8-1.94,2.41,2.41,0,0,0-2.38,1.94Z"/><path class="cls-3" d="M240.58,574.14l.24-1.73h1.68l.33-2.36h2l-.33,2.36h2.24l-.24,1.73H244.3l-.5,3.57c-.12.82.05,1.33,1,1.33a2.32,2.32,0,0,0,1.14-.25l-.24,1.72a4.6,4.6,0,0,1-1.65.27c-2.16,0-2.53-1-2.26-2.89l.53-3.74Z"/><path class="cls-3" d="M248.42,572.41h2l-1.15,8.16h-2Zm1.57-4a1.07,1.07,0,0,1,1.15,1.22,1.49,1.49,0,0,1-1.5,1.22,1.07,1.07,0,0,1-1.12-1.22A1.49,1.49,0,0,1,250,568.42Z"/><path class="cls-3" d="M252.81,572.41h1.94l-.18,1.31h0a3,3,0,0,1,2.71-1.51c2.19,0,2.76,1.55,2.52,3.21l-.73,5.15h-2l.58-4.13c.13-.9.27-2.4-1.16-2.4a2.16,2.16,0,0,0-2.16,2.07l-.63,4.45h-2Z"/><path class="cls-3" d="M271,572.41l-1,7.43c-.42,2.94-2.11,4.81-5.29,4.81a5.13,5.13,0,0,1-3.86-1.34l1.46-1.67a3.4,3.4,0,0,0,2.64,1.17c2,0,2.74-1.12,3-2.74l.08-.59h0a3.84,3.84,0,0,1-2.84,1.19,3.4,3.4,0,0,1-3.47-4.18,4.69,4.69,0,0,1,4.63-4.28,2.69,2.69,0,0,1,2.6,1.43h0l.17-1.22Zm-7.34,4.06a2,2,0,0,0,2.06,2.36,2.71,2.71,0,0,0,2.77-2.4,1.94,1.94,0,0,0-2.08-2.4A2.73,2.73,0,0,0,263.62,576.47Z"/><path class="cls-3" d="M65.39,557.86a6.43,6.43,0,1,1,6.43-6.43A6.44,6.44,0,0,1,65.39,557.86ZM69.57,551l-.76-.76-3-3a.55.55,0,0,0-.75,0l-.76.76a.55.55,0,0,0,0,.75l1.58,1.58H61.63a.54.54,0,0,0-.54.54V552a.54.54,0,0,0,.54.54h4.21l-1.58,1.58a.53.53,0,0,0,0,.75l.76.76a.55.55,0,0,0,.75,0l3-3,.76-.76a.55.55,0,0,0,0-.75Z"/><path class="cls-3" d="M89.49,598.79h2.14l-1.42,10.1h5.12l-.27,1.94H87.8Z"/><path class="cls-3" d="M98.54,607.46a1.79,1.79,0,0,0,1.92,1.94,3.14,3.14,0,0,0,2.35-1.11l1.31,1.11a4.93,4.93,0,0,1-3.68,1.63,3.6,3.6,0,0,1-3.83-4.28,5,5,0,0,1,5-4.28c2.28,0,3.6,1.6,3.2,4.44l-.08.56Zm4.4-1.53a1.61,1.61,0,0,0-1.8-1.94,2.41,2.41,0,0,0-2.38,1.94Z"/><path class="cls-3" d="M111.45,609.71h-.05a3.42,3.42,0,0,1-2.8,1.33c-1.51,0-2.86-.83-2.63-2.45.37-2.65,3.49-2.84,5.53-2.84H112l0-.22c.14-1-.57-1.53-1.65-1.53a3.68,3.68,0,0,0-2.3.85l-.92-1.07a5.45,5.45,0,0,1,3.65-1.31c3.48,0,3.13,2.52,3,3.67l-.66,4.69h-1.83Zm.24-2.53h-.42c-1.12,0-3.07.08-3.24,1.26-.11.75.61,1.07,1.28,1.07a2.09,2.09,0,0,0,2.32-1.87Z"/><path class="cls-3" d="M122,609.6h0a3.67,3.67,0,0,1-3,1.43c-2.52,0-3.77-1.87-3.42-4.28a4.75,4.75,0,0,1,4.55-4.28,2.87,2.87,0,0,1,2.6,1.24h.05l.81-5.73h2l-1.81,12.85h-1.94Zm-2.37-.41a2.81,2.81,0,0,0,2.74-2.45,2,2,0,0,0-2.05-2.45,2.81,2.81,0,0,0-2.74,2.45A2,2,0,0,0,119.58,609.2Z"/><path class="cls-3" d="M142.06,609.94a11.44,11.44,0,0,1-5.15,1.19c-3.71,0-6-2.52-5.47-6.27a7.17,7.17,0,0,1,7.26-6.37,6.09,6.09,0,0,1,4.53,1.51l-1.81,1.6a4,4,0,0,0-3-1.17,4.85,4.85,0,0,0-4.74,4.3c-.36,2.57,1,4.47,3.5,4.47a6.31,6.31,0,0,0,2.91-.63l.4-2.84h-2.46l.27-1.94h4.61Z"/><path class="cls-3" d="M146.39,607.46a1.79,1.79,0,0,0,1.92,1.94,3.14,3.14,0,0,0,2.35-1.11L152,609.4a4.93,4.93,0,0,1-3.68,1.63,3.6,3.6,0,0,1-3.83-4.28,5,5,0,0,1,5-4.28c2.28,0,3.6,1.6,3.2,4.44l-.08.56Zm4.4-1.53A1.61,1.61,0,0,0,149,604a2.41,2.41,0,0,0-2.38,1.94Z"/><path class="cls-3" d="M155.19,602.67h1.94l-.18,1.31h0a3,3,0,0,1,2.71-1.51c2.19,0,2.76,1.55,2.52,3.21l-.73,5.15h-2l.58-4.13c.13-.9.27-2.4-1.16-2.4a2.16,2.16,0,0,0-2.16,2.07l-.63,4.45h-2Z"/><path class="cls-3" d="M165.91,607.46a1.79,1.79,0,0,0,1.92,1.94,3.14,3.14,0,0,0,2.35-1.11l1.31,1.11A4.93,4.93,0,0,1,167.8,611a3.6,3.6,0,0,1-3.83-4.28,5,5,0,0,1,5-4.28c2.28,0,3.6,1.6,3.2,4.44l-.08.56Zm4.4-1.53a1.61,1.61,0,0,0-1.8-1.94,2.41,2.41,0,0,0-2.38,1.94Z"/><path class="cls-3" d="M174.71,602.67h2l-.18,1.29h0a3.07,3.07,0,0,1,2.63-1.5,2.45,2.45,0,0,1,.71.12l-.28,2a3.84,3.84,0,0,0-1-.15,2.43,2.43,0,0,0-2.48,2.06l-.62,4.37h-2Z"/><path class="cls-3" d="M185.43,609.71h-.05a3.42,3.42,0,0,1-2.8,1.33c-1.51,0-2.86-.83-2.63-2.45.37-2.65,3.49-2.84,5.53-2.84H186l0-.22c.14-1-.57-1.53-1.65-1.53a3.68,3.68,0,0,0-2.3.85l-.92-1.07a5.45,5.45,0,0,1,3.65-1.31c3.48,0,3.13,2.52,3,3.67l-.66,4.69h-1.83Zm.24-2.53h-.42c-1.12,0-3.07.08-3.24,1.26-.11.75.61,1.07,1.28,1.07a2.09,2.09,0,0,0,2.32-1.87Z"/><path class="cls-3" d="M189.26,604.4l.24-1.73h1.68l.33-2.36h2l-.33,2.36h2.24l-.24,1.73H193l-.5,3.57c-.12.82.05,1.33,1,1.33a2.32,2.32,0,0,0,1.14-.25l-.24,1.72a4.6,4.6,0,0,1-1.65.27c-2.16,0-2.53-1-2.26-2.89l.53-3.74Z"/><path class="cls-3" d="M197.1,602.67h2L198,610.83h-2Zm1.57-4a1.07,1.07,0,0,1,1.15,1.22,1.49,1.49,0,0,1-1.5,1.22,1.07,1.07,0,0,1-1.12-1.22A1.49,1.49,0,0,1,198.67,598.67Z"/><path class="cls-3" d="M205.54,602.46a3.6,3.6,0,0,1,3.83,4.28,5,5,0,0,1-5,4.28,3.6,3.6,0,0,1-3.83-4.28A5,5,0,0,1,205.54,602.46Zm-.95,6.73a2.81,2.81,0,0,0,2.74-2.45,2,2,0,0,0-2.05-2.45,2.81,2.81,0,0,0-2.74,2.45A2,2,0,0,0,204.59,609.2Z"/><path class="cls-3" d="M211.85,602.67h1.94l-.18,1.31h0a3,3,0,0,1,2.71-1.51c2.19,0,2.76,1.55,2.52,3.21l-.73,5.15h-2l.58-4.13c.13-.9.27-2.4-1.16-2.4a2.16,2.16,0,0,0-2.16,2.07l-.63,4.45h-2Z"/><path class="cls-3" d="M96.61,630l2.2,2.84H96.18l-1.08-1.38a5,5,0,0,1-3.79,1.68c-2.12,0-3.91-1.24-3.58-3.54a4.49,4.49,0,0,1,3.08-3.38,3.44,3.44,0,0,1-1-2.77,3.63,3.63,0,0,1,3.87-3c1.8,0,3.28.88,3,2.86-.21,1.48-1.56,2.5-2.83,3.11l1.64,2.09,1.63-2h2.4Zm-4.69-2.57c-.87.48-1.79,1-1.94,2.06a1.57,1.57,0,0,0,1.65,1.82A3.81,3.81,0,0,0,94,630.11Zm-.08-3.89c-.09.63.43,1.26.89,1.75.75-.37,1.77-1,1.89-1.83.09-.65-.44-1.12-1.17-1.12A1.56,1.56,0,0,0,91.84,623.53Z"/><path class="cls-3" d="M118.34,632.83h-7c-3.74,0-6.23-2.36-5.68-6.27a7.27,7.27,0,0,1,7.18-6.07c3.43,0,6,2.53,5.47,6.07a5.87,5.87,0,0,1-3.17,4.5v0h3.45Zm-10.44-6.22c-.35,2.46,1.11,4.28,3.46,4.28a4.82,4.82,0,0,0,4.7-4.28,3.42,3.42,0,0,0-3.54-4.18A4.74,4.74,0,0,0,107.9,626.61Z"/><path class="cls-3" d="M127.17,632.83h-1.94l.18-1.31h0a3,3,0,0,1-2.71,1.51c-2.19,0-2.76-1.55-2.52-3.21l.73-5.15h2l-.58,4.13c-.13.9-.27,2.4,1.16,2.4a2.16,2.16,0,0,0,2.16-2.07l.63-4.45h2Z"/><path class="cls-3" d="M134.74,631.71h-.05a3.42,3.42,0,0,1-2.8,1.33c-1.51,0-2.86-.83-2.63-2.45.37-2.65,3.49-2.84,5.53-2.84h.51l0-.22c.14-1-.57-1.53-1.65-1.53a3.68,3.68,0,0,0-2.3.85l-.92-1.07a5.45,5.45,0,0,1,3.65-1.31c3.48,0,3.13,2.52,3,3.67l-.66,4.69h-1.83Zm.24-2.53h-.42c-1.12,0-3.07.08-3.24,1.26-.11.75.61,1.07,1.28,1.07a2.09,2.09,0,0,0,2.32-1.87Z"/><path class="cls-3" d="M140.45,620h2l-1.81,12.85h-2Z"/><path class="cls-3" d="M144.21,624.67h2l-1.15,8.16h-2Zm1.57-4a1.07,1.07,0,0,1,1.15,1.22,1.49,1.49,0,0,1-1.5,1.22,1.07,1.07,0,0,1-1.12-1.22A1.49,1.49,0,0,1,145.78,620.67Z"/><path class="cls-3" d="M149.09,626.4H147.4l.24-1.73h1.68l.16-1.16c.32-2.26,1-3.74,3.57-3.74a6.29,6.29,0,0,1,1.28.12l-.38,1.73a3.43,3.43,0,0,0-.83-.12c-1.14,0-1.42.78-1.55,1.68l-.21,1.48h1.89L153,626.4h-1.89l-.91,6.43h-2Z"/><path class="cls-3" d="M154.62,624.67h2l-1.15,8.16h-2Zm1.57-4a1.07,1.07,0,0,1,1.15,1.22,1.49,1.49,0,0,1-1.5,1.22,1.07,1.07,0,0,1-1.12-1.22A1.49,1.49,0,0,1,156.18,620.67Z"/><path class="cls-3" d="M164.23,627.12a1.91,1.91,0,0,0-1.43-.82,2.81,2.81,0,0,0-2.74,2.45,2,2,0,0,0,2.05,2.45,2.28,2.28,0,0,0,1.69-.77l1.15,1.46a5.26,5.26,0,0,1-3.1,1.14,3.6,3.6,0,0,1-3.83-4.28,5,5,0,0,1,5-4.28,3.45,3.45,0,0,1,2.78,1.24Z"/><path class="cls-3" d="M171.3,631.71h-.05a3.42,3.42,0,0,1-2.8,1.33c-1.51,0-2.86-.83-2.63-2.45.37-2.65,3.49-2.84,5.53-2.84h.51l0-.22c.14-1-.57-1.53-1.65-1.53a3.68,3.68,0,0,0-2.3.85l-.92-1.07a5.45,5.45,0,0,1,3.65-1.31c3.48,0,3.13,2.52,3,3.67l-.66,4.69h-1.83Zm.24-2.53h-.42c-1.12,0-3.07.08-3.24,1.26-.11.75.61,1.07,1.28,1.07a2.09,2.09,0,0,0,2.32-1.87Z"/><path class="cls-3" d="M175.13,626.4l.24-1.73h1.68l.33-2.36h2l-.33,2.36h2.24l-.24,1.73h-2.24l-.5,3.57c-.12.82.05,1.33,1,1.33a2.32,2.32,0,0,0,1.14-.25l-.24,1.72a4.6,4.6,0,0,1-1.65.27c-2.16,0-2.53-1-2.26-2.89l.53-3.74Z"/><path class="cls-3" d="M183,624.67h2l-1.15,8.16h-2Zm1.57-4a1.07,1.07,0,0,1,1.15,1.22,1.49,1.49,0,0,1-1.5,1.22,1.07,1.07,0,0,1-1.12-1.22A1.49,1.49,0,0,1,184.54,620.67Z"/><path class="cls-3" d="M191.42,624.46a3.6,3.6,0,0,1,3.83,4.28,5,5,0,0,1-5,4.28,3.6,3.6,0,0,1-3.83-4.28A5,5,0,0,1,191.42,624.46Zm-.95,6.73a2.81,2.81,0,0,0,2.74-2.45,2,2,0,0,0-2.05-2.45,2.81,2.81,0,0,0-2.74,2.45A2,2,0,0,0,190.47,631.2Z"/><path class="cls-3" d="M197.73,624.67h1.94l-.18,1.31h0a3,3,0,0,1,2.71-1.51c2.19,0,2.76,1.55,2.52,3.21l-.73,5.15h-2l.58-4.13c.13-.9.27-2.4-1.16-2.4a2.16,2.16,0,0,0-2.16,2.07l-.63,4.45h-2Z"/><path class="cls-3" d="M65.39,610.12a6.43,6.43,0,1,1,6.43-6.43A6.44,6.44,0,0,1,65.39,610.12Zm4.18-6.81-.76-.76-3-3a.55.55,0,0,0-.75,0l-.76.76a.55.55,0,0,0,0,.75l1.58,1.58H61.63a.54.54,0,0,0-.54.54v1.07a.54.54,0,0,0,.54.54h4.21l-1.58,1.58a.53.53,0,0,0,0,.75l.76.76a.55.55,0,0,0,.75,0l3-3,.76-.76a.55.55,0,0,0,0-.75Z"/><line class="cls-4" x1="59.59" y1="463.24" x2="293.46" y2="463.24"/></svg>