<svg xmlns="http://www.w3.org/2000/svg" viewBox="-5693.264 -7898.5 267.584 267.6"><defs><style>.a{fill:#eaedf3;}.b{fill:#0d2240;}.c,.d{fill:none;stroke-linecap:round;stroke-linejoin:round;stroke-miterlimit:10;stroke-width:7px;}.c{stroke:#0d2240;}.d{stroke:#7e4082;}</style></defs><g transform="translate(-5692.5 -7898.5)"><circle class="a" cx="128.7" cy="128.7" r="128.7" transform="translate(4.3 10.2)"/><g transform="translate(0 -3)"><path class="b" d="M132.8,63.9c36,0,65.2,27.6,65.2,61.5,0,18.7-13,36.2-23.5,50.3-6.6,8.9-13.4,18.1-13.4,23.3v5.9H104.5V199c0-5.3-6.8-14.5-13.4-23.3-10.5-14.1-23.5-31.6-23.5-50.3,0-33.9,29.3-61.5,65.2-61.5m0-7c-39.8,0-72.2,30.7-72.2,68.5,0,21,13.8,39.6,24.9,54.5,4.1,5.6,11.8,16,12,19.2V205a6.957,6.957,0,0,0,7,7h56.6a6.957,6.957,0,0,0,7-7v-5.9c.2-3.2,7.9-13.6,12-19.2C191.2,165,205,146.4,205,125.4c0-37.8-32.4-68.5-72.2-68.5Z"/></g><line class="c" x2="48.2" transform="translate(108.7 220.7)"/><line class="c" x2="37.2" transform="translate(114.2 234.3)"/><line class="c" x2="26.8" transform="translate(119.4 247.8)"/><line class="d" y1="25.6" transform="translate(132.8 3.5)"/><line class="d" x1="16.7" y1="19.5" transform="translate(46.2 35.4)"/><line class="d" y1="19.4" x2="16.8" transform="translate(203.1 35.8)"/><line class="d" y1="6" x2="25" transform="translate(237.6 105.7)"/><line class="d" x1="24.8" y1="6.4" transform="translate(3.5 103.9)"/><line class="d" x1="23.4" y2="10.4" transform="translate(11 181)"/><line class="d" x2="23.8" y2="9.4" transform="translate(233 176.8)"/></g></svg>