<svg xmlns="http://www.w3.org/2000/svg" viewBox="-3523 -7050 257.4 257.4"><defs><style>.a{fill:#eaedf3;}.b,.c{fill:none;stroke-linecap:round;stroke-linejoin:round;stroke-miterlimit:10;stroke-width:7px;}.b{stroke:#0d2240;}.c{stroke:#7e4082;}</style></defs><g transform="translate(-3523 -7050)"><circle class="a" cx="128.7" cy="128.7" r="128.7" transform="translate(0 0)"/><path class="b" d="M202,70.3c.4.5,1.1,1.4,1.6,2"/><line class="c" y1="74.8" x2="74.8" transform="translate(128.7 53.9)"/><path class="c" d="M235.1,33.8l-10-1.5-1.4-10-1.5-9.9L200.5,34,202,44l1.5,9.9,9.9,1.5,10,1.5L245,35.2Z"/><path class="b" d="M203.7,72.3c.4.5.7.8.7.8l.9,1.1.1.1,2.9,4.6c.6,1,1.3,2,2,3.1l1.5,3,1.1,2.2c4.5,9.2,7.5,18.5,8.4,26.1l.1.7.1.7a109.059,109.059,0,0,1,0,28q-.9,4.2-1.5,7.2a20.687,20.687,0,0,0-.4,2.2l-1.3,3.9-.1.4-.1.4-1.2,4c-.3.6-.5,1.3-.8,2-.8,1.8-1.8,4-2.8,6.6a111.093,111.093,0,0,1-15.7,23.1,110.546,110.546,0,0,1-22,17.4c-2.5,1.2-4.6,2.3-6.3,3.2-.7.4-1.3.7-1.9,1-2.7,1-4.2,1.6-4.2,1.6l-.3.1-.3.1-3.8,1.5c-.7.2-1.4.4-2.2.6-1.9.5-4.3,1.2-7,2a109.818,109.818,0,0,1-27.9,2l-.7-.1h-.7a67.729,67.729,0,0,1-14.3-2.4,118.208,118.208,0,0,1-12.3-4.1l-2.9-1.2-2.4-1c-1.1-.6-2.2-1.2-3.2-1.8-3.2-1.7-5-2.7-5-2.7h0l-1-.7-3.6-2.5q-1.5-1.05-2.7-1.8l-2.3-1.8a103.18,103.18,0,0,1-19.7-21.3l-.2-.3-.2-.3c-4.4-6.2-8.5-14.9-11.4-24.6L38,151.8l-.5-1.8c0-.2-.1-.3-.1-.5a30.624,30.624,0,0,0-.7-3.7c-.5-2.4-.8-4.2-.9-4.8l-.1-.9-.5-6.3v-.5l-.1-.5c0-.3-.1-.6-.1-.8v-1.5c.1-2.5.1-5.1.1-7.7.4-3,.7-6.1,1-9v-.2l.3-1.4.9-4.1c.2-1.1.5-2.2.7-3.3l1.2-3.7v-.2C42.6,90,47.3,81,50.4,76.9l1.9-2.5,1.3-2.2c.3-.4,1-1.1,1.4-1.7,1.1-1.3,2.5-2.9,4-4.7l1.1-1.3a15.38,15.38,0,0,1,1.3-1.2c1.8-1.6,3.2-3.1,4.4-4.3l1.5-1.5,2.1-1.4L71.8,54c3.8-3.4,12.4-8.7,23.1-12.9l.2-.1.1-.1,3.6-1.4c1.1-.3,2.1-.6,3.2-.9l3.8-1.1,1.6-.5.2-.1c3-.5,6-1.1,8.9-1.6,2.6-.2,5.2-.4,7.6-.6.5,0,1-.1,1.5-.1h1.8l6,.1h1.4l5.1.6c.9.1,2.2.2,3.5.3h.4l2.6.5,3.1.7c1.2.3,2.7.6,4.3,1a79.111,79.111,0,0,1,21,8.5l.3.2.4.2a113.419,113.419,0,0,1,9.9,6.6"/><path class="b" d="M175.1,100.8c.2.3.5.7.7,1l.9,1.7.6,1.3a51.767,51.767,0,0,1,4.9,15.1v.4l.1.4a62.588,62.588,0,0,1,0,16.2c-.4,1.6-.6,3-.9,4.1a6.881,6.881,0,0,0-.2,1.3l-.7,2.3-.1.2-.1.2-.7,2.3a5.36,5.36,0,0,1-.5,1.1c-.4,1-1,2.3-1.6,3.8a69.044,69.044,0,0,1-9.1,13.4,67.437,67.437,0,0,1-12.7,10.1c-1.4.7-2.7,1.4-3.7,1.9a10.906,10.906,0,0,0-1.1.6c-1.5.6-2.4.9-2.4.9l-.2.1-.2.1-2.2.9a9.289,9.289,0,0,0-1.3.4c-1.1.3-2.5.7-4,1.1a65.472,65.472,0,0,1-16.1,1.2h-.8a38.072,38.072,0,0,1-8.2-1.4,49.474,49.474,0,0,1-7.1-2.4l-1.7-.7-1.4-.6a17.379,17.379,0,0,0-1.9-1c-1.8-1-2.9-1.5-2.9-1.5l-.6-.4-2.1-1.4c-.6-.4-1.1-.8-1.6-1.1l-1.3-1a58.705,58.705,0,0,1-11.4-12.3l-.1-.2-.1-.2a49.345,49.345,0,0,1-6.6-14.2l-.6-2.1-.3-1v-.3c-.1-.8-.3-1.5-.4-2.2-.3-1.4-.4-2.4-.5-2.7v-.5l-.3-3.6v-6.4c.2-1.8.4-3.5.6-5.2v-.1l.2-.8.5-2.4c.1-.6.3-1.3.4-1.9l.7-2.1V113c2-6.3,4.7-11.5,6.5-13.8l1.1-1.4.7-1.2a11.486,11.486,0,0,0,.8-1c.7-.7,1.4-1.6,2.3-2.7l.6-.8a4.62,4.62,0,0,0,.7-.7c1-.9,1.8-1.8,2.5-2.5l.9-.9,1.2-.8L95.7,86c2.2-2,7.2-5,13.3-7.5h.2l2.1-.8c.6-.2,1.2-.3,1.8-.5l2.2-.6.9-.3h.1q2.7-.45,5.1-.9c1.5-.1,3-.2,4.4-.4.3,0,.6-.1.9-.1h5.2l3,.3c.5.1,1.3.1,2,.2h.3l1.5.3,1.8.4c.7.2,1.6.4,2.5.6a47.508,47.508,0,0,1,12.1,4.9l.2.1.2.1a5.582,5.582,0,0,1,.8.5"/><path class="b" d="M145.1,131v.2c-.1.5-.2.9-.3,1.3,0,.1-.1.3-.1.4l-.2.7v.2l-.2.7c0,.1-.1.2-.1.3-.1.3-.3.7-.5,1.2a16.64,16.64,0,0,1-6.7,7.2,10.906,10.906,0,0,0-1.1.6c-.1.1-.2.1-.3.2-.5.2-.7.3-.7.3h-.2l-.7.3c-.1,0-.3.1-.4.1-.3.1-.8.2-1.2.3a21.542,21.542,0,0,1-4.9.4h-.2a11.777,11.777,0,0,1-2.5-.4c-.7-.2-1.4-.4-2.2-.7l-.5-.2-.4-.2-.6-.3a9.246,9.246,0,0,1-.9-.5l-.2-.1-.6-.4c-.2-.1-.3-.2-.5-.3l-.4-.3a16.772,16.772,0,0,1-3.5-3.8V138a14.315,14.315,0,0,1-2-4.3l-.2-.6-.1-.3v-.1c0-.2-.1-.5-.1-.7-.1-.4-.1-.7-.2-.8V131l-.1-1.1v-2c.1-.5.1-1.1.2-1.6h0l.1-.2.2-.7c0-.2.1-.4.1-.6a6.373,6.373,0,0,0,.2-.7,13.658,13.658,0,0,1,2-4.2l.3-.4.2-.4.3-.3c.2-.2.4-.5.7-.8l.2-.2.2-.2a6.034,6.034,0,0,0,.8-.8l.3-.3.4-.3.4-.4a17.339,17.339,0,0,1,4.1-2.3h.1l.6-.3a1.421,1.421,0,0,0,.6-.2l.7-.2.3-.1h0l1.5-.3"/></g></svg>