<svg xmlns="http://www.w3.org/2000/svg" viewBox="-5072.5 -7223 297.9 257.4"><defs><style>.a{fill:#eaedf3;}.b{fill:#0d2240;}.c,.d{fill:none;stroke-miterlimit:10;stroke-width:7px;}.c{stroke:#0d2240;}.d{stroke:#7e4082;}.e{fill:#7e4082;}</style></defs><g transform="translate(-5072.6 -7223)"><circle class="a" cx="128.7" cy="128.7" r="128.7" transform="translate(20.3 0)"/><circle class="b" cx="7.5" cy="7.5" r="7.5" transform="translate(59.7 137.8)"/><circle class="b" cx="7.5" cy="7.5" r="7.5" transform="translate(87 137.8)"/><circle class="b" cx="7.5" cy="7.5" r="7.5" transform="translate(114.2 137.8)"/><path class="c" d="M155.4,205.3h-68a14.751,14.751,0,0,0-9.8,3.7L45.7,237.5a3.789,3.789,0,0,1-6.3-2.8l.2-23.4a5.933,5.933,0,0,0-5.9-6h0A30.13,30.13,0,0,1,3.6,175.2V108.5A30.13,30.13,0,0,1,33.7,78.4H155.4a30.13,30.13,0,0,1,30.1,30.1v66.7A30.13,30.13,0,0,1,155.4,205.3Z"/><path class="d" d="M181.5,135.7h50.6a10.913,10.913,0,0,1,7.3,2.8l23.7,21.2a2.836,2.836,0,0,0,4.7-2.1l-.1-17.4a4.375,4.375,0,0,1,4.4-4.4h0a22.363,22.363,0,0,0,22.4-22.4V63.7a22.363,22.363,0,0,0-22.4-22.4H181.6a22.363,22.363,0,0,0-22.4,22.4v49.6A22.278,22.278,0,0,0,181.5,135.7Z"/><circle class="e" cx="6.5" cy="6.5" r="6.5" transform="translate(196.7 82)"/><circle class="e" cx="6.5" cy="6.5" r="6.5" transform="translate(220.3 82)"/><circle class="e" cx="6.5" cy="6.5" r="6.5" transform="translate(243.9 82)"/></g></svg>