<svg xmlns="http://www.w3.org/2000/svg" viewBox="-3757.504 -7223 314.353 257.4"><defs><style>.a{fill:#eaeef4;}.b,.c,.d,.e{fill:none;stroke-miterlimit:10;stroke-width:7px;}.b,.c{stroke:#7e4082;}.b,.e{stroke-linecap:round;}.d,.e{stroke:#0d2240;}</style></defs><g transform="translate(-3757.428 -7223)"><circle class="a" cx="128.7" cy="128.7" r="128.7" transform="translate(28.4 0)"/><line class="b" y2="23" transform="translate(104 194.6)"/><line class="b" y2="23" transform="translate(208 194.6)"/><ellipse class="c" cx="40.5" cy="49.5" rx="40.5" ry="49.5" transform="translate(116.1 39.7)"/><ellipse class="d" cx="29" cy="35" rx="29" ry="35" transform="translate(227.4 65.3)"/><path class="e" d="M274.9,127.2l27.7,17.6a17.52,17.52,0,0,1,8.1,16.3v.4a18.886,18.886,0,0,1-17.9,16.9c-13.6.7-28.3.5-28.3.5"/><line class="d" x1="33.9" y2="21" transform="translate(204.6 128.8)"/><ellipse class="d" cx="29" cy="35" rx="29" ry="35" transform="translate(28.8 65.3)"/><path class="e" d="M39.3,127.2,11.6,144.8a17.52,17.52,0,0,0-8.1,16.3v.4a18.886,18.886,0,0,0,17.9,16.9c13.6.7,28.3.5,28.3.5"/><line class="d" x2="33.9" y2="21" transform="translate(75.6 128.8)"/><path class="b" d="M133.5,130.9c-6.5,16.2-39,23.2-39,23.2C67,162.1,70,191.3,70,191.3v25.3"/><path class="b" d="M242,216.6V191.3s3.4-29.1-24.1-37.2c0,0-33.4-6.3-39.9-22.4"/></g></svg>