<svg xmlns="http://www.w3.org/2000/svg" viewBox="-12743 -9161 412.711 260.771"><defs><style>.a{fill:#e2231a;}.b{fill:#fff;}.c{fill:#7e4082;}.d{fill:none;stroke:#0d2240;stroke-linecap:round;stroke-linejoin:round;stroke-miterlimit:10;stroke-width:5.6px;}.e{fill:#f0f3f5;}.f{fill:#1e988a;}.g{fill:#9a9ead;}.h{fill:#0d2240;}</style></defs><g transform="translate(-12743.025 -9161.432)"><g transform="translate(0.025)"><g transform="translate(0 1.432)"><g transform="translate(17.024 13.158)"><circle class="a" cx="48.094" cy="48.094" r="48.094"/></g><g transform="translate(0 17.278)"><path class="a" d="M65.118,163.972A65.118,65.118,0,0,1,15.6,56.519a4.736,4.736,0,0,1,6.938-.249h0a4.744,4.744,0,0,1,.23,6.445,55.676,55.676,0,0,0,78.491,78.492,4.744,4.744,0,0,1,6.445.23h0a4.736,4.736,0,0,1-.248,6.938A64.966,64.966,0,0,1,65.118,163.972Z" transform="translate(0 -54.879)"/></g><g transform="translate(3.204)"><path class="a" d="M68.871,133.975a1.206,1.206,0,0,1-1.183-1.232h0a1.213,1.213,0,0,1,1.24-1.183h0a1.21,1.21,0,0,1,1.175,1.232h0a1.2,1.2,0,0,1-1.2,1.183h-.032Zm3.244-1.207a1.207,1.207,0,0,1,1.151-1.264h0a1.205,1.205,0,0,1,1.264,1.143h0a1.219,1.219,0,0,1-1.151,1.272h-.056A1.211,1.211,0,0,1,72.115,132.767Zm-7.752.95a1.21,1.21,0,0,1-1.087-1.32h0a1.211,1.211,0,0,1,1.32-1.087h0a1.207,1.207,0,0,1,1.087,1.312h0a1.213,1.213,0,0,1-1.207,1.1h-.113Zm12.171-1.24a1.2,1.2,0,0,1,1.047-1.344h0a1.205,1.205,0,0,1,1.344,1.046h0a1.208,1.208,0,0,1-1.046,1.352h0c-.048,0-.1.008-.145.008h0A1.208,1.208,0,0,1,76.535,132.478Zm-16.64.652a1.21,1.21,0,0,1-.99-1.393h0a1.2,1.2,0,0,1,1.385-.99h0a1.205,1.205,0,0,1,.99,1.393h0a1.2,1.2,0,0,1-1.183,1.006h0A1.566,1.566,0,0,1,59.9,133.13Zm21.019-1.264a1.207,1.207,0,0,1,.95-1.416h0a1.2,1.2,0,0,1,1.417.95h0a1.2,1.2,0,0,1-.95,1.417h0a1.083,1.083,0,0,1-.233.024h0A1.212,1.212,0,0,1,80.914,131.866Zm-25.438.346a1.2,1.2,0,0,1-.886-1.457h0a1.2,1.2,0,0,1,1.457-.886h0a1.209,1.209,0,0,1,.886,1.457h0a1.211,1.211,0,0,1-1.175.926h0A1.129,1.129,0,0,1,55.476,132.212Zm29.769-1.272a1.212,1.212,0,0,1,.845-1.489h0a1.208,1.208,0,0,1,1.481.845h0a1.2,1.2,0,0,1-.845,1.481h0a1.107,1.107,0,0,1-.322.048h0A1.2,1.2,0,0,1,85.245,130.94Zm-34.116.041a1.2,1.2,0,0,1-.773-1.521h0a1.2,1.2,0,0,1,1.521-.773h0a1.194,1.194,0,0,1,.773,1.513h0a1.2,1.2,0,0,1-1.151.837h0A1.181,1.181,0,0,1,51.129,130.98Zm38.358-1.288a1.205,1.205,0,0,1,.732-1.538v-.008a1.212,1.212,0,0,1,1.546.74h0a1.2,1.2,0,0,1-.733,1.537h0a1.217,1.217,0,0,1-.4.073h0A1.22,1.22,0,0,1,89.488,129.692Zm-42.6-.266h0a1.2,1.2,0,0,1-.66-1.57h0a1.2,1.2,0,0,1,1.57-.668h0a1.216,1.216,0,0,1,.668,1.578h0a1.215,1.215,0,0,1-1.127.749h0A1.122,1.122,0,0,1,46.887,129.427Zm46.746-1.28a1.207,1.207,0,0,1,.612-1.594h.008a1.2,1.2,0,0,1,1.585.612h0a1.21,1.21,0,0,1-.619,1.594h0a1.142,1.142,0,0,1-.483.1h0A1.192,1.192,0,0,1,93.633,128.147Zm-50.868-.58a1.2,1.2,0,0,1-.539-1.618h0a1.2,1.2,0,0,1,1.618-.54h0a1.2,1.2,0,0,1,.539,1.618h0a1.21,1.21,0,0,1-1.078.668h0A1.206,1.206,0,0,1,42.765,127.567Zm54.885-1.272a1.208,1.208,0,0,1,.5-1.634h0a1.21,1.21,0,0,1,1.634.5h0a1.213,1.213,0,0,1-.507,1.634h0a1.162,1.162,0,0,1-.563.137h0A1.215,1.215,0,0,1,97.65,126.295ZM38.8,125.418a1.215,1.215,0,0,1-.426-1.658h0a1.206,1.206,0,0,1,1.658-.419h0a1.207,1.207,0,0,1,.426,1.65h0a1.218,1.218,0,0,1-1.046.6h0A1.2,1.2,0,0,1,38.8,125.418Zm62.726-1.264a1.2,1.2,0,0,1,.379-1.666h0a1.21,1.21,0,0,1,1.666.379h0a1.211,1.211,0,0,1-.386,1.666h0a1.144,1.144,0,0,1-.636.185h0A1.2,1.2,0,0,1,101.522,124.154ZM35,122.978a1.212,1.212,0,0,1-.306-1.682h0a1.2,1.2,0,0,1,1.683-.3h0a1.2,1.2,0,0,1,.306,1.675h0a1.223,1.223,0,0,1-1,.523h0A1.207,1.207,0,0,1,35,122.978Zm70.228-1.24a1.215,1.215,0,0,1,.258-1.69h0a1.215,1.215,0,0,1,1.69.257h0a1.209,1.209,0,0,1-.257,1.69h0a1.191,1.191,0,0,1-.717.233h0A1.21,1.21,0,0,1,105.225,121.738Zm-73.843-1.465h0a1.212,1.212,0,0,1-.185-1.7h0a1.212,1.212,0,0,1,1.7-.177v-.008a1.206,1.206,0,0,1,.185,1.7h0a1.2,1.2,0,0,1-.942.451h0A1.224,1.224,0,0,1,31.383,120.274Zm77.369-1.215a1.2,1.2,0,0,1,.137-1.7h0a1.2,1.2,0,0,1,1.7.137h0a1.2,1.2,0,0,1-.137,1.7h0a1.208,1.208,0,0,1-.781.29h0A1.2,1.2,0,0,1,108.751,119.058Zm-80.774-1.747a1.208,1.208,0,0,1-.064-1.706h0a1.216,1.216,0,0,1,1.707-.057h0a1.209,1.209,0,0,1,.064,1.707h0a1.211,1.211,0,0,1-.886.386h0A1.2,1.2,0,0,1,27.977,117.311Zm84.09-1.175a1.217,1.217,0,0,1,.016-1.715h0a1.207,1.207,0,0,1,1.707.016h0a1.207,1.207,0,0,1-.016,1.707h0a1.187,1.187,0,0,1-.845.346h0A1.232,1.232,0,0,1,112.068,116.136Zm-87.278-2.02a1.208,1.208,0,0,1,.064-1.707h0a1.208,1.208,0,0,1,1.707.064h0a1.209,1.209,0,0,1-.064,1.707h0a1.19,1.19,0,0,1-.821.322h0A1.211,1.211,0,0,1,24.789,114.115Zm90.378-1.143a1.217,1.217,0,0,1-.113-1.707h0a1.217,1.217,0,0,1,1.707-.113h0a1.21,1.21,0,0,1,.113,1.707h0a1.2,1.2,0,0,1-.91.411h0A1.216,1.216,0,0,1,115.167,112.973Zm-93.324-2.278a1.213,1.213,0,0,1,.193-1.7h0a1.213,1.213,0,0,1,1.7.193h0a1.213,1.213,0,0,1-.193,1.7h0a1.175,1.175,0,0,1-.749.258h0A1.219,1.219,0,0,1,21.843,110.694Zm96.19-1.095a1.216,1.216,0,0,1-.233-1.7h0a1.207,1.207,0,0,1,1.69-.233h0a1.207,1.207,0,0,1,.233,1.69h0a1.2,1.2,0,0,1-.966.483h0A1.22,1.22,0,0,1,118.033,109.6Zm-98.87-2.528a1.212,1.212,0,0,1,.306-1.682h0a1.214,1.214,0,0,1,1.682.314h0a1.214,1.214,0,0,1-.314,1.683h0a1.241,1.241,0,0,1-.684.209h0A1.209,1.209,0,0,1,19.163,107.072Zm101.478-1.055a1.208,1.208,0,0,1-.354-1.666h0a1.2,1.2,0,0,1,1.667-.362h0a1.212,1.212,0,0,1,.362,1.675h0a1.213,1.213,0,0,1-1.014.548h0A1.192,1.192,0,0,1,120.641,106.017Zm-103.9-2.753a1.206,1.206,0,0,1,.435-1.65h0a1.207,1.207,0,0,1,1.65.427h0a1.21,1.21,0,0,1-.435,1.658h0a1.233,1.233,0,0,1-.6.161h0A1.2,1.2,0,0,1,16.739,103.264Zm106.253-1a1.21,1.21,0,0,1-.483-1.642h0a1.206,1.206,0,0,1,1.642-.475h0a1.2,1.2,0,0,1,.475,1.634h0a1.193,1.193,0,0,1-1.055.628h0A1.243,1.243,0,0,1,122.992,102.266ZM14.606,99.287a1.22,1.22,0,0,1,.555-1.618h0a1.219,1.219,0,0,1,1.618.555h0a1.219,1.219,0,0,1-.555,1.618h0a1.245,1.245,0,0,1-.531.121h0A1.215,1.215,0,0,1,14.606,99.287Zm110.446-.942a1.217,1.217,0,0,1-.6-1.6h0a1.216,1.216,0,0,1,1.6-.6h0a1.212,1.212,0,0,1,.6,1.6h0a1.2,1.2,0,0,1-1.095.7h0A1.272,1.272,0,0,1,125.052,98.346ZM12.771,95.173h0a1.213,1.213,0,0,1,.668-1.578h0a1.212,1.212,0,0,1,1.57.668h0a1.213,1.213,0,0,1-.668,1.578h0a1.241,1.241,0,0,1-.451.089h0A1.219,1.219,0,0,1,12.771,95.173Zm114.06-.893a1.2,1.2,0,0,1-.716-1.545h0a1.208,1.208,0,0,1,1.553-.717h0a1.2,1.2,0,0,1,.709,1.554h0a1.2,1.2,0,0,1-1.127.789h0A1.087,1.087,0,0,1,126.831,94.28ZM11.241,90.923a1.2,1.2,0,0,1,.781-1.513h0a1.206,1.206,0,0,1,1.521.781h0a1.206,1.206,0,0,1-.789,1.514h0a1.147,1.147,0,0,1-.362.064h0A1.2,1.2,0,0,1,11.241,90.923ZM128.3,90.111a1.21,1.21,0,0,1-.821-1.5h0a1.2,1.2,0,0,1,1.5-.821h0a1.205,1.205,0,0,1,.821,1.489h0a1.21,1.21,0,0,1-1.159.877h0A1.261,1.261,0,0,1,128.3,90.111ZM10.026,86.576a1.208,1.208,0,0,1,.885-1.457h0a1.205,1.205,0,0,1,1.457.893h.008a1.216,1.216,0,0,1-.893,1.457h0a1.159,1.159,0,0,1-.282.032h0A1.2,1.2,0,0,1,10.026,86.576Zm119.43-.74a1.212,1.212,0,0,1-.934-1.433h0a1.2,1.2,0,0,1,1.433-.926h0a1.2,1.2,0,0,1,.933,1.425h0a1.2,1.2,0,0,1-1.183.958h0A1.4,1.4,0,0,1,129.456,85.836ZM9.132,82.157a1.212,1.212,0,0,1,.99-1.393h0a1.217,1.217,0,0,1,1.393,1h0a1.2,1.2,0,0,1-1,1.384h0a.813.813,0,0,1-.2.016h0A1.2,1.2,0,0,1,9.132,82.157ZM130.3,81.489a1.205,1.205,0,0,1-1.038-1.352h0a1.218,1.218,0,0,1,1.361-1.038h0a1.213,1.213,0,0,1,1.038,1.361h0a1.213,1.213,0,0,1-1.2,1.046h0A1.21,1.21,0,0,1,130.3,81.489ZM8.56,77.681a1.2,1.2,0,0,1,1.1-1.312h0a1.208,1.208,0,0,1,1.312,1.095v-.008a1.209,1.209,0,0,1-1.095,1.312h0a.568.568,0,0,1-.113.008h0A1.207,1.207,0,0,1,8.56,77.681ZM130.824,77.1a1.206,1.206,0,0,1-1.127-1.28h0a1.208,1.208,0,0,1,1.28-1.135h0a1.212,1.212,0,0,1,1.127,1.28h0A1.208,1.208,0,0,1,130.9,77.1h-.073ZM8.319,73.173h0a1.125,1.125,0,0,1,.129-.571h0A1.227,1.227,0,0,1,8.3,72.03h0A1.206,1.206,0,0,1,9.51,70.823h0a1.206,1.206,0,0,1,1.207,1.207h0a1.217,1.217,0,0,1-.129.548h0a1.286,1.286,0,0,1,.145.548l-.008.008a1.2,1.2,0,0,1-1.183,1.224H9.518A1.2,1.2,0,0,1,8.319,73.173Zm121.491-1.69a1.213,1.213,0,0,1,1.2-1.224h0a1.216,1.216,0,0,1,1.215,1.2h0a1.2,1.2,0,0,1-1.2,1.216h-.008A1.208,1.208,0,0,1,129.81,71.483Zm2.415-.024ZM9.583,68.81a1.207,1.207,0,0,1-1.119-1.288h0A1.209,1.209,0,0,1,9.76,66.4h0a1.215,1.215,0,0,1,1.119,1.3h0a1.211,1.211,0,0,1-1.207,1.119h0A.349.349,0,0,1,9.583,68.81Zm120.034-1.667a1.2,1.2,0,0,1,1.1-1.3h0a1.2,1.2,0,0,1,1.3,1.1h0a1.215,1.215,0,0,1-1.111,1.3h-.1A1.2,1.2,0,0,1,129.617,67.143ZM9.978,64.407a1.208,1.208,0,0,1-1.023-1.369h0a1.209,1.209,0,0,1,1.368-1.023h0a1.208,1.208,0,0,1,1.023,1.369h0a1.2,1.2,0,0,1-1.192,1.03h0A1.181,1.181,0,0,1,9.978,64.407Zm119.132-1.57a1.2,1.2,0,0,1,1.006-1.376h0a1.2,1.2,0,0,1,1.376,1.006h0a1.21,1.21,0,0,1-1.006,1.385h0a1.545,1.545,0,0,1-.185.008h0A1.2,1.2,0,0,1,129.11,62.837Zm-118.424-2.8a1.207,1.207,0,0,1-.918-1.441h0a1.207,1.207,0,0,1,1.441-.918h0a1.213,1.213,0,0,1,.918,1.441h0a1.219,1.219,0,0,1-1.183.95h0A.947.947,0,0,1,10.686,60.035Zm117.6-1.457a1.213,1.213,0,0,1,.9-1.449h0a1.21,1.21,0,0,1,1.449.909h0a1.2,1.2,0,0,1-.9,1.449h0a1.677,1.677,0,0,1-.274.032h0A1.209,1.209,0,0,1,128.289,58.578ZM11.716,55.729a1.2,1.2,0,0,1-.813-1.5h0a1.2,1.2,0,0,1,1.506-.813h0a1.206,1.206,0,0,1,.8,1.505h0a1.2,1.2,0,0,1-1.151.862h0A1.013,1.013,0,0,1,11.716,55.729Zm115.446-1.336a1.194,1.194,0,0,1,.789-1.506h0a1.2,1.2,0,0,1,1.513.8h0a1.2,1.2,0,0,1-.8,1.505h0a1.112,1.112,0,0,1-.354.057h0A1.2,1.2,0,0,1,127.161,54.392ZM13.052,51.51a1.2,1.2,0,0,1-.7-1.554h0a1.215,1.215,0,0,1,1.562-.7h0a1.218,1.218,0,0,1,.7,1.562h0a1.207,1.207,0,0,1-1.135.773h0A1.176,1.176,0,0,1,13.052,51.51ZM125.72,50.3a1.219,1.219,0,0,1,.685-1.57h0a1.216,1.216,0,0,1,1.57.685h0a1.213,1.213,0,0,1-.685,1.57h0a1.229,1.229,0,0,1-.443.081h0A1.219,1.219,0,0,1,125.72,50.3ZM14.7,47.4a1.207,1.207,0,0,1-.588-1.6h.008a1.2,1.2,0,0,1,1.6-.58h0a1.2,1.2,0,0,1,.58,1.6h0a1.2,1.2,0,0,1-1.095.7h0A1.143,1.143,0,0,1,14.7,47.4ZM124,46.327h0a1.2,1.2,0,0,1,.563-1.61h0a1.2,1.2,0,0,1,1.61.571h0a1.2,1.2,0,0,1-.563,1.61h0a1.212,1.212,0,0,1-.524.121h0A1.2,1.2,0,0,1,124,46.327ZM16.643,43.42a1.2,1.2,0,0,1-.459-1.642h0a1.211,1.211,0,0,1,1.642-.467h0a1.211,1.211,0,0,1,.459,1.65h0a1.193,1.193,0,0,1-1.055.612h0A1.2,1.2,0,0,1,16.643,43.42Zm105.343-.926a1.2,1.2,0,0,1,.443-1.65h0a1.21,1.21,0,0,1,1.65.451h0a1.2,1.2,0,0,1-.451,1.642h0a1.148,1.148,0,0,1-.6.161h0A1.2,1.2,0,0,1,121.986,42.494ZM18.873,39.6a1.208,1.208,0,0,1-.338-1.675h0a1.213,1.213,0,0,1,1.675-.346h0a1.208,1.208,0,0,1,.338,1.675h0a1.2,1.2,0,0,1-1.006.539h0A1.267,1.267,0,0,1,18.873,39.6Zm100.819-.789a1.207,1.207,0,0,1,.33-1.675h0a1.207,1.207,0,0,1,1.675.33h0a1.205,1.205,0,0,1-.33,1.675h0a1.211,1.211,0,0,1-.668.21h0A1.212,1.212,0,0,1,119.691,38.808ZM21.376,35.942a1.208,1.208,0,0,1-.217-1.7h0a1.211,1.211,0,0,1,1.69-.217h0a1.208,1.208,0,0,1,.217,1.7h0a1.2,1.2,0,0,1-.958.467h0A1.186,1.186,0,0,1,21.376,35.942Zm95.763-.636a1.207,1.207,0,0,1,.209-1.7h0a1.2,1.2,0,0,1,1.69.21h0a1.2,1.2,0,0,1-.2,1.69h0a1.194,1.194,0,0,1-.749.257h0A1.2,1.2,0,0,1,117.139,35.306Zm-93-2.826a1.209,1.209,0,0,1-.1-1.707h0a1.209,1.209,0,0,1,1.707-.1h0a1.216,1.216,0,0,1,.1,1.706h0a1.217,1.217,0,0,1-.9.4h0A1.209,1.209,0,0,1,24.137,32.48Zm90.209-.491a1.209,1.209,0,0,1,.072-1.707h0a1.216,1.216,0,0,1,1.707.081h0a1.2,1.2,0,0,1-.081,1.707h0a1.144,1.144,0,0,1-.8.314h0A1.18,1.18,0,0,1,114.346,31.989ZM27.14,29.228a1.217,1.217,0,0,1,.024-1.715h0v.008h0a1.207,1.207,0,0,1,1.706.024h0a1.208,1.208,0,0,1-.024,1.707h0a1.209,1.209,0,0,1-.837.338h0A1.194,1.194,0,0,1,27.14,29.228Zm84.171-.338a1.208,1.208,0,0,1-.048-1.707h0a1.208,1.208,0,0,1,1.707-.048h0l.008.008h0a1.208,1.208,0,0,1,.041,1.707h0a1.206,1.206,0,0,1-.878.37h0A1.217,1.217,0,0,1,111.311,28.89ZM30.368,26.2a1.212,1.212,0,0,1,.153-1.707h0a1.21,1.21,0,0,1,1.7.153h0a1.2,1.2,0,0,1-.153,1.7h0a1.176,1.176,0,0,1-.773.282h0A1.212,1.212,0,0,1,30.368,26.2Zm77.691-.185a1.212,1.212,0,0,1-.161-1.707h0a1.2,1.2,0,0,1,1.7-.161h0a1.2,1.2,0,0,1,.161,1.7h0a1.194,1.194,0,0,1-.933.443h0A1.2,1.2,0,0,1,108.059,26.016Zm-74.253-2.6a1.219,1.219,0,0,1,.274-1.69h0A1.219,1.219,0,0,1,35.77,22h0a1.217,1.217,0,0,1-.274,1.69h0a1.232,1.232,0,0,1-.708.226h0A1.214,1.214,0,0,1,33.806,23.416Zm70.808-.032h0a1.2,1.2,0,0,1-.29-1.682h0a1.2,1.2,0,0,1,1.683-.29h0a1.209,1.209,0,0,1,.29,1.683h0a1.224,1.224,0,0,1-.99.507h0A1.218,1.218,0,0,1,104.614,23.384Zm-67.178-2.5a1.209,1.209,0,0,1,.395-1.658h0a1.206,1.206,0,0,1,1.666.395h0a1.213,1.213,0,0,1-.395,1.658h0a1.226,1.226,0,0,1-.636.177h0A1.217,1.217,0,0,1,37.436,20.888ZM100.975,21v.008a1.214,1.214,0,0,1-.411-1.658h0a1.207,1.207,0,0,1,1.658-.411h0a1.207,1.207,0,0,1,.411,1.658h0a1.2,1.2,0,0,1-1.031.58h0A1.193,1.193,0,0,1,100.975,21ZM41.244,18.634A1.221,1.221,0,0,1,41.759,17h0a1.2,1.2,0,0,1,1.626.523h0a1.2,1.2,0,0,1-.516,1.626h0a1.228,1.228,0,0,1-.555.137h0A1.217,1.217,0,0,1,41.244,18.634Zm55.939.265a1.212,1.212,0,0,1-.531-1.626h0a1.212,1.212,0,0,1,1.626-.524h0a1.206,1.206,0,0,1,.531,1.618h0a1.221,1.221,0,0,1-1.079.66h0A1.2,1.2,0,0,1,97.183,18.9ZM45.2,16.662a1.2,1.2,0,0,1,.628-1.586h0a1.2,1.2,0,0,1,1.585.628h0a1.2,1.2,0,0,1-.628,1.585h0a1.125,1.125,0,0,1-.475.1h0A1.2,1.2,0,0,1,45.2,16.662Zm48.042.419a1.2,1.2,0,0,1-.652-1.578h0a1.2,1.2,0,0,1,1.578-.652h0a1.2,1.2,0,0,1,.652,1.578h0a1.2,1.2,0,0,1-1.119.74h0A1.136,1.136,0,0,1,93.247,17.081Zm-43.953-2.1a1.2,1.2,0,0,1,.749-1.53h0a1.212,1.212,0,0,1,1.537.74h0a1.217,1.217,0,0,1-.749,1.537h0a1.158,1.158,0,0,1-.395.064h0A1.2,1.2,0,0,1,49.294,14.98Zm39.888.571a1.207,1.207,0,0,1-.765-1.53h0a1.207,1.207,0,0,1,1.53-.765h0a1.22,1.22,0,0,1,.765,1.53h0a1.216,1.216,0,0,1-1.151.829h0A1.206,1.206,0,0,1,89.182,15.551ZM53.5,13.611a1.216,1.216,0,0,1,.861-1.481h0a1.207,1.207,0,0,1,1.473.861h0a1.2,1.2,0,0,1-.854,1.473h0a1.044,1.044,0,0,1-.314.04h0A1.211,1.211,0,0,1,53.5,13.611Zm31.524.717a1.2,1.2,0,0,1-.869-1.473h0a1.206,1.206,0,0,1,1.465-.869h0a1.209,1.209,0,0,1,.869,1.473h0a1.211,1.211,0,0,1-1.168.909h0A1.277,1.277,0,0,1,85.019,14.328ZM57.795,12.548a1.2,1.2,0,0,1,.966-1.409h0a1.2,1.2,0,0,1,1.409.958h0a1.2,1.2,0,0,1-.966,1.409h0a.991.991,0,0,1-.217.024h0A1.214,1.214,0,0,1,57.795,12.548Zm22.982.861h0a1.206,1.206,0,0,1-.974-1.4h0a1.2,1.2,0,0,1,1.4-.974h0a1.2,1.2,0,0,1,.974,1.4h0a1.206,1.206,0,0,1-1.183.99h0A.987.987,0,0,1,80.777,13.41ZM62.158,11.8a1.216,1.216,0,0,1,1.063-1.337h0a1.206,1.206,0,0,1,1.336,1.063h0a1.2,1.2,0,0,1-1.063,1.336h0a.775.775,0,0,1-.137.008h0A1.209,1.209,0,0,1,62.158,11.8Zm14.329,1.006a1.21,1.21,0,0,1-1.079-1.328h0A1.216,1.216,0,0,1,76.736,10.4h0a1.221,1.221,0,0,1,1.079,1.328h0a1.217,1.217,0,0,1-1.2,1.087h0A.672.672,0,0,1,76.487,12.806Zm-9.926-1.433a1.2,1.2,0,0,1,1.159-1.248h0a1.2,1.2,0,0,1,1.256,1.151h0a1.207,1.207,0,0,1-1.159,1.256h-.048A1.207,1.207,0,0,1,66.561,11.373Zm5.595,1.143a1.207,1.207,0,0,1-1.167-1.248h0A1.206,1.206,0,0,1,72.236,10.1h0a1.21,1.21,0,0,1,1.167,1.24h0A1.21,1.21,0,0,1,72.2,12.517h-.04Z" transform="translate(-8.303 -10.101)"/></g><g transform="translate(37.278 32.329)"><g transform="translate(0.436 19.597)"><g transform="translate(0.919 0.918)"><path class="a" d="M117.944,165.171a13.935,13.935,0,0,0,4.078-9.754c0-5.543-3.841-8.365-8.576-8.365s-8.576,2.821-8.576,8.365a13.934,13.934,0,0,0,4.078,9.754c.129.118.258.233.391.341l-9.217,6.336v4.012c0,2.428,1.633,4.4,3.646,4.4h19.356c2.013,0,3.646-1.969,3.646-4.4v-4.012l-9.217-6.336C117.686,165.4,117.815,165.289,117.944,165.171Z" transform="translate(-100.122 -147.052)"/></g><path class="b" d="M121.661,179.714H102.305c-2.517,0-4.564-2.385-4.564-5.315v-4.012a.918.918,0,0,1,.4-.757l8.272-5.687a14.935,14.935,0,0,1-3.923-9.987c0-5.639,3.727-9.283,9.494-9.283s9.494,3.644,9.494,9.283a14.931,14.931,0,0,1-3.923,9.987l8.273,5.687a.917.917,0,0,1,.4.757V174.4C126.226,177.33,124.178,179.714,121.661,179.714ZM99.578,170.87V174.4c0,1.918,1.224,3.479,2.728,3.479h19.356c1.5,0,2.728-1.56,2.728-3.479V170.87l-8.819-6.063a.918.918,0,0,1-.056-1.471c.118-.1.232-.2.345-.3a13.043,13.043,0,0,0,3.782-9.078c0-5.49-3.956-7.446-7.658-7.446s-7.658,1.956-7.658,7.446a13.043,13.043,0,0,0,3.783,9.08c.112.1.226.2.344.3a.918.918,0,0,1-.056,1.471Z" transform="translate(-97.741 -144.674)"/></g><g transform="translate(27.295 0.14)"><g transform="translate(0.918 0.918)"><path class="a" d="M187.162,115.085c.133-.108.262-.222.391-.341a13.935,13.935,0,0,0,4.078-9.754c0-5.543-3.841-8.365-8.576-8.365s-8.576,2.821-8.576,8.365a13.934,13.934,0,0,0,4.078,9.754c.129.118.258.233.391.341l-9.217,6.336v4.012c0,2.428,1.633,4.4,3.646,4.4h19.356c2.013,0,3.646-1.969,3.646-4.4v-4.012Z" transform="translate(-169.731 -96.626)"/></g><path class="b" d="M191.271,129.288H171.915c-2.517,0-4.564-2.385-4.564-5.315v-4.012a.919.919,0,0,1,.4-.757l8.273-5.688a14.932,14.932,0,0,1-3.923-9.987c0-5.639,3.727-9.283,9.494-9.283s9.494,3.644,9.494,9.283a14.934,14.934,0,0,1-3.922,9.987l8.272,5.687a.917.917,0,0,1,.4.757v4.012C195.835,126.9,193.788,129.288,191.271,129.288Zm-22.083-8.844v3.529c0,1.918,1.224,3.479,2.728,3.479h19.356c1.5,0,2.728-1.56,2.728-3.479v-3.529l-8.819-6.063a.918.918,0,0,1-.058-1.47c.119-.1.234-.2.349-.3a13.043,13.043,0,0,0,3.78-9.078c0-5.49-3.955-7.446-7.657-7.446s-7.658,1.956-7.658,7.446a13.043,13.043,0,0,0,3.783,9.08c.113.1.227.205.346.3a.918.918,0,0,1-.058,1.47Z" transform="translate(-167.351 -94.247)"/></g><g transform="translate(0 19.457)"><g transform="translate(4.748)"><path class="b" d="M118.54,166.483a7.5,7.5,0,0,1-4.775-1.859c-.141-.113-.286-.242-.432-.376a14.913,14.913,0,0,1-4.416-10.525c0-5.63,3.867-9.412,9.624-9.412s9.624,3.783,9.624,9.412a14.911,14.911,0,0,1-4.414,10.523c-.148.137-.294.265-.445.387A7.5,7.5,0,0,1,118.54,166.483Zm0-20.076c-3.639,0-7.528,1.922-7.528,7.317a12.907,12.907,0,0,0,3.742,8.985c.11.1.221.2.338.294a5,5,0,0,0,6.888.008c.126-.1.238-.2.35-.3a12.9,12.9,0,0,0,3.739-8.982C126.068,148.329,122.179,146.407,118.54,146.407Z" transform="translate(-108.916 -144.311)"/></g><g transform="translate(0 18.459)"><path class="b" d="M120.661,208.991H101.3c-2.588,0-4.694-2.442-4.694-5.445v-4.012a1.047,1.047,0,0,1,.454-.863l9.217-6.337a1.048,1.048,0,0,1,1.262.056,5,5,0,0,0,6.878,0,1.049,1.049,0,0,1,1.262-.056l9.217,6.337a1.047,1.047,0,0,1,.454.863v4.012C125.354,206.548,123.249,208.991,120.661,208.991Zm-21.954-8.905v3.461c0,1.847,1.166,3.349,2.6,3.349h19.356c1.433,0,2.6-1.5,2.6-3.349v-3.461l-8.14-5.6a7,7,0,0,1-8.273,0Z" transform="translate(-96.611 -192.15)"/></g></g><g transform="translate(26.859)"><g transform="translate(4.748)"><path class="b" d="M188.149,116.057a7.505,7.505,0,0,1-4.776-1.859c-.142-.115-.286-.243-.432-.376a14.913,14.913,0,0,1-4.417-10.525c0-5.63,3.867-9.412,9.624-9.412s9.623,3.783,9.623,9.412a14.909,14.909,0,0,1-4.413,10.523c-.148.136-.293.264-.443.385A7.493,7.493,0,0,1,188.149,116.057Zm0-20.077c-3.639,0-7.528,1.922-7.528,7.317a12.907,12.907,0,0,0,3.742,8.985c.11.1.223.2.34.3a5,5,0,0,0,6.886.007c.124-.1.238-.2.35-.305a12.9,12.9,0,0,0,3.739-8.982C195.677,97.9,191.788,95.98,188.149,95.98Z" transform="translate(-178.525 -93.885)"/></g><g transform="translate(0 18.459)"><path class="b" d="M190.27,158.565H170.914c-2.588,0-4.694-2.442-4.694-5.445v-4.012a1.047,1.047,0,0,1,.454-.863l9.217-6.336a1.047,1.047,0,0,1,1.262.056,5,5,0,0,0,6.878,0,1.049,1.049,0,0,1,1.262-.056l9.217,6.336a1.047,1.047,0,0,1,.454.863v4.012C194.963,156.123,192.858,158.565,190.27,158.565Zm-21.954-8.906v3.461c0,1.847,1.165,3.349,2.6,3.349H190.27c1.433,0,2.6-1.5,2.6-3.349V149.66l-8.139-5.6a7.005,7.005,0,0,1-8.274,0Z" transform="translate(-166.22 -141.725)"/></g></g><g transform="translate(6.556 1.882)"><g transform="translate(0 4.071)"><path class="b" d="M114.65,117.86a1.048,1.048,0,0,1-1.048-1.048,7.507,7.507,0,0,1,7.5-7.5h10.68a1.048,1.048,0,0,1,0,2.1H121.1a5.409,5.409,0,0,0-5.4,5.4A1.048,1.048,0,0,1,114.65,117.86Z" transform="translate(-113.602 -109.314)"/></g><g transform="translate(13.059)"><path class="b" d="M148.5,109a1.048,1.048,0,0,1-.741-1.789l3.33-3.33-3.33-3.33a1.048,1.048,0,0,1,1.482-1.482l4.071,4.071a1.047,1.047,0,0,1,0,1.482l-4.071,4.071A1.044,1.044,0,0,1,148.5,109Z" transform="translate(-147.447 -98.762)"/></g></g><g transform="translate(34.011 40.258)"><g transform="translate(0)"><path class="b" d="M196.484,206.765H185.8a1.048,1.048,0,1,1,0-2.1h10.68a5.409,5.409,0,0,0,5.4-5.4,1.048,1.048,0,1,1,2.1,0A7.506,7.506,0,0,1,196.484,206.765Z" transform="translate(-184.756 -198.219)"/></g><g transform="translate(0 2.379)"><path class="b" d="M189.874,214.621a1.044,1.044,0,0,1-.741-.307l-4.071-4.071a1.047,1.047,0,0,1,0-1.482l4.071-4.071a1.048,1.048,0,1,1,1.482,1.482l-3.33,3.33,3.33,3.33a1.048,1.048,0,0,1-.741,1.789Z" transform="translate(-184.755 -204.383)"/></g></g></g></g><g transform="translate(141.487 0.431)"><g transform="translate(3.003 3.889)"><path class="c" d="M473.8,134.3a1.209,1.209,0,0,1-1.181-1.229h0a1.211,1.211,0,0,1,1.238-1.181h0a1.2,1.2,0,0,1,1.173,1.23h0a1.2,1.2,0,0,1-1.2,1.181H473.8Zm3.239-1.205a1.205,1.205,0,0,1,1.149-1.262h0a1.2,1.2,0,0,1,1.262,1.141h0a1.217,1.217,0,0,1-1.141,1.27h-.064A1.214,1.214,0,0,1,477.04,133.1Zm-7.731.948a1.214,1.214,0,0,1-1.093-1.318h0a1.208,1.208,0,0,1,1.318-1.085h0a1.205,1.205,0,0,1,1.085,1.31h0a1.2,1.2,0,0,1-1.2,1.093h-.113Zm12.143-1.237a1.2,1.2,0,0,1,1.053-1.342h0a1.2,1.2,0,0,1,1.342,1.044h0a1.212,1.212,0,0,1-1.053,1.35h0c-.048,0-.1.008-.144.008h0A1.206,1.206,0,0,1,481.452,132.809Zm-16.611.651a1.207,1.207,0,0,1-.989-1.39h0a1.2,1.2,0,0,1,1.39-.989h0a1.215,1.215,0,0,1,.989,1.39h0a1.213,1.213,0,0,1-1.19,1h0A1.864,1.864,0,0,1,464.84,133.46Zm20.983-1.262a1.205,1.205,0,0,1,.957-1.414h0a1.206,1.206,0,0,1,1.414.948h0a1.206,1.206,0,0,1-.948,1.415h0a1.192,1.192,0,0,1-.233.024h0A1.212,1.212,0,0,1,485.823,132.2Zm-25.4.346a1.2,1.2,0,0,1-.884-1.455h0a1.2,1.2,0,0,1,1.455-.884h0a1.2,1.2,0,0,1,.884,1.455h0a1.205,1.205,0,0,1-1.165.924h0A1.2,1.2,0,0,1,460.428,132.544Zm29.719-1.27a1.21,1.21,0,0,1,.844-1.487h0a1.2,1.2,0,0,1,1.479.844h0a1.2,1.2,0,0,1-.844,1.479h0a1.079,1.079,0,0,1-.321.048h0A1.208,1.208,0,0,1,490.148,131.274Zm-34.051.041a1.205,1.205,0,0,1-.78-1.519h0a1.2,1.2,0,0,1,1.519-.771h0a1.2,1.2,0,0,1,.78,1.511h0a1.211,1.211,0,0,1-1.149.836h0A1.148,1.148,0,0,1,456.1,131.315Zm38.294-1.286a1.2,1.2,0,0,1,.732-1.535v-.008a1.2,1.2,0,0,1,1.535.739h0a1.2,1.2,0,0,1-.731,1.535h0a1.148,1.148,0,0,1-.4.073h0A1.2,1.2,0,0,1,494.391,130.029Zm-42.537-.265h0a1.208,1.208,0,0,1-.659-1.567h0a1.205,1.205,0,0,1,1.567-.667h0a1.214,1.214,0,0,1,.667,1.575h0a1.21,1.21,0,0,1-1.117.747h0A1.152,1.152,0,0,1,451.853,129.764Zm46.668-1.278a1.208,1.208,0,0,1,.619-1.591h0a1.207,1.207,0,0,1,1.591.61h0a1.215,1.215,0,0,1-.619,1.591h0a1.2,1.2,0,0,1-.49.1h0A1.207,1.207,0,0,1,498.521,128.486Zm-50.775-.579a1.2,1.2,0,0,1-.546-1.615h0a1.2,1.2,0,0,1,1.615-.539h0a1.21,1.21,0,0,1,.547,1.616h0a1.23,1.23,0,0,1-1.085.667h0A1.147,1.147,0,0,1,447.746,127.907Zm54.785-1.27a1.205,1.205,0,0,1,.5-1.631h0a1.208,1.208,0,0,1,1.632.5h0a1.208,1.208,0,0,1-.5,1.632h0a1.208,1.208,0,0,1-.563.137h0A1.214,1.214,0,0,1,502.532,126.637Zm-58.755-.876a1.2,1.2,0,0,1-.418-1.656h0a1.2,1.2,0,0,1,1.647-.418h0a1.2,1.2,0,0,1,.426,1.647h0a1.214,1.214,0,0,1-1.037.595h0A1.232,1.232,0,0,1,443.776,125.761ZM506.4,124.5a1.209,1.209,0,0,1,.378-1.663h0a1.209,1.209,0,0,1,1.663.378h0a1.207,1.207,0,0,1-.377,1.663h0a1.186,1.186,0,0,1-.643.185h0A1.2,1.2,0,0,1,506.4,124.5Zm-66.414-1.173a1.21,1.21,0,0,1-.305-1.68h0a1.2,1.2,0,0,1,1.68-.3h0a1.2,1.2,0,0,1,.305,1.672h0a1.21,1.21,0,0,1-1,.522h0A1.206,1.206,0,0,1,439.983,123.326Zm70.111-1.238a1.207,1.207,0,0,1,.265-1.687h0a1.2,1.2,0,0,1,1.68.257h0a1.207,1.207,0,0,1-.257,1.688h0a1.19,1.19,0,0,1-.715.233h0A1.209,1.209,0,0,1,510.094,122.088Zm-73.719-1.462h0a1.209,1.209,0,0,1-.177-1.7h0a1.209,1.209,0,0,1,1.7-.177v-.008a1.21,1.21,0,0,1,.177,1.7h0a1.19,1.19,0,0,1-.94.45h0A1.214,1.214,0,0,1,436.375,120.626Zm77.239-1.213a1.2,1.2,0,0,1,.137-1.7h0a1.2,1.2,0,0,1,1.7.137h0a1.2,1.2,0,0,1-.137,1.7h.008a1.225,1.225,0,0,1-.787.289h0A1.208,1.208,0,0,1,513.614,119.413Zm-80.639-1.744a1.2,1.2,0,0,1-.056-1.7h0a1.212,1.212,0,0,1,1.7-.056h0a1.213,1.213,0,0,1,.056,1.7h0a1.208,1.208,0,0,1-.884.386h0A1.215,1.215,0,0,1,432.975,117.668Zm83.958-1.173a1.208,1.208,0,0,1,.008-1.712h0a1.206,1.206,0,0,1,1.7.016h0a1.205,1.205,0,0,1-.008,1.7h0a1.217,1.217,0,0,1-.852.346h0A1.213,1.213,0,0,1,516.933,116.495Zm-87.14-2.017a1.207,1.207,0,0,1,.072-1.7h0a1.207,1.207,0,0,1,1.7.064h0a1.207,1.207,0,0,1-.072,1.7h0a1.189,1.189,0,0,1-.82.321h0A1.207,1.207,0,0,1,429.793,114.478Zm90.234-1.141a1.2,1.2,0,0,1-.112-1.7h0a1.2,1.2,0,0,1,1.7-.113h0a1.2,1.2,0,0,1,.113,1.7h0a1.189,1.189,0,0,1-.908.41h0A1.18,1.18,0,0,1,520.027,113.337Zm-93.167-2.275a1.209,1.209,0,0,1,.185-1.7h0a1.211,1.211,0,0,1,1.7.193h0a1.2,1.2,0,0,1-.193,1.7h0a1.17,1.17,0,0,1-.747.257h0A1.189,1.189,0,0,1,426.86,111.062Zm96.021-1.093a1.213,1.213,0,0,1-.233-1.7h0a1.2,1.2,0,0,1,1.688-.233h0a1.2,1.2,0,0,1,.233,1.688h0a1.194,1.194,0,0,1-.956.482h0A1.23,1.23,0,0,1,522.88,109.97Zm-98.706-2.523a1.205,1.205,0,0,1,.314-1.68h0a1.2,1.2,0,0,1,1.672.313h0a1.206,1.206,0,0,1-.314,1.68h0a1.233,1.233,0,0,1-.675.209h0A1.213,1.213,0,0,1,424.175,107.446Zm101.317-1.053a1.2,1.2,0,0,1-.362-1.663h0a1.208,1.208,0,0,1,1.672-.362h0a1.215,1.215,0,0,1,.353,1.672h0a1.212,1.212,0,0,1-1.013.547h0A1.139,1.139,0,0,1,525.492,106.393Zm-103.736-2.748A1.211,1.211,0,0,1,422.19,102h0a1.2,1.2,0,0,1,1.647.426h0a1.213,1.213,0,0,1-.426,1.656h0a1.283,1.283,0,0,1-.611.161h0A1.208,1.208,0,0,1,421.756,103.645Zm106.074-1a1.206,1.206,0,0,1-.474-1.64h0a1.2,1.2,0,0,1,1.631-.474h0a1.2,1.2,0,0,1,.482,1.632h0a1.213,1.213,0,0,1-1.061.627h0A1.259,1.259,0,0,1,527.831,102.648Zm-108.2-2.973a1.207,1.207,0,0,1,.547-1.616h0a1.215,1.215,0,0,1,1.615.554h0a1.21,1.21,0,0,1-.555,1.616h0a1.221,1.221,0,0,1-.531.12h0A1.2,1.2,0,0,1,419.635,99.675Zm110.262-.94a1.211,1.211,0,0,1-.6-1.6h0a1.214,1.214,0,0,1,1.6-.595h0a1.2,1.2,0,0,1,.6,1.6h.008a1.214,1.214,0,0,1-1.1.7h0A1.2,1.2,0,0,1,529.9,98.734Zm-112.1-3.167a1.215,1.215,0,0,1,.675-1.575h0a1.212,1.212,0,0,1,1.567.667h0a1.217,1.217,0,0,1-.667,1.575h0a1.314,1.314,0,0,1-.45.089h0A1.221,1.221,0,0,1,417.794,95.567Zm113.87-.892a1.2,1.2,0,0,1-.715-1.543h0a1.208,1.208,0,0,1,1.551-.715h0a1.206,1.206,0,0,1,.715,1.551h0a1.22,1.22,0,0,1-1.133.788h0A1.1,1.1,0,0,1,531.664,94.676Zm-115.4-3.351a1.2,1.2,0,0,1,.78-1.511h0a1.2,1.2,0,0,1,1.519.779h0a1.206,1.206,0,0,1-.779,1.511h0a1.238,1.238,0,0,1-.37.064h0A1.2,1.2,0,0,1,416.267,91.325Zm116.868-.812a1.206,1.206,0,0,1-.828-1.5h0a1.2,1.2,0,0,1,1.495-.82h0a1.2,1.2,0,0,1,.82,1.487h0a1.208,1.208,0,0,1-1.157.876h0A1.118,1.118,0,0,1,533.135,90.513ZM415.054,86.985h0a1.211,1.211,0,0,1,.892-1.455h0a1.211,1.211,0,0,1,1.455.892h0a1.214,1.214,0,0,1-.892,1.455h0a1.148,1.148,0,0,1-.281.032h0A1.208,1.208,0,0,1,415.054,86.985Zm119.23-.739a1.2,1.2,0,0,1-.924-1.431h0a1.19,1.19,0,0,1,1.423-.924h0a1.2,1.2,0,0,1,.932,1.423h0a1.2,1.2,0,0,1-1.173.956h0A1.416,1.416,0,0,1,534.284,86.246ZM414.162,82.573a1.209,1.209,0,0,1,1-1.39h0a1.207,1.207,0,0,1,1.382,1h0a1.2,1.2,0,0,1-1,1.382h0a.778.778,0,0,1-.193.016h0A1.207,1.207,0,0,1,414.162,82.573Zm120.966-.667a1.2,1.2,0,0,1-1.029-1.35h0a1.206,1.206,0,0,1,1.358-1.037h0a1.205,1.205,0,0,1,1.029,1.358h0a1.209,1.209,0,0,1-1.19,1.045h0A1.254,1.254,0,0,1,535.128,81.906ZM413.591,78.1a1.209,1.209,0,0,1,1.093-1.31h0a1.2,1.2,0,0,1,1.31,1.093v-.008a1.2,1.2,0,0,1-1.093,1.31h0a.488.488,0,0,1-.112.008h0A1.2,1.2,0,0,1,413.591,78.1Zm122.059-.578a1.21,1.21,0,0,1-1.125-1.278h0a1.206,1.206,0,0,1,1.278-1.133h0a1.2,1.2,0,0,1,1.125,1.278h0a1.206,1.206,0,0,1-1.205,1.133h-.073ZM413.35,73.6h0a1.127,1.127,0,0,1,.128-.571h0a1.224,1.224,0,0,1-.137-.571h0a1.2,1.2,0,0,1,1.205-1.205h0a1.209,1.209,0,0,1,1.205,1.205h0a1.181,1.181,0,0,1-.137.555h0a1.221,1.221,0,0,1,.145.538v.008a1.207,1.207,0,0,1-1.181,1.222h-.024A1.2,1.2,0,0,1,413.35,73.6Zm121.288-1.688a1.216,1.216,0,0,1,1.2-1.222h0a1.21,1.21,0,0,1,1.214,1.2h0a1.192,1.192,0,0,1-1.189,1.214h-.008A1.207,1.207,0,0,1,534.638,71.916Zm2.411-.024ZM414.62,69.248a1.2,1.2,0,0,1-1.117-1.286h0a1.2,1.2,0,0,1,1.286-1.117h0a1.207,1.207,0,0,1,1.117,1.294h0a1.209,1.209,0,0,1-1.205,1.117h0A.269.269,0,0,1,414.62,69.248Zm119.825-1.663a1.2,1.2,0,0,1,1.1-1.294h0a1.2,1.2,0,0,1,1.3,1.1h0a1.206,1.206,0,0,1-1.1,1.3h-.1A1.2,1.2,0,0,1,534.445,67.585ZM415.005,64.852a1.206,1.206,0,0,1-1.021-1.366h0a1.206,1.206,0,0,1,1.366-1.021h0a1.206,1.206,0,0,1,1.021,1.366h0a1.2,1.2,0,0,1-1.189,1.029h0A1.293,1.293,0,0,1,415.005,64.852Zm118.933-1.567a1.2,1.2,0,0,1,1-1.374h0a1.209,1.209,0,0,1,1.383,1h0a1.22,1.22,0,0,1-1.013,1.383h0a1.481,1.481,0,0,1-.185.008h0A1.2,1.2,0,0,1,533.938,63.285Zm-118.226-2.8a1.205,1.205,0,0,1-.916-1.438h0a1.2,1.2,0,0,1,1.438-.916h0a1.205,1.205,0,0,1,.916,1.438h0a1.208,1.208,0,0,1-1.173.948h0A.989.989,0,0,1,415.713,60.488Zm117.406-1.455a1.21,1.21,0,0,1,.908-1.447h0a1.216,1.216,0,0,1,1.447.908h0a1.213,1.213,0,0,1-.908,1.447h0a1.574,1.574,0,0,1-.274.032h0A1.208,1.208,0,0,1,533.119,59.034ZM416.741,56.188a1.194,1.194,0,0,1-.811-1.495h0a1.2,1.2,0,0,1,1.5-.811h0a1.2,1.2,0,0,1,.8,1.5h0a1.2,1.2,0,0,1-1.149.86h0A1.019,1.019,0,0,1,416.741,56.188Zm115.252-1.334h0a1.2,1.2,0,0,1,.8-1.5h0a1.19,1.19,0,0,1,1.5.8h0a1.192,1.192,0,0,1-.788,1.5h0a1.12,1.12,0,0,1-.362.056h0A1.2,1.2,0,0,1,531.994,54.855ZM418.075,51.977a1.2,1.2,0,0,1-.691-1.551h0a1.2,1.2,0,0,1,1.551-.7h0a1.209,1.209,0,0,1,.7,1.559h0a1.2,1.2,0,0,1-1.125.771h0A1.176,1.176,0,0,1,418.075,51.977Zm112.488-1.205a1.2,1.2,0,0,1,.683-1.567h0a1.2,1.2,0,0,1,1.559.683h0a1.21,1.21,0,0,1-.683,1.567h0a1.2,1.2,0,0,1-.442.08h0A1.2,1.2,0,0,1,530.563,50.772Zm-110.84-2.9a1.2,1.2,0,0,1-.578-1.6h0a1.2,1.2,0,0,1,1.6-.578h0a1.194,1.194,0,0,1,.579,1.6h0a1.194,1.194,0,0,1-1.093.7h0A1.14,1.14,0,0,1,419.723,47.871ZM528.835,46.8h0a1.205,1.205,0,0,1,.571-1.607h0a1.205,1.205,0,0,1,1.608.571h0a1.213,1.213,0,0,1-.571,1.607h0a1.211,1.211,0,0,1-.522.12h0A1.206,1.206,0,0,1,528.835,46.8ZM421.668,43.9a1.2,1.2,0,0,1-.466-1.639h0a1.212,1.212,0,0,1,1.639-.466h0a1.212,1.212,0,0,1,.466,1.647h0a1.21,1.21,0,0,1-1.053.611h0A1.179,1.179,0,0,1,421.668,43.9Zm105.158-.925a1.214,1.214,0,0,1,.442-1.647h0a1.209,1.209,0,0,1,1.647.45h0a1.2,1.2,0,0,1-.442,1.639h0a1.193,1.193,0,0,1-.6.161h0A1.2,1.2,0,0,1,526.826,42.976ZM423.894,40.083a1.2,1.2,0,0,1-.346-1.672h0a1.214,1.214,0,0,1,1.672-.346h0a1.205,1.205,0,0,1,.338,1.672h0a1.19,1.19,0,0,1-1,.538h0A1.228,1.228,0,0,1,423.894,40.083ZM524.536,39.3a1.2,1.2,0,0,1,.329-1.672h0a1.2,1.2,0,0,1,1.672.329h0a1.208,1.208,0,0,1-.321,1.672h0a1.236,1.236,0,0,1-.675.209h0A1.22,1.22,0,0,1,524.536,39.3Zm-98.151-2.861a1.213,1.213,0,0,1-.217-1.7h0a1.21,1.21,0,0,1,1.688-.217h0a1.214,1.214,0,0,1,.225,1.7h0a1.215,1.215,0,0,1-.957.466h0A1.205,1.205,0,0,1,426.385,36.435ZM522,35.8a1.2,1.2,0,0,1,.2-1.7h0a1.2,1.2,0,0,1,1.688.209h0a1.194,1.194,0,0,1-.2,1.688h0a1.167,1.167,0,0,1-.739.257h0A1.181,1.181,0,0,1,522,35.8Zm-92.854-2.821a1.207,1.207,0,0,1-.1-1.7h0a1.207,1.207,0,0,1,1.7-.1h0a1.207,1.207,0,0,1,.1,1.7h0a1.216,1.216,0,0,1-.9.4h0A1.227,1.227,0,0,1,429.142,32.979Zm90.058-.49a1.2,1.2,0,0,1,.08-1.7h0a1.214,1.214,0,0,1,1.7.08h0a1.214,1.214,0,0,1-.08,1.7h0a1.176,1.176,0,0,1-.812.313h0A1.177,1.177,0,0,1,519.2,32.489Zm-87.06-2.757a1.215,1.215,0,0,1,.024-1.712h0v.008h0a1.216,1.216,0,0,1,1.712.024h0a1.206,1.206,0,0,1-.032,1.7h0a1.207,1.207,0,0,1-.836.338h0A1.21,1.21,0,0,1,432.139,29.732Zm84.03-.338a1.206,1.206,0,0,1-.04-1.7h0a1.206,1.206,0,0,1,1.7-.048h0v.008h0a1.206,1.206,0,0,1,.041,1.7h0a1.191,1.191,0,0,1-.876.37h0A1.213,1.213,0,0,1,516.17,29.395ZM435.362,26.71a1.21,1.21,0,0,1,.153-1.7h0a1.208,1.208,0,0,1,1.7.153h0a1.207,1.207,0,0,1-.145,1.7h0a1.194,1.194,0,0,1-.779.281h0A1.221,1.221,0,0,1,435.362,26.71Zm77.561-.185a1.211,1.211,0,0,1-.161-1.7h0a1.2,1.2,0,0,1,1.7-.161h0a1.2,1.2,0,0,1,.161,1.7h0a1.187,1.187,0,0,1-.924.442h0A1.2,1.2,0,0,1,512.923,26.526ZM438.8,23.93a1.2,1.2,0,0,1,.273-1.688h0a1.208,1.208,0,0,1,1.68.273h0a1.216,1.216,0,0,1-.274,1.688h0a1.211,1.211,0,0,1-.707.225h0A1.209,1.209,0,0,1,438.8,23.93Zm70.682-.032h0a1.2,1.2,0,0,1-.29-1.68h0a1.2,1.2,0,0,1,1.68-.29h0a1.2,1.2,0,0,1,.289,1.68h0a1.213,1.213,0,0,1-.989.506h0A1.207,1.207,0,0,1,509.484,23.9Zm-67.057-2.491a1.194,1.194,0,0,1,.394-1.656h0a1.2,1.2,0,0,1,1.656.394h0a1.2,1.2,0,0,1-.394,1.656h0a1.2,1.2,0,0,1-.627.177h0A1.2,1.2,0,0,1,442.426,21.407Zm63.433.112v.008a1.2,1.2,0,0,1-.41-1.656h0a1.2,1.2,0,0,1,1.655-.41h0a1.212,1.212,0,0,1,.41,1.656h0a1.225,1.225,0,0,1-1.037.578h0A1.165,1.165,0,0,1,505.859,21.519ZM446.22,19.156a1.219,1.219,0,0,1,.514-1.632h0a1.214,1.214,0,0,1,1.631.522h0a1.209,1.209,0,0,1-.514,1.623h0a1.251,1.251,0,0,1-.555.137h0A1.217,1.217,0,0,1,446.22,19.156Zm55.846.265a1.21,1.21,0,0,1-.53-1.623h0a1.21,1.21,0,0,1,1.623-.523h0a1.2,1.2,0,0,1,.53,1.616h0a1.209,1.209,0,0,1-1.077.659h0A1.217,1.217,0,0,1,502.066,19.421Zm-51.892-2.234a1.2,1.2,0,0,1,.635-1.584h0a1.2,1.2,0,0,1,1.584.627h0a1.214,1.214,0,0,1-.635,1.583h0a1.1,1.1,0,0,1-.475.1h0A1.2,1.2,0,0,1,450.173,17.187Zm47.962.418a1.2,1.2,0,0,1-.651-1.575h0a1.208,1.208,0,0,1,1.583-.651h0a1.205,1.205,0,0,1,.643,1.575h0a1.2,1.2,0,0,1-1.109.739h0A1.171,1.171,0,0,1,498.136,17.605Zm-43.879-2.1A1.2,1.2,0,0,1,455,13.981h0a1.207,1.207,0,0,1,1.535.739h0a1.208,1.208,0,0,1-.747,1.535h0a1.125,1.125,0,0,1-.394.064h0A1.214,1.214,0,0,1,454.256,15.508Zm39.821.571a1.2,1.2,0,0,1-.763-1.527h0a1.212,1.212,0,0,1,1.527-.764h0a1.212,1.212,0,0,1,.764,1.527h0a1.212,1.212,0,0,1-1.141.828h0A1.3,1.3,0,0,1,494.077,16.078Zm-35.618-1.937a1.209,1.209,0,0,1,.852-1.479h0a1.214,1.214,0,0,1,1.479.86h0a1.206,1.206,0,0,1-.86,1.471h0a1.036,1.036,0,0,1-.305.04h0A1.2,1.2,0,0,1,458.459,14.141Zm31.463.715a1.207,1.207,0,0,1-.868-1.471h0a1.205,1.205,0,0,1,1.463-.868h0a1.218,1.218,0,0,1,.876,1.471h0a1.225,1.225,0,0,1-1.173.908h0A1.3,1.3,0,0,1,489.922,14.857Zm-27.18-1.776a1.207,1.207,0,0,1,.964-1.406h0a1.2,1.2,0,0,1,1.406.956h0a1.2,1.2,0,0,1-.956,1.406h0a1.117,1.117,0,0,1-.225.024h0A1.211,1.211,0,0,1,462.743,13.081Zm22.953.86h0a1.209,1.209,0,0,1-.98-1.4h0a1.2,1.2,0,0,1,1.4-.972h0a1.205,1.205,0,0,1,.98,1.4h0a1.212,1.212,0,0,1-1.189.989h0A.876.876,0,0,1,485.7,13.94Zm-18.6-1.607A1.214,1.214,0,0,1,468.167,11h0a1.2,1.2,0,0,1,1.326,1.061h0a1.193,1.193,0,0,1-1.061,1.334h0a.732.732,0,0,1-.137.008h0A1.206,1.206,0,0,1,467.1,12.333Zm14.3,1a1.214,1.214,0,0,1-1.077-1.326h0a1.219,1.219,0,0,1,1.326-1.077h0a1.214,1.214,0,0,1,1.077,1.326h0a1.209,1.209,0,0,1-1.2,1.085h0A.628.628,0,0,1,481.4,13.338Zm-9.9-1.43a1.2,1.2,0,0,1,1.149-1.246h0a1.2,1.2,0,0,1,1.254,1.149h0a1.2,1.2,0,0,1-1.158,1.254H472.7A1.2,1.2,0,0,1,471.5,11.907Zm5.586,1.141a1.217,1.217,0,0,1-1.173-1.246h0a1.2,1.2,0,0,1,1.246-1.165h0a1.2,1.2,0,0,1,1.165,1.238h0a1.2,1.2,0,0,1-1.205,1.173h-.032Z" transform="translate(-413.342 -10.637)"/></g><g transform="translate(16.352 17.027)"><circle class="c" cx="48.013" cy="48.013" r="48.013"/></g><path class="c" d="M424.449,19.628a65.009,65.009,0,0,1,110.812,40.9,4.728,4.728,0,0,1-4.722,5.074h0a4.737,4.737,0,0,1-4.712-4.388,55.583,55.583,0,0,0-110.819,0A4.737,4.737,0,0,1,410.3,65.6h0a4.728,4.728,0,0,1-4.723-5.073A64.86,64.86,0,0,1,424.449,19.628Z" transform="translate(-405.559 -0.557)"/><g transform="translate(53.682 64.48)"><path class="c" d="M547.228,175.207h0a1.079,1.079,0,0,1-.866-.435l-1.464-1.963a1.08,1.08,0,0,1,1.732-1.291l.6.8,3.147-4.219a1.08,1.08,0,1,1,1.732,1.291l-4.013,5.381A1.079,1.079,0,0,1,547.228,175.207Z" transform="translate(-544.684 -167.665)"/></g><g transform="translate(53.682 76.01)"><path class="c" d="M547.228,205.089h0a1.079,1.079,0,0,1-.866-.435l-1.464-1.963a1.08,1.08,0,0,1,1.732-1.291l.6.8,3.147-4.219a1.08,1.08,0,1,1,1.732,1.291l-4.013,5.381A1.079,1.079,0,0,1,547.228,205.089Z" transform="translate(-544.684 -197.547)"/></g><g transform="translate(52.895 40.531)"><path class="d" d="M542.645,105.6" transform="translate(-542.645 -105.6)"/></g><g transform="translate(32.306 45.745)"><path class="e" d="M520.813,142.373a.982.982,0,0,1-.351-.065l-30.544-11.67a.983.983,0,0,1,.057-1.857l30.742-9.625a.99.99,0,0,1,.592,0l30.272,9.625a.984.984,0,0,1,.054,1.856l-30.47,11.67A.99.99,0,0,1,520.813,142.373Zm-27.547-12.562,27.547,10.525,27.5-10.531-27.3-8.679Z" transform="translate(-489.286 -119.112)"/><g transform="translate(11.968 14.552)"><path class="e" d="M539.941,177.373c-11.426,0-19.405-3.275-19.405-7.965,0-.226-.153-7.673-.233-11.578a.984.984,0,1,1,1.967-.041c.039,1.909.233,11.441.233,11.619,0,2.948,6.523,6,17.439,6s17.439-3.049,17.439-6c0-.2-.1-7.439-.155-11.238a.984.984,0,1,1,1.967-.028c.016,1.135.155,11.087.155,11.266C559.347,174.1,551.367,177.373,539.941,177.373Z" transform="translate(-520.302 -156.826)"/></g><g transform="translate(31.483 9.879)"><path class="e" d="M595.154,171.237a.984.984,0,0,1-.984-.984V148.813l-22.4-2.135a.984.984,0,0,1,.186-1.958l23.291,2.22a.983.983,0,0,1,.89.979v22.335A.983.983,0,0,1,595.154,171.237Z" transform="translate(-570.879 -144.715)"/></g><g transform="translate(28.324 8.879)"><ellipse class="e" cx="2.883" cy="1.138" rx="2.883" ry="1.138" transform="translate(0.282 0.846)"/><ellipse class="e" cx="2.889" cy="1.14" rx="2.889" ry="1.14" transform="translate(0.277 0.83)"/><ellipse class="e" cx="2.894" cy="1.142" rx="2.894" ry="1.142" transform="translate(0.272 0.813)"/><ellipse class="e" cx="2.9" cy="1.144" rx="2.9" ry="1.144" transform="translate(0.266 0.796)"/><ellipse class="e" cx="2.905" cy="1.146" rx="2.905" ry="1.146" transform="translate(0.26 0.78)"/><ellipse class="e" cx="2.911" cy="1.149" rx="2.911" ry="1.149" transform="translate(0.255 0.763)"/><ellipse class="e" cx="2.917" cy="1.151" rx="2.917" ry="1.151" transform="translate(0.249 0.747)"/><ellipse class="e" cx="2.922" cy="1.153" rx="2.922" ry="1.153" transform="translate(0.244 0.73)"/><ellipse class="e" cx="2.927" cy="1.155" rx="2.927" ry="1.155" transform="translate(0.238 0.713)"/><ellipse class="e" cx="2.933" cy="1.157" rx="2.933" ry="1.157" transform="translate(0.233 0.697)"/><ellipse class="e" cx="2.939" cy="1.159" rx="2.939" ry="1.159" transform="translate(0.227 0.68)"/><ellipse class="e" cx="2.944" cy="1.162" rx="2.944" ry="1.162" transform="translate(0.222 0.663)"/><ellipse class="e" cx="2.95" cy="1.164" rx="2.95" ry="1.164" transform="translate(0.216 0.647)"/><ellipse class="e" cx="2.955" cy="1.166" rx="2.955" ry="1.166" transform="translate(0.211 0.63)"/><ellipse class="e" cx="2.961" cy="1.168" rx="2.961" ry="1.168" transform="translate(0.205 0.614)"/><ellipse class="e" cx="2.966" cy="1.17" rx="2.966" ry="1.17" transform="translate(0.199 0.597)"/><ellipse class="e" cx="2.972" cy="1.173" rx="2.972" ry="1.173" transform="translate(0.194 0.581)"/><ellipse class="e" cx="2.978" cy="1.175" rx="2.978" ry="1.175" transform="translate(0.188 0.564)"/><ellipse class="e" cx="2.983" cy="1.177" rx="2.983" ry="1.177" transform="translate(0.183 0.548)"/><ellipse class="e" cx="2.988" cy="1.179" rx="2.988" ry="1.179" transform="translate(0.177 0.531)"/><ellipse class="e" cx="2.994" cy="1.181" rx="2.994" ry="1.181" transform="translate(0.172 0.514)"/><ellipse class="e" cx="3" cy="1.183" rx="3" ry="1.183" transform="translate(0.166 0.498)"/><ellipse class="e" cx="3.005" cy="1.186" rx="3.005" ry="1.186" transform="translate(0.161 0.481)"/><ellipse class="e" cx="3.011" cy="1.188" rx="3.011" ry="1.188" transform="translate(0.155 0.465)"/><ellipse class="e" cx="3.016" cy="1.19" rx="3.016" ry="1.19" transform="translate(0.15 0.448)"/><ellipse class="e" cx="3.022" cy="1.192" rx="3.022" ry="1.192" transform="translate(0.144 0.431)"/><ellipse class="e" cx="3.027" cy="1.194" rx="3.027" ry="1.194" transform="translate(0.139 0.415)"/><ellipse class="e" cx="3.033" cy="1.197" rx="3.033" ry="1.197" transform="translate(0.133 0.398)"/><ellipse class="e" cx="3.039" cy="1.199" rx="3.039" ry="1.199" transform="translate(0.127 0.382)"/><ellipse class="e" cx="3.044" cy="1.201" rx="3.044" ry="1.201" transform="translate(0.122 0.365)"/><ellipse class="e" cx="3.049" cy="1.203" rx="3.049" ry="1.203" transform="translate(0.117 0.348)"/><ellipse class="e" cx="3.055" cy="1.205" rx="3.055" ry="1.205" transform="translate(0.111 0.332)"/><ellipse class="e" cx="3.061" cy="1.207" rx="3.061" ry="1.207" transform="translate(0.105 0.315)"/><ellipse class="e" cx="3.066" cy="1.21" rx="3.066" ry="1.21" transform="translate(0.1 0.299)"/><ellipse class="e" cx="3.072" cy="1.212" rx="3.072" ry="1.212" transform="translate(0.094 0.282)"/><ellipse class="e" cx="3.077" cy="1.214" rx="3.077" ry="1.214" transform="translate(0.089 0.265)"/><ellipse class="e" cx="3.083" cy="1.216" rx="3.083" ry="1.216" transform="translate(0.083 0.249)"/><ellipse class="e" cx="3.088" cy="1.219" rx="3.088" ry="1.219" transform="translate(0.078 0.232)"/><ellipse class="e" cx="3.094" cy="1.22" rx="3.094" ry="1.22" transform="translate(0.072 0.216)"/><ellipse class="e" cx="3.1" cy="1.223" rx="3.1" ry="1.223" transform="translate(0.066 0.199)"/><ellipse class="e" cx="3.105" cy="1.225" rx="3.105" ry="1.225" transform="translate(0.061 0.183)"/><ellipse class="e" cx="3.11" cy="1.227" rx="3.11" ry="1.227" transform="translate(0.056 0.166)"/><ellipse class="e" cx="3.116" cy="1.229" rx="3.116" ry="1.229" transform="translate(0.05 0.149)"/><ellipse class="e" cx="3.122" cy="1.232" rx="3.122" ry="1.232" transform="translate(0.044 0.133)"/><ellipse class="e" cx="3.127" cy="1.234" rx="3.127" ry="1.234" transform="translate(0.039 0.116)"/><ellipse class="e" cx="3.133" cy="1.236" rx="3.133" ry="1.236" transform="translate(0.033 0.1)"/><ellipse class="e" cx="3.138" cy="1.238" rx="3.138" ry="1.238" transform="translate(0.028 0.083)"/><ellipse class="e" cx="3.144" cy="1.24" rx="3.144" ry="1.24" transform="translate(0.022 0.066)"/><ellipse class="e" cx="3.149" cy="1.242" rx="3.149" ry="1.242" transform="translate(0.017 0.05)"/><ellipse class="e" cx="3.155" cy="1.245" rx="3.155" ry="1.245" transform="translate(0.011 0.033)"/><ellipse class="e" cx="3.16" cy="1.247" rx="3.16" ry="1.247" transform="translate(0.006 0.017)"/><ellipse class="e" cx="3.166" cy="1.249" rx="3.166" ry="1.249"/></g><g transform="translate(51.54 27.943)"><path class="e" d="M623.843,198.686a.984.984,0,0,1-.834-1.5l3.227-5.188a.983.983,0,0,1,.811-.463.965.965,0,0,1,.833.423l3.5,5.05a.984.984,0,0,1-1.616,1.121l-2.648-3.82-2.436,3.917A.984.984,0,0,1,623.843,198.686Z" transform="translate(-622.86 -191.529)"/></g></g></g><g transform="translate(285.926 1.432)"><g transform="translate(13.151 13.147)"><circle class="f" cx="48.048" cy="48.048" r="48.048"/></g><path class="f" d="M876.679,133.855a1.2,1.2,0,0,1-1.182-1.23h0a1.212,1.212,0,0,1,1.239-1.182h0a1.209,1.209,0,0,1,1.174,1.231h0a1.2,1.2,0,0,1-1.2,1.182h-.032Zm3.242-1.206a1.206,1.206,0,0,1,1.15-1.263h0a1.2,1.2,0,0,1,1.263,1.142h0a1.218,1.218,0,0,1-1.15,1.271h-.056A1.215,1.215,0,0,1,879.92,132.649Zm-7.737.949a1.209,1.209,0,0,1-1.093-1.319h0a1.209,1.209,0,0,1,1.318-1.086h0a1.206,1.206,0,0,1,1.086,1.311h0a1.2,1.2,0,0,1-1.2,1.094h-.113Zm12.152-1.239a1.2,1.2,0,0,1,1.054-1.343h-.008a1.2,1.2,0,0,1,1.343,1.045h0a1.2,1.2,0,0,1-1.046,1.351h0c-.048,0-.1.008-.145.008h0A1.207,1.207,0,0,1,884.335,132.359Zm-16.623.651a1.208,1.208,0,0,1-.989-1.391h0a1.2,1.2,0,0,1,1.391-.989h0a1.216,1.216,0,0,1,.989,1.391h0a1.214,1.214,0,0,1-1.19,1.005h0A1.679,1.679,0,0,1,867.712,133.011Zm21-1.263a1.207,1.207,0,0,1,.949-1.415h0a1.215,1.215,0,0,1,1.423.949h0a1.207,1.207,0,0,1-.957,1.416h0a1.086,1.086,0,0,1-.233.024h0A1.211,1.211,0,0,1,888.71,131.748Zm-25.413.346a1.2,1.2,0,0,1-.885-1.456h0a1.2,1.2,0,0,1,1.456-.885h0a1.207,1.207,0,0,1,.884,1.456h0a1.209,1.209,0,0,1-1.174.925h0A1.2,1.2,0,0,1,863.3,132.094Zm29.74-1.271a1.211,1.211,0,0,1,.844-1.488h0a1.2,1.2,0,0,1,1.48.845h0a1.2,1.2,0,0,1-.844,1.48h0a1.119,1.119,0,0,1-.321.048h0A1.2,1.2,0,0,1,893.037,130.823Zm-34.083.041a1.209,1.209,0,0,1-.772-1.52h0a1.2,1.2,0,0,1,1.52-.772h0a1.193,1.193,0,0,1,.772,1.512h0a1.194,1.194,0,0,1-1.142.837h0A1.223,1.223,0,0,1,858.954,130.863Zm38.322-1.287a1.2,1.2,0,0,1,.74-1.536v-.008a1.21,1.21,0,0,1,1.536.732h0a1.209,1.209,0,0,1-.732,1.544h0a1.216,1.216,0,0,1-.4.073h0A1.219,1.219,0,0,1,897.275,129.576Zm-42.56-.265a1.2,1.2,0,0,1-.659-1.568h0a1.206,1.206,0,0,1,1.568-.668h0a1.215,1.215,0,0,1,.667,1.577h0a1.21,1.21,0,0,1-1.117.748h0A1.135,1.135,0,0,1,854.715,129.311Zm46.7-1.287a1.2,1.2,0,0,1,.619-1.584h0a1.2,1.2,0,0,1,1.584.611h0a1.2,1.2,0,0,1-.619,1.592h0a1.138,1.138,0,0,1-.483.1h0A1.187,1.187,0,0,1,901.417,128.024Zm-50.819-.571a1.2,1.2,0,0,1-.539-1.616h0a1.2,1.2,0,0,1,1.617-.539h0a1.2,1.2,0,0,1,.539,1.617h0a1.209,1.209,0,0,1-1.078.668h0A1.206,1.206,0,0,1,850.6,127.453Zm54.832-1.271a1.206,1.206,0,0,1,.5-1.633h0a1.208,1.208,0,0,1,1.633.5h0a1.215,1.215,0,0,1-.5,1.633h0a1.218,1.218,0,0,1-.571.137h0A1.212,1.212,0,0,1,905.43,126.183Zm-58.8-.876h0a1.214,1.214,0,0,1-.426-1.657h0a1.2,1.2,0,0,1,1.656-.418h0a1.206,1.206,0,0,1,.426,1.648h0a1.218,1.218,0,0,1-1.046.6h0A1.209,1.209,0,0,1,846.633,125.306Zm62.666-1.263a1.209,1.209,0,0,1,.378-1.665h0a1.209,1.209,0,0,1,1.665.378h0a1.208,1.208,0,0,1-.378,1.665h-.008a1.143,1.143,0,0,1-.635.185h0A1.2,1.2,0,0,1,909.3,124.043Zm-66.462-1.174a1.211,1.211,0,0,1-.306-1.681h0a1.2,1.2,0,0,1,1.681-.3h0a1.2,1.2,0,0,1,.306,1.673h0a1.212,1.212,0,0,1-1,.523h0A1.21,1.21,0,0,1,842.837,122.869ZM913,121.631a1.207,1.207,0,0,1,.257-1.688h0a1.214,1.214,0,0,1,1.689.257h0a1.207,1.207,0,0,1-.257,1.689h0a1.193,1.193,0,0,1-.716.233h0A1.213,1.213,0,0,1,913,121.631Zm-73.772-1.464a1.2,1.2,0,0,1-.185-1.7h0a1.21,1.21,0,0,1,1.7-.177h0a1.194,1.194,0,0,1,.185,1.689h0a1.2,1.2,0,0,1-.941.45h0A1.216,1.216,0,0,1,839.226,120.167Zm77.294-1.214a1.2,1.2,0,0,1,.137-1.7h0a1.2,1.2,0,0,1,1.7.137h0a1.2,1.2,0,0,1-.137,1.7h0a1.2,1.2,0,0,1-.78.289h0A1.208,1.208,0,0,1,916.52,118.953Zm-80.7-1.746a1.2,1.2,0,0,1-.057-1.7h0a1.214,1.214,0,0,1,1.705-.057h0a1.215,1.215,0,0,1,.057,1.705h0a1.209,1.209,0,0,1-.885.386h0A1.2,1.2,0,0,1,835.824,117.207Zm84.01-1.174a1.216,1.216,0,0,1,.016-1.713h0a1.206,1.206,0,0,1,1.705.016h0a1.207,1.207,0,0,1-.016,1.705h0a1.185,1.185,0,0,1-.845.346h0A1.232,1.232,0,0,1,919.834,116.033Zm-87.194-2.018a1.207,1.207,0,0,1,.064-1.705h0a1.207,1.207,0,0,1,1.7.064h0a1.2,1.2,0,0,1-.064,1.705h0a1.19,1.19,0,0,1-.82.322h0A1.209,1.209,0,0,1,832.64,114.015Zm90.291-1.142a1.216,1.216,0,0,1-.113-1.705h0a1.217,1.217,0,0,1,1.705-.113h0a1.209,1.209,0,0,1,.112,1.705h0a1.2,1.2,0,0,1-.909.411h0A1.214,1.214,0,0,1,922.93,112.873ZM829.7,110.6h0a1.212,1.212,0,0,1,.193-1.7h0a1.211,1.211,0,0,1,1.7.193h0a1.2,1.2,0,0,1-.193,1.7h0a1.173,1.173,0,0,1-.748.258h0A1.217,1.217,0,0,1,829.7,110.6Zm96.1-1.094a1.214,1.214,0,0,1-.233-1.7h0a1.205,1.205,0,0,1,1.689-.233h0a1.205,1.205,0,0,1,.233,1.689h0a1.2,1.2,0,0,1-.957.483h0A1.227,1.227,0,0,1,925.793,109.5Zm-98.775-2.525a1.211,1.211,0,0,1,.306-1.681h0a1.212,1.212,0,0,1,1.681.313h0a1.214,1.214,0,0,1-.314,1.681h0a1.235,1.235,0,0,1-.675.209h0A1.21,1.21,0,0,1,827.018,106.978Zm101.389-1.053a1.2,1.2,0,0,1-.362-1.665h0a1.209,1.209,0,0,1,1.673-.362h0a1.216,1.216,0,0,1,.354,1.673h0a1.213,1.213,0,0,1-1.014.547h0A1.144,1.144,0,0,1,928.407,105.924ZM824.6,103.174a1.205,1.205,0,0,1,.435-1.649h0a1.2,1.2,0,0,1,1.648.426h0a1.214,1.214,0,0,1-.426,1.657h0a1.285,1.285,0,0,1-.612.161h0A1.2,1.2,0,0,1,824.6,103.174Zm106.15-1a1.217,1.217,0,0,1-.483-1.641h0a1.216,1.216,0,0,1,1.641-.482h0a1.215,1.215,0,0,1,.483,1.641h0a1.214,1.214,0,0,1-1.061.627h0A1.26,1.26,0,0,1,930.747,102.177ZM822.466,99.2a1.218,1.218,0,0,1,.555-1.617h0a1.218,1.218,0,0,1,1.616.555h0a1.212,1.212,0,0,1-.555,1.617h0a1.243,1.243,0,0,1-.531.12h0A1.212,1.212,0,0,1,822.466,99.2Zm110.34-.941a1.216,1.216,0,0,1-.595-1.6h0a1.215,1.215,0,0,1,1.6-.595h0a1.2,1.2,0,0,1,.6,1.6h0a1.2,1.2,0,0,1-1.094.7h0A1.274,1.274,0,0,1,932.806,98.26ZM820.633,95.091a1.212,1.212,0,0,1,.668-1.576h0a1.21,1.21,0,0,1,1.568.668h0a1.212,1.212,0,0,1-.667,1.576h0a1.238,1.238,0,0,1-.45.089h0A1.218,1.218,0,0,1,820.633,95.091ZM934.583,94.2a1.2,1.2,0,0,1-.715-1.544h0a1.206,1.206,0,0,1,1.552-.716h0a1.2,1.2,0,0,1,.708,1.552h0a1.2,1.2,0,0,1-1.126.788h0A1.082,1.082,0,0,1,934.583,94.2ZM819.1,90.845a1.2,1.2,0,0,1,.78-1.512h0a1.206,1.206,0,0,1,1.52.78h0a1.2,1.2,0,0,1-.788,1.512h0a1.145,1.145,0,0,1-.362.064h0A1.2,1.2,0,0,1,819.1,90.845Zm116.943-.812a1.209,1.209,0,0,1-.82-1.5h0a1.2,1.2,0,0,1,1.5-.82h0a1.2,1.2,0,0,1,.82,1.488h0a1.209,1.209,0,0,1-1.158.877h0A1.256,1.256,0,0,1,936.047,90.033ZM817.89,86.5a1.213,1.213,0,0,1,.893-1.456h0a1.2,1.2,0,0,1,1.447.892h0a1.2,1.2,0,0,1-.885,1.456h0a1.152,1.152,0,0,1-.281.032h0A1.2,1.2,0,0,1,817.89,86.5Zm119.315-.74a1.2,1.2,0,0,1-.925-1.432h0a1.191,1.191,0,0,1,1.423-.925h0a1.2,1.2,0,0,1,.933,1.423h0v.008h0a1.2,1.2,0,0,1-1.182.949h0A1.328,1.328,0,0,1,937.205,85.762ZM817,82.087a1.21,1.21,0,0,1,.989-1.391h0a1.215,1.215,0,0,1,1.391,1h0a1.2,1.2,0,0,1-1,1.383h0a.78.78,0,0,1-.193.016h0A1.2,1.2,0,0,1,817,82.087Zm121.052-.668a1.2,1.2,0,0,1-1.038-1.351h0a1.217,1.217,0,0,1,1.359-1.038h0a1.212,1.212,0,0,1,1.038,1.359h0a1.218,1.218,0,0,1-1.2,1.045h0A1.086,1.086,0,0,1,938.049,81.419Zm-121.623-3.8h0A1.2,1.2,0,0,1,817.52,76.3h0a1.207,1.207,0,0,1,1.311,1.094h0a1.218,1.218,0,0,1-1.094,1.311h-.112A1.2,1.2,0,0,1,816.426,77.615Zm122.146-.587a1.192,1.192,0,0,1-1.126-1.27V75.75a1.206,1.206,0,0,1,1.279-1.126h0a1.206,1.206,0,0,1,1.126,1.279h0a1.205,1.205,0,0,1-1.2,1.134h0A.261.261,0,0,1,938.572,77.028ZM816.185,73.112h0a1.129,1.129,0,0,1,.128-.571h0a1.226,1.226,0,0,1-.137-.571h0a1.2,1.2,0,0,1,1.206-1.206h0a1.2,1.2,0,0,1,1.2,1.206h0a1.177,1.177,0,0,1-.129.555h0a1.232,1.232,0,0,1,.145.547v-.008a1.212,1.212,0,0,1-1.19,1.23h-.016A1.2,1.2,0,0,1,816.185,73.112Zm121.374-1.689a1.211,1.211,0,0,1,1.2-1.222h0a1.205,1.205,0,0,1,1.215,1.2h0a1.2,1.2,0,0,1-1.2,1.215h-.008A1.207,1.207,0,0,1,937.559,71.423ZM817.448,68.753a1.2,1.2,0,0,1-1.11-1.286h0a1.2,1.2,0,0,1,1.287-1.118h0a1.207,1.207,0,0,1,1.117,1.295h0a1.21,1.21,0,0,1-1.206,1.118h0A.325.325,0,0,1,817.448,68.753Zm119.918-1.665a1.2,1.2,0,0,1,1.1-1.295h0a1.2,1.2,0,0,1,1.3,1.1h0a1.208,1.208,0,0,1-1.1,1.3h-.1A1.2,1.2,0,0,1,937.366,67.088ZM817.842,64.354a1.207,1.207,0,0,1-1.021-1.367h0a1.207,1.207,0,0,1,1.367-1.021h0a1.207,1.207,0,0,1,1.021,1.367h0a1.2,1.2,0,0,1-1.19,1.029h0A1.294,1.294,0,0,1,817.842,64.354Zm119.017-1.569h0a1.2,1.2,0,0,1,1.005-1.375h0a1.2,1.2,0,0,1,1.375,1.005h0a1.209,1.209,0,0,1-1.005,1.383h0a1.479,1.479,0,0,1-.185.008h0A1.2,1.2,0,0,1,936.859,62.785Zm-118.31-2.8a1.206,1.206,0,0,1-.917-1.44h0a1.206,1.206,0,0,1,1.44-.916h0a1.206,1.206,0,0,1,.917,1.44h0a1.218,1.218,0,0,1-1.182.949h0A.988.988,0,0,1,818.55,59.987Zm117.489-1.456h0a1.211,1.211,0,0,1,.9-1.447h0a1.208,1.208,0,0,1,1.447.909h0a1.2,1.2,0,0,1-.9,1.448h0a1.578,1.578,0,0,1-.274.032h0A1.207,1.207,0,0,1,936.039,58.531Zm-116.46-2.847a1.2,1.2,0,0,1-.812-1.5h0a1.2,1.2,0,0,1,1.5-.812h0a1.2,1.2,0,0,1,.8,1.5h0a1.2,1.2,0,0,1-1.15.861h0A1.009,1.009,0,0,1,819.579,55.684Zm115.334-1.335a1.192,1.192,0,0,1,.8-1.5h0a1.191,1.191,0,0,1,1.5.8h0a1.2,1.2,0,0,1-.8,1.5h0a1.044,1.044,0,0,1-.354.057h0A1.2,1.2,0,0,1,934.913,54.349Zm-114-2.879a1.209,1.209,0,0,1-.7-1.552h.008a1.2,1.2,0,0,1,1.552-.7h0a1.217,1.217,0,0,1,.7,1.56h0a1.206,1.206,0,0,1-1.134.772h0A1.183,1.183,0,0,1,820.914,51.47Zm112.56-1.207a1.218,1.218,0,0,1,.684-1.569h0a1.214,1.214,0,0,1,1.568.684h0a1.211,1.211,0,0,1-.683,1.569h0a1.226,1.226,0,0,1-.443.081h0A1.215,1.215,0,0,1,933.474,50.264Zm-110.911-2.9a1.2,1.2,0,0,1-.579-1.6h0a1.2,1.2,0,0,1,1.6-.579h0a1.2,1.2,0,0,1,.579,1.6h0a1.2,1.2,0,0,1-1.094.7h0A1.146,1.146,0,0,1,822.563,47.36Zm109.19-1.07h0a1.2,1.2,0,0,1,.563-1.609h0a1.2,1.2,0,0,1,1.608.571h0a1.2,1.2,0,0,1-.563,1.609h0a1.208,1.208,0,0,1-.523.12h0A1.207,1.207,0,0,1,931.752,46.291ZM824.5,43.388a1.2,1.2,0,0,1-.458-1.641h0a1.211,1.211,0,0,1,1.641-.466h0a1.219,1.219,0,0,1,.466,1.648h0a1.211,1.211,0,0,1-1.053.612h0A1.239,1.239,0,0,1,824.5,43.388Zm105.241-.925a1.2,1.2,0,0,1,.443-1.648h0a1.209,1.209,0,0,1,1.648.45h0a1.2,1.2,0,0,1-.45,1.641h0a1.145,1.145,0,0,1-.595.161h0A1.2,1.2,0,0,1,929.742,42.462ZM826.729,39.568a1.206,1.206,0,0,1-.338-1.673h0a1.214,1.214,0,0,1,1.673-.346h0a1.206,1.206,0,0,1,.338,1.673h0a1.2,1.2,0,0,1-1.005.539h0A1.256,1.256,0,0,1,826.729,39.568Zm100.721-.788a1.205,1.205,0,0,1,.33-1.673h0a1.2,1.2,0,0,1,1.673.33h0a1.205,1.205,0,0,1-.33,1.673h0a1.192,1.192,0,0,1-.667.209h0A1.21,1.21,0,0,1,927.45,38.779Zm-98.22-2.863a1.207,1.207,0,0,1-.217-1.7h0A1.211,1.211,0,0,1,830.7,34h0a1.207,1.207,0,0,1,.217,1.7h0a1.2,1.2,0,0,1-.957.466h0A1.182,1.182,0,0,1,829.23,35.916Zm95.67-.635a1.207,1.207,0,0,1,.209-1.7h0a1.2,1.2,0,0,1,1.689.209h0a1.2,1.2,0,0,1-.2,1.689h0a1.192,1.192,0,0,1-.748.257h0A1.229,1.229,0,0,1,924.9,35.281Zm-92.912-2.823a1.208,1.208,0,0,1-.1-1.705h0a1.208,1.208,0,0,1,1.705-.1h0a1.208,1.208,0,0,1,.1,1.7h0a1.217,1.217,0,0,1-.9.4h0A1.209,1.209,0,0,1,831.988,32.458Zm90.122-.49a1.2,1.2,0,0,1,.081-1.705h0a1.215,1.215,0,0,1,1.7.081h0a1.214,1.214,0,0,1-.08,1.705h0a1.175,1.175,0,0,1-.813.313h0A1.179,1.179,0,0,1,922.11,31.968Zm-87.122-2.758a1.216,1.216,0,0,1,.024-1.713h0a1.207,1.207,0,0,1,1.705.032h0a1.207,1.207,0,0,1-.024,1.705h0a1.208,1.208,0,0,1-.837.338h0A1.2,1.2,0,0,1,834.988,29.209Zm84.09-.338a1.2,1.2,0,0,1-.041-1.705h0a1.207,1.207,0,0,1,1.705-.048h0v.008h0a1.207,1.207,0,0,1,.041,1.705h0a1.206,1.206,0,0,1-.877.37h0A1.219,1.219,0,0,1,919.078,28.871Zm-80.865-2.686a1.211,1.211,0,0,1,.153-1.705h0a1.209,1.209,0,0,1,1.7.153h0a1.2,1.2,0,0,1-.153,1.7h0a1.173,1.173,0,0,1-.772.282h0A1.211,1.211,0,0,1,838.213,26.185ZM915.829,26a1.2,1.2,0,0,1-.161-1.7h0a1.2,1.2,0,0,1,1.7-.169h0a1.2,1.2,0,0,1,.161,1.7h0a1.193,1.193,0,0,1-.933.442h0A1.2,1.2,0,0,1,915.829,26Zm-74.182-2.6a1.218,1.218,0,0,1,.273-1.689h0a1.216,1.216,0,0,1,1.688.273h0a1.216,1.216,0,0,1-.273,1.689h0a1.213,1.213,0,0,1-.708.225h0A1.235,1.235,0,0,1,841.647,23.4Zm70.74-.032a1.2,1.2,0,0,1-.289-1.681h0a1.2,1.2,0,0,1,1.681-.29h0a1.2,1.2,0,0,1,.29,1.681h0a1.213,1.213,0,0,1-.989.507h0A1.214,1.214,0,0,1,912.386,23.37Zm-67.112-2.493a1.2,1.2,0,0,1,.4-1.657h0a1.2,1.2,0,0,1,1.657.394h0a1.212,1.212,0,0,1-.394,1.657h0a1.227,1.227,0,0,1-.635.177h0A1.215,1.215,0,0,1,845.274,20.877Zm63.477.113V21a1.2,1.2,0,0,1-.4-1.657h0a1.194,1.194,0,0,1,1.649-.41h0a1.205,1.205,0,0,1,.41,1.657h0a1.2,1.2,0,0,1-1.029.579h0A1.2,1.2,0,0,1,908.751,20.99Zm-59.673-2.365a1.22,1.22,0,0,1,.515-1.633h0a1.208,1.208,0,0,1,1.624.515h0a1.212,1.212,0,0,1-.515,1.633h0a1.227,1.227,0,0,1-.555.137h0A1.214,1.214,0,0,1,849.078,18.625Zm55.885.265a1.211,1.211,0,0,1-.531-1.624h0a1.211,1.211,0,0,1,1.624-.523h0a1.2,1.2,0,0,1,.531,1.617h0a1.219,1.219,0,0,1-1.078.659h0A1.209,1.209,0,0,1,904.964,18.89Zm-51.929-2.235a1.2,1.2,0,0,1,.627-1.584h0a1.2,1.2,0,0,1,1.584.627h0a1.2,1.2,0,0,1-.627,1.584h0a1.126,1.126,0,0,1-.475.1h0A1.21,1.21,0,0,1,853.035,16.655Zm48,.418a1.2,1.2,0,0,1-.651-1.576h0a1.2,1.2,0,0,1,1.576-.651h0a1.2,1.2,0,0,1,.651,1.576h0a1.2,1.2,0,0,1-1.118.74h0A1.158,1.158,0,0,1,901.031,17.073Zm-43.911-2.1a1.2,1.2,0,0,1,.748-1.528h0a1.2,1.2,0,0,1,1.528.74h0a1.2,1.2,0,0,1-.74,1.536h0a1.173,1.173,0,0,1-.394.073h0A1.215,1.215,0,0,1,857.12,14.974Zm39.849.571a1.205,1.205,0,0,1-.764-1.528h0a1.205,1.205,0,0,1,1.528-.764h0a1.212,1.212,0,0,1,.764,1.528h0a1.214,1.214,0,0,1-1.15.828h0A1.318,1.318,0,0,1,896.969,15.546Zm-35.643-1.939a1.2,1.2,0,0,1,.852-1.48h0a1.218,1.218,0,0,1,1.48.86h0a1.206,1.206,0,0,1-.861,1.472h0a1.055,1.055,0,0,1-.314.04h0A1.193,1.193,0,0,1,861.326,13.607Zm31.485.716a1.208,1.208,0,0,1-.869-1.472h0a1.206,1.206,0,0,1,1.464-.869h0a1.207,1.207,0,0,1,.868,1.472h0a1.21,1.21,0,0,1-1.166.909h0A1.27,1.27,0,0,1,892.812,14.323Zm-27.2-1.777a1.207,1.207,0,0,1,.965-1.407h0a1.2,1.2,0,0,1,1.408.957h0a1.2,1.2,0,0,1-.965,1.407h0a1,1,0,0,1-.217.024h0A1.212,1.212,0,0,1,865.613,12.545Zm22.961.86h0a1.2,1.2,0,0,1-.973-1.4h0a1.2,1.2,0,0,1,1.4-.973h0a1.2,1.2,0,0,1,.973,1.4h0a1.205,1.205,0,0,1-1.182.989h0A.981.981,0,0,1,888.573,13.406Zm-18.6-1.608a1.214,1.214,0,0,1,1.061-1.335h0a1.205,1.205,0,0,1,1.335,1.062h0a1.2,1.2,0,0,1-1.062,1.335h0a.777.777,0,0,1-.137.008h0A1.207,1.207,0,0,1,869.972,11.8ZM884.287,12.8h0a1.21,1.21,0,0,1-1.078-1.327h0a1.22,1.22,0,0,1,1.327-1.078h0v.008h0a1.208,1.208,0,0,1,1.078,1.319h0a1.216,1.216,0,0,1-1.2,1.086h0C884.376,12.811,884.327,12.8,884.287,12.8Zm-9.917-1.432a1.2,1.2,0,0,1,1.158-1.247h0a1.2,1.2,0,0,1,1.254,1.15h0a1.2,1.2,0,0,1-1.158,1.255h-.048A1.211,1.211,0,0,1,874.371,11.371Zm5.59,1.142h.008a1.213,1.213,0,0,1-1.174-1.247h0A1.206,1.206,0,0,1,880.04,10.1h0a1.208,1.208,0,0,1,1.166,1.239h0A1.208,1.208,0,0,1,880,12.513h-.04Z" transform="translate(-816.177 -10.1)"/><g transform="translate(30.208 31.358)"><g transform="translate(14.686 38.007)"><path class="e" d="M936.284,203.128a1.08,1.08,0,0,1-.937-.54l-2.677-4.636a1.081,1.081,0,0,1,.4-1.476l11.191-6.461a1.081,1.081,0,0,1,1.476.4l2.677,4.636a1.082,1.082,0,0,1-.4,1.476l-11.191,6.461A1.072,1.072,0,0,1,936.284,203.128Zm-1.2-5.321,1.6,2.764,9.319-5.38-1.6-2.764Z" transform="translate(-932.526 -189.869)"/></g><g transform="translate(0 32.153)"><path class="e" d="M902.013,189.617a4.114,4.114,0,0,1-3.568-2.055l-3.43-5.94A4.118,4.118,0,0,1,896.521,176l2.011-1.161a1.08,1.08,0,0,1,1.476.4l6.461,11.191a1.081,1.081,0,0,1-.4,1.476l-2.011,1.161A4.088,4.088,0,0,1,902.013,189.617Zm-3.337-12.362-1.075.621a1.954,1.954,0,0,0-.714,2.666l3.429,5.94a1.953,1.953,0,0,0,2.666.714l1.075-.62Z" transform="translate(-894.465 -174.698)"/></g><g transform="translate(28.749 46.674)"><path class="e" d="M972.73,220.422a1.063,1.063,0,0,1-.28-.037,1.08,1.08,0,0,1-.656-.5l-2.677-4.636a1.08,1.08,0,0,1,.4-1.476l2.238-1.293a1.081,1.081,0,0,1,1.476.4l2.677,4.636a1.08,1.08,0,0,1-.4,1.476l-2.238,1.293A1.077,1.077,0,0,1,972.73,220.422Zm-1.2-5.321,1.6,2.765.367-.211-1.6-2.765Z" transform="translate(-968.972 -212.332)"/></g><g transform="translate(19.601 43.936)"><path class="e" d="M954.492,222.325a3.982,3.982,0,0,1-3.438-1.961l-5.642-9.624a1.081,1.081,0,0,1,.392-1.482l6.715-3.876a1.081,1.081,0,0,1,1.476.4l5.568,9.644h0a3.979,3.979,0,0,1-1.455,5.428l-1.64.947A3.946,3.946,0,0,1,954.492,222.325Zm-6.666-11.74,5.091,8.686a1.819,1.819,0,0,0,2.471.654l1.64-.947a1.815,1.815,0,0,0,.664-2.476l-5.028-8.708Z" transform="translate(-945.264 -205.235)"/></g><g transform="translate(19.038 2.967)"><path class="e" d="M954.67,134.347a1.081,1.081,0,0,1-.935-.54l-9.784-16.947a1.081,1.081,0,0,1,.1-1.225L957.3,99.455a1.081,1.081,0,0,1,1.771.144l17.168,29.736a1.081,1.081,0,0,1-.761,1.606l-20.639,3.39A1.032,1.032,0,0,1,954.67,134.347ZM946.2,116.426l9.037,15.653,18.359-3.015-15.606-27.03Z" transform="translate(-943.806 -99.059)"/></g><g transform="translate(3.194 18.987)"><path class="e" d="M913.8,168.458a5.242,5.242,0,0,1-4.533-2.615l-5.824-10.088a5.226,5.226,0,0,1,1.912-7.138l13.677-7.9a1.081,1.081,0,0,1,1.476.4l9.969,17.266a1.081,1.081,0,0,1-.4,1.476l-13.677,7.9A5.189,5.189,0,0,1,913.8,168.458Zm5.377-25.325-12.742,7.356h0a3.064,3.064,0,0,0-1.121,4.185l5.824,10.088a3.064,3.064,0,0,0,4.185,1.122l12.741-7.356ZM905.9,149.554h0Z" transform="translate(-902.744 -140.576)"/></g><g transform="translate(44.919 9.238)"><path class="e" d="M1011.961,125.4a1.08,1.08,0,0,1-.536-2.019l13.885-7.926a1.081,1.081,0,0,1,1.071,1.877l-13.885,7.926A1.08,1.08,0,0,1,1011.961,125.4Z" transform="translate(-1010.88 -115.311)"/></g><g transform="translate(49.547 19.87)"><path class="e" d="M1023.954,148.965a1.081,1.081,0,0,1-.291-2.121l14.059-3.937a1.08,1.08,0,1,1,.582,2.081l-14.059,3.937A1.056,1.056,0,0,1,1023.954,148.965Z" transform="translate(-1022.874 -142.865)"/></g><g transform="translate(40.132)"><path class="e" d="M999.555,102.586a1.081,1.081,0,0,1-.763-1.845l9.066-9.056a1.08,1.08,0,1,1,1.526,1.529l-9.066,9.056A1.076,1.076,0,0,1,999.555,102.586Z" transform="translate(-998.474 -91.369)"/></g></g><g transform="translate(17.797 17.383)"><path class="f" d="M971.288,99.084a65.055,65.055,0,0,1-107.35,49.474,4.731,4.731,0,0,1-.248-6.931h0a4.739,4.739,0,0,1,6.439-.23,55.622,55.622,0,0,0,78.417-78.416,4.74,4.74,0,0,1,.229-6.438h0a4.731,4.731,0,0,1,6.932.248A64.906,64.906,0,0,1,971.288,99.084Z" transform="translate(-862.299 -55.151)"/></g></g></g><g transform="translate(-0.128)"><g transform="translate(70.154 133.431)"><g transform="translate(13.498 17.029)"><circle class="g" cx="48.106" cy="48.106" r="48.106"/></g><g transform="translate(0 3.867)"><path class="g" d="M1279.047,133.926a1.2,1.2,0,0,1-1.176-1.232h0a1.2,1.2,0,0,1,1.232-1.184h0a1.205,1.205,0,0,1,1.176,1.232h0a1.2,1.2,0,0,1-1.2,1.183h-.032Zm3.245-1.208a1.207,1.207,0,0,1,1.151-1.264h0a1.2,1.2,0,0,1,1.264,1.143h0a1.218,1.218,0,0,1-1.143,1.272h-.065A1.216,1.216,0,0,1,1282.292,132.718Zm-7.746.95a1.2,1.2,0,0,1-1.087-1.321h0a1.2,1.2,0,0,1,1.312-1.087h0a1.208,1.208,0,0,1,1.087,1.312h0a1.206,1.206,0,0,1-1.2,1.1h-.112Zm12.166-1.24a1.205,1.205,0,0,1,1.055-1.345h0a1.205,1.205,0,0,1,1.345,1.046h0a1.215,1.215,0,0,1-1.055,1.353h0c-.048,0-.1.008-.145.008h0A1.207,1.207,0,0,1,1286.712,132.428Zm-16.644.652h0a1.209,1.209,0,0,1-.99-1.393h0a1.2,1.2,0,0,1,1.393-.99h0a1.217,1.217,0,0,1,.99,1.393h0a1.215,1.215,0,0,1-1.192,1.006h0A1.771,1.771,0,0,1,1270.069,133.081Zm21.024-1.264a1.208,1.208,0,0,1,.958-1.417h0a1.208,1.208,0,0,1,1.417.95h0a1.209,1.209,0,0,1-.95,1.417h0a1.2,1.2,0,0,1-.233.024h0A1.222,1.222,0,0,1,1291.093,131.816Zm-25.444.346a1.2,1.2,0,0,1-.886-1.457h0a1.2,1.2,0,0,1,1.457-.886h0a1.2,1.2,0,0,1,.886,1.457h0a1.208,1.208,0,0,1-1.167.926h0A1.193,1.193,0,0,1,1265.648,132.162Zm29.776-1.272a1.213,1.213,0,0,1,.846-1.49h0a1.2,1.2,0,0,1,1.481.846h0a1.2,1.2,0,0,1-.845,1.481h0a1.057,1.057,0,0,1-.314.048h0A1.212,1.212,0,0,1,1295.425,130.89Zm-34.116.041a1.207,1.207,0,0,1-.781-1.522h0a1.2,1.2,0,0,1,1.522-.773v-.008a1.218,1.218,0,0,1,.781,1.522h0a1.212,1.212,0,0,1-1.151.837h0A1.185,1.185,0,0,1,1261.308,130.931Zm38.368-1.288a1.2,1.2,0,0,1,.732-1.538V128.1a1.2,1.2,0,0,1,1.538.741h0a1.2,1.2,0,0,1-.733,1.538h0a1.146,1.146,0,0,1-.4.073h0A1.2,1.2,0,0,1,1299.676,129.642Zm-42.619-.266a1.2,1.2,0,0,1-.66-1.57h0a1.213,1.213,0,0,1,1.578-.668h0a1.22,1.22,0,0,1,.66,1.579h0a1.211,1.211,0,0,1-1.119.749h0A1.161,1.161,0,0,1,1257.057,129.376Zm46.758-1.28a1.2,1.2,0,0,1,.62-1.594h0a1.212,1.212,0,0,1,1.594.612h0a1.218,1.218,0,0,1-.62,1.594h0a1.2,1.2,0,0,1-.491.1h0A1.209,1.209,0,0,1,1303.815,128.1Zm-50.872-.58a1.2,1.2,0,0,1-.547-1.618h0a1.207,1.207,0,0,1,1.619-.54h0a1.2,1.2,0,0,1,.547,1.619h0a1.222,1.222,0,0,1-1.087.668h0A1.152,1.152,0,0,1,1252.942,127.517Zm54.89-1.273a1.208,1.208,0,0,1,.5-1.634h0a1.21,1.21,0,0,1,1.635.5h0a1.21,1.21,0,0,1-.5,1.635h0a1.207,1.207,0,0,1-.563.137h0A1.218,1.218,0,0,1,1307.832,126.244Zm-58.868-.877a1.205,1.205,0,0,1-.419-1.659h0a1.2,1.2,0,0,1,1.65-.419h0a1.207,1.207,0,0,1,.427,1.65h0a1.216,1.216,0,0,1-1.039.6h0A1.239,1.239,0,0,1,1248.965,125.367Zm62.741-1.264a1.211,1.211,0,0,1,.378-1.667h0a1.211,1.211,0,0,1,1.667.379h0a1.209,1.209,0,0,1-.379,1.667h0a1.189,1.189,0,0,1-.644.185h0A1.214,1.214,0,0,1,1311.706,124.1Zm-66.542-1.176h0a1.211,1.211,0,0,1-.306-1.683h0a1.2,1.2,0,0,1,1.683-.3h0a1.2,1.2,0,0,1,.306,1.675h0a1.208,1.208,0,0,1-.991.523h0A1.214,1.214,0,0,1,1245.164,122.926Zm70.246-1.24a1.217,1.217,0,0,1,.266-1.69h0a1.2,1.2,0,0,1,1.683.257h0a1.209,1.209,0,0,1-.258,1.691h0a1.184,1.184,0,0,1-.708.233h0A1.217,1.217,0,0,1,1315.41,121.687Zm-73.861-1.465a1.212,1.212,0,0,1-.177-1.7h0a1.211,1.211,0,0,1,1.7-.177h0a1.2,1.2,0,0,1,.177,1.691h0a1.205,1.205,0,0,1-.942.451h0A1.217,1.217,0,0,1,1241.549,120.221Zm77.387-1.216a1.2,1.2,0,0,1,.137-1.7h0a1.2,1.2,0,0,1,1.7.137h0a1.209,1.209,0,0,1-.129,1.7h0a1.227,1.227,0,0,1-.789.29h0A1.208,1.208,0,0,1,1318.936,119.005Zm-80.793-1.748a1.2,1.2,0,0,1-.057-1.707h0a1.216,1.216,0,0,1,1.707-.057h0a1.216,1.216,0,0,1,.056,1.707h0a1.21,1.21,0,0,1-.885.387h0A1.211,1.211,0,0,1,1238.143,117.258Zm84.111-1.175a1.218,1.218,0,0,1,.016-1.715h0a1.208,1.208,0,0,1,1.707.016h0a1.215,1.215,0,0,1-.008,1.707h0a1.221,1.221,0,0,1-.854.347h0A1.249,1.249,0,0,1,1322.254,116.082Zm-87.3-2.021a1.209,1.209,0,0,1,.072-1.707h0a1.209,1.209,0,0,1,1.707.064h0a1.209,1.209,0,0,1-.073,1.707h0a1.177,1.177,0,0,1-.822.322h0A1.21,1.21,0,0,1,1234.954,114.061Zm90.408-1.143a1.2,1.2,0,0,1-.113-1.707h0a1.208,1.208,0,0,1,1.7-.113h0a1.2,1.2,0,0,1,.113,1.707h0a1.191,1.191,0,0,1-.91.411h0A1.177,1.177,0,0,1,1325.362,112.918Zm-93.347-2.279h0a1.212,1.212,0,0,1,.185-1.7h0a1.214,1.214,0,0,1,1.7.193h0a1.213,1.213,0,0,1-.185,1.7h0a1.213,1.213,0,0,1-.757.258h0A1.191,1.191,0,0,1,1232.015,110.639Zm96.205-1.095a1.216,1.216,0,0,1-.234-1.7h0a1.207,1.207,0,0,1,1.691-.233h0a1.215,1.215,0,0,1,.242,1.691h0a1.224,1.224,0,0,1-.966.483h0A1.233,1.233,0,0,1,1328.22,109.545Zm-98.895-2.529h0a1.212,1.212,0,0,1,.306-1.683h0a1.213,1.213,0,0,1,1.683.314h0a1.208,1.208,0,0,1-.314,1.683h0a1.183,1.183,0,0,1-.684.209h0A1.209,1.209,0,0,1,1229.326,107.016Zm101.511-1.055a1.2,1.2,0,0,1-.362-1.667h0a1.21,1.21,0,0,1,1.675-.362h0a1.217,1.217,0,0,1,.354,1.675h0a1.214,1.214,0,0,1-1.015.548h0A1.145,1.145,0,0,1,1330.837,105.961ZM1226.9,103.207a1.216,1.216,0,0,1,.435-1.651h0a1.2,1.2,0,0,1,1.651.427h0a1.215,1.215,0,0,1-.427,1.659h0a1.287,1.287,0,0,1-.612.161h0A1.212,1.212,0,0,1,1226.9,103.207Zm106.279-1a1.208,1.208,0,0,1-.475-1.643h0a1.206,1.206,0,0,1,1.634-.483h0a1.209,1.209,0,0,1,.483,1.643h0a1.216,1.216,0,0,1-1.063.628h0A1.258,1.258,0,0,1,1333.181,102.209ZM1224.768,99.23a1.22,1.22,0,0,1,.556-1.619h0a1.217,1.217,0,0,1,1.619.556h0a1.213,1.213,0,0,1-.556,1.619h0a1.245,1.245,0,0,1-.532.121h0A1.218,1.218,0,0,1,1224.768,99.23Zm110.481-.942a1.2,1.2,0,0,1-.6-1.6h0a1.2,1.2,0,0,1,1.594-.6h0a1.2,1.2,0,0,1,.6,1.6h0a1.2,1.2,0,0,1-1.1.7h0A1.209,1.209,0,0,1,1335.249,98.288Zm-112.317-3.173a1.213,1.213,0,0,1,.668-1.578h0a1.22,1.22,0,0,1,1.578.668h0a1.217,1.217,0,0,1-.677,1.578h0a1.238,1.238,0,0,1-.451.089h0A1.218,1.218,0,0,1,1222.932,95.115Zm114.089-.894a1.206,1.206,0,0,1-.717-1.546h0a1.211,1.211,0,0,1,1.554-.717h0a1.209,1.209,0,0,1,.717,1.554h0a1.223,1.223,0,0,1-1.136.789h0A1.1,1.1,0,0,1,1337.021,94.221ZM1221.4,90.864a1.2,1.2,0,0,1,.781-1.514h0a1.2,1.2,0,0,1,1.522.781h0a1.208,1.208,0,0,1-.781,1.514h0a1.239,1.239,0,0,1-.37.064h0A1.206,1.206,0,0,1,1221.4,90.864Zm117.084-.813a1.21,1.21,0,0,1-.822-1.5h0a1.2,1.2,0,0,1,1.5-.821h0a1.2,1.2,0,0,1,.821,1.49h0a1.21,1.21,0,0,1-1.16.877h0A1.22,1.22,0,0,1,1338.486,90.05Zm-118.3-3.535a1.214,1.214,0,0,1,.894-1.457h0a1.214,1.214,0,0,1,1.457.894h0a1.216,1.216,0,0,1-.894,1.457h0a1.158,1.158,0,0,1-.282.032h0A1.2,1.2,0,0,1,1220.187,86.516Zm119.459-.741a1.2,1.2,0,0,1-.926-1.433h0a1.2,1.2,0,0,1,1.433-.926h0a1.2,1.2,0,0,1,.926,1.425h0a1.2,1.2,0,0,1-1.184.958h0A1.337,1.337,0,0,1,1339.646,85.775Zm-120.353-3.68a1.212,1.212,0,0,1,.991-1.393h0a1.217,1.217,0,0,1,1.393,1h0a1.2,1.2,0,0,1-1,1.385h0a.776.776,0,0,1-.193.016h0A1.209,1.209,0,0,1,1219.293,82.095Zm121.2-.668a1.2,1.2,0,0,1-1.031-1.361h0a1.2,1.2,0,0,1,1.361-1.031h0a1.208,1.208,0,0,1,1.031,1.361h0a1.213,1.213,0,0,1-1.2,1.046h0A1.132,1.132,0,0,1,1340.492,81.427Zm-121.771-3.809a1.2,1.2,0,0,1,1.1-1.312h0a1.208,1.208,0,0,1,1.312,1.1h0a1.214,1.214,0,0,1-1.1,1.313h-.113A1.206,1.206,0,0,1,1218.721,77.618Zm122.294-.588a1.2,1.2,0,0,1-1.127-1.28v.008a1.208,1.208,0,0,1,1.28-1.136h0a1.206,1.206,0,0,1,1.127,1.28h0a1.207,1.207,0,0,1-1.2,1.136h0A.247.247,0,0,1,1341.015,77.03ZM1218.48,73.109h0a1.134,1.134,0,0,1,.129-.572h0a1.227,1.227,0,0,1-.137-.572h0a1.206,1.206,0,0,1,1.208-1.208h0a1.211,1.211,0,0,1,1.208,1.208h0a1.123,1.123,0,0,1-.137.548h0a1.29,1.29,0,0,1,.145.556h0a1.209,1.209,0,0,1-1.183,1.224h-.024A1.2,1.2,0,0,1,1218.48,73.109ZM1340,71.418a1.213,1.213,0,0,1,1.2-1.224h0a1.2,1.2,0,0,1,1.216,1.2h0a1.2,1.2,0,0,1-1.191,1.216h-.016A1.209,1.209,0,0,1,1340,71.418Zm-120.249-2.674a1.2,1.2,0,0,1-1.119-1.288h0a1.2,1.2,0,0,1,1.288-1.119h0a1.209,1.209,0,0,1,1.119,1.3h0a1.212,1.212,0,0,1-1.208,1.119h0A.275.275,0,0,1,1219.752,68.745Zm120.055-1.667a1.2,1.2,0,0,1,1.1-1.3h0a1.2,1.2,0,0,1,1.3,1.1h0a1.209,1.209,0,0,1-1.1,1.3h-.1A1.2,1.2,0,0,1,1339.807,67.078ZM1220.138,64.34a1.208,1.208,0,0,1-1.022-1.369h0a1.209,1.209,0,0,1,1.369-1.023h0a1.208,1.208,0,0,1,1.023,1.369h0a1.2,1.2,0,0,1-1.192,1.031h0A1.372,1.372,0,0,1,1220.138,64.34ZM1339.3,62.77h0a1.2,1.2,0,0,1,1.007-1.377h0a1.2,1.2,0,0,1,1.377,1.006h0a1.211,1.211,0,0,1-1.007,1.385h0a1.488,1.488,0,0,1-.185.008h0A1.2,1.2,0,0,1,1339.3,62.77Zm-118.453-2.8a1.207,1.207,0,0,1-.918-1.441h0a1.207,1.207,0,0,1,1.441-.918h0a1.207,1.207,0,0,1,.918,1.441h0a1.219,1.219,0,0,1-1.183.95h0A.972.972,0,0,1,1220.847,59.968Zm117.631-1.457a1.212,1.212,0,0,1,.91-1.449h0a1.206,1.206,0,0,1,1.441.91h0a1.2,1.2,0,0,1-.9,1.45h0a1.572,1.572,0,0,1-.273.032h0A1.21,1.21,0,0,1,1338.479,58.511Zm-116.6-2.85a1.2,1.2,0,0,1-.813-1.5h0a1.205,1.205,0,0,1,1.506-.813h0a1.206,1.206,0,0,1,.805,1.506h0a1.2,1.2,0,0,1-1.151.862h0A1.021,1.021,0,0,1,1221.878,55.66Zm115.474-1.337h0a1.2,1.2,0,0,1,.8-1.506h0a1.193,1.193,0,0,1,1.506.8h0v-.008h0a1.2,1.2,0,0,1-.8,1.514h0a1.045,1.045,0,0,1-.354.057h0A1.2,1.2,0,0,1,1337.352,54.324Zm-114.137-2.883a1.2,1.2,0,0,1-.693-1.554h0a1.2,1.2,0,0,1,1.554-.7h0a1.218,1.218,0,0,1,.7,1.562h0a1.205,1.205,0,0,1-1.127.773h0A1.178,1.178,0,0,1,1223.214,51.441Zm112.7-1.208a1.213,1.213,0,0,1,.685-1.57h0a1.206,1.206,0,0,1,1.562.685h0a1.213,1.213,0,0,1-.685,1.57h0a1.2,1.2,0,0,1-.443.081h0A1.2,1.2,0,0,1,1335.918,50.233Zm-111.053-2.907a1.2,1.2,0,0,1-.58-1.6h0a1.2,1.2,0,0,1,1.6-.58h0a1.2,1.2,0,0,1,.58,1.6h0a1.2,1.2,0,0,1-1.1.7h0A1.176,1.176,0,0,1,1224.865,47.327Zm109.322-1.071h0a1.211,1.211,0,0,1,.564-1.611h0a1.2,1.2,0,0,1,1.61.572h0a1.2,1.2,0,0,1-.564,1.611h0a1.2,1.2,0,0,1-.516.121h0A1.219,1.219,0,0,1,1334.187,46.255Zm-107.381-2.907a1.2,1.2,0,0,1-.459-1.643h0a1.212,1.212,0,0,1,1.642-.467h0a1.221,1.221,0,0,1,.467,1.651h0a1.212,1.212,0,0,1-1.055.612h0A1.233,1.233,0,0,1,1226.806,43.349Zm105.368-.926a1.216,1.216,0,0,1,.443-1.651h0a1.211,1.211,0,0,1,1.651.451h0a1.2,1.2,0,0,1-.451,1.643h0a1.15,1.15,0,0,1-.6.161h0A1.2,1.2,0,0,1,1332.174,42.423Zm-103.138-2.9a1.207,1.207,0,0,1-.338-1.675h0a1.216,1.216,0,0,1,1.675-.347h0a1.208,1.208,0,0,1,.338,1.675h0a1.192,1.192,0,0,1-1.007.539h0A1.283,1.283,0,0,1,1229.036,39.524Zm100.843-.789a1.207,1.207,0,0,1,.33-1.675h0a1.206,1.206,0,0,1,1.675.33h0a1.206,1.206,0,0,1-.322,1.675h0a1.238,1.238,0,0,1-.677.21h0A1.222,1.222,0,0,1,1329.879,38.735Zm-98.339-2.867a1.215,1.215,0,0,1-.217-1.7h0a1.213,1.213,0,0,1,1.691-.217h0a1.217,1.217,0,0,1,.225,1.7h-.008a1.205,1.205,0,0,1-.958.467h0A1.207,1.207,0,0,1,1231.54,35.869Zm95.795-.636a1.206,1.206,0,0,1,.2-1.7h0a1.208,1.208,0,0,1,1.7.21h0a1.2,1.2,0,0,1-.209,1.691h0a1.19,1.19,0,0,1-.749.257h0A1.2,1.2,0,0,1,1327.335,35.232ZM1234.3,32.406a1.209,1.209,0,0,1-.1-1.707h0a1.21,1.21,0,0,1,1.707-.1h0a1.209,1.209,0,0,1,.1,1.707h0a1.217,1.217,0,0,1-.9.4h0A1.223,1.223,0,0,1,1234.3,32.406Zm90.23-.491a1.2,1.2,0,0,1,.081-1.707h0a1.217,1.217,0,0,1,1.707.081h0a1.216,1.216,0,0,1-.081,1.707h0a1.215,1.215,0,0,1-.813.314h0A1.181,1.181,0,0,1,1324.532,31.915Zm-87.227-2.762a1.218,1.218,0,0,1,.024-1.715h0v.008h0a1.207,1.207,0,0,1,1.707.024h0a1.2,1.2,0,0,1-.024,1.707h0a1.209,1.209,0,0,1-.837.338h0A1.211,1.211,0,0,1,1237.305,29.153Zm84.192-.338h0a1.208,1.208,0,0,1-.04-1.707h0a1.208,1.208,0,0,1,1.707-.048h0a1.218,1.218,0,0,1,.04,1.715h0a1.193,1.193,0,0,1-.877.37h0A1.218,1.218,0,0,1,1321.5,28.815Zm-80.963-2.689a1.213,1.213,0,0,1,.153-1.707h0a1.211,1.211,0,0,1,1.7.153h0a1.2,1.2,0,0,1-.145,1.7h0a1.212,1.212,0,0,1-.781.282h0A1.214,1.214,0,0,1,1240.534,26.126Zm77.71-.185a1.2,1.2,0,0,1-.161-1.7h0a1.2,1.2,0,0,1,1.7-.169h0a1.2,1.2,0,0,1,.161,1.7h0a1.191,1.191,0,0,1-.926.443h0A1.21,1.21,0,0,1,1318.244,25.941Zm-74.272-2.6a1.213,1.213,0,0,1,.282-1.691h0a1.209,1.209,0,0,1,1.683.274h0a1.218,1.218,0,0,1-.274,1.691h0a1.215,1.215,0,0,1-.708.226h0A1.235,1.235,0,0,1,1243.972,23.339Zm70.825-.032a1.2,1.2,0,0,1-.29-1.683h0a1.2,1.2,0,0,1,1.683-.29h0a1.2,1.2,0,0,1,.29,1.683h0a1.213,1.213,0,0,1-.99.507h0A1.217,1.217,0,0,1,1314.8,23.307Zm-67.186-2.5a1.2,1.2,0,0,1,.395-1.659h0a1.2,1.2,0,0,1,1.658.395h0a1.205,1.205,0,0,1-.394,1.659h0a1.2,1.2,0,0,1-.628.177h0A1.2,1.2,0,0,1,1247.612,20.811Zm63.555.113a1.2,1.2,0,0,1-.411-1.651h0a1.207,1.207,0,0,1,1.659-.411h0a1.2,1.2,0,0,1,.4,1.659h0a1.2,1.2,0,0,1-1.031.58h0A1.166,1.166,0,0,1,1311.166,20.924Zm-59.754-2.367a1.22,1.22,0,0,1,.515-1.635h0a1.217,1.217,0,0,1,1.635.523h0a1.211,1.211,0,0,1-.516,1.626h0a1.282,1.282,0,0,1-.556.137h0A1.22,1.22,0,0,1,1251.412,18.557Zm55.953.265a1.213,1.213,0,0,1-.532-1.626h0a1.212,1.212,0,0,1,1.626-.524h0a1.2,1.2,0,0,1,.532,1.619h0a1.212,1.212,0,0,1-1.079.66h0A1.217,1.217,0,0,1,1307.366,18.822Zm-51.992-2.238A1.2,1.2,0,0,1,1256.01,15h0a1.205,1.205,0,0,1,1.586.628h0a1.212,1.212,0,0,1-.636,1.586h0a1.093,1.093,0,0,1-.475.1h0A1.206,1.206,0,0,1,1255.374,16.584Zm48.054.419a1.2,1.2,0,0,1-.652-1.578h0a1.2,1.2,0,0,1,1.578-.652h0a1.2,1.2,0,0,1,.652,1.578h0a1.2,1.2,0,0,1-1.111.741h0A1.185,1.185,0,0,1,1303.428,17Zm-43.964-2.1a1.205,1.205,0,0,1,.749-1.53h0a1.209,1.209,0,0,1,1.538.741h0A1.21,1.21,0,0,1,1261,15.65h0a1.126,1.126,0,0,1-.394.064h0A1.209,1.209,0,0,1,1259.464,14.9Zm39.9.571a1.207,1.207,0,0,1-.765-1.53h0a1.208,1.208,0,0,1,1.53-.765h0a1.213,1.213,0,0,1,.765,1.53h0a1.216,1.216,0,0,1-1.151.83h0A1.283,1.283,0,0,1,1299.362,15.473Zm-35.686-1.94a1.2,1.2,0,0,1,.854-1.481h0a1.22,1.22,0,0,1,1.481.862h0a1.208,1.208,0,0,1-.862,1.474h0a1.026,1.026,0,0,1-.306.04h0A1.2,1.2,0,0,1,1263.676,13.532Zm31.524.717a1.209,1.209,0,0,1-.87-1.474h0a1.207,1.207,0,0,1,1.465-.87h0a1.209,1.209,0,0,1,.87,1.474h0a1.211,1.211,0,0,1-1.167.91h0A1.255,1.255,0,0,1,1295.2,14.249Zm-27.232-1.779a1.209,1.209,0,0,1,.967-1.409h0a1.2,1.2,0,0,1,1.409.958h0a1.2,1.2,0,0,1-.958,1.409v.008c-.081.008-.153.016-.225.016h0A1.214,1.214,0,0,1,1267.967,12.47Zm22.989.861h0a1.213,1.213,0,0,1-.974-1.4h0a1.2,1.2,0,0,1,1.4-.974h0a1.207,1.207,0,0,1,.982,1.4h0a1.214,1.214,0,0,1-1.191.99h0A.984.984,0,0,1,1290.956,13.331Zm-18.624-1.61a1.215,1.215,0,0,1,1.063-1.337h0a1.206,1.206,0,0,1,1.337,1.063h0a1.2,1.2,0,0,1-1.063,1.336h0a.774.774,0,0,1-.137.008h0A1.209,1.209,0,0,1,1272.332,11.721Zm14.333,1.006h0a1.216,1.216,0,0,1-1.079-1.328h0a1.221,1.221,0,0,1,1.329-1.079h0v.008h0a1.209,1.209,0,0,1,1.079,1.321h0a1.211,1.211,0,0,1-1.2,1.087h0C1286.753,12.735,1286.7,12.727,1286.664,12.727Zm-9.92-1.433a1.2,1.2,0,0,1,1.151-1.248h0a1.2,1.2,0,0,1,1.256,1.151h0A1.2,1.2,0,0,1,1278,12.453h-.057A1.2,1.2,0,0,1,1276.744,11.294Zm5.6,1.143a1.219,1.219,0,0,1-1.176-1.248h0a1.207,1.207,0,0,1,1.248-1.167h0a1.2,1.2,0,0,1,1.167,1.24h0a1.205,1.205,0,0,1-1.208,1.176h-.032Z" transform="translate(-1218.472 -10.021)"/></g><g transform="translate(17.358)"><path class="g" d="M1307.443,0a65.134,65.134,0,0,1,49.533,107.48,4.737,4.737,0,0,1-6.94.249h0a4.746,4.746,0,0,1-.23-6.447A55.69,55.69,0,0,0,1271.3,22.77a4.745,4.745,0,0,1-6.446-.23h0a4.737,4.737,0,0,1,.249-6.94A64.985,64.985,0,0,1,1307.443,0Z" transform="translate(-1263.457)"/></g><g transform="translate(38.157 34.362)"><g transform="translate(10.912 21.935)"><path class="b" d="M1348.191,153.458h0a1.082,1.082,0,0,1-.868-.436l-1.467-1.967a1.083,1.083,0,1,1,1.736-1.294l.6.8,3.153-4.227a1.083,1.083,0,0,1,1.736,1.294l-4.021,5.391A1.086,1.086,0,0,1,1348.191,153.458Z" transform="translate(-1345.642 -145.902)"/></g><g transform="translate(21.869 23.267)"><path class="b" d="M1391.073,151.52H1375.12a1.082,1.082,0,0,1,0-2.165h15.953a1.082,1.082,0,0,1,0,2.165Z" transform="translate(-1374.038 -149.355)"/></g><g transform="translate(21.869 27.118)"><path class="b" d="M1384.847,161.5h-9.727a1.082,1.082,0,0,1,0-2.165h9.727a1.082,1.082,0,0,1,0,2.165Z" transform="translate(-1374.038 -159.335)"/></g><g transform="translate(21.869 34.82)"><path class="b" d="M1391.073,181.46H1375.12a1.082,1.082,0,0,1,0-2.165h15.953a1.082,1.082,0,0,1,0,2.165Z" transform="translate(-1374.038 -179.295)"/></g><g transform="translate(21.869 38.67)"><path class="b" d="M1384.847,191.44h-9.727a1.082,1.082,0,0,1,0-2.165h9.727a1.082,1.082,0,0,1,0,2.165Z" transform="translate(-1374.038 -189.275)"/></g><g transform="translate(21.869 46.372)"><path class="b" d="M1391.073,211.4H1375.12a1.082,1.082,0,0,1,0-2.165h15.953a1.082,1.082,0,0,1,0,2.165Z" transform="translate(-1374.038 -209.235)"/></g><g transform="translate(21.869 50.223)"><path class="b" d="M1384.847,221.38h-9.727a1.082,1.082,0,0,1,0-2.165h9.727a1.082,1.082,0,0,1,0,2.165Z" transform="translate(-1374.038 -219.215)"/></g><g transform="translate(5.675 8.41)"><path class="b" d="M1371,162.863h-37.843a1.082,1.082,0,0,1-1.082-1.082V111.934a1.082,1.082,0,0,1,1.082-1.082h3.189a1.082,1.082,0,0,1,0,2.165h-2.106V160.7h35.678V119.443a1.082,1.082,0,0,1,2.165,0v42.338A1.082,1.082,0,0,1,1371,162.863Z" transform="translate(-1332.07 -110.852)"/></g><g transform="translate(6.798)"><path class="b" d="M1368.018,104.956h-31.957a1.083,1.083,0,0,1,0-2.165,5.785,5.785,0,0,0,0-11.57,1.083,1.083,0,0,1,0-2.165h31.957a7.951,7.951,0,1,1,0,15.9Zm-26.521-2.165h26.542a5.786,5.786,0,0,0,0-11.572H1341.5a7.935,7.935,0,0,1,0,11.571Z" transform="translate(-1334.979 -89.055)"/></g><path class="b" d="M1325.23,104.956a1.082,1.082,0,1,1,0-2.165,5.786,5.786,0,1,0-5.715-6.635,1.083,1.083,0,0,1-2.142-.316,7.947,7.947,0,1,1,7.857,9.116Z" transform="translate(-1317.362 -89.055)"/><g transform="translate(0.001 6.44)"><path class="b" d="M1318.445,152.74a1.082,1.082,0,0,1-1.082-1.082v-44.83a1.082,1.082,0,0,1,2.165,0v44.83A1.082,1.082,0,0,1,1318.445,152.74Z" transform="translate(-1317.363 -105.746)"/></g></g></g><g transform="translate(213.461 133.432)"><g transform="translate(16.855 13.145)"><circle class="h" cx="48.044" cy="48.044" r="48.044"/></g><g transform="translate(3.453)"><path class="h" d="M1682.644,134.108a1.2,1.2,0,0,1-1.174-1.23h0a1.2,1.2,0,0,1,1.231-1.182h0a1.2,1.2,0,0,1,1.174,1.23h0a1.2,1.2,0,0,1-1.2,1.182h-.032Zm3.241-1.206a1.206,1.206,0,0,1,1.15-1.263h0a1.2,1.2,0,0,1,1.263,1.142h0a1.218,1.218,0,0,1-1.142,1.271h-.064A1.216,1.216,0,0,1,1685.885,132.9Zm-7.736.949a1.215,1.215,0,0,1-1.093-1.319h0a1.209,1.209,0,0,1,1.318-1.086h0a1.206,1.206,0,0,1,1.086,1.311h0a1.2,1.2,0,0,1-1.2,1.094h-.113Zm12.151-1.238a1.2,1.2,0,0,1,1.053-1.343h0a1.2,1.2,0,0,1,1.343,1.045h0a1.213,1.213,0,0,1-1.053,1.351h0c-.048,0-.1.008-.145.008h0A1.207,1.207,0,0,1,1690.3,132.613Zm-16.622.651a1.208,1.208,0,0,1-.989-1.391h0a1.2,1.2,0,0,1,1.391-.989h0a1.21,1.21,0,0,1,.989,1.391h0a1.213,1.213,0,0,1-1.19,1.005h0A1.772,1.772,0,0,1,1673.677,133.264Zm21-1.263a1.2,1.2,0,0,1,.949-1.415h0a1.207,1.207,0,0,1,1.416.949h0a1.207,1.207,0,0,1-.949,1.416h0a1.2,1.2,0,0,1-.233.024h0A1.2,1.2,0,0,1,1694.682,132Zm-25.42.346a1.2,1.2,0,0,1-.884-1.455h0a1.2,1.2,0,0,1,1.455-.885h0a1.2,1.2,0,0,1,.884,1.455h0a1.206,1.206,0,0,1-1.166.925h0A1.212,1.212,0,0,1,1669.262,132.347ZM1699,131.077a1.211,1.211,0,0,1,.844-1.488h0a1.2,1.2,0,0,1,1.479.845h0a1.2,1.2,0,0,1-.844,1.479h.008a1.159,1.159,0,0,1-.321.048h0A1.211,1.211,0,0,1,1699,131.077Zm-34.072.04a1.212,1.212,0,0,1-.78-1.52h0a1.2,1.2,0,0,1,1.52-.772v-.008a1.216,1.216,0,0,1,.78,1.52h0a1.211,1.211,0,0,1-1.149.837h0A1.182,1.182,0,0,1,1664.928,131.117Zm38.318-1.286a1.2,1.2,0,0,1,.732-1.536v-.008a1.2,1.2,0,0,1,1.536.74h0a1.2,1.2,0,0,1-.732,1.536h0a1.149,1.149,0,0,1-.4.073h0A1.209,1.209,0,0,1,1703.246,129.83Zm-42.565-.265a1.209,1.209,0,0,1-.659-1.568h0a1.206,1.206,0,0,1,1.568-.668h0a1.215,1.215,0,0,1,.667,1.577h0a1.21,1.21,0,0,1-1.117.748h0A1.168,1.168,0,0,1,1660.682,129.565Zm46.7-1.279a1.208,1.208,0,0,1,.619-1.592h0a1.208,1.208,0,0,1,1.592.611h0a1.209,1.209,0,0,1-.619,1.592h0a1.2,1.2,0,0,1-.491.1h0A1.207,1.207,0,0,1,1707.38,128.286Zm-50.807-.579a1.2,1.2,0,0,1-.547-1.616h0a1.2,1.2,0,0,1,1.617-.539h0a1.2,1.2,0,0,1,.547,1.617h0a1.231,1.231,0,0,1-1.086.668h0A1.149,1.149,0,0,1,1656.573,127.707Zm54.819-1.271a1.206,1.206,0,0,1,.5-1.632h0a1.208,1.208,0,0,1,1.632.5h0a1.208,1.208,0,0,1-.5,1.633h0a1.21,1.21,0,0,1-.563.137h0A1.215,1.215,0,0,1,1711.392,126.437Zm-58.792-.876a1.2,1.2,0,0,1-.418-1.656h0a1.2,1.2,0,0,1,1.648-.418h0a1.206,1.206,0,0,1,.426,1.648h0a1.214,1.214,0,0,1-1.037.6h0A1.237,1.237,0,0,1,1652.6,125.56Zm62.66-1.263a1.209,1.209,0,0,1,.378-1.665h0a1.209,1.209,0,0,1,1.665.378h0a1.207,1.207,0,0,1-.378,1.665h0a1.187,1.187,0,0,1-.643.185h0A1.2,1.2,0,0,1,1715.26,124.3Zm-66.456-1.174h0a1.21,1.21,0,0,1-.306-1.68h0a1.2,1.2,0,0,1,1.68-.3h0a1.2,1.2,0,0,1,.306,1.673h0a1.207,1.207,0,0,1-.989.522h0A1.216,1.216,0,0,1,1648.8,123.124Zm70.163-1.239a1.2,1.2,0,0,1,.258-1.689h0a1.2,1.2,0,0,1,1.68.257h0a1.207,1.207,0,0,1-.257,1.689h0a1.153,1.153,0,0,1-.708.233h0A1.2,1.2,0,0,1,1718.967,121.885Zm-73.773-1.464a1.21,1.21,0,0,1-.177-1.7h0a1.209,1.209,0,0,1,1.7-.177h0a1.2,1.2,0,0,1,.177,1.689h0a1.191,1.191,0,0,1-.941.45h0A1.218,1.218,0,0,1,1645.194,120.421Zm77.287-1.214a1.2,1.2,0,0,1,.137-1.7h0a1.193,1.193,0,0,1,1.7.137h0a1.2,1.2,0,0,1-.129,1.7h-.008a1.187,1.187,0,0,1-.78.289h0A1.209,1.209,0,0,1,1722.482,119.207Zm-80.689-1.745a1.2,1.2,0,0,1-.057-1.7h0a1.214,1.214,0,0,1,1.705-.057h0a1.214,1.214,0,0,1,.056,1.705h0a1.208,1.208,0,0,1-.885.386h0A1.213,1.213,0,0,1,1641.792,117.462Zm84.01-1.174a1.209,1.209,0,0,1,.008-1.713h0a1.206,1.206,0,0,1,1.705.016h0a1.207,1.207,0,0,1-.008,1.705h0a1.22,1.22,0,0,1-.852.346h0A1.2,1.2,0,0,1,1725.8,116.288Zm-87.195-2.018a1.208,1.208,0,0,1,.072-1.705h0a1.207,1.207,0,0,1,1.7.064h0a1.207,1.207,0,0,1-.073,1.705h0a1.187,1.187,0,0,1-.82.321h0A1.206,1.206,0,0,1,1638.608,114.27Zm90.291-1.142a1.2,1.2,0,0,1-.113-1.705h0a1.206,1.206,0,0,1,1.7-.113h0a1.2,1.2,0,0,1,.112,1.705h0a1.189,1.189,0,0,1-.909.41h0A1.177,1.177,0,0,1,1728.9,113.128Zm-93.226-2.276h0a1.21,1.21,0,0,1,.185-1.7h0a1.211,1.211,0,0,1,1.7.193h0a1.211,1.211,0,0,1-.185,1.7h0a1.21,1.21,0,0,1-.756.258h0A1.192,1.192,0,0,1,1635.673,110.852Zm96.081-1.094a1.214,1.214,0,0,1-.233-1.7h0a1.205,1.205,0,0,1,1.689-.233h0a1.215,1.215,0,0,1,.242,1.689h0a1.223,1.223,0,0,1-.965.483h0A1.233,1.233,0,0,1,1731.754,109.759Zm-98.767-2.525h0a1.205,1.205,0,0,1,.314-1.68h0a1.2,1.2,0,0,1,1.673.313h0a1.206,1.206,0,0,1-.314,1.681h0a1.174,1.174,0,0,1-.675.209h0A1.209,1.209,0,0,1,1632.987,107.233Zm101.381-1.053a1.2,1.2,0,0,1-.362-1.665h0a1.209,1.209,0,0,1,1.673-.362h0a1.216,1.216,0,0,1,.354,1.673h0a1.213,1.213,0,0,1-1.013.547h0A1.142,1.142,0,0,1,1734.368,106.18Zm-103.793-2.75a1.2,1.2,0,0,1,.426-1.649h0a1.2,1.2,0,0,1,1.648.426h0a1.214,1.214,0,0,1-.426,1.656h0a1.286,1.286,0,0,1-.611.161h0A1.2,1.2,0,0,1,1630.574,103.43Zm106.133-1a1.206,1.206,0,0,1-.474-1.641h0a1.2,1.2,0,0,1,1.632-.482h0a1.208,1.208,0,0,1,.483,1.641h0a1.213,1.213,0,0,1-1.061.627h0A1.26,1.26,0,0,1,1736.707,102.432Zm-108.264-2.975a1.208,1.208,0,0,1,.547-1.617h0a1.216,1.216,0,0,1,1.616.555h0a1.212,1.212,0,0,1-.555,1.617h0a1.243,1.243,0,0,1-.531.12h0A1.2,1.2,0,0,1,1628.443,99.457Zm110.331-.941a1.212,1.212,0,0,1-.6-1.6h0a1.209,1.209,0,0,1,1.6-.6h0a1.2,1.2,0,0,1,.6,1.6h0a1.194,1.194,0,0,1-1.094.7h0A1.2,1.2,0,0,1,1738.774,98.516ZM1626.6,95.348a1.209,1.209,0,0,1,.675-1.576h0a1.213,1.213,0,0,1,1.568.668h0a1.218,1.218,0,0,1-.667,1.576h0a1.306,1.306,0,0,1-.45.089h0A1.22,1.22,0,0,1,1626.6,95.348Zm113.942-.892a1.2,1.2,0,0,1-.716-1.544h0a1.209,1.209,0,0,1,1.552-.716h0a1.206,1.206,0,0,1,.716,1.552h0a1.22,1.22,0,0,1-1.134.788h0A1.109,1.109,0,0,1,1740.543,94.455ZM1625.074,91.1a1.2,1.2,0,0,1,.78-1.512h0a1.2,1.2,0,0,1,1.52.78h0a1.207,1.207,0,0,1-.78,1.512h0a1.237,1.237,0,0,1-.37.064h0A1.2,1.2,0,0,1,1625.074,91.1Zm116.941-.812a1.207,1.207,0,0,1-.828-1.5h0a1.2,1.2,0,0,1,1.5-.82h0a1.2,1.2,0,0,1,.82,1.488h0a1.208,1.208,0,0,1-1.158.876h0A1.147,1.147,0,0,1,1742.015,90.29Zm-118.155-3.531a1.212,1.212,0,0,1,.893-1.455h0a1.212,1.212,0,0,1,1.455.892h0a1.214,1.214,0,0,1-.893,1.455h0a1.152,1.152,0,0,1-.282.032h0A1.209,1.209,0,0,1,1623.859,86.759Zm119.305-.74a1.2,1.2,0,0,1-.925-1.432h0a1.191,1.191,0,0,1,1.423-.925h0a1.2,1.2,0,0,1,.933,1.423h0a1.2,1.2,0,0,1-1.182.957h0A1.394,1.394,0,0,1,1743.165,86.02Zm-120.2-3.675a1.209,1.209,0,0,1,1-1.391h0a1.212,1.212,0,0,1,1.383,1h0a1.2,1.2,0,0,1-1,1.383h0a.78.78,0,0,1-.193.016h0A1.208,1.208,0,0,1,1622.967,82.344Zm121.042-.668a1.2,1.2,0,0,1-1.029-1.359h0a1.2,1.2,0,0,1,1.359-1.029h0a1.206,1.206,0,0,1,1.029,1.359h0a1.21,1.21,0,0,1-1.19,1.045h0A1.14,1.14,0,0,1,1744.009,81.677Zm-121.613-3.8a1.209,1.209,0,0,1,1.094-1.311h0a1.2,1.2,0,0,1,1.311,1.094h0a1.213,1.213,0,0,1-1.094,1.311h-.112A1.2,1.2,0,0,1,1622.4,77.874Zm122.135-.587a1.2,1.2,0,0,1-1.126-1.278v.008a1.206,1.206,0,0,1,1.278-1.134h0a1.2,1.2,0,0,1,1.126,1.278h0a1.206,1.206,0,0,1-1.2,1.134h0A.248.248,0,0,1,1744.532,77.286ZM1622.155,73.37a1.127,1.127,0,0,1,.128-.571h0a1.225,1.225,0,0,1-.137-.571h0a1.2,1.2,0,0,1,1.206-1.206h0a1.21,1.21,0,0,1,1.206,1.206h0a1.185,1.185,0,0,1-.136.555h0a1.23,1.23,0,0,1,.145.547h0a1.208,1.208,0,0,1-1.182,1.222h-.024A1.2,1.2,0,0,1,1622.155,73.37Zm121.363-1.689a1.216,1.216,0,0,1,1.2-1.222h0a1.2,1.2,0,0,1,1.215,1.2h0a1.2,1.2,0,0,1-1.19,1.215h-.008A1.209,1.209,0,0,1,1743.518,71.682Zm-120.093-2.67a1.2,1.2,0,0,1-1.117-1.286h0a1.2,1.2,0,0,1,1.287-1.118h0a1.208,1.208,0,0,1,1.117,1.295h0a1.21,1.21,0,0,1-1.206,1.118h0A.273.273,0,0,1,1623.425,69.012Zm119.9-1.665a1.2,1.2,0,0,1,1.1-1.295h0a1.2,1.2,0,0,1,1.3,1.1h0a1.207,1.207,0,0,1-1.1,1.3h-.1A1.2,1.2,0,0,1,1743.326,67.347Zm-119.514-2.734a1.206,1.206,0,0,1-1.021-1.367h0a1.206,1.206,0,0,1,1.367-1.021h0a1.207,1.207,0,0,1,1.021,1.367h0a1.2,1.2,0,0,1-1.19,1.029h0A1.233,1.233,0,0,1,1623.812,64.613Zm119.007-1.568h0a1.2,1.2,0,0,1,1.005-1.375h0a1.21,1.21,0,0,1,1.383,1.005h0a1.221,1.221,0,0,1-1.014,1.383h0a1.479,1.479,0,0,1-.185.008h0A1.2,1.2,0,0,1,1742.819,63.045Zm-118.3-2.8a1.205,1.205,0,0,1-.917-1.44h0a1.205,1.205,0,0,1,1.44-.916h0a1.206,1.206,0,0,1,.917,1.44h0a1.209,1.209,0,0,1-1.174.949h0A.991.991,0,0,1,1624.519,60.246ZM1742,58.791a1.21,1.21,0,0,1,.909-1.447h0a1.217,1.217,0,0,1,1.448.909h0a1.213,1.213,0,0,1-.909,1.448h0a1.567,1.567,0,0,1-.273.032h0A1.208,1.208,0,0,1,1742,58.791Zm-116.45-2.847a1.194,1.194,0,0,1-.812-1.5h0a1.2,1.2,0,0,1,1.5-.812h0a1.2,1.2,0,0,1,.8,1.5h0a1.2,1.2,0,0,1-1.15.861h0A1.032,1.032,0,0,1,1625.548,55.944Zm115.325-1.335h0a1.2,1.2,0,0,1,.8-1.5h0a1.191,1.191,0,0,1,1.5.8h0v-.008h0a1.2,1.2,0,0,1-.788,1.512h0a1.123,1.123,0,0,1-.362.057h0A1.2,1.2,0,0,1,1740.873,54.609Zm-113.99-2.879a1.2,1.2,0,0,1-.691-1.552h0a1.2,1.2,0,0,1,1.552-.7h0a1.21,1.21,0,0,1,.7,1.56h0a1.2,1.2,0,0,1-1.126.772h0A1.183,1.183,0,0,1,1626.883,51.73Zm112.558-1.206a1.2,1.2,0,0,1,.684-1.568h0a1.205,1.205,0,0,1,1.56.684h0a1.211,1.211,0,0,1-.683,1.568h0a1.2,1.2,0,0,1-.443.081h0A1.2,1.2,0,0,1,1739.441,50.524Zm-110.909-2.9a1.2,1.2,0,0,1-.579-1.6h0a1.2,1.2,0,0,1,1.6-.579h0a1.2,1.2,0,0,1,.579,1.6h0a1.194,1.194,0,0,1-1.094.7h0A1.151,1.151,0,0,1,1628.532,47.621Zm109.181-1.07h0a1.21,1.21,0,0,1,.563-1.608h0a1.213,1.213,0,0,1,1.616.571h-.008a1.2,1.2,0,0,1-.563,1.608h0a1.2,1.2,0,0,1-.514.12h0A1.219,1.219,0,0,1,1737.713,46.552Zm-107.235-2.9a1.2,1.2,0,0,1-.466-1.641h0a1.211,1.211,0,0,1,1.641-.466h0a1.22,1.22,0,0,1,.466,1.648h0a1.21,1.21,0,0,1-1.053.611h0A1.182,1.182,0,0,1,1630.478,43.649Zm105.225-.925a1.21,1.21,0,0,1,.45-1.648h0a1.2,1.2,0,0,1,1.641.45h0a1.2,1.2,0,0,1-.442,1.641h0a1.2,1.2,0,0,1-.6.161h0A1.2,1.2,0,0,1,1735.7,42.724Zm-103-2.895a1.2,1.2,0,0,1-.346-1.673h0a1.215,1.215,0,0,1,1.673-.346h0a1.206,1.206,0,0,1,.338,1.673h0a1.19,1.19,0,0,1-1.005.539h0A1.231,1.231,0,0,1,1632.705,39.829Zm100.705-.788a1.205,1.205,0,0,1,.33-1.673h0a1.2,1.2,0,0,1,1.673.33h0a1.211,1.211,0,0,1-.321,1.673h0a1.238,1.238,0,0,1-.676.209h0A1.219,1.219,0,0,1,1733.41,39.041ZM1635.2,36.178a1.214,1.214,0,0,1-.217-1.7h0a1.211,1.211,0,0,1,1.689-.217h0a1.215,1.215,0,0,1,.225,1.7h0a1.23,1.23,0,0,1-.965.466h0A1.2,1.2,0,0,1,1635.2,36.178Zm95.663-.636a1.214,1.214,0,0,1,.209-1.7h0a1.2,1.2,0,0,1,1.689.209h0a1.2,1.2,0,0,1-.2,1.689h0a1.17,1.17,0,0,1-.74.257h0A1.232,1.232,0,0,1,1730.861,35.543Zm-92.9-2.823a1.208,1.208,0,0,1-.1-1.705h0a1.208,1.208,0,0,1,1.7-.1h0a1.208,1.208,0,0,1,.1,1.7h0a1.216,1.216,0,0,1-.9.4h0A1.227,1.227,0,0,1,1637.957,32.72Zm90.114-.49a1.2,1.2,0,0,1,.081-1.705h0a1.215,1.215,0,0,1,1.7.081h0a1.215,1.215,0,0,1-.081,1.705h0a1.213,1.213,0,0,1-.812.313h0A1.179,1.179,0,0,1,1728.071,32.23Zm-87.114-2.758a1.216,1.216,0,0,1,.024-1.713h0v.008h0a1.206,1.206,0,0,1,1.7.024h0a1.2,1.2,0,0,1-.024,1.705h0a1.209,1.209,0,0,1-.837.338h0A1.209,1.209,0,0,1,1640.956,29.471Zm84.083-.338h0a1.207,1.207,0,0,1-.041-1.705h0a1.207,1.207,0,0,1,1.705-.048h0a1.216,1.216,0,0,1,.04,1.713h0a1.192,1.192,0,0,1-.877.37h0A1.215,1.215,0,0,1,1725.039,29.133Zm-80.859-2.686a1.211,1.211,0,0,1,.153-1.705h0a1.208,1.208,0,0,1,1.7.153h0a1.208,1.208,0,0,1-.145,1.7h0a1.208,1.208,0,0,1-.78.282h0A1.223,1.223,0,0,1,1644.18,26.448Zm77.61-.185a1.2,1.2,0,0,1-.161-1.7h0a1.2,1.2,0,0,1,1.7-.169h0a1.2,1.2,0,0,1,.161,1.7h0a1.189,1.189,0,0,1-.925.442h0A1.209,1.209,0,0,1,1721.79,26.263Zm-74.176-2.6a1.212,1.212,0,0,1,.282-1.689h0a1.208,1.208,0,0,1,1.68.273h0a1.217,1.217,0,0,1-.273,1.689h0a1.213,1.213,0,0,1-.708.225h0A1.233,1.233,0,0,1,1647.615,23.665Zm70.734-.032a1.2,1.2,0,0,1-.289-1.68h0a1.2,1.2,0,0,1,1.68-.29h0a1.2,1.2,0,0,1,.29,1.681h0a1.213,1.213,0,0,1-.989.507h0A1.217,1.217,0,0,1,1718.348,23.633Zm-67.1-2.493a1.194,1.194,0,0,1,.394-1.656h0a1.2,1.2,0,0,1,1.656.394h0a1.2,1.2,0,0,1-.394,1.656h0a1.2,1.2,0,0,1-.627.177h0A1.2,1.2,0,0,1,1651.249,21.14Zm63.473.113a1.194,1.194,0,0,1-.41-1.649h0a1.2,1.2,0,0,1,1.656-.41h0a1.211,1.211,0,0,1,.41,1.656h0a1.226,1.226,0,0,1-1.037.579h0A1.17,1.17,0,0,1,1714.722,21.253Zm-59.677-2.364a1.219,1.219,0,0,1,.515-1.633h0a1.215,1.215,0,0,1,1.632.522h0a1.206,1.206,0,0,1-.522,1.624h0a1.221,1.221,0,0,1-.547.137h0A1.219,1.219,0,0,1,1655.045,18.889Zm55.881.265a1.211,1.211,0,0,1-.531-1.624h0a1.21,1.21,0,0,1,1.624-.523h0a1.2,1.2,0,0,1,.531,1.617h0a1.21,1.21,0,0,1-1.077.659h0A1.216,1.216,0,0,1,1710.926,19.154ZM1659,16.918a1.2,1.2,0,0,1,.635-1.584h0a1.2,1.2,0,0,1,1.584.627h0a1.211,1.211,0,0,1-.635,1.584h0a1.1,1.1,0,0,1-.474.1h0A1.206,1.206,0,0,1,1659,16.918Zm47.992.418a1.2,1.2,0,0,1-.651-1.576h0a1.209,1.209,0,0,1,1.584-.651h0a1.207,1.207,0,0,1,.644,1.576h0a1.2,1.2,0,0,1-1.11.74h0A1.17,1.17,0,0,1,1706.994,17.336Zm-43.907-2.1a1.2,1.2,0,0,1,.748-1.528h0a1.208,1.208,0,0,1,1.536.74h0a1.209,1.209,0,0,1-.748,1.536h0a1.126,1.126,0,0,1-.394.064h0A1.215,1.215,0,0,1,1663.087,15.238Zm39.846.571a1.205,1.205,0,0,1-.764-1.528h0a1.212,1.212,0,0,1,1.528-.764h0a1.212,1.212,0,0,1,.764,1.528h0a1.214,1.214,0,0,1-1.15.828h0A1.3,1.3,0,0,1,1702.933,15.809Zm-35.64-1.938a1.209,1.209,0,0,1,.852-1.479h0a1.214,1.214,0,0,1,1.479.86h0a1.206,1.206,0,0,1-.86,1.472h0a1.039,1.039,0,0,1-.306.04h0A1.2,1.2,0,0,1,1667.292,13.871Zm31.483.716h0a1.208,1.208,0,0,1-.869-1.472h0a1.206,1.206,0,0,1,1.464-.869h0a1.219,1.219,0,0,1,.876,1.472h0a1.227,1.227,0,0,1-1.174.909h0A1.331,1.331,0,0,1,1698.775,14.586Zm-27.2-1.777a1.207,1.207,0,0,1,.965-1.407h0a1.2,1.2,0,0,1,1.407.957h0a1.2,1.2,0,0,1-.957,1.407v.008c-.081.008-.153.016-.225.016h0A1.212,1.212,0,0,1,1671.578,12.809Zm22.967.86h0a1.211,1.211,0,0,1-.981-1.4h0a1.2,1.2,0,0,1,1.4-.973h0a1.206,1.206,0,0,1,.981,1.4h0a1.213,1.213,0,0,1-1.19.989h0A.9.9,0,0,1,1694.545,13.67Zm-18.608-1.609a1.215,1.215,0,0,1,1.07-1.335H1677a1.205,1.205,0,0,1,1.335,1.062h0a1.193,1.193,0,0,1-1.062,1.335h0a.776.776,0,0,1-.137.008h0A1.207,1.207,0,0,1,1675.937,12.061Zm14.314,1.006h0a1.215,1.215,0,0,1-1.077-1.327h0a1.219,1.219,0,0,1,1.327-1.077h0v.008h0a1.2,1.2,0,0,1,1.077,1.319h0a1.209,1.209,0,0,1-1.2,1.086h0C1690.339,13.075,1690.291,13.066,1690.251,13.066Zm-9.915-1.432a1.209,1.209,0,0,1,1.158-1.247h0a1.2,1.2,0,0,1,1.254,1.15h0a1.2,1.2,0,0,1-1.15,1.254h-.057A1.211,1.211,0,0,1,1680.336,11.635Zm5.6,1.142a1.218,1.218,0,0,1-1.174-1.247h0a1.205,1.205,0,0,1,1.247-1.166h0a1.2,1.2,0,0,1,1.166,1.239h0a1.2,1.2,0,0,1-1.206,1.174h-.031Z" transform="translate(-1622.147 -10.364)"/></g><g transform="translate(41.109 63.607)"><path class="b" d="M1735.864,190.225a.914.914,0,0,1-.387-.086l-15.209-7.1a.916.916,0,0,1-.529-.83V181.2a.916.916,0,0,1,.431-.777l8.112-5.07a.914.914,0,0,1,.872-.053l15.209,7.1a.916.916,0,0,1,.528.83v1.014a.916.916,0,0,1-.431.777l-8.111,5.07A.912.912,0,0,1,1735.864,190.225Zm-14.223-8.564,14.159,6.608,7.188-4.493-14.159-6.608Z" transform="translate(-1719.739 -175.211)"/></g><g transform="translate(64.43 63.608)"><path class="b" d="M1789.206,190.226a.917.917,0,0,1-.485-.139l-8.112-5.07a.917.917,0,0,1-.431-.777v-1.014a.915.915,0,0,1,.529-.83l15.209-7.1a.92.92,0,0,1,.873.053l8.111,5.07a.917.917,0,0,1,.431.777v1.014a.915.915,0,0,1-.529.83l-15.209,7.1A.916.916,0,0,1,1789.206,190.226Zm-7.125-6.449,7.189,4.493,14.159-6.608-7.188-4.493Zm22.334-1.564h0Z" transform="translate(-1780.178 -175.213)"/></g><g transform="translate(41.109 51.44)"><path class="b" d="M1728.766,157.677a.918.918,0,0,1-.41-.1l-8.111-4.055a.916.916,0,0,1-.506-.82v-1.014a.915.915,0,0,1,.529-.83l15.209-7.1a.916.916,0,1,1,.774,1.66l-14.54,6.786,7.037,3.518,9.6-5.237a.916.916,0,0,1,.877,1.608l-10.021,5.466A.917.917,0,0,1,1728.766,157.677Z" transform="translate(-1719.739 -143.677)"/></g><g transform="translate(68.486 51.44)"><path class="b" d="M1802.759,157.677a.918.918,0,0,1-.439-.112l-11.153-6.083a.916.916,0,0,1,.877-1.608l10.733,5.854,7.037-3.518-14.139-6.6-3.66,1.83a.916.916,0,1,1-.819-1.639l4.056-2.028a.917.917,0,0,1,.8-.011l15.209,7.1a.916.916,0,0,1,.529.83v1.014a.916.916,0,0,1-.506.82l-8.111,4.055A.918.918,0,0,1,1802.759,157.677Z" transform="translate(-1790.689 -143.678)"/></g><g transform="translate(64.43 71.719)"><path class="b" d="M1781.094,212.261a.916.916,0,0,1-.916-.916v-14.2a.916.916,0,0,1,1.832,0v14.2A.916.916,0,0,1,1781.094,212.261Z" transform="translate(-1780.178 -196.234)"/></g><g transform="translate(49.22 73.747)"><path class="b" d="M1756.886,215.489a.912.912,0,0,1-.387-.086l-15.209-7.1a.916.916,0,0,1-.529-.83v-5.07a.916.916,0,0,1,1.832,0v4.487l14.293,6.67,14.294-6.67v-4.487a.916.916,0,1,1,1.832,0v5.07a.916.916,0,0,1-.529.83l-15.21,7.1A.909.909,0,0,1,1756.886,215.489Z" transform="translate(-1740.761 -201.49)"/></g><g transform="translate(66.691 29.675)"><path class="b" d="M1789.513,94.218a3.474,3.474,0,1,1,3.474-3.474A3.478,3.478,0,0,1,1789.513,94.218Zm0-5.115a1.642,1.642,0,1,0,1.642,1.641A1.643,1.643,0,0,0,1789.513,89.1Z" transform="translate(-1786.039 -87.271)"/></g><g transform="translate(52.548 30.181)"><path class="b" d="M1752.858,95.529a3.474,3.474,0,1,1,3.474-3.473A3.478,3.478,0,0,1,1752.858,95.529Zm0-5.115a1.642,1.642,0,1,0,1.641,1.642A1.644,1.644,0,0,0,1752.858,90.414Z" transform="translate(-1749.384 -88.582)"/></g><g transform="translate(58.231 36.831)"><path class="b" d="M1767.586,112.764a3.474,3.474,0,1,1,3.474-3.473A3.478,3.478,0,0,1,1767.586,112.764Zm0-5.116a1.642,1.642,0,1,0,1.642,1.642A1.644,1.644,0,0,0,1767.586,107.649Z" transform="translate(-1764.112 -105.817)"/></g><g transform="translate(55.105 35.679)"><path class="b" d="M1762.611,119a.915.915,0,0,1-.648-.268l-5.682-5.683a.916.916,0,0,1-.269-.647v-8.652a.916.916,0,0,1,1.832,0v8.273l5.414,5.415a.915.915,0,0,1-.647,1.563Z" transform="translate(-1756.012 -102.83)"/></g><g transform="translate(60.793 42.015)"><path class="b" d="M1775.351,136.25a.916.916,0,0,1-.648-.268l-3.68-3.68a.917.917,0,0,1-.269-.647V120.169a.916.916,0,1,1,1.832,0v11.106l3.412,3.411a.916.916,0,0,1-.647,1.563Z" transform="translate(-1770.754 -119.253)"/></g><g transform="translate(64.474 34.791)"><path class="b" d="M1781.209,133.539a.916.916,0,0,1-.916-.916V115.347a.915.915,0,0,1,.268-.647l4.506-4.506v-8.748a.916.916,0,1,1,1.832,0v9.128a.916.916,0,0,1-.268.647l-4.507,4.506v16.9A.916.916,0,0,1,1781.209,133.539Z" transform="translate(-1780.293 -100.529)"/></g><g transform="translate(0 61.189)"><path class="h" d="M1724.095,214.941a65.05,65.05,0,0,1-110.881-40.921,4.731,4.731,0,0,1,4.725-5.077h0a4.74,4.74,0,0,1,4.715,4.39,55.618,55.618,0,0,0,110.888,0,4.739,4.739,0,0,1,4.714-4.39h0a4.731,4.731,0,0,1,4.726,5.077A64.9,64.9,0,0,1,1724.095,214.941Z" transform="translate(-1613.199 -168.944)"/></g></g></g></g></svg>