<svg xmlns="http://www.w3.org/2000/svg" viewBox="-12740.41 -9186.004 446.066 285.574"><defs><style>.a{fill:#e2231a;}.b,.e,.h,.j,.k,.m{fill:none;stroke-linecap:round;stroke-linejoin:round;stroke-miterlimit:10;}.b{stroke:#e2231a;}.b,.e,.h,.j,.k{stroke-width:3px;stroke-dasharray:0 3.85;}.c{fill:#fff;}.d{fill:#1e988a;}.e{stroke:#1e988a;}.f{fill:#f0f3f5;}.g{fill:#0d2240;}.h,.m{stroke:#0d2240;}.i{fill:#9a9ead;}.j{stroke:#9a9ead;}.k{stroke:#7e4082;}.l{fill:#7e4082;}.m{stroke-width:2.689px;}</style></defs><g transform="translate(-12750.41 -9186.004)"><g transform="translate(10 5.454)"><circle class="a" cx="51.679" cy="51.679" r="51.679" transform="translate(18.352 12.898)"/><path class="a" d="M70.03,143.231A70.073,70.073,0,0,1,20.516,23.6L27.7,30.871a59.863,59.863,0,0,0,84.659,84.659l7.185,7.185A69.8,69.8,0,0,1,70.03,143.231Z" transform="translate(0 -8.624)"/><circle class="b" cx="65.356" cy="65.356" r="65.356" transform="translate(4.761)"/><g transform="translate(40.166 33.414)"><g transform="translate(0.433 21.208)"><path class="a" d="M67.131,89.977A15.076,15.076,0,0,0,71.545,79.5c0-5.973-4.155-9-9.262-9s-9.176,3.03-9.176,9a14.712,14.712,0,0,0,4.415,10.474c.173.087.26.26.433.346L48,97.162v4.328c0,2.6,1.731,4.761,3.9,4.761H72.671c2.164,0,3.9-2.078,3.9-4.761V97.162L66.7,90.323A1.888,1.888,0,0,0,67.131,89.977Z" transform="translate(-47.048 -69.548)"/><path class="c" d="M72.609,107.055H51.834c-2.683,0-4.934-2.6-4.934-5.713V97.014a.909.909,0,0,1,.433-.779l8.916-6.146a16.057,16.057,0,0,1-4.242-10.734c0-6.059,3.982-9.955,10.215-9.955s10.215,3.9,10.215,9.955a16.057,16.057,0,0,1-4.242,10.734l8.916,6.146a1.033,1.033,0,0,1,.433.779v4.328C77.457,104.458,75.293,107.055,72.609,107.055ZM48.8,97.533v3.809c0,2.078,1.3,3.722,2.943,3.722H72.523c1.645,0,2.943-1.645,2.943-3.722V97.533l-9.522-6.492a.909.909,0,0,1-.433-.779.844.844,0,0,1,.346-.779c.087-.087.26-.173.346-.346a14.019,14.019,0,0,0,4.068-9.782c0-5.886-4.242-8.05-8.224-8.05s-8.137,2.164-8.137,8.05a14.179,14.179,0,0,0,4.068,9.782l.346.346a.94.94,0,0,1,.346.779.909.909,0,0,1-.433.779Z" transform="translate(-46.9 -69.4)"/></g><g transform="translate(29.259 0.26)"><path class="a" d="M100.1,66.123c.173-.087.26-.26.433-.346A15.076,15.076,0,0,0,104.945,55.3c0-5.973-4.155-9-9.262-9s-9.262,3.03-9.262,9a14.712,14.712,0,0,0,4.415,10.474c.173.087.26.26.433.346L81.4,72.962V77.29c0,2.6,1.731,4.761,3.9,4.761h20.775c2.164,0,3.9-2.078,3.9-4.761V72.962Z" transform="translate(-80.361 -45.348)"/><path class="c" d="M105.909,82.855H85.134c-2.683,0-4.934-2.6-4.934-5.713V72.814a.909.909,0,0,1,.433-.779l8.916-6.146a16.057,16.057,0,0,1-4.242-10.734c0-6.059,3.982-9.955,10.215-9.955s10.215,3.9,10.215,9.955a16.057,16.057,0,0,1-4.242,10.734l8.916,6.146a1.033,1.033,0,0,1,.433.779v4.328C110.844,80.258,108.68,82.855,105.909,82.855ZM82.191,73.333v3.809c0,2.078,1.3,3.722,2.943,3.722h20.775c1.645,0,2.943-1.645,2.943-3.722V73.333l-9.522-6.492a.909.909,0,0,1-.433-.779.844.844,0,0,1,.346-.779c.087-.087.26-.173.346-.346a14.019,14.019,0,0,0,4.068-9.782c0-5.886-4.242-8.05-8.224-8.05s-8.224,2.078-8.224,8.05a14.179,14.179,0,0,0,4.068,9.782l.346.346a.94.94,0,0,1,.346.779.909.909,0,0,1-.433.779Z" transform="translate(-80.2 -45.2)"/></g><g transform="translate(0 20.948)"><path class="c" d="M62.6,92.992A7.918,7.918,0,0,1,57.494,91a1.043,1.043,0,0,1-.433-.433A16.177,16.177,0,0,1,52.3,79.228c0-6.059,4.155-10.128,10.388-10.128s10.388,4.068,10.388,10.128a16.177,16.177,0,0,1-4.761,11.34c-.173.173-.346.26-.519.433A8.506,8.506,0,0,1,62.6,92.992Zm0-21.554c-3.9,0-8.137,2.078-8.137,7.877a14.282,14.282,0,0,0,3.982,9.7c.087.087.26.173.346.346a5.386,5.386,0,0,0,7.444,0c.173-.087.26-.26.346-.346a13.9,13.9,0,0,0,3.982-9.7C70.652,73.515,66.5,71.437,62.6,71.437Z" transform="translate(-47.193 -69.1)"/><path class="c" d="M72.2,110.177H51.421c-2.77,0-5.021-2.6-5.021-5.886V99.962a1.2,1.2,0,0,1,.519-.952l9.868-6.839a1.174,1.174,0,0,1,1.385.087,5.279,5.279,0,0,0,7.358,0,1.166,1.166,0,0,1,1.385-.087l9.868,6.839a.994.994,0,0,1,.519.952v4.328C77.217,107.58,74.966,110.177,72.2,110.177Zm-23.632-9.522v3.722c0,1.991,1.212,3.636,2.77,3.636H72.109c1.558,0,2.77-1.645,2.77-3.636v-3.722L66.137,94.6a7.671,7.671,0,0,1-8.916,0Z" transform="translate(-46.4 -72.175)"/></g><g transform="translate(28.826)"><path class="c" d="M95.9,68.792A7.918,7.918,0,0,1,90.794,66.8a1.043,1.043,0,0,1-.433-.433A16.177,16.177,0,0,1,85.6,55.028c0-6.059,4.155-10.128,10.388-10.128s10.388,4.069,10.388,10.128a16.177,16.177,0,0,1-4.761,11.34c-.173.173-.346.26-.433.433A8.736,8.736,0,0,1,95.9,68.792Zm0-21.554c-3.9,0-8.137,2.078-8.137,7.877a14.282,14.282,0,0,0,3.982,9.7l.346.346a5.386,5.386,0,0,0,7.444,0c.173-.087.26-.26.346-.346a13.894,13.894,0,0,0,3.982-9.7C104.038,49.315,99.8,47.237,95.9,47.237Z" transform="translate(-80.493 -44.9)"/><path class="c" d="M105.5,85.977H84.721c-2.77,0-5.021-2.6-5.021-5.886V75.762a1.2,1.2,0,0,1,.519-.952l9.868-6.839a1.174,1.174,0,0,1,1.385.087,5.279,5.279,0,0,0,7.358,0,1.166,1.166,0,0,1,1.385-.087l9.868,6.839a.994.994,0,0,1,.519.952V80.09C110.6,83.38,108.353,85.977,105.5,85.977ZM81.951,76.455v3.722c0,1.991,1.212,3.636,2.77,3.636H105.5c1.558,0,2.77-1.645,2.77-3.636V76.455L99.523,70.4a7.671,7.671,0,0,1-8.916,0Z" transform="translate(-79.7 -47.975)"/></g><g transform="translate(7.012 2.272)"><path class="c" d="M55.625,61.576A1.146,1.146,0,0,1,54.5,60.45a8.091,8.091,0,0,1,8.05-8.05H73.977A1.146,1.146,0,0,1,75.1,53.525a1.091,1.091,0,0,1-1.125,1.125H62.55a5.8,5.8,0,0,0-5.8,5.8A1.146,1.146,0,0,1,55.625,61.576Z" transform="translate(-54.5 -48.18)"/><path class="c" d="M71.829,58.41a.94.94,0,0,1-.779-.346,1.1,1.1,0,0,1,0-1.558L74.6,52.957,71.05,49.408a1.1,1.1,0,0,1,1.558-1.558l4.415,4.415a1.1,1.1,0,0,1,0,1.558l-4.415,4.415C72.348,58.237,72.088,58.41,71.829,58.41Z" transform="translate(-56.68 -47.525)"/></g><g transform="translate(36.465 43.368)"><path class="c" d="M101.152,104.176H89.725a1.125,1.125,0,1,1,0-2.251h11.513a5.8,5.8,0,0,0,5.8-5.8,1.125,1.125,0,0,1,2.251,0A8.166,8.166,0,0,1,101.152,104.176Z" transform="translate(-88.535 -95)"/><path class="c" d="M94.043,108.984a.94.94,0,0,1-.779-.346l-4.415-4.415a1.1,1.1,0,0,1,0-1.558l4.415-4.415a1.1,1.1,0,1,1,1.558,1.558l-3.549,3.549,3.549,3.549a1.1,1.1,0,0,1,0,1.558A.782.782,0,0,1,94.043,108.984Z" transform="translate(-88.525 -95.393)"/></g></g></g><g transform="translate(321.373 5.454)"><circle class="d" cx="51.679" cy="51.679" r="51.679" transform="translate(12.985 12.898)"/><circle class="e" cx="65.356" cy="65.356" r="65.356"/><path class="d" d="M451.815,143.245A69.8,69.8,0,0,1,402.3,122.729l7.185-7.185a59.863,59.863,0,0,0,84.659-84.659l7.185-7.185a70.03,70.03,0,0,1-49.514,119.545Z" transform="translate(-387.151 -8.638)"/><g transform="translate(31.262 32.483)"><path class="f" d="M443.273,105.383a1.13,1.13,0,0,1-1.039-.606l-2.857-5.021a1.024,1.024,0,0,1-.087-.866,1.346,1.346,0,0,1,.519-.693l12.032-6.925a1.068,1.068,0,0,1,1.558.433l2.857,5.021a1.024,1.024,0,0,1,.087.866,1.346,1.346,0,0,1-.519.693l-12.032,6.925A1.23,1.23,0,0,1,443.273,105.383Zm-1.3-5.713,1.731,2.943,10.041-5.8-1.731-2.943Z" transform="translate(-423.376 -50.176)"/><path class="f" d="M429.039,99.9a4.234,4.234,0,0,1-3.809-2.251l-3.722-6.406a4.424,4.424,0,0,1,1.645-6.059l2.164-1.212a1.068,1.068,0,0,1,1.558.433L433.8,96.438a1.024,1.024,0,0,1,.087.866,1.346,1.346,0,0,1-.519.693L431.2,99.208A3.788,3.788,0,0,1,429.039,99.9ZM425.49,86.57l-1.125.693a2.056,2.056,0,0,0-.779,2.857l3.722,6.406a2.056,2.056,0,0,0,2.857.779l1.125-.693Z" transform="translate(-420.915 -49.196)"/><path class="f" d="M460.681,110.561h-.26a1.346,1.346,0,0,1-.693-.519l-2.857-5.021a1.068,1.068,0,0,1,.433-1.558l2.424-1.385a1.024,1.024,0,0,1,.866-.087,1.346,1.346,0,0,1,.692.519l2.857,5.021a1.068,1.068,0,0,1-.433,1.558l-2.424,1.385A1.284,1.284,0,0,1,460.681,110.561Zm-1.3-5.713,1.731,2.943.433-.26-1.731-2.943Z" transform="translate(-425.722 -51.633)"/><path class="f" d="M455.259,116.851a4.393,4.393,0,0,1-3.722-2.078l-6.059-10.388a1.024,1.024,0,0,1-.087-.866,1.346,1.346,0,0,1,.519-.693l7.185-4.155a1.068,1.068,0,0,1,1.558.433l5.973,10.388h0a4.153,4.153,0,0,1-1.558,5.8l-1.731,1.039A4.35,4.35,0,0,1,455.259,116.851Zm-7.185-12.638,5.453,9.349a1.957,1.957,0,0,0,2.684.693l1.731-1.039a1.957,1.957,0,0,0,.692-2.683l-5.453-9.349Z" transform="translate(-424.196 -51.171)"/><path class="f" d="M456.275,85.5a1.32,1.32,0,0,1-1.039-.606L444.676,66.631a1.175,1.175,0,0,1,.087-1.3l14.37-17.4a1.39,1.39,0,0,1,.952-.433,1.311,1.311,0,0,1,.952.606l18.438,32.029a1.448,1.448,0,0,1,.087,1.039,1.375,1.375,0,0,1-.866.693L456.448,85.5Zm-9.089-19.3,9.7,16.88,19.737-3.2L459.824,50.789Z" transform="translate(-424.086 -44.319)"/><path class="f" d="M436.764,97.469a8.529,8.529,0,0,1-1.472-.173,5.148,5.148,0,0,1-3.376-2.6l-6.233-10.82a5.244,5.244,0,0,1-.519-4.242,5.148,5.148,0,0,1,2.6-3.376l14.716-8.483a1.024,1.024,0,0,1,.866-.087,1.346,1.346,0,0,1,.693.519l10.734,18.611a1.068,1.068,0,0,1-.433,1.558L439.62,96.863A7.652,7.652,0,0,1,436.764,97.469Zm5.8-27.268-13.677,7.877h0a3.279,3.279,0,0,0-1.558,1.991,3.2,3.2,0,0,0,.346,2.51l6.233,10.82a3.279,3.279,0,0,0,1.991,1.558,3.2,3.2,0,0,0,2.51-.346l13.677-7.877ZM428.28,77.127Z" transform="translate(-421.455 -47.024)"/><path class="f" d="M477.914,66.209a1.162,1.162,0,0,1-.606-2.164l14.976-8.57a1.143,1.143,0,1,1,1.125,1.991l-14.976,8.57A.928.928,0,0,1,477.914,66.209Z" transform="translate(-428.413 -45.369)"/><path class="f" d="M483.718,75.072a1.2,1.2,0,0,1-.346-2.337l15.149-4.242a1.177,1.177,0,0,1,.693,2.251l-15.149,4.242A.654.654,0,0,1,483.718,75.072Z" transform="translate(-429.196 -47.133)"/><path class="f" d="M472.015,55.922a1.24,1.24,0,0,1-.866-.346,1.2,1.2,0,0,1,0-1.645l9.782-9.782a1.163,1.163,0,0,1,1.645,1.645l-9.782,9.782A1.289,1.289,0,0,1,472.015,55.922Z" transform="translate(-427.621 -43.825)"/></g></g><g transform="translate(239.21 150.881)"><circle class="g" cx="51.679" cy="51.679" r="51.679" transform="translate(18.352 12.898)"/><path class="g" d="M827.13,151.03A70.119,70.119,0,0,1,757.1,81h10.214a59.9,59.9,0,0,0,119.8,0h10.128A70.193,70.193,0,0,1,827.13,151.03Z" transform="translate(-757.1 -16.337)"/><circle class="h" cx="65.356" cy="65.356" r="65.356" transform="translate(5.194 0)"/><path class="c" d="M825.8,100.092a.781.781,0,0,1-.433-.087l-16.361-7.618a1.042,1.042,0,0,1-.606-.866V90.4a1.065,1.065,0,0,1,.433-.866l8.743-5.454a1.191,1.191,0,0,1,.952-.087l16.361,7.618a1.042,1.042,0,0,1,.606.866V93.6a1.066,1.066,0,0,1-.433.866l-8.743,5.454A1.23,1.23,0,0,1,825.8,100.092Zm-15.322-9.176,15.235,7.1,7.7-4.848-15.235-7.1Z" transform="translate(-763.993 -16.731)"/><path class="c" d="M847.2,100.086a1.23,1.23,0,0,1-.519-.173l-8.743-5.454a1.066,1.066,0,0,1-.433-.866V92.469a1.042,1.042,0,0,1,.606-.866l16.274-7.618a.948.948,0,0,1,.952.087l8.743,5.454a1.066,1.066,0,0,1,.433.866v1.125a1.042,1.042,0,0,1-.606.866L847.541,100A.521.521,0,0,1,847.2,100.086Zm-7.7-6.925,7.7,4.848,15.235-7.1-7.7-4.848Zm24.065-1.731Z" transform="translate(-767.903 -16.725)"/><path class="c" d="M818.2,83.873a.78.78,0,0,1-.433-.087l-8.743-4.328a.952.952,0,0,1-.519-.866V77.467a1.042,1.042,0,0,1,.606-.866l16.361-7.618a.989.989,0,0,1,.779,1.818l-15.668,7.271,7.618,3.809,10.3-5.627a.968.968,0,1,1,.866,1.731l-10.82,5.886Z" transform="translate(-764.006 -14.709)"/><path class="c" d="M855.466,83.869a.649.649,0,0,1-.433-.087L843,77.2a.968.968,0,0,1,.866-1.731l11.513,6.319L863,77.982l-15.235-7.1-3.982,1.991a.968.968,0,1,1-.866-1.731l4.328-2.164a.786.786,0,0,1,.866,0L864.469,76.6a1.042,1.042,0,0,1,.606.866V78.5a.952.952,0,0,1-.519.866L855.812,83.7C855.726,83.869,855.639,83.869,855.466,83.869Z" transform="translate(-768.556 -14.704)"/><path class="c" d="M838.452,111.326a.961.961,0,0,1-.952-.952V95.052a.952.952,0,1,1,1.9,0v15.322A1.023,1.023,0,0,1,838.452,111.326Z" transform="translate(-767.903 -18.097)"/><path class="c" d="M835.9,111.676a.78.78,0,0,1-.433-.087l-16.361-7.618a1.042,1.042,0,0,1-.606-.866V97.652a.952.952,0,1,1,1.9,0V102.5l15.408,7.185,15.408-7.185V97.652a.952.952,0,1,1,1.9,0v5.454a1.042,1.042,0,0,1-.606.866l-16.361,7.618A.867.867,0,0,1,835.9,111.676Z" transform="translate(-765.35 -18.446)"/><path class="c" d="M844.022,49.244a3.722,3.722,0,1,1,3.722-3.722A3.75,3.75,0,0,1,844.022,49.244Zm0-5.54a1.731,1.731,0,1,0,1.731,1.731A1.736,1.736,0,0,0,844.022,43.7Z" transform="translate(-768.279 -11.07)"/><path class="c" d="M826.422,49.844a3.722,3.722,0,1,1,3.722-3.722A3.695,3.695,0,0,1,826.422,49.844Zm0-5.54a1.731,1.731,0,1,0,1.731,1.731A1.736,1.736,0,0,0,826.422,44.3Z" transform="translate(-765.914 -11.15)"/><path class="c" d="M833.422,58.144a3.722,3.722,0,1,1,3.722-3.722A3.695,3.695,0,0,1,833.422,58.144Zm0-5.54a1.731,1.731,0,1,0,1.731,1.731A1.634,1.634,0,0,0,833.422,52.6Z" transform="translate(-766.855 -12.266)"/><path class="c" d="M832.9,66.6a.983.983,0,0,1-.692-.26l-6.146-6.146a.983.983,0,0,1-.26-.693V50.152a.952.952,0,1,1,1.9,0v8.916l5.8,5.8a1.053,1.053,0,0,1,0,1.385A.58.58,0,0,1,832.9,66.6Z" transform="translate(-766.331 -12.064)"/><path class="c" d="M837.834,75.365a.983.983,0,0,1-.693-.26l-3.982-3.982a.983.983,0,0,1-.26-.693V58.052a.952.952,0,1,1,1.9,0V70l3.636,3.636a1.053,1.053,0,0,1,0,1.385A.579.579,0,0,1,837.834,75.365Z" transform="translate(-767.285 -13.126)"/><path class="c" d="M838.452,83.678a.961.961,0,0,1-.952-.952v-18.7a.983.983,0,0,1,.26-.693l4.848-4.848V49.052a.952.952,0,1,1,1.9,0V58.92a.983.983,0,0,1-.26.693L839.4,64.461V82.639A.929.929,0,0,1,838.452,83.678Z" transform="translate(-767.903 -11.916)"/></g><g transform="translate(86.969 145.514)"><g transform="translate(0 0)"><circle class="i" cx="51.679" cy="51.679" r="51.679" transform="translate(13.244 18.265)"/><path class="i" d="M690.629,119.645l-7.185-7.185A59.863,59.863,0,0,0,598.785,27.8L591.6,20.616a70.024,70.024,0,1,1,99.029,99.029Z" transform="translate(-576.105 -0.1)"/><circle class="j" cx="65.356" cy="65.356" r="65.356" transform="translate(0 5.367)"/></g><g transform="translate(39.808 36.963)"><path class="c" d="M635.878,78.059h0a1.39,1.39,0,0,1-.952-.433l-1.558-2.078a1.177,1.177,0,1,1,1.9-1.385l.606.866,3.376-4.5a1.177,1.177,0,0,1,1.9,1.385l-4.328,5.8A1.384,1.384,0,0,1,635.878,78.059Z" transform="translate(-621.498 -46.463)"/><path class="c" d="M665.065,73.951h-17.14a1.125,1.125,0,0,1,0-2.251h17.14a1.146,1.146,0,0,1,1.125,1.125A1.091,1.091,0,0,1,665.065,73.951Z" transform="translate(-623.33 -46.683)"/><path class="c" d="M658.4,78.751H647.925a1.125,1.125,0,0,1,0-2.251H658.4a1.125,1.125,0,1,1,0,2.251Z" transform="translate(-623.33 -47.328)"/><path class="c" d="M665.065,88.251h-17.14a1.125,1.125,0,0,1,0-2.251h17.14a1.146,1.146,0,0,1,1.125,1.125A1.044,1.044,0,0,1,665.065,88.251Z" transform="translate(-623.33 -48.604)"/><path class="c" d="M658.4,93.051H647.925a1.125,1.125,0,0,1,0-2.251H658.4a1.125,1.125,0,1,1,0,2.251Z" transform="translate(-623.33 -49.249)"/><path class="c" d="M665.065,102.651h-17.14a1.125,1.125,0,0,1,0-2.251h17.14a1.146,1.146,0,0,1,1.125,1.125A1.091,1.091,0,0,1,665.065,102.651Z" transform="translate(-623.33 -50.539)"/><path class="c" d="M658.4,107.451H647.925a1.125,1.125,0,0,1,0-2.251H658.4a1.125,1.125,0,1,1,0,2.251Z" transform="translate(-623.33 -51.184)"/><path class="c" d="M668.51,109.12H627.825a1.146,1.146,0,0,1-1.125-1.125V54.325a1.146,1.146,0,0,1,1.125-1.125h3.463a1.125,1.125,0,0,1,0,2.251h-2.251V106.7h38.348V62.376a1.125,1.125,0,1,1,2.251,0v45.533A1.07,1.07,0,0,1,668.51,109.12Z" transform="translate(-620.63 -44.197)"/><path class="c" d="M663.591,59.867H629.225a1.125,1.125,0,1,1,0-2.251,6.233,6.233,0,1,0,0-12.465,1.125,1.125,0,1,1,0-2.251H663.5a8.589,8.589,0,0,1,8.57,8.57A8.369,8.369,0,0,1,663.591,59.867Zm-28.479-2.337h28.479a6.233,6.233,0,1,0,0-12.465H635.112a8.58,8.58,0,0,1,0,12.465Z" transform="translate(-620.818 -42.813)"/><path class="c" d="M628.1,59.853a1.125,1.125,0,1,1,0-2.251,6.233,6.233,0,1,0-6.146-7.185,1.139,1.139,0,1,1-2.251-.346,8.57,8.57,0,1,1,8.4,9.782Z" transform="translate(-619.687 -42.8)"/><path class="c" d="M620.825,101.267a1.146,1.146,0,0,1-1.125-1.125V51.925a1.125,1.125,0,1,1,2.251,0v48.216A1.146,1.146,0,0,1,620.825,101.267Z" transform="translate(-619.689 -43.875)"/></g></g><g transform="translate(162.83)"><circle class="k" cx="65.356" cy="65.356" r="65.356" transform="translate(5.367 5.454)"/><circle class="l" cx="51.679" cy="51.679" r="51.679" transform="translate(18.525 18.352)"/><path class="l" d="M329.333,70.03H319.119a59.9,59.9,0,1,0-119.8,0H189.1a70.117,70.117,0,0,1,140.233,0Z" transform="translate(-189.1 0)"/><path class="l" d="M259.578,88.359h0a1.39,1.39,0,0,1-.952-.433l-1.558-2.078a1.177,1.177,0,0,1,1.9-1.385l.606.866,3.376-4.5a1.177,1.177,0,0,1,1.9,1.385l-4.328,5.8A1.384,1.384,0,0,1,259.578,88.359Z" transform="translate(-198.204 -10.797)"/><path class="l" d="M259.578,102.758h0a1.39,1.39,0,0,1-.952-.433l-1.558-2.078a1.177,1.177,0,1,1,1.9-1.385l.606.866,3.376-4.5a1.177,1.177,0,0,1,1.9,1.385l-4.328,5.8A1.384,1.384,0,0,1,259.578,102.758Z" transform="translate(-198.204 -12.732)"/><path class="m" d="M255.9,50.4" transform="translate(-198.075 -6.772)"/><g transform="translate(35.664 49.276)"><path class="f" d="M264.233,82.007a.52.52,0,0,1-.346-.087L230.993,69.369a1.125,1.125,0,0,1-.693-1.039,1.014,1.014,0,0,1,.779-.952L264.233,56.99a.74.74,0,0,1,.606,0l32.635,10.388a1.248,1.248,0,0,1,.779.952,1.125,1.125,0,0,1-.693,1.039L264.666,81.92C264.493,81.92,264.406,82.007,264.233,82.007ZM234.542,68.416l29.691,11.34,29.6-11.34-29.432-9.349Z" transform="translate(-230.3 -56.925)"/><path class="f" d="M266.322,97.174c-12.292,0-20.862-3.549-20.862-8.57,0-.26-.173-8.224-.26-12.465a1.039,1.039,0,1,1,2.078,0c0,2.078.26,12.292.26,12.552,0,3.2,7.012,6.492,18.784,6.492s18.784-3.289,18.784-6.492c0-.173-.087-8.05-.173-12.119a1.039,1.039,0,0,1,2.078,0c0,1.212.173,11.946.173,12.119C287.27,93.625,278.614,97.174,266.322,97.174Z" transform="translate(-232.302 -59.367)"/><path class="f" d="M295.641,97.765a1,1,0,0,1-1.039-1.039V73.613l-24.151-2.337a1.046,1.046,0,0,1-.952-1.125,1.115,1.115,0,0,1,1.125-.952l25.1,2.424a1.107,1.107,0,0,1,.952,1.039V96.726A1.053,1.053,0,0,1,295.641,97.765Z" transform="translate(-235.565 -58.573)"/><g transform="translate(30.557 9.5)"><ellipse class="f" cx="3.116" cy="1.212" rx="3.116" ry="1.212" transform="translate(0.26 0.952)"/><ellipse class="f" cx="3.116" cy="1.212" rx="3.116" ry="1.212" transform="translate(0.26 0.952)"/><ellipse class="f" cx="3.116" cy="1.212" rx="3.116" ry="1.212" transform="translate(0.26 0.952)"/><ellipse class="f" cx="3.116" cy="1.212" rx="3.116" ry="1.212" transform="translate(0.26 0.952)"/><ellipse class="f" cx="3.116" cy="1.212" rx="3.116" ry="1.212" transform="translate(0.26 0.952)"/><ellipse class="f" cx="3.116" cy="1.212" rx="3.116" ry="1.212" transform="translate(0.26 0.866)"/><ellipse class="f" cx="3.116" cy="1.212" rx="3.116" ry="1.212" transform="translate(0.26 0.866)"/><ellipse class="f" cx="3.116" cy="1.212" rx="3.116" ry="1.212" transform="translate(0.26 0.866)"/><ellipse class="f" cx="3.116" cy="1.212" rx="3.116" ry="1.212" transform="translate(0.26 0.866)"/><ellipse class="f" cx="3.116" cy="1.212" rx="3.116" ry="1.212" transform="translate(0.26 0.866)"/><ellipse class="f" cx="3.203" cy="1.212" rx="3.203" ry="1.212" transform="translate(0.173 0.866)"/><ellipse class="f" cx="3.203" cy="1.212" rx="3.203" ry="1.212" transform="translate(0.173 0.779)"/><ellipse class="f" cx="3.203" cy="1.212" rx="3.203" ry="1.212" transform="translate(0.173 0.779)"/><ellipse class="f" cx="3.203" cy="1.298" rx="3.203" ry="1.298" transform="translate(0.173 0.693)"/><ellipse class="f" cx="3.203" cy="1.298" rx="3.203" ry="1.298" transform="translate(0.173 0.693)"/><ellipse class="f" cx="3.203" cy="1.298" rx="3.203" ry="1.298" transform="translate(0.173 0.693)"/><ellipse class="f" cx="3.203" cy="1.298" rx="3.203" ry="1.298" transform="translate(0.173 0.693)"/><ellipse class="f" cx="3.203" cy="1.298" rx="3.203" ry="1.298" transform="translate(0.173 0.606)"/><ellipse class="f" cx="3.203" cy="1.298" rx="3.203" ry="1.298" transform="translate(0.173 0.606)"/><ellipse class="f" cx="3.203" cy="1.298" rx="3.203" ry="1.298" transform="translate(0.173 0.606)"/><ellipse class="f" cx="3.203" cy="1.298" rx="3.203" ry="1.298" transform="translate(0.173 0.606)"/><ellipse class="f" cx="3.203" cy="1.298" rx="3.203" ry="1.298" transform="translate(0.173 0.606)"/><ellipse class="f" cx="3.203" cy="1.298" rx="3.203" ry="1.298" transform="translate(0.173 0.519)"/><ellipse class="f" cx="3.203" cy="1.298" rx="3.203" ry="1.298" transform="translate(0.173 0.519)"/><ellipse class="f" cx="3.289" cy="1.298" rx="3.289" ry="1.298" transform="translate(0.087 0.519)"/><ellipse class="f" cx="3.289" cy="1.298" rx="3.289" ry="1.298" transform="translate(0.087 0.519)"/><ellipse class="f" cx="3.289" cy="1.298" rx="3.289" ry="1.298" transform="translate(0.087 0.519)"/><ellipse class="f" cx="3.289" cy="1.298" rx="3.289" ry="1.298" transform="translate(0.087 0.519)"/><ellipse class="f" cx="3.289" cy="1.298" rx="3.289" ry="1.298" transform="translate(0.087 0.433)"/><ellipse class="f" cx="3.289" cy="1.298" rx="3.289" ry="1.298" transform="translate(0.087 0.433)"/><ellipse class="f" cx="3.289" cy="1.298" rx="3.289" ry="1.298" transform="translate(0.087 0.433)"/><ellipse class="f" cx="3.289" cy="1.298" rx="3.289" ry="1.298" transform="translate(0.087 0.433)"/><ellipse class="f" cx="3.289" cy="1.298" rx="3.289" ry="1.298" transform="translate(0.087 0.433)"/><ellipse class="f" cx="3.289" cy="1.298" rx="3.289" ry="1.298" transform="translate(0.087 0.346)"/><ellipse class="f" cx="3.289" cy="1.298" rx="3.289" ry="1.298" transform="translate(0.087 0.346)"/><ellipse class="f" cx="3.289" cy="1.298" rx="3.289" ry="1.298" transform="translate(0.087 0.346)"/><ellipse class="f" cx="3.289" cy="1.298" rx="3.289" ry="1.298" transform="translate(0.087 0.346)"/><ellipse class="f" cx="3.289" cy="1.298" rx="3.289" ry="1.298" transform="translate(0.087 0.346)"/><ellipse class="f" cx="3.289" cy="1.298" rx="3.289" ry="1.298" transform="translate(0.087 0.346)"/><ellipse class="f" cx="3.376" cy="1.298" rx="3.376" ry="1.298" transform="translate(0 0.26)"/><ellipse class="f" cx="3.376" cy="1.298" rx="3.376" ry="1.298" transform="translate(0 0.26)"/><ellipse class="f" cx="3.376" cy="1.298" rx="3.376" ry="1.298" transform="translate(0 0.26)"/><ellipse class="f" cx="3.376" cy="1.298" rx="3.376" ry="1.298" transform="translate(0 0.26)"/><ellipse class="f" cx="3.376" cy="1.298" rx="3.376" ry="1.298" transform="translate(0 0.26)"/><ellipse class="f" cx="3.376" cy="1.298" rx="3.376" ry="1.298" transform="translate(0 0.173)"/><ellipse class="f" cx="3.376" cy="1.298" rx="3.376" ry="1.298" transform="translate(0 0.173)"/><ellipse class="f" cx="3.376" cy="1.298" rx="3.376" ry="1.298" transform="translate(0 0.173)"/><ellipse class="f" cx="3.376" cy="1.298" rx="3.376" ry="1.298" transform="translate(0 0.173)"/><ellipse class="f" cx="3.376" cy="1.298" rx="3.376" ry="1.298" transform="translate(0 0.173)"/><ellipse class="f" cx="3.376" cy="1.298" rx="3.376" ry="1.298" transform="translate(0 0.173)"/><ellipse class="f" cx="3.376" cy="1.385" rx="3.376" ry="1.385"/><ellipse class="f" cx="3.376" cy="1.385" rx="3.376" ry="1.385"/></g><path class="f" d="M295.444,99.391a1.23,1.23,0,0,1-.519-.173,1.1,1.1,0,0,1-.346-1.472l3.463-5.627a1.148,1.148,0,0,1,.866-.519,1.065,1.065,0,0,1,.866.433l3.809,5.454a1.057,1.057,0,1,1-1.731,1.212l-2.857-4.155-2.6,4.242A1.1,1.1,0,0,1,295.444,99.391Z" transform="translate(-238.917 -61.584)"/></g></g></g></svg>