<svg xmlns="http://www.w3.org/2000/svg" viewBox="-2314 -9242 377.027 377.109">
  <defs>
    <style>
      .cls-1 {
        fill: #eaedf3;
      }

      .cls-2 {
        fill: #fff;
      }

      .cls-3 {
        fill: #0d2240;
      }
    </style>
  </defs>
  <g id="Group_175" data-name="Group 175" transform="translate(-2314 -9242)">
    <g id="Group_152" data-name="Group 152" transform="translate(185.711)">
      <path id="Path_449" data-name="Path 449" class="cls-1" d="M352.872,149.563a13.086,13.086,0,0,1-24.893,8.078,1.939,1.939,0,0,1-.165-.659L228.9,189.128V83.208A13.106,13.106,0,0,0,228.9,57V3.5A185.758,185.758,0,0,1,405.544,131.758L352.79,148.9A.93.93,0,0,0,352.872,149.563Z" transform="translate(-225.933 -0.615)"/>
      <path id="Path_450" data-name="Path 450" class="cls-2" d="M228.185,191.481a2.738,2.738,0,0,1-1.731-.577A2.889,2.889,0,0,1,225.3,188.6v-106a2.921,2.921,0,0,1,2.885-2.885,10.221,10.221,0,0,0,0-20.442,2.921,2.921,0,0,1-2.885-2.885V2.885A2.921,2.921,0,0,1,228.185,0,188.7,188.7,0,0,1,407.631,130.237a2.893,2.893,0,0,1-1.813,3.627l-50.2,16.321a16.377,16.377,0,0,1-1.484,10.056,16.073,16.073,0,0,1-9.314,7.913,15.723,15.723,0,0,1-12.2-.989,15.507,15.507,0,0,1-7.089-7.254l-96.359,31.323A2.85,2.85,0,0,1,228.185,191.481Zm2.885-106.25v99.326l95.2-30.911a2.94,2.94,0,0,1,3.709,2.061,1.172,1.172,0,0,0,.165.495,9.856,9.856,0,0,0,5.111,5.935,9.964,9.964,0,0,0,7.831.577,9.856,9.856,0,0,0,5.935-5.111,9.964,9.964,0,0,0,.577-7.831c-.082-.165-.082-.33-.165-.495a3.191,3.191,0,0,1,.082-2.308,2.812,2.812,0,0,1,1.731-1.484l50.034-16.238a183.027,183.027,0,0,0-64.624-87.786A181.3,181.3,0,0,0,231.07,5.77V53.743a16.009,16.009,0,0,1,0,31.488Z" transform="translate(-225.3)"/>
    </g>
    <g id="Group_153" data-name="Group 153" transform="translate(9.171)">
      <path id="Path_451" data-name="Path 451" class="cls-1" d="M204.267,70.1a13.086,13.086,0,0,1-13.106,13.106v105.92L92.247,156.981A13.1,13.1,0,0,0,67.354,148.9L14.6,131.758A185.577,185.577,0,0,1,191.161,3.5V57A13.086,13.086,0,0,1,204.267,70.1Z" transform="translate(-11.736 -0.615)"/>
      <path id="Path_452" data-name="Path 452" class="cls-2" d="M190.551,191.481a3.506,3.506,0,0,1-.907-.165L90.73,159.169a2.83,2.83,0,0,1-1.9-3.462,10.191,10.191,0,0,0-19.371-6.265,2.956,2.956,0,0,1-3.627,1.731L13.083,134.028a2.893,2.893,0,0,1-1.813-3.627A188.15,188.15,0,0,1,190.551,0a2.921,2.921,0,0,1,2.885,2.885V53.743a16.009,16.009,0,0,1,0,31.488V188.6a2.777,2.777,0,0,1-1.154,2.308A3.6,3.6,0,0,1,190.551,191.481Zm-95.7-37.01,92.814,30.169V82.593a2.921,2.921,0,0,1,2.885-2.885,10.221,10.221,0,0,0,0-20.442,2.921,2.921,0,0,1-2.885-2.885V5.77A182.735,182.735,0,0,0,17.616,129.248l47.644,15.5a15.884,15.884,0,0,1,18.711-7.006A16.17,16.17,0,0,1,94.852,154.471Z" transform="translate(-11.126)"/>
    </g>
    <g id="Group_154" data-name="Group 154" transform="translate(0 128.362)">
      <path id="Path_453" data-name="Path 453" class="cls-1" d="M189.211,216.57l-61.244,84.324a13.1,13.1,0,0,0-15.414,21.184L79.993,366.754A185.431,185.431,0,0,1,3.5,216.57a183.354,183.354,0,0,1,9.067-57.37l52.754,17.145a13.1,13.1,0,0,1,24.893,8.078Z" transform="translate(-0.615 -156.336)"/>
      <path id="Path_454" data-name="Path 454" class="cls-2" d="M79.378,369.029a2.738,2.738,0,0,1-1.731-.577A188.4,188.4,0,0,1,0,215.96a188.107,188.107,0,0,1,9.15-58.277,2.794,2.794,0,0,1,1.4-1.649,2.963,2.963,0,0,1,2.226-.165l50.364,16.4a16,16,0,0,1,29.674,9.644l96.524,31.405a2.671,2.671,0,0,1,1.813,1.813,2.855,2.855,0,0,1-.412,2.555l-61.244,84.324a2.891,2.891,0,0,1-4.039.659,10.205,10.205,0,1,0-12.035,16.486,2.891,2.891,0,0,1,.659,4.039L81.6,367.875a2.6,2.6,0,0,1-1.9,1.154ZM13.766,162.216A182.709,182.709,0,0,0,78.8,362.1l29.18-40.225a16.023,16.023,0,0,1,18.546-25.47l57.37-78.966-95.2-30.911a2.83,2.83,0,0,1-1.9-3.462,10.191,10.191,0,0,0-19.371-6.265,2.956,2.956,0,0,1-3.627,1.731Z" transform="translate(0 -155.726)"/>
    </g>
    <g id="Group_155" data-name="Group 155" transform="translate(76.531 185.711)">
      <path id="Path_455" data-name="Path 455" class="cls-1" d="M314.67,378.984a185.739,185.739,0,0,1-218.27,0l32.477-44.676a13.1,13.1,0,0,1,15.414-21.184L205.535,228.8l61.244,84.324a13.1,13.1,0,0,0,15.414,21.184h0Z" transform="translate(-93.47 -225.915)"/>
      <path id="Path_456" data-name="Path 456" class="cls-2" d="M204.91,416.7A187.187,187.187,0,0,1,94.044,380.677a2.891,2.891,0,0,1-.659-4.039L124.3,334.105a16.023,16.023,0,0,1,18.546-25.47l59.76-82.181a2.889,2.889,0,0,1,2.308-1.154h0a2.777,2.777,0,0,1,2.308,1.154l61.244,84.324a2.891,2.891,0,0,1-.659,4.039A10.205,10.205,0,1,0,279.838,331.3a3.108,3.108,0,0,1,1.731-.577,2.776,2.776,0,0,1,2.308,1.154l32.477,44.841a2.891,2.891,0,0,1-.659,4.039A187.242,187.242,0,0,1,204.91,416.7ZM99.814,377.71a182.859,182.859,0,0,0,210.192,0l-29.18-40.225a16.023,16.023,0,0,1-18.546-25.47l-57.37-78.966-58.936,81.109a2.891,2.891,0,0,1-4.039.659A10.205,10.205,0,0,0,129.9,331.3a2.891,2.891,0,0,1,.659,4.039Z" transform="translate(-92.846 -225.3)"/>
    </g>
    <g id="Group_156" data-name="Group 156" transform="translate(185.662 128.362)">
      <path id="Path_457" data-name="Path 457" class="cls-1" d="M414.428,216.605a185.7,185.7,0,0,1-76.493,150.267L305.458,322.2h0a13.1,13.1,0,1,1-15.414-21.184L228.8,216.688l98.914-32.147c.082.247.082.412.165.659a13.086,13.086,0,1,0,24.893-8.078,4.022,4.022,0,0,0-.247-.577L405.279,159.4A179.272,179.272,0,0,1,414.428,216.605Z" transform="translate(-225.866 -156.371)"/>
      <path id="Path_458" data-name="Path 458" class="cls-2" d="M337.31,369.029H336.9a2.757,2.757,0,0,1-1.9-1.154l-30.911-42.533a16.023,16.023,0,0,1-18.546-25.47l-59.761-82.181a2.83,2.83,0,0,1,1.4-4.369L326.1,181.175a2.94,2.94,0,0,1,3.709,2.061,1.172,1.172,0,0,0,.165.495,9.856,9.856,0,0,0,5.111,5.935,9.964,9.964,0,0,0,7.831.577,9.856,9.856,0,0,0,5.935-5.111,9.964,9.964,0,0,0,.577-7.831c-.082-.165-.082-.33-.165-.495a3.191,3.191,0,0,1,.082-2.308,2.812,2.812,0,0,1,1.731-1.484l52.754-17.145a2.992,2.992,0,0,1,2.226.165,2.753,2.753,0,0,1,1.4,1.649,188.527,188.527,0,0,1-68.58,210.852A2.537,2.537,0,0,1,337.31,369.029Zm-32.477-50.446a2.776,2.776,0,0,1,2.308,1.154l30.746,42.286a183.174,183.174,0,0,0,65.036-199.889l-47.4,15.414a16.377,16.377,0,0,1-1.484,10.056,16.073,16.073,0,0,1-9.314,7.913,15.723,15.723,0,0,1-12.2-.989,15.507,15.507,0,0,1-7.089-7.254l-92.567,30.086,58.936,81.109a2.891,2.891,0,0,1-.659,4.039,10.205,10.205,0,0,0,12.035,16.486A3.486,3.486,0,0,1,304.833,318.583Z" transform="translate(-225.241 -155.726)"/>
    </g>
    <g id="Group_157" data-name="Group 157" transform="translate(134.77 133.039)">
      <circle id="Ellipse_89" data-name="Ellipse 89" class="cls-1" cx="50.034" cy="50.034" r="50.034" transform="translate(3.792 3.792)"/>
      <path id="Path_459" data-name="Path 459" class="cls-2" d="M217.326,269.051a53.826,53.826,0,1,1,53.826-53.826A53.894,53.894,0,0,1,217.326,269.051Zm0-100.068a46.242,46.242,0,1,0,46.242,46.242A46.33,46.33,0,0,0,217.326,168.983Z" transform="translate(-163.5 -161.4)"/>
    </g>
    <g id="Group_174" data-name="Group 174" transform="translate(45.625 39.483)">
      <g id="Group_164" data-name="Group 164" transform="translate(37.546)">
        <g id="Group_160" data-name="Group 160">
          <g id="Group_158" data-name="Group 158" transform="translate(0 28.52)">
            <path id="Path_460" data-name="Path 460" class="cls-3" d="M123.313,114.812a10.688,10.688,0,0,1-6.924-2.72,4.129,4.129,0,0,1-.659-.577A21.552,21.552,0,0,1,109.3,96.183c0-8.325,5.523-13.683,14.013-13.683s14.013,5.358,14.013,13.683a21.9,21.9,0,0,1-6.429,15.332c-.247.165-.412.412-.659.577A10.371,10.371,0,0,1,123.313,114.812Zm0-29.427c-5.358,0-11.128,2.8-11.128,10.8a19.1,19.1,0,0,0,5.523,13.271,2.185,2.185,0,0,0,.495.412c3.3,2.72,6.924,2.72,10.221,0a2.185,2.185,0,0,1,.495-.412,19.1,19.1,0,0,0,5.523-13.271C134.441,88.27,128.753,85.385,123.313,85.385Z" transform="translate(-102.376 -82.5)"/>
            <path id="Path_461" data-name="Path 461" class="cls-3" d="M136.014,139.883H107.659c-3.709,0-6.759-3.544-6.759-7.913v-5.852a1.315,1.315,0,0,1,.659-1.154l13.518-9.314a1.49,1.49,0,0,1,1.731.082c3.3,2.72,6.924,2.72,10.221,0a1.49,1.49,0,0,1,1.731-.082l13.518,9.314a1.42,1.42,0,0,1,.659,1.154v5.852C142.856,136.339,139.806,139.883,136.014,139.883ZM103.785,126.86v5.111c0,2.72,1.731,5.028,3.874,5.028h28.355c2.143,0,3.874-2.226,3.874-5.028V126.86l-12.035-8.243a10.266,10.266,0,0,1-12.117,0Z" transform="translate(-100.9 -88.283)"/>
          </g>
          <g id="Group_159" data-name="Group 159" transform="translate(39.401)">
            <path id="Path_462" data-name="Path 462" class="cls-3" d="M171.113,80.212a10.688,10.688,0,0,1-6.924-2.72c-.165-.165-.412-.33-.659-.577A21.552,21.552,0,0,1,157.1,61.583c0-8.325,5.523-13.683,14.013-13.683s14.013,5.358,14.013,13.683A21.9,21.9,0,0,1,178.7,76.915c-.247.165-.412.412-.659.577A10.688,10.688,0,0,1,171.113,80.212Zm0-29.427c-5.358,0-11.128,2.8-11.128,10.8a19.1,19.1,0,0,0,5.523,13.271,2.185,2.185,0,0,0,.495.412c3.3,2.72,6.924,2.72,10.221,0a2.185,2.185,0,0,1,.495-.412,19.1,19.1,0,0,0,5.523-13.271C182.241,53.588,176.471,50.785,171.113,50.785Z" transform="translate(-150.176 -47.9)"/>
            <path id="Path_463" data-name="Path 463" class="cls-3" d="M183.814,105.266H155.459c-3.709,0-6.759-3.544-6.759-7.913V91.5a1.316,1.316,0,0,1,.659-1.154l13.436-9.4a1.49,1.49,0,0,1,1.731.082c3.3,2.72,6.924,2.72,10.221,0a1.49,1.49,0,0,1,1.731-.082L190,90.264a1.42,1.42,0,0,1,.659,1.154V97.27C190.656,101.721,187.606,105.266,183.814,105.266ZM151.585,92.242v5.111c0,2.72,1.731,5.028,3.874,5.028h28.355c2.143,0,3.874-2.226,3.874-5.028V92.242L175.654,84a10.266,10.266,0,0,1-12.117,0Z" transform="translate(-148.7 -53.666)"/>
          </g>
        </g>
        <g id="Group_163" data-name="Group 163" transform="translate(13.024 8.16)">
          <g id="Group_161" data-name="Group 161">
            <path id="Path_464" data-name="Path 464" class="cls-3" d="M119.585,75.481H116.7A10.87,10.87,0,0,1,127.581,64.6h15.661v2.8H127.581A8.021,8.021,0,0,0,119.585,75.481Z" transform="translate(-116.7 -58.995)"/>
            <path id="Path_465" data-name="Path 465" class="cls-3" d="M142.461,71.813,140.4,69.752l4.946-4.946L140.4,59.861l2.061-2.061,5.935,5.935a1.521,1.521,0,0,1,.412.989,1.365,1.365,0,0,1-.412.989Z" transform="translate(-120.864 -57.8)"/>
          </g>
          <g id="Group_162" data-name="Group 162" transform="translate(34.105 47.314)">
            <path id="Path_466" data-name="Path 466" class="cls-3" d="M175.461,126.081H159.8V123.2h15.661a8,8,0,0,0,8-8h2.885A10.87,10.87,0,0,1,175.461,126.081Z" transform="translate(-158.378 -115.2)"/>
            <path id="Path_467" data-name="Path 467" class="cls-3" d="M164.443,132.13l-5.935-5.935a1.443,1.443,0,0,1,0-2.061l5.935-5.935,2.061,2.061-4.946,4.946,4.946,4.946Z" transform="translate(-158.075 -115.727)"/>
          </g>
        </g>
      </g>
      <g id="Group_166" data-name="Group 166" transform="translate(168.926 23.43)">
        <path id="Path_468" data-name="Path 468" class="cls-3" d="M307.612,110.43a1.045,1.045,0,0,1-.495-.082L261.2,93.2a1.34,1.34,0,0,1-.907-1.4,1.411,1.411,0,0,1,.989-1.319l45.088-14.1a1.686,1.686,0,0,1,.907,0l44.429,14.1A1.411,1.411,0,0,1,352.7,91.8a1.523,1.523,0,0,1-.907,1.4l-43.687,17.145A2.917,2.917,0,0,1,307.612,110.43ZM266.233,91.966l41.461,15.5,39.4-15.414L306.952,79.272Z" transform="translate(-260.287 -76.325)"/>
        <path id="Path_469" data-name="Path 469" class="cls-3" d="M310.25,137.254c-16.733,0-28.52-4.781-28.52-11.7,0-.33-.247-14.013-.33-21.266l2.885-.082c0,2.143.33,21.019.33,21.266,0,4.369,9.562,8.82,25.635,8.82,15.991,0,25.635-4.451,25.635-8.82,0-.33-.165-14.013-.247-21.267h2.885c0,2.143.247,21.019.247,21.267C338.77,132.39,327.065,137.254,310.25,137.254Z" transform="translate(-263.997 -81.223)"/>
        <path id="Path_470" data-name="Path 470" class="cls-3" d="M361.072,128.285a1.52,1.52,0,0,1-1.484-1.4l-.082-30.416H315.984a1.484,1.484,0,0,1,0-2.967h44.923a1.52,1.52,0,0,1,1.484,1.4l.082,31.9a1.462,1.462,0,0,1-1.4,1.484Z" transform="translate(-269.813 -79.343)"/>
        <g id="Group_165" data-name="Group 165" transform="translate(39.494 11.931)">
          <ellipse id="Ellipse_90" data-name="Ellipse 90" class="cls-3" cx="5.111" cy="2.061" rx="5.111" ry="2.061" transform="translate(1.484 1.401)"/>
          <path id="Path_471" data-name="Path 471" class="cls-3" d="M314.794,97.724c-3.3,0-6.594-1.072-6.594-3.462s3.3-3.462,6.594-3.462,6.594,1.072,6.594,3.462S318.091,97.724,314.794,97.724Zm-3.3-3.462a9.709,9.709,0,0,0,6.594,0,8.711,8.711,0,0,0-3.3-.577A9.081,9.081,0,0,0,311.5,94.262Z" transform="translate(-308.2 -90.8)"/>
        </g>
        <path id="Path_472" data-name="Path 472" class="cls-3" d="M363.293,130.947a1.329,1.329,0,0,1-.742-.247,1.467,1.467,0,0,1-.495-1.978l5.935-9.562a1.42,1.42,0,0,1,1.154-.659,1.565,1.565,0,0,1,1.236.659l6.429,9.232a1.358,1.358,0,0,1-.33,1.978,1.427,1.427,0,0,1-1.978-.33l-5.193-7.5L364.53,130.2A1.36,1.36,0,0,1,363.293,130.947Z" transform="translate(-278.135 -83.736)"/>
      </g>
      <g id="Group_167" data-name="Group 167" transform="translate(216.91 150.346)">
        <path id="Path_473" data-name="Path 473" class="cls-3" d="M337.1,293.575a1.365,1.365,0,0,1-.989-.412,1.521,1.521,0,0,1-.412-.989v-8.408a1.462,1.462,0,0,1,1.4-1.484l20.36-.082a1.407,1.407,0,0,1,1.4,1.4v8.408a1.462,1.462,0,0,1-1.4,1.484l-20.36.082Zm1.4-8.408v5.523l17.475-.082v-5.523Z" transform="translate(-321.522 -239.416)"/>
        <path id="Path_474" data-name="Path 474" class="cls-3" d="M324.765,274.545a6.227,6.227,0,0,1-6.182-6.182l-.082-10.8a6.192,6.192,0,0,1,6.182-6.265h3.627a1.52,1.52,0,0,1,1.484,1.4l.082,20.36a1.365,1.365,0,0,1-.412.989,1.521,1.521,0,0,1-.989.412l-3.709.082Zm2.143-20.277h-2.226a3.325,3.325,0,0,0-3.3,3.38l.082,10.8a3.307,3.307,0,0,0,3.3,3.3h2.226Z" transform="translate(-318.5 -233.987)"/>
        <path id="Path_475" data-name="Path 475" class="cls-3" d="M357.1,312.71a1.365,1.365,0,0,1-.989-.412,1.521,1.521,0,0,1-.412-.989V302.9a1.365,1.365,0,0,1,.412-.989,1.521,1.521,0,0,1,.989-.412h4.039a1.52,1.52,0,0,1,1.484,1.4v8.408a1.462,1.462,0,0,1-1.4,1.484l-4.121-.082Zm1.4-8.408v5.523h1.154V304.3Z" transform="translate(-325.037 -242.808)"/>
        <path id="Path_476" data-name="Path 476" class="cls-3" d="M346.782,317.476a6.034,6.034,0,0,1-6.017-5.935l-.165-17.557a1.365,1.365,0,0,1,.412-.989,1.521,1.521,0,0,1,.989-.412l12.2-.082h0a1.52,1.52,0,0,1,1.484,1.4l.082,17.557a5.981,5.981,0,0,1-5.935,6.017Zm-3.3-22.091.165,16.074a3.062,3.062,0,0,0,3.132,3.05h2.967a3.1,3.1,0,0,0,3.132-3.132L352.8,295.3Z" transform="translate(-322.383 -241.226)"/>
        <path id="Path_477" data-name="Path 477" class="cls-3" d="M399.194,287.092a1.045,1.045,0,0,1-.495-.082l-30.828-11.458a1.413,1.413,0,0,1-.907-1.319l-.165-30.746a1.337,1.337,0,0,1,.907-1.319l30.746-11.787a1.515,1.515,0,0,1,1.319.165,1.42,1.42,0,0,1,.659,1.154l.247,53.991a1.442,1.442,0,0,1-.577,1.154A2.148,2.148,0,0,1,399.194,287.092Zm-29.427-13.848,27.943,10.386-.247-49.869L369.6,244.395Z" transform="translate(-326.987 -230.296)"/>
        <path id="Path_478" data-name="Path 478" class="cls-3" d="M336.778,278.49a8.04,8.04,0,0,1-8-7.913l-.082-18.3a7.986,7.986,0,0,1,7.913-8h0l24.811-.082h0a1.52,1.52,0,0,1,1.484,1.4l.165,31.323a1.365,1.365,0,0,1-.412.989,1.521,1.521,0,0,1-.989.412l-24.893.165Zm-.082-31.323a5.066,5.066,0,0,0-5.028,5.111l.082,18.3a5.066,5.066,0,0,0,5.111,5.028l23.41-.082-.165-28.438Z" transform="translate(-320.292 -232.739)"/>
      </g>
      <g id="Group_168" data-name="Group 168" transform="translate(114.286 223.875)">
        <path id="Path_479" data-name="Path 479" class="cls-3" d="M251.947,402.093H195.484A1.478,1.478,0,0,1,194,400.609V320.984a1.478,1.478,0,0,1,1.484-1.484h38.164a1.365,1.365,0,0,1,.989.412l18.3,18.217a1.521,1.521,0,0,1,.412.989v61.574A1.444,1.444,0,0,1,251.947,402.093Zm-55.062-2.885h53.578V339.777l-17.475-17.392h-36.1Z" transform="translate(-194 -319.5)"/>
        <path id="Path_480" data-name="Path 480" class="cls-3" d="M260.153,340.437H242.184a1.478,1.478,0,0,1-1.484-1.484V320.984a1.484,1.484,0,0,1,2.967,0v16.568h16.568a1.478,1.478,0,0,1,1.484,1.484A1.535,1.535,0,0,1,260.153,340.437Z" transform="translate(-202.206 -319.5)"/>
        <path id="Path_481" data-name="Path 481" class="cls-3" d="M246.671,356.467H202.984a1.484,1.484,0,1,1,0-2.967h43.687a1.484,1.484,0,1,1,0,2.967Z" transform="translate(-195.318 -325.474)"/>
        <path id="Path_482" data-name="Path 482" class="cls-3" d="M246.771,371.067H203.084a1.484,1.484,0,0,1,0-2.967h43.687a1.484,1.484,0,0,1,0,2.967Z" transform="translate(-195.335 -328.04)"/>
        <path id="Path_483" data-name="Path 483" class="cls-3" d="M246.871,385.567H203.184a1.484,1.484,0,1,1,0-2.967h43.687a1.484,1.484,0,0,1,0,2.967Z" transform="translate(-195.353 -330.588)"/>
        <path id="Path_484" data-name="Path 484" class="cls-3" d="M236.125,401.27a11.606,11.606,0,0,1-6.1-1.566,8.983,8.983,0,0,0-4.781-1.236,8.763,8.763,0,0,0-4.781,1.236,12.661,12.661,0,0,1-12.2,0,8.983,8.983,0,0,0-4.781-1.236,1.484,1.484,0,1,1,0-2.967,11.607,11.607,0,0,1,6.1,1.566,8.983,8.983,0,0,0,4.781,1.236,8.763,8.763,0,0,0,4.781-1.236,12.661,12.661,0,0,1,12.2,0,8.983,8.983,0,0,0,4.781,1.236,1.484,1.484,0,1,1,0,2.967Z" transform="translate(-195.406 -332.855)"/>
      </g>
      <g id="Group_173" data-name="Group 173" transform="translate(0 146.434)">
        <g id="Group_171" data-name="Group 171" transform="translate(1.92 0.354)">
          <g id="Group_170" data-name="Group 170">
            <path id="Path_485" data-name="Path 485" class="cls-3" d="M115.766,296.791a4.659,4.659,0,0,1-3.462-1.319l-.082-.082h0l-23.41-23.41a1.393,1.393,0,0,1,0-1.978,1.443,1.443,0,0,1,2.061,0c.577.577,1.566.659,2.885.247a13.363,13.363,0,0,0,8.078-8.078c.412-1.319.33-2.39-.247-2.885a1.393,1.393,0,0,1,0-1.978,1.443,1.443,0,0,1,2.061,0l23.41,23.41h0l.082.082c2.555,2.555,1.236,7.748-2.885,11.87a15.239,15.239,0,0,1-6.182,3.874C117.25,296.626,116.426,296.791,115.766,296.791Zm-1.649-3.544a.081.081,0,0,1,.082.082c.577.577,1.649.659,2.967.247a12.162,12.162,0,0,0,4.946-3.132c3.05-3.05,4.039-6.677,2.885-7.831-.082,0-.082-.082-.165-.165l-20.277-20.277c-.082.165-.082.412-.165.577a14.9,14.9,0,0,1-3.874,6.182,15.239,15.239,0,0,1-6.182,3.874c-.165.082-.412.082-.577.165Z" transform="translate(-63.078 -231.409)"/>
            <path id="Path_486" data-name="Path 486" class="cls-3" d="M88.277,262.018a3.608,3.608,0,0,1-2.638-1.072L69.154,244.46l-.907.907a1.435,1.435,0,0,1-2.226-.247l-8.078-12.035a1.385,1.385,0,0,1,.165-1.813l4.863-4.863a1.385,1.385,0,0,1,1.813-.165l12.035,8.078a1.832,1.832,0,0,1,.659,1.072,1.28,1.28,0,0,1-.412,1.154l-.989.989,16.486,16.486a3.683,3.683,0,0,1,0,5.275l-1.649,1.649A3.608,3.608,0,0,1,88.277,262.018ZM69.154,241a1.521,1.521,0,0,1,.989.412l17.475,17.475a.8.8,0,0,0,1.154,0l1.649-1.649a.8.8,0,0,0,0-1.154L72.946,238.608a1.521,1.521,0,0,1-.412-.989,1.365,1.365,0,0,1,.412-.989l.742-.742-9.562-6.594-3.215,3.215,6.429,9.562.742-.742A1.813,1.813,0,0,1,69.154,241Z" transform="translate(-57.68 -225.98)"/>
            <g id="Group_169" data-name="Group 169" transform="translate(24.344 24.509)">
              <path id="Path_487" data-name="Path 487" class="cls-1" d="M102.583,258.215c1.9,1.9.659,6.347-2.885,9.891s-7.913,4.781-9.891,2.885c-1.484-1.484-1.072-4.286.659-7.171l1.649,1.649a2.24,2.24,0,0,0,3.215,0l1.649-1.649a2.24,2.24,0,0,0,0-3.215l-1.649-1.649C98.3,257.143,101.1,256.814,102.583,258.215Z" transform="translate(-87.509 -256)"/>
              <path id="Path_488" data-name="Path 488" class="cls-3" d="M91.983,273.012a4.659,4.659,0,0,1-3.462-1.319c-1.9-1.9-1.731-5.44.495-8.9a1.505,1.505,0,0,1,1.072-.659,1.211,1.211,0,0,1,1.154.412l1.649,1.649a.8.8,0,0,0,1.154,0l1.649-1.649a.8.8,0,0,0,0-1.154l-1.649-1.649a1.28,1.28,0,0,1-.412-1.154,1.832,1.832,0,0,1,.659-1.072c3.544-2.226,7.006-2.39,8.9-.495,1.319,1.319,1.649,3.38.989,5.77a14.9,14.9,0,0,1-3.874,6.182C97.753,271.529,94.538,273.012,91.983,273.012Zm-1.4-7.089c-.659,1.649-.742,3.05-.082,3.709.577.577,1.566.659,2.885.247a13.363,13.363,0,0,0,8.078-8.078c.412-1.319.33-2.39-.247-2.885-.659-.659-2.061-.577-3.709.082l.247.247a3.683,3.683,0,0,1,0,5.275L96.1,266.171a3.683,3.683,0,0,1-5.275,0Z" transform="translate(-87.213 -255.713)"/>
            </g>
          </g>
        </g>
        <g id="Group_172" data-name="Group 172">
          <path id="Path_489" data-name="Path 489" class="cls-1" d="M99.63,231.088a12.97,12.97,0,0,1,15.084-2.39l-8.737,8.737,5.688,5.688,8.737-8.737a12.993,12.993,0,0,1-17.475,17.475L81.66,273.127A12.993,12.993,0,0,1,64.185,290.6l8.737-8.737-5.688-5.688L58.5,284.914a12.95,12.95,0,0,1,2.39-15.084,13.1,13.1,0,0,1,15.084-2.39l21.267-21.266A12.97,12.97,0,0,1,99.63,231.088Z" transform="translate(-55.655 -225.855)"/>
          <path id="Path_490" data-name="Path 490" class="cls-3" d="M69.816,293.182a14.618,14.618,0,0,1-6.594-1.566,1.452,1.452,0,0,1-.742-1.072,1.361,1.361,0,0,1,.412-1.236l7.748-7.748-3.627-3.627-7.748,7.748a1.435,1.435,0,0,1-1.236.412,1.452,1.452,0,0,1-1.072-.742A14.473,14.473,0,0,1,75.421,265.4L95.2,245.621A14.361,14.361,0,0,1,98.336,229.8h0a14.4,14.4,0,0,1,16.815-2.638,1.452,1.452,0,0,1,.742,1.072,1.361,1.361,0,0,1-.412,1.236l-7.748,7.748,3.627,3.627,7.748-7.748a1.435,1.435,0,0,1,1.236-.412,1.452,1.452,0,0,1,1.072.742,14.473,14.473,0,0,1-18.464,19.948L83.17,273.152a14.361,14.361,0,0,1-3.132,15.826A14.767,14.767,0,0,1,69.816,293.182Zm-3.38-3.38A11.577,11.577,0,0,0,80.12,273.482a1.5,1.5,0,0,1,.247-1.649l21.266-21.266a1.382,1.382,0,0,1,1.649-.247A11.577,11.577,0,0,0,119.6,236.637l-7.171,7.171a1.443,1.443,0,0,1-2.061,0l-5.688-5.688a1.393,1.393,0,0,1,0-1.978l7.171-7.171a11.577,11.577,0,0,0-13.683,16.321,1.5,1.5,0,0,1-.247,1.649L76.658,268.207a1.382,1.382,0,0,1-1.649.247,11.577,11.577,0,0,0-16.321,13.683l7.171-7.171a1.443,1.443,0,0,1,2.061,0l5.688,5.688a1.443,1.443,0,0,1,0,2.061Z" transform="translate(-55.351 -225.551)"/>
        </g>
      </g>
    </g>
  </g>
</svg>
